<?xml version="1.0" encoding="UTF-8" standalone="no"?>
<!DOCTYPE svg PUBLIC "-//W3C//DTD SVG 1.1//EN"
 "http://www.w3.org/Graphics/SVG/1.1/DTD/svg11.dtd">
<!-- Generated by graphviz version 2.40.1 (20161225.0304)
 -->
<!-- Title: PersonnagesManager\__construct Pages: 1 -->
<svg width="273pt" height="37pt"
 viewBox="0.00 0.00 272.80 37.00" xmlns="http://www.w3.org/2000/svg" xmlns:xlink="http://www.w3.org/1999/xlink">
<g id="graph0" class="graph" transform="scale(1 1) rotate(0) translate(4 33)">
<title>PersonnagesManager\__construct</title>
<polygon fill="#ffffff" stroke="transparent" points="-4,4 -4,-33 268.7969,-33 268.7969,4 -4,4"/>
<!-- Node0 -->
<g id="node1" class="node">
<title>Node0</title>
<polygon fill="#bfbfbf" stroke="#000000" points="0,-.5 0,-28.5 114.3984,-28.5 114.3984,-.5 0,-.5"/>
<text text-anchor="start" x="8" y="-16.5" font-family="Helvetica,sans-Serif" font-size="10.00" fill="#000000">PersonnagesManager</text>
<text text-anchor="middle" x="57.1992" y="-6.5" font-family="Helvetica,sans-Serif" font-size="10.00" fill="#000000">\__construct</text>
</g>
<!-- Node1 -->
<g id="node2" class="node">
<title>Node1</title>
<g id="a_node2"><a xlink:href="class_personnages_manager.html#ad34d7d8f0716d1261437eff3eb7af7d0" target="_top" xlink:title="PersonnagesManager\l\\setDb">
<polygon fill="#ffffff" stroke="#000000" points="150.3984,-.5 150.3984,-28.5 264.7969,-28.5 264.7969,-.5 150.3984,-.5"/>
<text text-anchor="start" x="158.3984" y="-16.5" font-family="Helvetica,sans-Serif" font-size="10.00" fill="#000000">PersonnagesManager</text>
<text text-anchor="middle" x="207.5977" y="-6.5" font-family="Helvetica,sans-Serif" font-size="10.00" fill="#000000">\setDb</text>
</a>
</g>
</g>
<!-- Node0&#45;&gt;Node1 -->
<g id="edge1" class="edge">
<title>Node0&#45;&gt;Node1</title>
<path fill="none" stroke="#191970" d="M114.4875,-14.5C122.7498,-14.5 131.3185,-14.5 139.7621,-14.5"/>
<polygon fill="#191970" stroke="#191970" points="139.9705,-18.0001 149.9705,-14.5 139.9705,-11.0001 139.9705,-18.0001"/>
</g>
</g>
</svg>
