<?xml version="1.0" encoding="UTF-8" standalone="no"?>
<!DOCTYPE svg PUBLIC "-//W3C//DTD SVG 1.1//EN"
 "http://www.w3.org/Graphics/SVG/1.1/DTD/svg11.dtd">
<!-- Generated by graphviz version 2.40.1 (20161225.0304)
 -->
<!-- Title: Personnage\xp_max Pages: 1 -->
<svg width="429pt" height="101pt"
 viewBox="0.00 0.00 429.30 101.00" xmlns="http://www.w3.org/2000/svg" xmlns:xlink="http://www.w3.org/1999/xlink">
<g id="graph0" class="graph" transform="scale(1 1) rotate(0) translate(4 97)">
<title>Personnage\xp_max</title>
<polygon fill="#ffffff" stroke="transparent" points="-4,4 -4,-97 425.2988,-97 425.2988,4 -4,4"/>
<!-- Node196 -->
<g id="node1" class="node">
<title>Node196</title>
<polygon fill="#bfbfbf" stroke="#000000" points="0,-18.5 0,-36.5 107.7236,-36.5 107.7236,-18.5 0,-18.5"/>
<text text-anchor="middle" x="53.8618" y="-24.5" font-family="Helvetica,sans-Serif" font-size="10.00" fill="#000000">Personnage\xp_max</text>
</g>
<!-- Node197 -->
<g id="node2" class="node">
<title>Node197</title>
<g id="a_node2"><a xlink:href="class_personnage.html#aa64edf7d4c080193213b12643eb05a5d" target="_top" xlink:title="Personnage\\recevoirXP">
<polygon fill="#ffffff" stroke="#000000" points="144.2827,-37.5 144.2827,-55.5 265.8979,-55.5 265.8979,-37.5 144.2827,-37.5"/>
<text text-anchor="middle" x="205.0903" y="-43.5" font-family="Helvetica,sans-Serif" font-size="10.00" fill="#000000">Personnage\recevoirXP</text>
</a>
</g>
</g>
<!-- Node196&#45;&gt;Node197 -->
<g id="edge1" class="edge">
<title>Node196&#45;&gt;Node197</title>
<path fill="none" stroke="#191970" d="M118.0493,-35.5644C126.6862,-36.6495 135.5267,-37.7602 144.106,-38.8381"/>
<polygon fill="#191970" stroke="#191970" points="118.39,-32.0797 108.0316,-34.3058 117.5173,-39.0251 118.39,-32.0797"/>
</g>
<!-- Node201 -->
<g id="node6" class="node">
<title>Node201</title>
<g id="a_node6"><a xlink:href="class_personnage.html#a19b9b5a7408d7d8b707e278e24af358f" target="_top" xlink:title="Personnage\\setXp_max">
<polygon fill="#ffffff" stroke="#000000" points="143.7236,-.5 143.7236,-18.5 266.457,-18.5 266.457,-.5 143.7236,-.5"/>
<text text-anchor="middle" x="205.0903" y="-6.5" font-family="Helvetica,sans-Serif" font-size="10.00" fill="#000000">Personnage\setXp_max</text>
</a>
</g>
</g>
<!-- Node196&#45;&gt;Node201 -->
<g id="edge5" class="edge">
<title>Node196&#45;&gt;Node201</title>
<path fill="none" stroke="#191970" d="M118.1799,-19.8445C126.6011,-18.8422 135.2136,-17.8171 143.5867,-16.8205"/>
<polygon fill="#191970" stroke="#191970" points="117.5478,-16.395 108.0316,-21.0524 118.3752,-23.3459 117.5478,-16.395"/>
</g>
<!-- Node198 -->
<g id="node3" class="node">
<title>Node198</title>
<g id="a_node3"><a xlink:href="class_att__soi.html#a7da2d15a0bedd2880e7491f72b430bf0" target="_top" xlink:title="Att_soi\\lancerUnSoin">
<polygon fill="#ffffff" stroke="#000000" points="307.186,-74.5 307.186,-92.5 416.5698,-92.5 416.5698,-74.5 307.186,-74.5"/>
<text text-anchor="middle" x="361.8779" y="-80.5" font-family="Helvetica,sans-Serif" font-size="10.00" fill="#000000">Att_soi\lancerUnSoin</text>
</a>
</g>
</g>
<!-- Node197&#45;&gt;Node198 -->
<g id="edge2" class="edge">
<title>Node197&#45;&gt;Node198</title>
<path fill="none" stroke="#191970" d="M253.1977,-57.8528C275.8231,-63.1921 302.4256,-69.47 323.6479,-74.4782"/>
<polygon fill="#191970" stroke="#191970" points="253.9815,-54.4417 243.4449,-55.5512 252.3737,-61.2545 253.9815,-54.4417"/>
</g>
<!-- Node199 -->
<g id="node4" class="node">
<title>Node199</title>
<g id="a_node4"><a xlink:href="class_personnage.html#a1deaeddff5bc8766d52da4fc2d0b8032" target="_top" xlink:title="Fonction pour frapper. ">
<polygon fill="#ffffff" stroke="#000000" points="309.6812,-37.5 309.6812,-55.5 414.0747,-55.5 414.0747,-37.5 309.6812,-37.5"/>
<text text-anchor="middle" x="361.8779" y="-43.5" font-family="Helvetica,sans-Serif" font-size="10.00" fill="#000000">Personnage\frapper</text>
</a>
</g>
</g>
<!-- Node197&#45;&gt;Node199 -->
<g id="edge3" class="edge">
<title>Node197&#45;&gt;Node199</title>
<path fill="none" stroke="#191970" d="M276.3618,-46.5C287.5619,-46.5 298.9575,-46.5 309.624,-46.5"/>
<polygon fill="#191970" stroke="#191970" points="276.1575,-43.0001 266.1575,-46.5 276.1574,-50.0001 276.1575,-43.0001"/>
</g>
<!-- Node200 -->
<g id="node5" class="node">
<title>Node200</title>
<g id="a_node5"><a xlink:href="class_soigneur.html#ac68dd65c897e55dc77d354e79e79a52c" target="_top" xlink:title="Soigneur\\lancerUnSoin">
<polygon fill="#ffffff" stroke="#000000" points="302.457,-.5 302.457,-18.5 421.2988,-18.5 421.2988,-.5 302.457,-.5"/>
<text text-anchor="middle" x="361.8779" y="-6.5" font-family="Helvetica,sans-Serif" font-size="10.00" fill="#000000">Soigneur\lancerUnSoin</text>
</a>
</g>
</g>
<!-- Node197&#45;&gt;Node200 -->
<g id="edge4" class="edge">
<title>Node197&#45;&gt;Node200</title>
<path fill="none" stroke="#191970" d="M253.1977,-35.1472C275.8231,-29.8079 302.4256,-23.53 323.6479,-18.5218"/>
<polygon fill="#191970" stroke="#191970" points="252.3737,-31.7455 243.4449,-37.4488 253.9815,-38.5583 252.3737,-31.7455"/>
</g>
</g>
</svg>
