<?xml version="1.0" encoding="UTF-8" standalone="no"?>
<!DOCTYPE svg PUBLIC "-//W3C//DTD SVG 1.1//EN"
 "http://www.w3.org/Graphics/SVG/1.1/DTD/svg11.dtd">
<!-- Generated by graphviz version 2.40.1 (20161225.0304)
 -->
<!-- Title: Soigneur\lancerUnSoin Pages: 1 -->
<!--zoomable 140 -->
<svg id="main" version="1.1" xmlns="http://www.w3.org/2000/svg" xmlns:xlink="http://www.w3.org/1999/xlink" xml:space="preserve" onload="init(evt)">
<style type="text/css"><![CDATA[
.edge:hover path { stroke: red; }
.edge:hover polygon { stroke: red; fill: red; }
]]></style>
<script type="text/javascript"><![CDATA[
var edges = document.getElementsByTagName('g');
if (edges && edges.length) {
  for (var i=0;i<edges.length;i++) {
    if (edges[i].id.substr(0,4)=='edge') {
      edges[i].setAttribute('class','edge');
    }
  }
}
]]></script>
        <defs>
                <circle id="rim" cx="0" cy="0" r="7"/>
                <circle id="rim2" cx="0" cy="0" r="3.5"/>
                <g id="zoomPlus">
                        <use xlink:href="#rim" fill="#404040">
                                <set attributeName="fill" to="#808080" begin="zoomplus.mouseover" end="zoomplus.mouseout"/>
                        </use>
                        <path d="M-4,0h8M0,-4v8" fill="none" stroke="white" stroke-width="1.5" pointer-events="none"/>
                </g>
                <g id="zoomMin">
                        <use xlink:href="#rim" fill="#404040">
                                <set attributeName="fill" to="#808080" begin="zoomminus.mouseover" end="zoomminus.mouseout"/>
                        </use>
                        <path d="M-4,0h8" fill="none" stroke="white" stroke-width="1.5" pointer-events="none"/>
                </g>
                <g id="dirArrow">
                        <path fill="none" stroke="white" stroke-width="1.5" d="M0,-3.0v7 M-2.5,-0.5L0,-3.0L2.5,-0.5"/>
                </g>
               <g id="resetDef">
                       <use xlink:href="#rim2" fill="#404040">
                               <set attributeName="fill" to="#808080" begin="reset.mouseover" end="reset.mouseout"/>
                       </use>
               </g>
        </defs>

<script type="text/javascript">
var viewWidth = 609;
var viewHeight = 140;
var sectionId = 'dynsection-1';
</script>
<script xlink:href="svgpan.js"/>
<svg id="graph" class="graph">
<g id="viewport">
<title>Soigneur\lancerUnSoin</title>
<polygon fill="#ffffff" stroke="transparent" points="-4,4 -4,-136 604.5791,-136 604.5791,4 -4,4"/>
<!-- Node0 -->
<g id="node1" class="node">
<title>Node0</title>
<polygon fill="#bfbfbf" stroke="#000000" points="0,-75.5 0,-93.5 118.8418,-93.5 118.8418,-75.5 0,-75.5"/>
<text text-anchor="middle" x="59.4209" y="-81.5" font-family="Helvetica,sans-Serif" font-size="10.00" fill="#000000">Soigneur\lancerUnSoin</text>
</g>
<!-- Node1 -->
<g id="node2" class="node">
<title>Node1</title>
<g id="a_node2"><a xlink:href="class_personnage.html#a1219171b9ddba0fecfa49995d7d71372" target="_top" xlink:title="Personnage\\soigner">
<polygon fill="#ffffff" stroke="#000000" points="162.896,-113.5 162.896,-131.5 268.4028,-131.5 268.4028,-113.5 162.896,-113.5"/>
<text text-anchor="middle" x="215.6494" y="-119.5" font-family="Helvetica,sans-Serif" font-size="10.00" fill="#000000">Personnage\soigner</text>
</a>
</g>
</g>
<!-- Node0&#45;&gt;Node1 -->
<g id="edge1" class="edge">
<title>Node0&#45;&gt;Node1</title>
<path fill="none" stroke="#191970" d="M96.4449,-93.5055C118.0601,-98.763 145.5434,-105.4479 168.6721,-111.0735"/>
<polygon fill="#191970" stroke="#191970" points="168.0769,-114.5307 178.6208,-113.4934 169.7313,-107.7291 168.0769,-114.5307"/>
</g>
<!-- Node2 -->
<g id="node3" class="node">
<title>Node2</title>
<g id="a_node3"><a xlink:href="class_personnage.html#aabf0bcd80fcea089de16f33c029aae12" target="_top" xlink:title="Personnage\\estEndormi">
<polygon fill="#ffffff" stroke="#000000" points="312.457,-112.5 312.457,-130.5 435.7422,-130.5 435.7422,-112.5 312.457,-112.5"/>
<text text-anchor="middle" x="374.0996" y="-118.5" font-family="Helvetica,sans-Serif" font-size="10.00" fill="#000000">Personnage\estEndormi</text>
</a>
</g>
</g>
<!-- Node0&#45;&gt;Node2 -->
<g id="edge4" class="edge">
<title>Node0&#45;&gt;Node2</title>
<path fill="none" stroke="#191970" d="M118.9816,-88.6903C162.6709,-92.0794 223.3808,-97.4457 276.457,-104.5 289.5055,-106.2343 303.4748,-108.4501 316.6494,-110.7048"/>
<polygon fill="#191970" stroke="#191970" points="316.0882,-114.1597 326.5407,-112.4293 317.2905,-107.2637 316.0882,-114.1597"/>
</g>
<!-- Node4 -->
<g id="node5" class="node">
<title>Node4</title>
<g id="a_node5"><a xlink:href="class_personnage.html#aa64edf7d4c080193213b12643eb05a5d" target="_top" xlink:title="Personnage\\recevoirXP">
<polygon fill="#ffffff" stroke="#000000" points="154.8418,-37.5 154.8418,-55.5 276.457,-55.5 276.457,-37.5 154.8418,-37.5"/>
<text text-anchor="middle" x="215.6494" y="-43.5" font-family="Helvetica,sans-Serif" font-size="10.00" fill="#000000">Personnage\recevoirXP</text>
</a>
</g>
</g>
<!-- Node0&#45;&gt;Node4 -->
<g id="edge5" class="edge">
<title>Node0&#45;&gt;Node4</title>
<path fill="none" stroke="#191970" d="M96.4449,-75.4945C118.0601,-70.237 145.5434,-63.5521 168.6721,-57.9265"/>
<polygon fill="#191970" stroke="#191970" points="169.7313,-61.2709 178.6208,-55.5066 168.0769,-54.4693 169.7313,-61.2709"/>
</g>
<!-- Node1&#45;&gt;Node2 -->
<g id="edge2" class="edge">
<title>Node1&#45;&gt;Node2</title>
<path fill="none" stroke="#191970" d="M268.411,-122.167C279.1635,-122.0992 290.6507,-122.0267 301.9448,-121.9554"/>
<polygon fill="#191970" stroke="#191970" points="302.2582,-125.4536 312.2359,-121.8904 302.214,-118.4537 302.2582,-125.4536"/>
</g>
<!-- Node3 -->
<g id="node4" class="node">
<title>Node3</title>
<g id="a_node4"><a xlink:href="class_personnage.html#a5fbe8f1f41e05e856ec6390bfb3e4f03" target="_top" xlink:title="Personnage\\timeEndormi">
<polygon fill="#ffffff" stroke="#000000" points="471.7422,-112.5 471.7422,-130.5 600.5791,-130.5 600.5791,-112.5 471.7422,-112.5"/>
<text text-anchor="middle" x="536.1606" y="-118.5" font-family="Helvetica,sans-Serif" font-size="10.00" fill="#000000">Personnage\timeEndormi</text>
</a>
</g>
</g>
<!-- Node2&#45;&gt;Node3 -->
<g id="edge3" class="edge">
<title>Node2&#45;&gt;Node3</title>
<path fill="none" stroke="#191970" d="M435.8302,-121.5C444.2525,-121.5 452.9702,-121.5 461.5897,-121.5"/>
<polygon fill="#191970" stroke="#191970" points="461.6397,-125.0001 471.6396,-121.5 461.6396,-118.0001 461.6397,-125.0001"/>
</g>
<!-- Node5 -->
<g id="node6" class="node">
<title>Node5</title>
<g id="a_node6"><a xlink:href="class_personnage.html#a60b2a6a44bc71517c063d87c062e0b87" target="_top" xlink:title="Personnage\\xp">
<polygon fill="#ffffff" stroke="#000000" points="332.4644,-74.5 332.4644,-92.5 415.7349,-92.5 415.7349,-74.5 332.4644,-74.5"/>
<text text-anchor="middle" x="374.0996" y="-80.5" font-family="Helvetica,sans-Serif" font-size="10.00" fill="#000000">Personnage\xp</text>
</a>
</g>
</g>
<!-- Node4&#45;&gt;Node5 -->
<g id="edge6" class="edge">
<title>Node4&#45;&gt;Node5</title>
<path fill="none" stroke="#191970" d="M254.4107,-55.5512C275.8793,-60.5644 302.7667,-66.8429 325.6162,-72.1785"/>
<polygon fill="#191970" stroke="#191970" points="324.9303,-75.6125 335.4642,-74.4782 326.5221,-68.7958 324.9303,-75.6125"/>
</g>
<!-- Node6 -->
<g id="node7" class="node">
<title>Node6</title>
<g id="a_node7"><a xlink:href="class_personnage.html#aa5bc9f2bda281400fedbc1af1c19357d" target="_top" xlink:title="Personnage\\xp_max">
<polygon fill="#ffffff" stroke="#000000" points="320.2378,-37.5 320.2378,-55.5 427.9614,-55.5 427.9614,-37.5 320.2378,-37.5"/>
<text text-anchor="middle" x="374.0996" y="-43.5" font-family="Helvetica,sans-Serif" font-size="10.00" fill="#000000">Personnage\xp_max</text>
</a>
</g>
</g>
<!-- Node4&#45;&gt;Node6 -->
<g id="edge7" class="edge">
<title>Node4&#45;&gt;Node6</title>
<path fill="none" stroke="#191970" d="M276.4572,-46.5C287.4823,-46.5 299.0111,-46.5 310.1238,-46.5"/>
<polygon fill="#191970" stroke="#191970" points="310.1861,-50.0001 320.1861,-46.5 310.1861,-43.0001 310.1861,-50.0001"/>
</g>
<!-- Node7 -->
<g id="node8" class="node">
<title>Node7</title>
<g id="a_node8"><a xlink:href="class_personnage.html#a061130b0c1c551d893ecffff2553cb93" target="_top" xlink:title="Personnage\\niveau">
<polygon fill="#ffffff" stroke="#000000" points="323.0112,-.5 323.0112,-18.5 425.188,-18.5 425.188,-.5 323.0112,-.5"/>
<text text-anchor="middle" x="374.0996" y="-6.5" font-family="Helvetica,sans-Serif" font-size="10.00" fill="#000000">Personnage\niveau</text>
</a>
</g>
</g>
<!-- Node4&#45;&gt;Node7 -->
<g id="edge8" class="edge">
<title>Node4&#45;&gt;Node7</title>
<path fill="none" stroke="#191970" d="M254.4107,-37.4488C275.8793,-32.4356 302.7667,-26.1571 325.6162,-20.8215"/>
<polygon fill="#191970" stroke="#191970" points="326.5221,-24.2042 335.4642,-18.5218 324.9303,-17.3875 326.5221,-24.2042"/>
</g>
</g>
</svg>
        <g id="navigator" transform="translate(0 0)" fill="#404254">
                <rect fill="#f2f5e9" fill-opacity="0.5" stroke="#606060" stroke-width=".5" x="0" y="0" width="60" height="60"/>
                <use id="zoomplus" xlink:href="#zoomPlus" x="17" y="9" onmousedown="handleZoom(evt,'in')"/>
                <use id="zoomminus" xlink:href="#zoomMin" x="42" y="9" onmousedown="handleZoom(evt,'out')"/>
                <use id="reset" xlink:href="#resetDef" x="30" y="36" onmousedown="handleReset()"/>
                <g id="arrowUp" xlink:href="#dirArrow" transform="translate(30 24)" onmousedown="handlePan(0,-1)">
                  <use xlink:href="#rim" fill="#404040">
                        <set attributeName="fill" to="#808080" begin="arrowUp.mouseover" end="arrowUp.mouseout"/>
                  </use>
                  <path fill="none" stroke="white" stroke-width="1.5" d="M0,-3.0v7 M-2.5,-0.5L0,-3.0L2.5,-0.5"/>
                </g>
                <g id="arrowRight" xlink:href="#dirArrow" transform="rotate(90) translate(36 -43)" onmousedown="handlePan(1,0)">
                  <use xlink:href="#rim" fill="#404040">
                        <set attributeName="fill" to="#808080" begin="arrowRight.mouseover" end="arrowRight.mouseout"/>
                  </use>
                  <path fill="none" stroke="white" stroke-width="1.5" d="M0,-3.0v7 M-2.5,-0.5L0,-3.0L2.5,-0.5"/>
                </g>
                <g id="arrowDown" xlink:href="#dirArrow" transform="rotate(180) translate(-30 -48)" onmousedown="handlePan(0,1)">
                  <use xlink:href="#rim" fill="#404040">
                        <set attributeName="fill" to="#808080" begin="arrowDown.mouseover" end="arrowDown.mouseout"/>
                  </use>
                  <path fill="none" stroke="white" stroke-width="1.5" d="M0,-3.0v7 M-2.5,-0.5L0,-3.0L2.5,-0.5"/>
                </g>
                <g id="arrowLeft" xlink:href="#dirArrow" transform="rotate(270) translate(-36 17)" onmousedown="handlePan(-1,0)">
                  <use xlink:href="#rim" fill="#404040">
                        <set attributeName="fill" to="#808080" begin="arrowLeft.mouseover" end="arrowLeft.mouseout"/>
                  </use>
                  <path fill="none" stroke="white" stroke-width="1.5" d="M0,-3.0v7 M-2.5,-0.5L0,-3.0L2.5,-0.5"/>
                </g>
        </g>
        <svg viewBox="0 0 15 15" width="100%" height="30px" preserveAspectRatio="xMaxYMin meet">
         <g id="arrow_out" transform="scale(0.3 0.3)">
          <a xlink:href="class_soigneur_ac68dd65c897e55dc77d354e79e79a52c_cgraph_org.svg" target="_base">
           <rect id="button" ry="5" rx="5" y="6" x="6" height="38" width="38"
                fill="#f2f5e9" fill-opacity="0.5" stroke="#606060" stroke-width="1.0"/>
           <path id="arrow"
             d="M 11.500037,31.436501 C 11.940474,20.09759 22.043105,11.32322 32.158766,21.979434 L 37.068811,17.246167 C 37.068811,17.246167 37.088388,32 37.088388,32 L 22.160133,31.978069 C 22.160133,31.978069 26.997745,27.140456 26.997745,27.140456 C 18.528582,18.264221 13.291696,25.230495 11.500037,31.436501 z"
             style="fill:#404040;"/>
          </a>
         </g>
        </svg>
</svg>
