<?xml version="1.0" encoding="UTF-8" standalone="no"?>
<!DOCTYPE svg PUBLIC "-//W3C//DTD SVG 1.1//EN"
 "http://www.w3.org/Graphics/SVG/1.1/DTD/svg11.dtd">
<!-- Generated by graphviz version 2.40.1 (20161225.0304)
 -->
<!-- Title: Personnage\atout Pages: 1 -->
<svg width="279pt" height="64pt"
 viewBox="0.00 0.00 278.92 64.00" xmlns="http://www.w3.org/2000/svg" xmlns:xlink="http://www.w3.org/1999/xlink">
<g id="graph0" class="graph" transform="scale(1 1) rotate(0) translate(4 60)">
<title>Personnage\atout</title>
<polygon fill="#ffffff" stroke="transparent" points="-4,4 -4,-60 274.915,-60 274.915,4 -4,4"/>
<!-- Node7 -->
<g id="node1" class="node">
<title>Node7</title>
<polygon fill="#bfbfbf" stroke="#000000" points="0,-18.5 0,-36.5 94.9502,-36.5 94.9502,-18.5 0,-18.5"/>
<text text-anchor="middle" x="47.4751" y="-24.5" font-family="Helvetica,sans-Serif" font-size="10.00" fill="#000000">Personnage\atout</text>
</g>
<!-- Node8 -->
<g id="node2" class="node">
<title>Node8</title>
<g id="a_node2"><a xlink:href="class_personnage.html#a744674b144008a43e37036344accb378" target="_top" xlink:title="Personnage\\incrementAtout">
<polygon fill="#ffffff" stroke="#000000" points="130.9502,-37.5 130.9502,-55.5 270.915,-55.5 270.915,-37.5 130.9502,-37.5"/>
<text text-anchor="middle" x="200.9326" y="-43.5" font-family="Helvetica,sans-Serif" font-size="10.00" fill="#000000">Personnage\incrementAtout</text>
</a>
</g>
</g>
<!-- Node7&#45;&gt;Node8 -->
<g id="edge1" class="edge">
<title>Node7&#45;&gt;Node8</title>
<path fill="none" stroke="#191970" d="M105.1714,-34.6435C113.509,-35.6758 122.1667,-36.7478 130.7158,-37.8063"/>
<polygon fill="#191970" stroke="#191970" points="105.5431,-31.1629 95.1888,-33.4076 104.683,-38.1099 105.5431,-31.1629"/>
</g>
<!-- Node9 -->
<g id="node3" class="node">
<title>Node9</title>
<g id="a_node3"><a xlink:href="class_personnage.html#a3ba4e51f81e8d865675c1514332c0ac5" target="_top" xlink:title="Personnage\\setAtout">
<polygon fill="#ffffff" stroke="#000000" points="146.2334,-.5 146.2334,-18.5 255.6318,-18.5 255.6318,-.5 146.2334,-.5"/>
<text text-anchor="middle" x="200.9326" y="-6.5" font-family="Helvetica,sans-Serif" font-size="10.00" fill="#000000">Personnage\setAtout</text>
</a>
</g>
</g>
<!-- Node7&#45;&gt;Node9 -->
<g id="edge2" class="edge">
<title>Node7&#45;&gt;Node9</title>
<path fill="none" stroke="#191970" d="M105.2186,-20.7269C118.5817,-19.1595 132.7646,-17.4959 146.0033,-15.943"/>
<polygon fill="#191970" stroke="#191970" points="104.713,-17.2621 95.1888,-21.9034 105.5285,-24.2145 104.713,-17.2621"/>
</g>
</g>
</svg>
