<?xml version="1.0" encoding="UTF-8" standalone="no"?>
<!DOCTYPE svg PUBLIC "-//W3C//DTD SVG 1.1//EN"
 "http://www.w3.org/Graphics/SVG/1.1/DTD/svg11.dtd">
<!-- Generated by graphviz version 2.40.1 (20161225.0304)
 -->
<!-- Title: Base_personnage\setId_persos Pages: 1 -->
<svg width="273pt" height="37pt"
 viewBox="0.00 0.00 273.37 37.00" xmlns="http://www.w3.org/2000/svg" xmlns:xlink="http://www.w3.org/1999/xlink">
<g id="graph0" class="graph" transform="scale(1 1) rotate(0) translate(4 33)">
<title>Base_personnage\setId_persos</title>
<polygon fill="#ffffff" stroke="transparent" points="-4,4 -4,-33 269.373,-33 269.373,4 -4,4"/>
<!-- Node28 -->
<g id="node1" class="node">
<title>Node28</title>
<polygon fill="#bfbfbf" stroke="#000000" points="0,-.5 0,-28.5 121.6348,-28.5 121.6348,-.5 0,-.5"/>
<text text-anchor="start" x="8" y="-16.5" font-family="Helvetica,sans-Serif" font-size="10.00" fill="#000000">Base_personnage\setId</text>
<text text-anchor="middle" x="60.8174" y="-6.5" font-family="Helvetica,sans-Serif" font-size="10.00" fill="#000000">_persos</text>
</g>
<!-- Node29 -->
<g id="node2" class="node">
<title>Node29</title>
<g id="a_node2"><a xlink:href="class_base__personnage.html#ab840c279a1234075b5598b6bc48c0288" target="_top" xlink:title="Base_personnage\\id\l_persos">
<polygon fill="#ffffff" stroke="#000000" points="157.6348,-.5 157.6348,-28.5 265.373,-28.5 265.373,-.5 157.6348,-.5"/>
<text text-anchor="start" x="165.6348" y="-16.5" font-family="Helvetica,sans-Serif" font-size="10.00" fill="#000000">Base_personnage\id</text>
<text text-anchor="middle" x="211.5039" y="-6.5" font-family="Helvetica,sans-Serif" font-size="10.00" fill="#000000">_persos</text>
</a>
</g>
</g>
<!-- Node28&#45;&gt;Node29 -->
<g id="edge1" class="edge">
<title>Node28&#45;&gt;Node29</title>
<path fill="none" stroke="#191970" d="M121.673,-14.5C130.0352,-14.5 138.6448,-14.5 147.0685,-14.5"/>
<polygon fill="#191970" stroke="#191970" points="147.2224,-18.0001 157.2224,-14.5 147.2223,-11.0001 147.2224,-18.0001"/>
</g>
</g>
</svg>
