<?xml version="1.0" encoding="UTF-8" standalone="no"?>
<!DOCTYPE svg PUBLIC "-//W3C//DTD SVG 1.1//EN"
 "http://www.w3.org/Graphics/SVG/1.1/DTD/svg11.dtd">
<!-- Generated by graphviz version 2.40.1 (20161225.0304)
 -->
<!-- Title: User\argent Pages: 1 -->
<svg width="211pt" height="64pt"
 viewBox="0.00 0.00 211.07 64.00" xmlns="http://www.w3.org/2000/svg" xmlns:xlink="http://www.w3.org/1999/xlink">
<g id="graph0" class="graph" transform="scale(1 1) rotate(0) translate(4 60)">
<title>User\argent</title>
<polygon fill="#ffffff" stroke="transparent" points="-4,4 -4,-60 207.0684,-60 207.0684,4 -4,4"/>
<!-- Node4 -->
<g id="node1" class="node">
<title>Node4</title>
<polygon fill="#bfbfbf" stroke="#000000" points="0,-18.5 0,-36.5 68.2461,-36.5 68.2461,-18.5 0,-18.5"/>
<text text-anchor="middle" x="34.123" y="-24.5" font-family="Helvetica,sans-Serif" font-size="10.00" fill="#000000">User\argent</text>
</g>
<!-- Node5 -->
<g id="node2" class="node">
<title>Node5</title>
<g id="a_node2"><a xlink:href="class_user.html#ad1c97f448cd6d5258f4b1ab9f36172ed" target="_top" xlink:title="User\\payer_argent">
<polygon fill="#ffffff" stroke="#000000" points="104.2461,-37.5 104.2461,-55.5 203.0684,-55.5 203.0684,-37.5 104.2461,-37.5"/>
<text text-anchor="middle" x="153.6572" y="-43.5" font-family="Helvetica,sans-Serif" font-size="10.00" fill="#000000">User\payer_argent</text>
</a>
</g>
</g>
<!-- Node4&#45;&gt;Node5 -->
<g id="edge1" class="edge">
<title>Node4&#45;&gt;Node5</title>
<path fill="none" stroke="#191970" d="M78.2596,-34.5155C86.5774,-35.8376 95.3296,-37.2288 103.8079,-38.5764"/>
<polygon fill="#191970" stroke="#191970" points="78.8022,-31.0579 68.3767,-32.9446 77.7033,-37.9711 78.8022,-31.0579"/>
</g>
<!-- Node6 -->
<g id="node3" class="node">
<title>Node6</title>
<g id="a_node3"><a xlink:href="class_user.html#a1ec02d8692a7b6ae5e191f83c8e81659" target="_top" xlink:title="User\\setArgent">
<polygon fill="#ffffff" stroke="#000000" points="112.3101,-.5 112.3101,-18.5 195.0044,-18.5 195.0044,-.5 112.3101,-.5"/>
<text text-anchor="middle" x="153.6572" y="-6.5" font-family="Helvetica,sans-Serif" font-size="10.00" fill="#000000">User\setArgent</text>
</a>
</g>
</g>
<!-- Node4&#45;&gt;Node6 -->
<g id="edge2" class="edge">
<title>Node4&#45;&gt;Node6</title>
<path fill="none" stroke="#191970" d="M78.2939,-20.8486C89.3805,-19.1791 101.237,-17.3937 112.1867,-15.7448"/>
<polygon fill="#191970" stroke="#191970" points="77.7441,-17.3918 68.3767,-22.3419 78.7865,-24.3138 77.7441,-17.3918"/>
</g>
</g>
</svg>
