<?xml version="1.0" encoding="UTF-8" standalone="no"?>
<!DOCTYPE svg PUBLIC "-//W3C//DTD SVG 1.1//EN"
 "http://www.w3.org/Graphics/SVG/1.1/DTD/svg11.dtd">
<!-- Generated by graphviz version 2.40.1 (20161225.0304)
 -->
<!-- Title: Stuff\atr_2 Pages: 1 -->
<svg width="182pt" height="64pt"
 viewBox="0.00 0.00 182.37 64.00" xmlns="http://www.w3.org/2000/svg" xmlns:xlink="http://www.w3.org/1999/xlink">
<g id="graph0" class="graph" transform="scale(1 1) rotate(0) translate(4 60)">
<title>Stuff\atr_2</title>
<polygon fill="#ffffff" stroke="transparent" points="-4,4 -4,-60 178.3721,-60 178.3721,4 -4,4"/>
<!-- Node8 -->
<g id="node1" class="node">
<title>Node8</title>
<polygon fill="#bfbfbf" stroke="#000000" points="0,-18.5 0,-36.5 61.9619,-36.5 61.9619,-18.5 0,-18.5"/>
<text text-anchor="middle" x="30.981" y="-24.5" font-family="Helvetica,sans-Serif" font-size="10.00" fill="#000000">Stuff\atr_2</text>
</g>
<!-- Node9 -->
<g id="node2" class="node">
<title>Node9</title>
<g id="a_node2"><a xlink:href="class_stuff.html#a58df203bb30ef856eab931a8b363ee69" target="_top" xlink:title="Stuff\\lvlUp">
<polygon fill="#ffffff" stroke="#000000" points="105.4692,-37.5 105.4692,-55.5 166.8647,-55.5 166.8647,-37.5 105.4692,-37.5"/>
<text text-anchor="middle" x="136.167" y="-43.5" font-family="Helvetica,sans-Serif" font-size="10.00" fill="#000000">Stuff\lvlUp</text>
</a>
</g>
</g>
<!-- Node8&#45;&gt;Node9 -->
<g id="edge1" class="edge">
<title>Node8&#45;&gt;Node9</title>
<path fill="none" stroke="#191970" d="M71.9297,-34.8967C83.0643,-36.9079 94.9321,-39.0516 105.3981,-40.9421"/>
<polygon fill="#191970" stroke="#191970" points="72.4342,-31.4312 61.9713,-33.0979 71.1899,-38.3198 72.4342,-31.4312"/>
</g>
<!-- Node10 -->
<g id="node3" class="node">
<title>Node10</title>
<g id="a_node3"><a xlink:href="class_stuff.html#acdb2a46068bf1f19aca527a971667cbe" target="_top" xlink:title="Stuff\\setAtr_2">
<polygon fill="#ffffff" stroke="#000000" points="97.9619,-.5 97.9619,-18.5 174.3721,-18.5 174.3721,-.5 97.9619,-.5"/>
<text text-anchor="middle" x="136.167" y="-6.5" font-family="Helvetica,sans-Serif" font-size="10.00" fill="#000000">Stuff\setAtr_2</text>
</a>
</g>
</g>
<!-- Node8&#45;&gt;Node10 -->
<g id="edge2" class="edge">
<title>Node8&#45;&gt;Node10</title>
<path fill="none" stroke="#191970" d="M72.0835,-20.4663C80.598,-19.0093 89.5349,-17.4799 97.9414,-16.0414"/>
<polygon fill="#191970" stroke="#191970" points="71.2377,-17.0601 61.9713,-22.1968 72.4184,-23.9598 71.2377,-17.0601"/>
</g>
</g>
</svg>
