<?xml version="1.0" encoding="UTF-8" standalone="no"?>
<!DOCTYPE svg PUBLIC "-//W3C//DTD SVG 1.1//EN"
 "http://www.w3.org/Graphics/SVG/1.1/DTD/svg11.dtd">
<!-- Generated by graphviz version 2.40.1 (20161225.0304)
 -->
<!-- Title: Personnage\niveau Pages: 1 -->
<svg width="423pt" height="101pt"
 viewBox="0.00 0.00 422.63 101.00" xmlns="http://www.w3.org/2000/svg" xmlns:xlink="http://www.w3.org/1999/xlink">
<g id="graph0" class="graph" transform="scale(1 1) rotate(0) translate(4 97)">
<title>Personnage\niveau</title>
<polygon fill="#ffffff" stroke="transparent" points="-4,4 -4,-97 418.6338,-97 418.6338,4 -4,4"/>
<!-- Node62 -->
<g id="node1" class="node">
<title>Node62</title>
<polygon fill="#bfbfbf" stroke="#000000" points="0,-18.5 0,-36.5 102.1768,-36.5 102.1768,-18.5 0,-18.5"/>
<text text-anchor="middle" x="51.0884" y="-24.5" font-family="Helvetica,sans-Serif" font-size="10.00" fill="#000000">Personnage\niveau</text>
</g>
<!-- Node63 -->
<g id="node2" class="node">
<title>Node63</title>
<g id="a_node2"><a xlink:href="class_personnage.html#aa64edf7d4c080193213b12643eb05a5d" target="_top" xlink:title="Personnage\\recevoirXP">
<polygon fill="#ffffff" stroke="#000000" points="138.1768,-37.5 138.1768,-55.5 259.792,-55.5 259.792,-37.5 138.1768,-37.5"/>
<text text-anchor="middle" x="198.9844" y="-43.5" font-family="Helvetica,sans-Serif" font-size="10.00" fill="#000000">Personnage\recevoirXP</text>
</a>
</g>
</g>
<!-- Node62&#45;&gt;Node63 -->
<g id="edge1" class="edge">
<title>Node62&#45;&gt;Node63</title>
<path fill="none" stroke="#191970" d="M112.5567,-35.3967C120.9992,-36.4814 129.6653,-37.5947 138.0974,-38.6779"/>
<polygon fill="#191970" stroke="#191970" points="112.7646,-31.8948 102.4002,-34.092 111.8726,-38.8377 112.7646,-31.8948"/>
</g>
<!-- Node67 -->
<g id="node6" class="node">
<title>Node67</title>
<g id="a_node6"><a xlink:href="class_personnage.html#a309bc50e0ac35a942d8ffceb5a4556a9" target="_top" xlink:title="Personnage\\setNiveau">
<polygon fill="#ffffff" stroke="#000000" points="140.396,-.5 140.396,-18.5 257.5728,-18.5 257.5728,-.5 140.396,-.5"/>
<text text-anchor="middle" x="198.9844" y="-6.5" font-family="Helvetica,sans-Serif" font-size="10.00" fill="#000000">Personnage\setNiveau</text>
</a>
</g>
</g>
<!-- Node62&#45;&gt;Node67 -->
<g id="edge5" class="edge">
<title>Node62&#45;&gt;Node67</title>
<path fill="none" stroke="#191970" d="M112.5647,-20.0179C121.6932,-18.9069 131.0828,-17.7641 140.1552,-16.6599"/>
<polygon fill="#191970" stroke="#191970" points="111.904,-16.5724 102.4002,-21.255 112.7498,-23.5211 111.904,-16.5724"/>
</g>
<!-- Node64 -->
<g id="node3" class="node">
<title>Node64</title>
<g id="a_node3"><a xlink:href="class_att__soi.html#a7da2d15a0bedd2880e7491f72b430bf0" target="_top" xlink:title="Att_soi\\lancerUnSoin">
<polygon fill="#ffffff" stroke="#000000" points="300.521,-74.5 300.521,-92.5 409.9048,-92.5 409.9048,-74.5 300.521,-74.5"/>
<text text-anchor="middle" x="355.2129" y="-80.5" font-family="Helvetica,sans-Serif" font-size="10.00" fill="#000000">Att_soi\lancerUnSoin</text>
</a>
</g>
</g>
<!-- Node63&#45;&gt;Node64 -->
<g id="edge2" class="edge">
<title>Node63&#45;&gt;Node64</title>
<path fill="none" stroke="#191970" d="M247.2237,-57.9247C269.7025,-63.2484 296.0674,-69.4924 317.1192,-74.4782"/>
<polygon fill="#191970" stroke="#191970" points="247.7396,-54.4501 237.2022,-55.5512 246.1264,-61.2617 247.7396,-54.4501"/>
</g>
<!-- Node65 -->
<g id="node4" class="node">
<title>Node65</title>
<g id="a_node4"><a xlink:href="class_personnage.html#a1deaeddff5bc8766d52da4fc2d0b8032" target="_top" xlink:title="Fonction pour frapper. ">
<polygon fill="#ffffff" stroke="#000000" points="303.0161,-37.5 303.0161,-55.5 407.4097,-55.5 407.4097,-37.5 303.0161,-37.5"/>
<text text-anchor="middle" x="355.2129" y="-43.5" font-family="Helvetica,sans-Serif" font-size="10.00" fill="#000000">Personnage\frapper</text>
</a>
</g>
</g>
<!-- Node63&#45;&gt;Node65 -->
<g id="edge3" class="edge">
<title>Node63&#45;&gt;Node65</title>
<path fill="none" stroke="#191970" d="M269.9403,-46.5C281.0329,-46.5 292.3197,-46.5 302.8957,-46.5"/>
<polygon fill="#191970" stroke="#191970" points="269.8338,-43.0001 259.8337,-46.5 269.8337,-50.0001 269.8338,-43.0001"/>
</g>
<!-- Node66 -->
<g id="node5" class="node">
<title>Node66</title>
<g id="a_node5"><a xlink:href="class_soigneur.html#ac68dd65c897e55dc77d354e79e79a52c" target="_top" xlink:title="Soigneur\\lancerUnSoin">
<polygon fill="#ffffff" stroke="#000000" points="295.792,-.5 295.792,-18.5 414.6338,-18.5 414.6338,-.5 295.792,-.5"/>
<text text-anchor="middle" x="355.2129" y="-6.5" font-family="Helvetica,sans-Serif" font-size="10.00" fill="#000000">Soigneur\lancerUnSoin</text>
</a>
</g>
</g>
<!-- Node63&#45;&gt;Node66 -->
<g id="edge4" class="edge">
<title>Node63&#45;&gt;Node66</title>
<path fill="none" stroke="#191970" d="M247.2237,-35.0753C269.7025,-29.7516 296.0674,-23.5076 317.1192,-18.5218"/>
<polygon fill="#191970" stroke="#191970" points="246.1264,-31.7383 237.2022,-37.4488 247.7396,-38.5499 246.1264,-31.7383"/>
</g>
</g>
</svg>
