<?xml version="1.0" encoding="UTF-8" standalone="no"?>
<!DOCTYPE svg PUBLIC "-//W3C//DTD SVG 1.1//EN"
 "http://www.w3.org/Graphics/SVG/1.1/DTD/svg11.dtd">
<!-- Generated by graphviz version 2.40.1 (20161225.0304)
 -->
<!-- Title: Graphe hiérarchique des classes Pages: 1 -->
<svg width="303pt" height="64pt"
 viewBox="0.00 0.00 303.14 64.00" xmlns="http://www.w3.org/2000/svg" xmlns:xlink="http://www.w3.org/1999/xlink">
<g id="graph0" class="graph" transform="scale(1 1) rotate(0) translate(4 60)">
<title>Graphe hiérarchique des classes</title>
<polygon fill="#ffffff" stroke="transparent" points="-4,4 -4,-60 299.1367,-60 299.1367,4 -4,4"/>
<!-- Node0 -->
<g id="node1" class="node">
<title>Node0</title>
<g id="a_node1"><a xlink:href="class_base__personnage.html" target="_top" xlink:title="Base_personnage">
<polygon fill="#ffffff" stroke="#000000" points="0,-18.5 0,-36.5 97.1768,-36.5 97.1768,-18.5 0,-18.5"/>
<text text-anchor="middle" x="48.5884" y="-24.5" font-family="Helvetica,sans-Serif" font-size="10.00" fill="#000000">Base_personnage</text>
</a>
</g>
</g>
<!-- Node1 -->
<g id="node2" class="node">
<title>Node1</title>
<g id="a_node2"><a xlink:href="class_personnage.html" target="_top" xlink:title="Personnage">
<polygon fill="#ffffff" stroke="#000000" points="133.1768,-18.5 133.1768,-36.5 203.1074,-36.5 203.1074,-18.5 133.1768,-18.5"/>
<text text-anchor="middle" x="168.1421" y="-24.5" font-family="Helvetica,sans-Serif" font-size="10.00" fill="#000000">Personnage</text>
</a>
</g>
</g>
<!-- Node0&#45;&gt;Node1 -->
<g id="edge1" class="edge">
<title>Node0&#45;&gt;Node1</title>
<path fill="none" stroke="#191970" d="M107.4636,-27.5C116.2424,-27.5 125.0471,-27.5 133.1201,-27.5"/>
<polygon fill="#191970" stroke="#191970" points="107.2155,-24.0001 97.2154,-27.5 107.2154,-31.0001 107.2155,-24.0001"/>
</g>
<!-- Node2 -->
<g id="node3" class="node">
<title>Node2</title>
<g id="a_node3"><a xlink:href="class_att__soi.html" target="_top" xlink:title="Att_soi">
<polygon fill="#ffffff" stroke="#000000" points="243.8364,-37.5 243.8364,-55.5 290.4077,-55.5 290.4077,-37.5 243.8364,-37.5"/>
<text text-anchor="middle" x="267.1221" y="-43.5" font-family="Helvetica,sans-Serif" font-size="10.00" fill="#000000">Att_soi</text>
</a>
</g>
</g>
<!-- Node1&#45;&gt;Node2 -->
<g id="edge2" class="edge">
<title>Node1&#45;&gt;Node2</title>
<path fill="none" stroke="#191970" d="M213.2955,-36.1676C223.8537,-38.1943 234.6771,-40.2719 243.8238,-42.0277"/>
<polygon fill="#191970" stroke="#191970" points="213.798,-32.7002 203.3174,-34.2522 212.4783,-39.5747 213.798,-32.7002"/>
</g>
<!-- Node3 -->
<g id="node4" class="node">
<title>Node3</title>
<g id="a_node4"><a xlink:href="class_soigneur.html" target="_top" xlink:title="Soigneur">
<polygon fill="#ffffff" stroke="#000000" points="239.1074,-.5 239.1074,-18.5 295.1367,-18.5 295.1367,-.5 239.1074,-.5"/>
<text text-anchor="middle" x="267.1221" y="-6.5" font-family="Helvetica,sans-Serif" font-size="10.00" fill="#000000">Soigneur</text>
</a>
</g>
</g>
<!-- Node1&#45;&gt;Node3 -->
<g id="edge3" class="edge">
<title>Node1&#45;&gt;Node3</title>
<path fill="none" stroke="#191970" d="M213.3738,-19.2744C222.0646,-17.6939 230.9319,-16.0814 238.8929,-14.6336"/>
<polygon fill="#191970" stroke="#191970" points="212.5298,-15.8704 203.3174,-21.1032 213.7823,-22.7574 212.5298,-15.8704"/>
</g>
</g>
</svg>
