<?xml version="1.0" encoding="UTF-8" standalone="no"?>
<!DOCTYPE svg PUBLIC "-//W3C//DTD SVG 1.1//EN"
 "http://www.w3.org/Graphics/SVG/1.1/DTD/svg11.dtd">
<!-- Generated by graphviz version 2.40.1 (20161225.0304)
 -->
<!-- Title: %3 Pages: 1 -->
<svg width="539pt" height="530pt"
 viewBox="0.00 0.00 539.05 530.00" xmlns="http://www.w3.org/2000/svg" xmlns:xlink="http://www.w3.org/1999/xlink">
<g id="graph0" class="graph" transform="scale(1 1) rotate(0) translate(4 526)">
<title>%3</title>
<polygon fill="#ffffff" stroke="transparent" points="-4,4 -4,-526 535.046,-526 535.046,4 -4,4"/>
<!-- index.php -->
<g id="node1" class="node">
<title>index.php</title>
<ellipse fill="none" stroke="#000000" cx="87.9708" cy="-396" rx="45.4616" ry="18"/>
<text text-anchor="middle" x="87.9708" y="-391.8" font-family="Times,serif" font-size="14.00" fill="#000000">index.php</text>
</g>
<!-- identifiant.php -->
<g id="node2" class="node">
<title>identifiant.php</title>
<ellipse fill="none" stroke="#000000" cx="285.179" cy="-207" rx="61.3894" ry="18"/>
<text text-anchor="middle" x="285.179" y="-202.8" font-family="Times,serif" font-size="14.00" fill="#000000">identifiant.php</text>
</g>
<!-- index.php&#45;&gt;identifiant.php -->
<g id="edge1" class="edge">
<title>index.php&#45;&gt;identifiant.php</title>
<path fill="none" stroke="#000000" d="M131.6087,-391.0233C147.3055,-387.2393 164.0532,-380.6069 175.9416,-369 212.1446,-333.654 182.1901,-301.9249 211.9416,-261 221.2249,-248.2303 234.4213,-237.2012 247.0609,-228.4998"/>
<polygon fill="#000000" stroke="#000000" points="249.2251,-231.266 255.6675,-222.8549 245.386,-225.4127 249.2251,-231.266"/>
</g>
<!-- Function_Jeu.php -->
<g id="node10" class="node">
<title>Function_Jeu.php</title>
<ellipse fill="none" stroke="#000000" cx="285.179" cy="-504" rx="73.4756" ry="18"/>
<text text-anchor="middle" x="285.179" y="-499.8" font-family="Times,serif" font-size="14.00" fill="#000000">Function_Jeu.php</text>
</g>
<!-- index.php&#45;&gt;Function_Jeu.php -->
<g id="edge9" class="edge">
<title>index.php&#45;&gt;Function_Jeu.php</title>
<path fill="none" stroke="#000000" d="M109.4621,-412.2036C133.4984,-429.8009 174.0436,-457.9406 211.9416,-477 218.1235,-480.109 224.753,-483.0519 231.4057,-485.7713"/>
<polygon fill="#000000" stroke="#000000" points="230.5325,-489.1887 241.1198,-489.589 233.093,-482.6738 230.5325,-489.1887"/>
</g>
<!-- cheat.php -->
<g id="node11" class="node">
<title>cheat.php</title>
<ellipse fill="none" stroke="#000000" cx="285.179" cy="-450" rx="44.4754" ry="18"/>
<text text-anchor="middle" x="285.179" y="-445.8" font-family="Times,serif" font-size="14.00" fill="#000000">cheat.php</text>
</g>
<!-- index.php&#45;&gt;cheat.php -->
<g id="edge10" class="edge">
<title>index.php&#45;&gt;cheat.php</title>
<path fill="none" stroke="#000000" d="M125.5283,-406.2841C157.6699,-415.0852 204.0788,-427.793 238.5838,-437.2412"/>
<polygon fill="#000000" stroke="#000000" points="237.8595,-440.6717 248.4288,-439.937 239.7083,-433.9202 237.8595,-440.6717"/>
</g>
<!-- team.php -->
<g id="node14" class="node">
<title>team.php</title>
<ellipse fill="none" stroke="#000000" cx="285.179" cy="-396" rx="42.5391" ry="18"/>
<text text-anchor="middle" x="285.179" y="-391.8" font-family="Times,serif" font-size="14.00" fill="#000000">team.php</text>
</g>
<!-- index.php&#45;&gt;team.php -->
<g id="edge13" class="edge">
<title>index.php&#45;&gt;team.php</title>
<path fill="none" stroke="#000000" d="M133.2143,-396C162.6383,-396 201.134,-396 232.0174,-396"/>
<polygon fill="#000000" stroke="#000000" points="232.175,-399.5001 242.1749,-396 232.1749,-392.5001 232.175,-399.5001"/>
</g>
<!-- stuff.php -->
<g id="node15" class="node">
<title>stuff.php</title>
<ellipse fill="none" stroke="#000000" cx="285.179" cy="-342" rx="41.7756" ry="18"/>
<text text-anchor="middle" x="285.179" y="-337.8" font-family="Times,serif" font-size="14.00" fill="#000000">stuff.php</text>
</g>
<!-- index.php&#45;&gt;stuff.php -->
<g id="edge14" class="edge">
<title>index.php&#45;&gt;stuff.php</title>
<path fill="none" stroke="#000000" d="M125.5283,-385.7159C158.0767,-376.8034 205.2559,-363.8847 239.8883,-354.4016"/>
<polygon fill="#000000" stroke="#000000" points="241.0307,-357.7177 249.7513,-351.7009 239.182,-350.9662 241.0307,-357.7177"/>
</g>
<!-- up_perso.php -->
<g id="node16" class="node">
<title>up_perso.php</title>
<ellipse fill="none" stroke="#000000" cx="285.179" cy="-288" rx="58.0063" ry="18"/>
<text text-anchor="middle" x="285.179" y="-283.8" font-family="Times,serif" font-size="14.00" fill="#000000">up_perso.php</text>
</g>
<!-- index.php&#45;&gt;up_perso.php -->
<g id="edge15" class="edge">
<title>index.php&#45;&gt;up_perso.php</title>
<path fill="none" stroke="#000000" d="M130.0906,-389.2458C145.6009,-385.2435 162.6177,-378.9263 175.9416,-369 199.0725,-351.7675 189.2969,-332.8667 211.9416,-315 217.6465,-310.4988 224.175,-306.6986 230.9317,-303.5032"/>
<polygon fill="#000000" stroke="#000000" points="232.422,-306.6724 240.2308,-299.5118 229.661,-300.2399 232.422,-306.6724"/>
</g>
<!-- up_perso_modal.php -->
<g id="node3" class="node">
<title>up_perso_modal.php</title>
<ellipse fill="none" stroke="#000000" cx="87.9708" cy="-342" rx="84.5585" ry="18"/>
<text text-anchor="middle" x="87.9708" y="-337.8" font-family="Times,serif" font-size="14.00" fill="#000000">up_perso_modal.php</text>
</g>
<!-- up_perso_modal.php&#45;&gt;identifiant.php -->
<g id="edge2" class="edge">
<title>up_perso_modal.php&#45;&gt;identifiant.php</title>
<path fill="none" stroke="#000000" d="M148.8184,-329.3537C158.4441,-325.7017 167.8704,-321.013 175.9416,-315 199.0725,-297.7675 192.0339,-281.8731 211.9416,-261 223.192,-249.2039 237.2718,-238.1439 250.0722,-229.143"/>
<polygon fill="#000000" stroke="#000000" points="252.4005,-231.791 258.6791,-223.2569 248.449,-226.0129 252.4005,-231.791"/>
</g>
<!-- stuff_modal.php -->
<g id="node4" class="node">
<title>stuff_modal.php</title>
<ellipse fill="none" stroke="#000000" cx="87.9708" cy="-288" rx="68.3277" ry="18"/>
<text text-anchor="middle" x="87.9708" y="-283.8" font-family="Times,serif" font-size="14.00" fill="#000000">stuff_modal.php</text>
</g>
<!-- stuff_modal.php&#45;&gt;identifiant.php -->
<g id="edge3" class="edge">
<title>stuff_modal.php&#45;&gt;identifiant.php</title>
<path fill="none" stroke="#000000" d="M135.481,-274.9496C148.729,-270.8987 163.0261,-266.1354 175.9416,-261 200.1492,-251.3747 226.3434,-238.5148 247.0119,-227.7593"/>
<polygon fill="#000000" stroke="#000000" points="248.8701,-230.7366 256.0924,-222.9848 245.6124,-224.5408 248.8701,-230.7366"/>
</g>
<!-- gestion_stuff.php -->
<g id="node5" class="node">
<title>gestion_stuff.php</title>
<ellipse fill="none" stroke="#000000" cx="87.9708" cy="-234" rx="71.7105" ry="18"/>
<text text-anchor="middle" x="87.9708" y="-229.8" font-family="Times,serif" font-size="14.00" fill="#000000">gestion_stuff.php</text>
</g>
<!-- gestion_stuff.php&#45;&gt;identifiant.php -->
<g id="edge4" class="edge">
<title>gestion_stuff.php&#45;&gt;identifiant.php</title>
<path fill="none" stroke="#000000" d="M150.9109,-225.3828C172.8074,-222.3849 197.4157,-219.0158 219.5262,-215.9886"/>
<polygon fill="#000000" stroke="#000000" points="220.0579,-219.4485 229.4907,-214.6244 219.1083,-212.5132 220.0579,-219.4485"/>
</g>
<!-- sup_perso.php -->
<g id="node6" class="node">
<title>sup_perso.php</title>
<ellipse fill="none" stroke="#000000" cx="87.9708" cy="-180" rx="61.3894" ry="18"/>
<text text-anchor="middle" x="87.9708" y="-175.8" font-family="Times,serif" font-size="14.00" fill="#000000">sup_perso.php</text>
</g>
<!-- sup_perso.php&#45;&gt;identifiant.php -->
<g id="edge5" class="edge">
<title>sup_perso.php&#45;&gt;identifiant.php</title>
<path fill="none" stroke="#000000" d="M143.692,-187.6289C167.2172,-190.8497 194.7869,-194.6243 219.3097,-197.9818"/>
<polygon fill="#000000" stroke="#000000" points="218.8713,-201.4543 229.2537,-199.3432 219.8209,-194.519 218.8713,-201.4543"/>
</g>
<!-- gestion_up_perso.php -->
<g id="node7" class="node">
<title>gestion_up_perso.php</title>
<ellipse fill="none" stroke="#000000" cx="87.9708" cy="-126" rx="87.9416" ry="18"/>
<text text-anchor="middle" x="87.9708" y="-121.8" font-family="Times,serif" font-size="14.00" fill="#000000">gestion_up_perso.php</text>
</g>
<!-- gestion_up_perso.php&#45;&gt;identifiant.php -->
<g id="edge6" class="edge">
<title>gestion_up_perso.php&#45;&gt;identifiant.php</title>
<path fill="none" stroke="#000000" d="M140.5515,-140.6204C152.3223,-144.3118 164.6591,-148.5139 175.9416,-153 200.1492,-162.6253 226.3434,-175.4852 247.0119,-186.2407"/>
<polygon fill="#000000" stroke="#000000" points="245.6124,-189.4592 256.0924,-191.0152 248.8701,-183.2634 245.6124,-189.4592"/>
</g>
<!-- eam_ajax.php -->
<g id="node8" class="node">
<title>eam_ajax.php</title>
<ellipse fill="none" stroke="#000000" cx="87.9708" cy="-72" rx="59.4254" ry="18"/>
<text text-anchor="middle" x="87.9708" y="-67.8" font-family="Times,serif" font-size="14.00" fill="#000000">eam_ajax.php</text>
</g>
<!-- eam_ajax.php&#45;&gt;identifiant.php -->
<g id="edge7" class="edge">
<title>eam_ajax.php&#45;&gt;identifiant.php</title>
<path fill="none" stroke="#000000" d="M136.7692,-82.4412C150.0298,-86.4665 164.0113,-91.869 175.9416,-99 212.344,-120.7588 245.6727,-157.1592 265.6997,-181.6148"/>
<polygon fill="#000000" stroke="#000000" points="262.9739,-183.8103 271.9668,-189.4121 268.4301,-179.425 262.9739,-183.8103"/>
</g>
<!-- add_perso.php -->
<g id="node9" class="node">
<title>add_perso.php</title>
<ellipse fill="none" stroke="#000000" cx="87.9708" cy="-18" rx="61.8567" ry="18"/>
<text text-anchor="middle" x="87.9708" y="-13.8" font-family="Times,serif" font-size="14.00" fill="#000000">add_perso.php</text>
</g>
<!-- add_perso.php&#45;&gt;identifiant.php -->
<g id="edge8" class="edge">
<title>add_perso.php&#45;&gt;identifiant.php</title>
<path fill="none" stroke="#000000" d="M140.5174,-27.8016C152.9192,-31.7646 165.544,-37.2963 175.9416,-45 223.7755,-80.4407 257.3634,-143.4247 273.7572,-179.5314"/>
<polygon fill="#000000" stroke="#000000" points="270.6792,-181.2254 277.9227,-188.9574 277.0819,-178.396 270.6792,-181.2254"/>
</g>
<!-- modif_team.php -->
<g id="node12" class="node">
<title>modif_team.php</title>
<ellipse fill="none" stroke="#000000" cx="462.7312" cy="-477" rx="68.1301" ry="18"/>
<text text-anchor="middle" x="462.7312" y="-472.8" font-family="Times,serif" font-size="14.00" fill="#000000">modif_team.php</text>
</g>
<!-- cheat.php&#45;&gt;modif_team.php -->
<g id="edge11" class="edge">
<title>cheat.php&#45;&gt;modif_team.php</title>
<path fill="none" stroke="#000000" d="M326.8071,-456.3303C346.6285,-459.3445 370.8674,-463.0305 393.3592,-466.4507"/>
<polygon fill="#000000" stroke="#000000" points="393.1356,-469.9569 403.5481,-468.0002 394.188,-463.0365 393.1356,-469.9569"/>
</g>
<!-- modif_stuff.php -->
<g id="node13" class="node">
<title>modif_stuff.php</title>
<ellipse fill="none" stroke="#000000" cx="462.7312" cy="-423" rx="67.3674" ry="18"/>
<text text-anchor="middle" x="462.7312" y="-418.8" font-family="Times,serif" font-size="14.00" fill="#000000">modif_stuff.php</text>
</g>
<!-- cheat.php&#45;&gt;modif_stuff.php -->
<g id="edge12" class="edge">
<title>cheat.php&#45;&gt;modif_stuff.php</title>
<path fill="none" stroke="#000000" d="M326.8071,-443.6697C346.8963,-440.6148 371.5233,-436.8698 394.27,-433.4107"/>
<polygon fill="#000000" stroke="#000000" points="394.8639,-436.8608 404.224,-431.8971 393.8115,-429.9403 394.8639,-436.8608"/>
</g>
</g>
</svg>
