<?xml version="1.0" encoding="UTF-8" standalone="no"?>
<!DOCTYPE svg PUBLIC "-//W3C//DTD SVG 1.1//EN"
 "http://www.w3.org/Graphics/SVG/1.1/DTD/svg11.dtd">
<!-- Generated by graphviz version 2.38.0 (20140413.2041)
 -->
<!-- Title: PersonnagesManager\getList_up Pages: 1 -->
<svg width="263pt" height="66pt"
 viewBox="0.00 0.00 263.00 66.00" xmlns="http://www.w3.org/2000/svg" xmlns:xlink="http://www.w3.org/1999/xlink">
<g id="graph0" class="graph" transform="scale(1 1) rotate(0) translate(4 62)">
<title>PersonnagesManager\getList_up</title>
<polygon fill="white" stroke="none" points="-4,4 -4,-62 259,-62 259,4 -4,4"/>
<!-- Node32 -->
<g id="node1" class="node"><title>Node32</title>
<polygon fill="#bfbfbf" stroke="black" points="0,-14 0,-44 111,-44 111,-14 0,-14"/>
<text text-anchor="start" x="8" y="-32" font-family="Helvetica,sans-Serif" font-size="10.00">PersonnagesManager</text>
<text text-anchor="middle" x="55.5" y="-21" font-family="Helvetica,sans-Serif" font-size="10.00">\getList_up</text>
</g>
<!-- Node33 -->
<g id="node2" class="node"><title>Node33</title>
<g id="a_node2"><a xlink:href="class_user.html#acca0b7b0795d518d884a25505add943c" target="_top" xlink:title="User\\id_user">
<polygon fill="white" stroke="black" points="165.5,-38.5 165.5,-57.5 236.5,-57.5 236.5,-38.5 165.5,-38.5"/>
<text text-anchor="middle" x="201" y="-45.5" font-family="Helvetica,sans-Serif" font-size="10.00">User\id_user</text>
</a>
</g>
</g>
<!-- Node32&#45;&gt;Node33 -->
<g id="edge1" class="edge"><title>Node32&#45;&gt;Node33</title>
<path fill="none" stroke="midnightblue" d="M111.161,-36.2373C125.677,-38.1594 141.185,-40.2127 155.114,-42.0569"/>
<polygon fill="midnightblue" stroke="midnightblue" points="155.043,-45.5779 165.416,-43.4209 155.962,-38.6385 155.043,-45.5779"/>
</g>
<!-- Node34 -->
<g id="node3" class="node"><title>Node34</title>
<g id="a_node3"><a xlink:href="class_personnage.html#aa34eed6a48eb3734596505b58497f2f1" target="_top" xlink:title="Personnage\\id_perso">
<polygon fill="white" stroke="black" points="147,-0.5 147,-19.5 255,-19.5 255,-0.5 147,-0.5"/>
<text text-anchor="middle" x="201" y="-7.5" font-family="Helvetica,sans-Serif" font-size="10.00">Personnage\id_perso</text>
</a>
</g>
</g>
<!-- Node32&#45;&gt;Node34 -->
<g id="edge2" class="edge"><title>Node32&#45;&gt;Node34</title>
<path fill="none" stroke="midnightblue" d="M111.161,-21.7627C119.586,-20.6471 128.345,-19.4874 136.936,-18.3499"/>
<polygon fill="midnightblue" stroke="midnightblue" points="137.459,-21.8113 146.913,-17.0289 136.54,-14.8719 137.459,-21.8113"/>
</g>
</g>
</svg>
