<?xml version="1.0" encoding="UTF-8" standalone="no"?>
<!DOCTYPE svg PUBLIC "-//W3C//DTD SVG 1.1//EN"
 "http://www.w3.org/Graphics/SVG/1.1/DTD/svg11.dtd">
<!-- Generated by graphviz version 2.38.0 (20140413.2041)
 -->
<!-- Title: Soigneur\lancerUnSoin Pages: 1 -->
<svg width="603pt" height="180pt"
 viewBox="0.00 0.00 603.00 180.00" xmlns="http://www.w3.org/2000/svg" xmlns:xlink="http://www.w3.org/1999/xlink">
<g id="graph0" class="graph" transform="scale(1 1) rotate(0) translate(4 176)">
<title>Soigneur\lancerUnSoin</title>
<polygon fill="white" stroke="none" points="-4,4 -4,-176 599,-176 599,4 -4,4"/>
<!-- Node0 -->
<g id="node1" class="node"><title>Node0</title>
<polygon fill="#bfbfbf" stroke="black" points="0,-114.5 0,-133.5 116,-133.5 116,-114.5 0,-114.5"/>
<text text-anchor="middle" x="58" y="-121.5" font-family="Helvetica,sans-Serif" font-size="10.00">Soigneur\lancerUnSoin</text>
</g>
<!-- Node1 -->
<g id="node2" class="node"><title>Node1</title>
<g id="a_node2"><a xlink:href="class_personnage.html#a1219171b9ddba0fecfa49995d7d71372" target="_top" xlink:title="Personnage\\soigner">
<polygon fill="white" stroke="black" points="158.5,-114.5 158.5,-133.5 261.5,-133.5 261.5,-114.5 158.5,-114.5"/>
<text text-anchor="middle" x="210" y="-121.5" font-family="Helvetica,sans-Serif" font-size="10.00">Personnage\soigner</text>
</a>
</g>
</g>
<!-- Node0&#45;&gt;Node1 -->
<g id="edge1" class="edge"><title>Node0&#45;&gt;Node1</title>
<path fill="none" stroke="midnightblue" d="M116.136,-124C126.677,-124 137.717,-124 148.357,-124"/>
<polygon fill="midnightblue" stroke="midnightblue" points="148.406,-127.5 158.406,-124 148.406,-120.5 148.406,-127.5"/>
</g>
<!-- Node2 -->
<g id="node3" class="node"><title>Node2</title>
<g id="a_node3"><a xlink:href="class_personnage.html#aabf0bcd80fcea089de16f33c029aae12" target="_top" xlink:title="Personnage\\estEndormi">
<polygon fill="white" stroke="black" points="308,-152.5 308,-171.5 429,-171.5 429,-152.5 308,-152.5"/>
<text text-anchor="middle" x="368.5" y="-159.5" font-family="Helvetica,sans-Serif" font-size="10.00">Personnage\estEndormi</text>
</a>
</g>
</g>
<!-- Node0&#45;&gt;Node2 -->
<g id="edge5" class="edge"><title>Node0&#45;&gt;Node2</title>
<path fill="none" stroke="midnightblue" d="M100.488,-133.526C116.512,-136.929 135.041,-140.528 152,-143 200.412,-150.056 255.351,-154.851 297.641,-157.858"/>
<polygon fill="midnightblue" stroke="midnightblue" points="297.615,-161.365 307.833,-158.566 298.1,-154.382 297.615,-161.365"/>
</g>
<!-- Node5 -->
<g id="node6" class="node"><title>Node5</title>
<g id="a_node6"><a xlink:href="class_personnage.html#aa64edf7d4c080193213b12643eb05a5d" target="_top" xlink:title="Personnage\\recevoirXP">
<polygon fill="white" stroke="black" points="152,-57.5 152,-76.5 268,-76.5 268,-57.5 152,-57.5"/>
<text text-anchor="middle" x="210" y="-64.5" font-family="Helvetica,sans-Serif" font-size="10.00">Personnage\recevoirXP</text>
</a>
</g>
</g>
<!-- Node0&#45;&gt;Node5 -->
<g id="edge6" class="edge"><title>Node0&#45;&gt;Node5</title>
<path fill="none" stroke="midnightblue" d="M84.1066,-114.459C108.767,-105.088 146.599,-90.7124 174.164,-80.2377"/>
<polygon fill="midnightblue" stroke="midnightblue" points="175.707,-83.3956 183.811,-76.5716 173.22,-76.8521 175.707,-83.3956"/>
</g>
<!-- Node1&#45;&gt;Node2 -->
<g id="edge2" class="edge"><title>Node1&#45;&gt;Node2</title>
<path fill="none" stroke="midnightblue" d="M250.492,-133.589C271.143,-138.604 296.614,-144.788 318.512,-150.105"/>
<polygon fill="midnightblue" stroke="midnightblue" points="317.749,-153.521 328.292,-152.48 319.401,-146.719 317.749,-153.521"/>
</g>
<!-- Node4 -->
<g id="node5" class="node"><title>Node4</title>
<g id="a_node5"><a xlink:href="class_personnage.html#acadb61228a3ebdf18318771f954e2ae0" target="_top" xlink:title="Personnage\\recevoirSoins">
<polygon fill="white" stroke="black" points="304,-114.5 304,-133.5 433,-133.5 433,-114.5 304,-114.5"/>
<text text-anchor="middle" x="368.5" y="-121.5" font-family="Helvetica,sans-Serif" font-size="10.00">Personnage\recevoirSoins</text>
</a>
</g>
</g>
<!-- Node1&#45;&gt;Node4 -->
<g id="edge4" class="edge"><title>Node1&#45;&gt;Node4</title>
<path fill="none" stroke="midnightblue" d="M261.811,-124C271.956,-124 282.807,-124 293.548,-124"/>
<polygon fill="midnightblue" stroke="midnightblue" points="293.787,-127.5 303.787,-124 293.787,-120.5 293.787,-127.5"/>
</g>
<!-- Node3 -->
<g id="node4" class="node"><title>Node3</title>
<g id="a_node4"><a xlink:href="class_personnage.html#a5fbe8f1f41e05e856ec6390bfb3e4f03" target="_top" xlink:title="Personnage\\timeEndormi">
<polygon fill="white" stroke="black" points="469,-152.5 469,-171.5 595,-171.5 595,-152.5 469,-152.5"/>
<text text-anchor="middle" x="532" y="-159.5" font-family="Helvetica,sans-Serif" font-size="10.00">Personnage\timeEndormi</text>
</a>
</g>
</g>
<!-- Node2&#45;&gt;Node3 -->
<g id="edge3" class="edge"><title>Node2&#45;&gt;Node3</title>
<path fill="none" stroke="midnightblue" d="M429.178,-162C438.781,-162 448.812,-162 458.673,-162"/>
<polygon fill="midnightblue" stroke="midnightblue" points="458.863,-165.5 468.863,-162 458.863,-158.5 458.863,-165.5"/>
</g>
<!-- Node6 -->
<g id="node7" class="node"><title>Node6</title>
<g id="a_node7"><a xlink:href="class_personnage.html#a60b2a6a44bc71517c063d87c062e0b87" target="_top" xlink:title="Personnage\\xp">
<polygon fill="white" stroke="black" points="327.5,-76.5 327.5,-95.5 409.5,-95.5 409.5,-76.5 327.5,-76.5"/>
<text text-anchor="middle" x="368.5" y="-83.5" font-family="Helvetica,sans-Serif" font-size="10.00">Personnage\xp</text>
</a>
</g>
</g>
<!-- Node5&#45;&gt;Node6 -->
<g id="edge7" class="edge"><title>Node5&#45;&gt;Node6</title>
<path fill="none" stroke="midnightblue" d="M268.386,-73.967C284.416,-75.9131 301.706,-78.0122 317.287,-79.9038"/>
<polygon fill="midnightblue" stroke="midnightblue" points="316.899,-83.3824 327.248,-81.1132 317.743,-76.4334 316.899,-83.3824"/>
</g>
<!-- Node7 -->
<g id="node8" class="node"><title>Node7</title>
<g id="a_node8"><a xlink:href="class_personnage.html#aa5bc9f2bda281400fedbc1af1c19357d" target="_top" xlink:title="Personnage\\xp_max">
<polygon fill="white" stroke="black" points="315.5,-38.5 315.5,-57.5 421.5,-57.5 421.5,-38.5 315.5,-38.5"/>
<text text-anchor="middle" x="368.5" y="-45.5" font-family="Helvetica,sans-Serif" font-size="10.00">Personnage\xp_max</text>
</a>
</g>
</g>
<!-- Node5&#45;&gt;Node7 -->
<g id="edge8" class="edge"><title>Node5&#45;&gt;Node7</title>
<path fill="none" stroke="midnightblue" d="M268.386,-60.033C280.381,-58.5767 293.082,-57.0348 305.244,-55.5582"/>
<polygon fill="midnightblue" stroke="midnightblue" points="305.801,-59.0164 315.306,-54.3366 304.957,-52.0674 305.801,-59.0164"/>
</g>
<!-- Node8 -->
<g id="node9" class="node"><title>Node8</title>
<g id="a_node9"><a xlink:href="class_personnage.html#a061130b0c1c551d893ecffff2553cb93" target="_top" xlink:title="Personnage\\niveau">
<polygon fill="white" stroke="black" points="319.5,-0.5 319.5,-19.5 417.5,-19.5 417.5,-0.5 319.5,-0.5"/>
<text text-anchor="middle" x="368.5" y="-7.5" font-family="Helvetica,sans-Serif" font-size="10.00">Personnage\niveau</text>
</a>
</g>
</g>
<!-- Node5&#45;&gt;Node8 -->
<g id="edge9" class="edge"><title>Node5&#45;&gt;Node8</title>
<path fill="none" stroke="midnightblue" d="M232.568,-57.4901C251.271,-49.4117 279.165,-37.7661 304,-29 310.343,-26.7612 317.1,-24.5542 323.751,-22.4812"/>
<polygon fill="midnightblue" stroke="midnightblue" points="324.815,-25.8159 333.359,-19.5518 322.773,-19.1202 324.815,-25.8159"/>
</g>
</g>
</svg>
