<?xml version="1.0" encoding="UTF-8" standalone="no"?>
<!DOCTYPE svg PUBLIC "-//W3C//DTD SVG 1.1//EN"
 "http://www.w3.org/Graphics/SVG/1.1/DTD/svg11.dtd">
<!-- Generated by graphviz version 2.38.0 (20140413.2041)
 -->
<!-- Title: Stuff\qualite Pages: 1 -->
<svg width="218pt" height="66pt"
 viewBox="0.00 0.00 218.00 66.00" xmlns="http://www.w3.org/2000/svg" xmlns:xlink="http://www.w3.org/1999/xlink">
<g id="graph0" class="graph" transform="scale(1 1) rotate(0) translate(4 62)">
<title>Stuff\qualite</title>
<polygon fill="white" stroke="none" points="-4,4 -4,-62 214,-62 214,4 -4,4"/>
<!-- Node52 -->
<g id="node1" class="node"><title>Node52</title>
<polygon fill="#bfbfbf" stroke="black" points="0,-19.5 0,-38.5 68,-38.5 68,-19.5 0,-19.5"/>
<text text-anchor="middle" x="34" y="-26.5" font-family="Helvetica,sans-Serif" font-size="10.00">Stuff\qualite</text>
</g>
<!-- Node53 -->
<g id="node2" class="node"><title>Node53</title>
<g id="a_node2"><a xlink:href="class_stuff.html#a7d2dbf87cc016d1131f7dd59210a279c" target="_top" xlink:title="Stuff\\setQualite">
<polygon fill="white" stroke="black" points="115.5,-38.5 115.5,-57.5 198.5,-57.5 198.5,-38.5 115.5,-38.5"/>
<text text-anchor="middle" x="157" y="-45.5" font-family="Helvetica,sans-Serif" font-size="10.00">Stuff\setQualite</text>
</a>
</g>
</g>
<!-- Node52&#45;&gt;Node53 -->
<g id="edge1" class="edge"><title>Node52&#45;&gt;Node53</title>
<path fill="none" stroke="midnightblue" d="M77.9528,-35.7447C90.0705,-37.6474 103.216,-39.7117 115.204,-41.594"/>
<polygon fill="midnightblue" stroke="midnightblue" points="78.4857,-32.2855 68.0638,-34.1918 77.3998,-39.2008 78.4857,-32.2855"/>
</g>
<!-- Node54 -->
<g id="node3" class="node"><title>Node54</title>
<g id="a_node3"><a xlink:href="class_stuff_manager.html#a45dc81b0ddbbd804960d197d7a1cad69" target="_top" xlink:title="StuffManager\\update">
<polygon fill="white" stroke="black" points="104,-0.5 104,-19.5 210,-19.5 210,-0.5 104,-0.5"/>
<text text-anchor="middle" x="157" y="-7.5" font-family="Helvetica,sans-Serif" font-size="10.00">StuffManager\update</text>
</a>
</g>
</g>
<!-- Node52&#45;&gt;Node54 -->
<g id="edge2" class="edge"><title>Node52&#45;&gt;Node54</title>
<path fill="none" stroke="midnightblue" d="M77.9913,-22.2493C86.3691,-20.9338 95.2371,-19.5413 103.873,-18.1852"/>
<polygon fill="midnightblue" stroke="midnightblue" points="77.3998,-18.7992 68.0638,-23.8082 78.4857,-25.7145 77.3998,-18.7992"/>
</g>
</g>
</svg>
