<?xml version="1.0" encoding="UTF-8" standalone="no"?>
<!DOCTYPE svg PUBLIC "-//W3C//DTD SVG 1.1//EN"
 "http://www.w3.org/Graphics/SVG/1.1/DTD/svg11.dtd">
<!-- Generated by graphviz version 2.38.0 (20140413.2041)
 -->
<!-- Title: UserManager\add Pages: 1 -->
<svg width="209pt" height="332pt"
 viewBox="0.00 0.00 209.00 332.00" xmlns="http://www.w3.org/2000/svg" xmlns:xlink="http://www.w3.org/1999/xlink">
<g id="graph0" class="graph" transform="scale(1 1) rotate(0) translate(4 328)">
<title>UserManager\add</title>
<polygon fill="white" stroke="none" points="-4,4 -4,-328 205,-328 205,4 -4,4"/>
<!-- Node3 -->
<g id="node1" class="node"><title>Node3</title>
<polygon fill="#bfbfbf" stroke="black" points="0,-152.5 0,-171.5 93,-171.5 93,-152.5 0,-152.5"/>
<text text-anchor="middle" x="46.5" y="-159.5" font-family="Helvetica,sans-Serif" font-size="10.00">UserManager\add</text>
</g>
<!-- Node4 -->
<g id="node2" class="node"><title>Node4</title>
<g id="a_node2"><a xlink:href="class_user.html#a6a8c32b1e008d4bbda256614aea7e21b" target="_top" xlink:title="User\\hydrate">
<polygon fill="white" stroke="black" points="129,-304.5 129,-323.5 201,-323.5 201,-304.5 129,-304.5"/>
<text text-anchor="middle" x="165" y="-311.5" font-family="Helvetica,sans-Serif" font-size="10.00">User\hydrate</text>
</a>
</g>
</g>
<!-- Node3&#45;&gt;Node4 -->
<g id="edge1" class="edge"><title>Node3&#45;&gt;Node4</title>
<path fill="none" stroke="midnightblue" d="M51.2616,-171.526C60.9666,-195.095 88.9258,-256.973 129,-295 130.429,-296.356 131.974,-297.646 133.591,-298.868"/>
<polygon fill="midnightblue" stroke="midnightblue" points="131.786,-301.869 142.076,-304.394 135.607,-296.003 131.786,-301.869"/>
</g>
<!-- Node5 -->
<g id="node3" class="node"><title>Node5</title>
<g id="a_node3"><a xlink:href="class_user.html#a5589abfe412eaa4755f3c984729802b7" target="_top" xlink:title="User\\pseudo">
<polygon fill="white" stroke="black" points="129.5,-266.5 129.5,-285.5 200.5,-285.5 200.5,-266.5 129.5,-266.5"/>
<text text-anchor="middle" x="165" y="-273.5" font-family="Helvetica,sans-Serif" font-size="10.00">User\pseudo</text>
</a>
</g>
</g>
<!-- Node3&#45;&gt;Node5 -->
<g id="edge2" class="edge"><title>Node3&#45;&gt;Node5</title>
<path fill="none" stroke="midnightblue" d="M53.9508,-171.64C66.6205,-190.032 96.3763,-230.643 129,-257 130.748,-258.412 132.616,-259.772 134.546,-261.07"/>
<polygon fill="midnightblue" stroke="midnightblue" points="132.854,-264.137 143.218,-266.336 136.487,-258.154 132.854,-264.137"/>
</g>
<!-- Node6 -->
<g id="node4" class="node"><title>Node6</title>
<g id="a_node4"><a xlink:href="class_user.html#afffcb74b0fe718305661fb57d5fdfde0" target="_top" xlink:title="User\\email">
<polygon fill="white" stroke="black" points="133.5,-228.5 133.5,-247.5 196.5,-247.5 196.5,-228.5 133.5,-228.5"/>
<text text-anchor="middle" x="165" y="-235.5" font-family="Helvetica,sans-Serif" font-size="10.00">User\email</text>
</a>
</g>
</g>
<!-- Node3&#45;&gt;Node6 -->
<g id="edge3" class="edge"><title>Node3&#45;&gt;Node6</title>
<path fill="none" stroke="midnightblue" d="M60.1829,-171.543C75.9602,-183.255 103.888,-203.471 129,-219 131.345,-220.45 133.808,-221.909 136.297,-223.34"/>
<polygon fill="midnightblue" stroke="midnightblue" points="134.81,-226.518 145.25,-228.326 138.216,-220.403 134.81,-226.518"/>
</g>
<!-- Node7 -->
<g id="node5" class="node"><title>Node7</title>
<g id="a_node5"><a xlink:href="class_user.html#ab341c8493decd7ed8ad872544a3b3332" target="_top" xlink:title="User\\niveau">
<polygon fill="white" stroke="black" points="131.5,-190.5 131.5,-209.5 198.5,-209.5 198.5,-190.5 131.5,-190.5"/>
<text text-anchor="middle" x="165" y="-197.5" font-family="Helvetica,sans-Serif" font-size="10.00">User\niveau</text>
</a>
</g>
</g>
<!-- Node3&#45;&gt;Node7 -->
<g id="edge4" class="edge"><title>Node3&#45;&gt;Node7</title>
<path fill="none" stroke="midnightblue" d="M76.8979,-171.589C91.385,-176.314 109.058,-182.079 124.689,-187.177"/>
<polygon fill="midnightblue" stroke="midnightblue" points="124.019,-190.64 134.612,-190.414 126.19,-183.986 124.019,-190.64"/>
</g>
<!-- Node8 -->
<g id="node6" class="node"><title>Node8</title>
<g id="a_node6"><a xlink:href="class_user.html#a11525bb64e691e68ccb43856433f5e71" target="_top" xlink:title="User\\mdp">
<polygon fill="white" stroke="black" points="135.5,-152.5 135.5,-171.5 194.5,-171.5 194.5,-152.5 135.5,-152.5"/>
<text text-anchor="middle" x="165" y="-159.5" font-family="Helvetica,sans-Serif" font-size="10.00">User\mdp</text>
</a>
</g>
</g>
<!-- Node3&#45;&gt;Node8 -->
<g id="edge5" class="edge"><title>Node3&#45;&gt;Node8</title>
<path fill="none" stroke="midnightblue" d="M93.2095,-162C103.713,-162 114.787,-162 124.977,-162"/>
<polygon fill="midnightblue" stroke="midnightblue" points="125.215,-165.5 135.215,-162 125.215,-158.5 125.215,-165.5"/>
</g>
<!-- Node9 -->
<g id="node7" class="node"><title>Node9</title>
<g id="a_node7"><a xlink:href="class_user.html#abc7ddb8ce5c319d13e15734bee03075b" target="_top" xlink:title="User\\xp">
<polygon fill="white" stroke="black" points="140,-114.5 140,-133.5 190,-133.5 190,-114.5 140,-114.5"/>
<text text-anchor="middle" x="165" y="-121.5" font-family="Helvetica,sans-Serif" font-size="10.00">User\xp</text>
</a>
</g>
</g>
<!-- Node3&#45;&gt;Node9 -->
<g id="edge6" class="edge"><title>Node3&#45;&gt;Node9</title>
<path fill="none" stroke="midnightblue" d="M76.8979,-152.411C92.9743,-147.167 112.973,-140.644 129.752,-135.171"/>
<polygon fill="midnightblue" stroke="midnightblue" points="131.298,-138.348 139.72,-131.92 129.127,-131.693 131.298,-138.348"/>
</g>
<!-- Node10 -->
<g id="node8" class="node"><title>Node10</title>
<g id="a_node8"><a xlink:href="class_user.html#a1323f270a1285588987ef21bf704975c" target="_top" xlink:title="User\\or_">
<polygon fill="white" stroke="black" points="138.5,-76.5 138.5,-95.5 191.5,-95.5 191.5,-76.5 138.5,-76.5"/>
<text text-anchor="middle" x="165" y="-83.5" font-family="Helvetica,sans-Serif" font-size="10.00">User\or_</text>
</a>
</g>
</g>
<!-- Node3&#45;&gt;Node10 -->
<g id="edge7" class="edge"><title>Node3&#45;&gt;Node10</title>
<path fill="none" stroke="midnightblue" d="M60.1829,-152.457C75.9602,-140.745 103.888,-120.529 129,-105 131.345,-103.55 133.808,-102.091 136.297,-100.66"/>
<polygon fill="midnightblue" stroke="midnightblue" points="138.216,-103.597 145.25,-95.6738 134.81,-97.4819 138.216,-103.597"/>
</g>
<!-- Node11 -->
<g id="node9" class="node"><title>Node11</title>
<g id="a_node9"><a xlink:href="class_user.html#a2a6a97a5e1ddb08da30802aec1b0eb0a" target="_top" xlink:title="User\\argent">
<polygon fill="white" stroke="black" points="131.5,-38.5 131.5,-57.5 198.5,-57.5 198.5,-38.5 131.5,-38.5"/>
<text text-anchor="middle" x="165" y="-45.5" font-family="Helvetica,sans-Serif" font-size="10.00">User\argent</text>
</a>
</g>
</g>
<!-- Node3&#45;&gt;Node11 -->
<g id="edge8" class="edge"><title>Node3&#45;&gt;Node11</title>
<path fill="none" stroke="midnightblue" d="M53.9508,-152.36C66.6205,-133.968 96.3763,-93.3567 129,-67 130.748,-65.5879 132.616,-64.2281 134.546,-62.9301"/>
<polygon fill="midnightblue" stroke="midnightblue" points="136.487,-65.8461 143.218,-57.6644 132.854,-59.8626 136.487,-65.8461"/>
</g>
<!-- Node12 -->
<g id="node10" class="node"><title>Node12</title>
<g id="a_node10"><a xlink:href="class_user.html#aa7ae3e562d611c4cf112a618db183660" target="_top" xlink:title="User\\endu">
<polygon fill="white" stroke="black" points="134.5,-0.5 134.5,-19.5 195.5,-19.5 195.5,-0.5 134.5,-0.5"/>
<text text-anchor="middle" x="165" y="-7.5" font-family="Helvetica,sans-Serif" font-size="10.00">User\endu</text>
</a>
</g>
</g>
<!-- Node3&#45;&gt;Node12 -->
<g id="edge9" class="edge"><title>Node3&#45;&gt;Node12</title>
<path fill="none" stroke="midnightblue" d="M51.2616,-152.474C60.9666,-128.905 88.9258,-67.0266 129,-29 130.429,-27.6436 131.974,-26.3538 133.591,-25.1325"/>
<polygon fill="midnightblue" stroke="midnightblue" points="135.607,-27.9967 142.076,-19.6061 131.786,-22.1312 135.607,-27.9967"/>
</g>
</g>
</svg>
