<?xml version="1.0" encoding="UTF-8" standalone="no"?>
<!DOCTYPE svg PUBLIC "-//W3C//DTD SVG 1.1//EN"
 "http://www.w3.org/Graphics/SVG/1.1/DTD/svg11.dtd">
<!-- Generated by graphviz version 2.38.0 (20140413.2041)
 -->
<!-- Title: Stuff\lvlUp Pages: 1 -->
<svg width="169pt" height="104pt"
 viewBox="0.00 0.00 169.00 104.00" xmlns="http://www.w3.org/2000/svg" xmlns:xlink="http://www.w3.org/1999/xlink">
<g id="graph0" class="graph" transform="scale(1 1) rotate(0) translate(4 100)">
<title>Stuff\lvlUp</title>
<polygon fill="white" stroke="none" points="-4,4 -4,-100 165,-100 165,4 -4,4"/>
<!-- Node36 -->
<g id="node1" class="node"><title>Node36</title>
<polygon fill="#bfbfbf" stroke="black" points="0,-38.5 0,-57.5 59,-57.5 59,-38.5 0,-38.5"/>
<text text-anchor="middle" x="29.5" y="-45.5" font-family="Helvetica,sans-Serif" font-size="10.00">Stuff\lvlUp</text>
</g>
<!-- Node37 -->
<g id="node2" class="node"><title>Node37</title>
<g id="a_node2"><a xlink:href="class_stuff.html#a4d8664e6878c9661e0d0dcf46b1bd5d6" target="_top" xlink:title="Stuff\\niveau">
<polygon fill="white" stroke="black" points="95,-76.5 95,-95.5 161,-95.5 161,-76.5 95,-76.5"/>
<text text-anchor="middle" x="128" y="-83.5" font-family="Helvetica,sans-Serif" font-size="10.00">Stuff\niveau</text>
</a>
</g>
</g>
<!-- Node36&#45;&gt;Node37 -->
<g id="edge1" class="edge"><title>Node36&#45;&gt;Node37</title>
<path fill="none" stroke="midnightblue" d="M54.851,-57.589C66.5082,-62.1794 80.6554,-67.7503 93.3235,-72.7388"/>
<polygon fill="midnightblue" stroke="midnightblue" points="92.0698,-76.0066 102.657,-76.4141 94.6346,-69.4934 92.0698,-76.0066"/>
</g>
<!-- Node38 -->
<g id="node3" class="node"><title>Node38</title>
<g id="a_node3"><a xlink:href="class_stuff.html#a4afe7d4f33396df453f6fdc9c0ba3aa5" target="_top" xlink:title="Stuff\\atr_1">
<polygon fill="white" stroke="black" points="97.5,-38.5 97.5,-57.5 158.5,-57.5 158.5,-38.5 97.5,-38.5"/>
<text text-anchor="middle" x="128" y="-45.5" font-family="Helvetica,sans-Serif" font-size="10.00">Stuff\atr_1</text>
</a>
</g>
</g>
<!-- Node36&#45;&gt;Node38 -->
<g id="edge2" class="edge"><title>Node36&#45;&gt;Node38</title>
<path fill="none" stroke="midnightblue" d="M59.1919,-48C67.911,-48 77.6558,-48 86.9783,-48"/>
<polygon fill="midnightblue" stroke="midnightblue" points="87.2471,-51.5001 97.2471,-48 87.247,-44.5001 87.2471,-51.5001"/>
</g>
<!-- Node39 -->
<g id="node4" class="node"><title>Node39</title>
<g id="a_node4"><a xlink:href="class_stuff.html#a1bb01959da153fe1aacf0b3fe5454756" target="_top" xlink:title="Stuff\\atr_2">
<polygon fill="white" stroke="black" points="97.5,-0.5 97.5,-19.5 158.5,-19.5 158.5,-0.5 97.5,-0.5"/>
<text text-anchor="middle" x="128" y="-7.5" font-family="Helvetica,sans-Serif" font-size="10.00">Stuff\atr_2</text>
</a>
</g>
</g>
<!-- Node36&#45;&gt;Node39 -->
<g id="edge3" class="edge"><title>Node36&#45;&gt;Node39</title>
<path fill="none" stroke="midnightblue" d="M54.851,-38.411C66.5082,-33.8206 80.6554,-28.2497 93.3235,-23.2612"/>
<polygon fill="midnightblue" stroke="midnightblue" points="94.6346,-26.5066 102.657,-19.5859 92.0698,-19.9934 94.6346,-26.5066"/>
</g>
</g>
</svg>
