<?xml version="1.0" encoding="UTF-8" standalone="no"?>
<!DOCTYPE svg PUBLIC "-//W3C//DTD SVG 1.1//EN"
 "http://www.w3.org/Graphics/SVG/1.1/DTD/svg11.dtd">
<!-- Generated by graphviz version 2.38.0 (20140413.2041)
 -->
<!-- Title: Personnage\xp_max Pages: 1 -->
<svg width="421pt" height="104pt"
 viewBox="0.00 0.00 421.00 104.00" xmlns="http://www.w3.org/2000/svg" xmlns:xlink="http://www.w3.org/1999/xlink">
<g id="graph0" class="graph" transform="scale(1 1) rotate(0) translate(4 100)">
<title>Personnage\xp_max</title>
<polygon fill="white" stroke="none" points="-4,4 -4,-100 417,-100 417,4 -4,4"/>
<!-- Node207 -->
<g id="node1" class="node"><title>Node207</title>
<polygon fill="#bfbfbf" stroke="black" points="0,-19.5 0,-38.5 106,-38.5 106,-19.5 0,-19.5"/>
<text text-anchor="middle" x="53" y="-26.5" font-family="Helvetica,sans-Serif" font-size="10.00">Personnage\xp_max</text>
</g>
<!-- Node208 -->
<g id="node2" class="node"><title>Node208</title>
<g id="a_node2"><a xlink:href="class_personnage.html#aa64edf7d4c080193213b12643eb05a5d" target="_top" xlink:title="Personnage\\recevoirXP">
<polygon fill="white" stroke="black" points="143.5,-38.5 143.5,-57.5 259.5,-57.5 259.5,-38.5 143.5,-38.5"/>
<text text-anchor="middle" x="201.5" y="-45.5" font-family="Helvetica,sans-Serif" font-size="10.00">Personnage\recevoirXP</text>
</a>
</g>
</g>
<!-- Node207&#45;&gt;Node208 -->
<g id="edge1" class="edge"><title>Node207&#45;&gt;Node208</title>
<path fill="none" stroke="midnightblue" d="M116.139,-37.059C125.177,-38.2312 134.447,-39.4333 143.379,-40.5918"/>
<polygon fill="midnightblue" stroke="midnightblue" points="116.43,-33.5675 106.063,-35.7522 115.53,-40.5094 116.43,-33.5675"/>
</g>
<!-- Node212 -->
<g id="node6" class="node"><title>Node212</title>
<g id="a_node6"><a xlink:href="class_personnage.html#a19b9b5a7408d7d8b707e278e24af358f" target="_top" xlink:title="Personnage\\setXp_max">
<polygon fill="white" stroke="black" points="142,-0.5 142,-19.5 261,-19.5 261,-0.5 142,-0.5"/>
<text text-anchor="middle" x="201.5" y="-7.5" font-family="Helvetica,sans-Serif" font-size="10.00">Personnage\setXp_max</text>
</a>
</g>
</g>
<!-- Node207&#45;&gt;Node212 -->
<g id="edge5" class="edge"><title>Node207&#45;&gt;Node212</title>
<path fill="none" stroke="midnightblue" d="M116.002,-20.9588C124.576,-19.8468 133.361,-18.7075 141.871,-17.6038"/>
<polygon fill="midnightblue" stroke="midnightblue" points="115.53,-17.4906 106.063,-22.2478 116.43,-24.4325 115.53,-17.4906"/>
</g>
<!-- Node209 -->
<g id="node3" class="node"><title>Node209</title>
<g id="a_node3"><a xlink:href="class_att__soi.html#a7da2d15a0bedd2880e7491f72b430bf0" target="_top" xlink:title="Att_soi\\lancerUnSoin">
<polygon fill="white" stroke="black" points="301,-76.5 301,-95.5 409,-95.5 409,-76.5 301,-76.5"/>
<text text-anchor="middle" x="355" y="-83.5" font-family="Helvetica,sans-Serif" font-size="10.00">Att_soi\lancerUnSoin</text>
</a>
</g>
</g>
<!-- Node208&#45;&gt;Node209 -->
<g id="edge2" class="edge"><title>Node208&#45;&gt;Node209</title>
<path fill="none" stroke="midnightblue" d="M250.502,-60.04C271.667,-65.3488 296.186,-71.4988 316.045,-76.4799"/>
<polygon fill="midnightblue" stroke="midnightblue" points="251.281,-56.6271 240.73,-57.589 249.578,-63.4168 251.281,-56.6271"/>
</g>
<!-- Node210 -->
<g id="node4" class="node"><title>Node210</title>
<g id="a_node4"><a xlink:href="class_personnage.html#a1deaeddff5bc8766d52da4fc2d0b8032" target="_top" xlink:title="Fonction pour frapper. ">
<polygon fill="white" stroke="black" points="304.5,-38.5 304.5,-57.5 405.5,-57.5 405.5,-38.5 304.5,-38.5"/>
<text text-anchor="middle" x="355" y="-45.5" font-family="Helvetica,sans-Serif" font-size="10.00">Personnage\frapper</text>
</a>
</g>
</g>
<!-- Node208&#45;&gt;Node210 -->
<g id="edge3" class="edge"><title>Node208&#45;&gt;Node210</title>
<path fill="none" stroke="midnightblue" d="M269.808,-48C281.332,-48 293.121,-48 304.088,-48"/>
<polygon fill="midnightblue" stroke="midnightblue" points="269.776,-44.5001 259.776,-48 269.776,-51.5001 269.776,-44.5001"/>
</g>
<!-- Node211 -->
<g id="node5" class="node"><title>Node211</title>
<g id="a_node5"><a xlink:href="class_soigneur.html#ac68dd65c897e55dc77d354e79e79a52c" target="_top" xlink:title="Soigneur\\lancerUnSoin">
<polygon fill="white" stroke="black" points="297,-0.5 297,-19.5 413,-19.5 413,-0.5 297,-0.5"/>
<text text-anchor="middle" x="355" y="-7.5" font-family="Helvetica,sans-Serif" font-size="10.00">Soigneur\lancerUnSoin</text>
</a>
</g>
</g>
<!-- Node208&#45;&gt;Node211 -->
<g id="edge4" class="edge"><title>Node208&#45;&gt;Node211</title>
<path fill="none" stroke="midnightblue" d="M250.502,-35.96C271.667,-30.6512 296.186,-24.5012 316.045,-19.5201"/>
<polygon fill="midnightblue" stroke="midnightblue" points="249.578,-32.5832 240.73,-38.411 251.281,-39.3729 249.578,-32.5832"/>
</g>
</g>
</svg>
