<?xml version="1.0" encoding="UTF-8" standalone="no"?>
<!DOCTYPE svg PUBLIC "-//W3C//DTD SVG 1.1//EN"
 "http://www.w3.org/Graphics/SVG/1.1/DTD/svg11.dtd">
<!-- Generated by graphviz version 2.38.0 (20140413.2041)
 -->
<!-- Title: Base_personnage\stuff_4 Pages: 1 -->
<svg width="311pt" height="116pt"
 viewBox="0.00 0.00 311.00 115.50" xmlns="http://www.w3.org/2000/svg" xmlns:xlink="http://www.w3.org/1999/xlink">
<g id="graph0" class="graph" transform="scale(1 1) rotate(0) translate(4 111.5)">
<title>Base_personnage\stuff_4</title>
<polygon fill="white" stroke="none" points="-4,4 -4,-111.5 307,-111.5 307,4 -4,4"/>
<!-- Node74 -->
<g id="node1" class="node"><title>Node74</title>
<polygon fill="#bfbfbf" stroke="black" points="0,-50 0,-69 126,-69 126,-50 0,-50"/>
<text text-anchor="middle" x="63" y="-57" font-family="Helvetica,sans-Serif" font-size="10.00">Base_personnage\stuff_4</text>
</g>
<!-- Node75 -->
<g id="node2" class="node"><title>Node75</title>
<g id="a_node2"><a xlink:href="class_base__personnage.html#a19983536bab7533d81e56f5ca2934f2c" target="_top" xlink:title="Base_personnage\\setStuff_4">
<polygon fill="white" stroke="black" points="162,-88 162,-107 303,-107 303,-88 162,-88"/>
<text text-anchor="middle" x="232.5" y="-95" font-family="Helvetica,sans-Serif" font-size="10.00">Base_personnage\setStuff_4</text>
</a>
</g>
</g>
<!-- Node74&#45;&gt;Node75 -->
<g id="edge1" class="edge"><title>Node74&#45;&gt;Node75</title>
<path fill="none" stroke="midnightblue" d="M116.12,-71.3243C139.735,-76.6816 167.282,-82.9311 189.537,-87.9799"/>
<polygon fill="midnightblue" stroke="midnightblue" points="116.794,-67.8883 106.267,-69.089 115.245,-74.7148 116.794,-67.8883"/>
</g>
<!-- Node76 -->
<g id="node3" class="node"><title>Node76</title>
<g id="a_node3"><a xlink:href="class_personnages_manager.html#a3ce7c5751a3faedb4f639a009ff0243e" target="_top" xlink:title="PersonnagesManager\\add">
<polygon fill="white" stroke="black" points="167.5,-50 167.5,-69 297.5,-69 297.5,-50 167.5,-50"/>
<text text-anchor="middle" x="232.5" y="-57" font-family="Helvetica,sans-Serif" font-size="10.00">PersonnagesManager\add</text>
</a>
</g>
</g>
<!-- Node74&#45;&gt;Node76 -->
<g id="edge2" class="edge"><title>Node74&#45;&gt;Node76</title>
<path fill="none" stroke="midnightblue" d="M136.539,-59.5C146.808,-59.5 157.305,-59.5 167.399,-59.5"/>
<polygon fill="midnightblue" stroke="midnightblue" points="136.371,-56.0001 126.371,-59.5 136.371,-63.0001 136.371,-56.0001"/>
</g>
<!-- Node77 -->
<g id="node4" class="node"><title>Node77</title>
<g id="a_node4"><a xlink:href="class_personnages_manager.html#a21d75e552a085ee6178544d71f72b31c" target="_top" xlink:title="PersonnagesManager\l\\update">
<polygon fill="white" stroke="black" points="177,-0.5 177,-30.5 288,-30.5 288,-0.5 177,-0.5"/>
<text text-anchor="start" x="185" y="-18.5" font-family="Helvetica,sans-Serif" font-size="10.00">PersonnagesManager</text>
<text text-anchor="middle" x="232.5" y="-7.5" font-family="Helvetica,sans-Serif" font-size="10.00">\update</text>
</a>
</g>
</g>
<!-- Node74&#45;&gt;Node77 -->
<g id="edge3" class="edge"><title>Node74&#45;&gt;Node77</title>
<path fill="none" stroke="midnightblue" d="M110.13,-47.3823C130.751,-41.9653 155.214,-35.5393 176.756,-29.8806"/>
<polygon fill="midnightblue" stroke="midnightblue" points="109.128,-44.0268 100.345,-49.9527 110.906,-50.7971 109.128,-44.0268"/>
</g>
</g>
</svg>
