<?xml version="1.0" encoding="UTF-8" standalone="no"?>
<!DOCTYPE svg PUBLIC "-//W3C//DTD SVG 1.1//EN"
 "http://www.w3.org/Graphics/SVG/1.1/DTD/svg11.dtd">
<!-- Generated by graphviz version 2.38.0 (20140413.2041)
 -->
<!-- Title: Stuff\atr_1 Pages: 1 -->
<svg width="211pt" height="104pt"
 viewBox="0.00 0.00 211.00 104.00" xmlns="http://www.w3.org/2000/svg" xmlns:xlink="http://www.w3.org/1999/xlink">
<g id="graph0" class="graph" transform="scale(1 1) rotate(0) translate(4 100)">
<title>Stuff\atr_1</title>
<polygon fill="white" stroke="none" points="-4,4 -4,-100 207,-100 207,4 -4,4"/>
<!-- Node4 -->
<g id="node1" class="node"><title>Node4</title>
<polygon fill="#bfbfbf" stroke="black" points="0,-38.5 0,-57.5 61,-57.5 61,-38.5 0,-38.5"/>
<text text-anchor="middle" x="30.5" y="-45.5" font-family="Helvetica,sans-Serif" font-size="10.00">Stuff\atr_1</text>
</g>
<!-- Node5 -->
<g id="node2" class="node"><title>Node5</title>
<g id="a_node2"><a xlink:href="class_stuff.html#a58df203bb30ef856eab931a8b363ee69" target="_top" xlink:title="Stuff\\lvlUp">
<polygon fill="white" stroke="black" points="120.5,-76.5 120.5,-95.5 179.5,-95.5 179.5,-76.5 120.5,-76.5"/>
<text text-anchor="middle" x="150" y="-83.5" font-family="Helvetica,sans-Serif" font-size="10.00">Stuff\lvlUp</text>
</a>
</g>
</g>
<!-- Node4&#45;&gt;Node5 -->
<g id="edge1" class="edge"><title>Node4&#45;&gt;Node5</title>
<path fill="none" stroke="midnightblue" d="M70.8602,-60.7293C86.9925,-65.9465 105.322,-71.8743 120.172,-76.6768"/>
<polygon fill="midnightblue" stroke="midnightblue" points="71.742,-57.336 61.1502,-57.589 69.588,-63.9964 71.742,-57.336"/>
</g>
<!-- Node6 -->
<g id="node3" class="node"><title>Node6</title>
<g id="a_node3"><a xlink:href="class_stuff.html#a87e45b3acdcbf5190778daefa47d877e" target="_top" xlink:title="Stuff\\setAtr_1">
<polygon fill="white" stroke="black" points="112,-38.5 112,-57.5 188,-57.5 188,-38.5 112,-38.5"/>
<text text-anchor="middle" x="150" y="-45.5" font-family="Helvetica,sans-Serif" font-size="10.00">Stuff\setAtr_1</text>
</a>
</g>
</g>
<!-- Node4&#45;&gt;Node6 -->
<g id="edge2" class="edge"><title>Node4&#45;&gt;Node6</title>
<path fill="none" stroke="midnightblue" d="M71.2898,-48C84.3809,-48 98.8787,-48 111.772,-48"/>
<polygon fill="midnightblue" stroke="midnightblue" points="71.1502,-44.5001 61.1502,-48 71.1502,-51.5001 71.1502,-44.5001"/>
</g>
<!-- Node7 -->
<g id="node4" class="node"><title>Node7</title>
<g id="a_node4"><a xlink:href="class_stuff_manager.html#a45dc81b0ddbbd804960d197d7a1cad69" target="_top" xlink:title="StuffManager\\update">
<polygon fill="white" stroke="black" points="97,-0.5 97,-19.5 203,-19.5 203,-0.5 97,-0.5"/>
<text text-anchor="middle" x="150" y="-7.5" font-family="Helvetica,sans-Serif" font-size="10.00">StuffManager\update</text>
</a>
</g>
</g>
<!-- Node4&#45;&gt;Node7 -->
<g id="edge3" class="edge"><title>Node4&#45;&gt;Node7</title>
<path fill="none" stroke="midnightblue" d="M70.7092,-35.3196C86.5854,-30.1852 104.61,-24.3559 119.359,-19.5859"/>
<polygon fill="midnightblue" stroke="midnightblue" points="69.588,-32.0036 61.1502,-38.411 71.742,-38.664 69.588,-32.0036"/>
</g>
</g>
</svg>
