<?xml version="1.0" encoding="UTF-8" standalone="no"?>
<!DOCTYPE svg PUBLIC "-//W3C//DTD SVG 1.1//EN"
 "http://www.w3.org/Graphics/SVG/1.1/DTD/svg11.dtd">
<!-- Generated by graphviz version 2.38.0 (20140413.2041)
 -->
<!-- Title: PersonnagesManager\update Pages: 1 -->
<svg width="281pt" height="370pt"
 viewBox="0.00 0.00 281.00 370.00" xmlns="http://www.w3.org/2000/svg" xmlns:xlink="http://www.w3.org/1999/xlink">
<g id="graph0" class="graph" transform="scale(1 1) rotate(0) translate(4 366)">
<title>PersonnagesManager\update</title>
<polygon fill="white" stroke="none" points="-4,4 -4,-366 277,-366 277,4 -4,4"/>
<!-- Node43 -->
<g id="node1" class="node"><title>Node43</title>
<polygon fill="#bfbfbf" stroke="black" points="0,-166 0,-196 111,-196 111,-166 0,-166"/>
<text text-anchor="start" x="8" y="-184" font-family="Helvetica,sans-Serif" font-size="10.00">PersonnagesManager</text>
<text text-anchor="middle" x="55.5" y="-173" font-family="Helvetica,sans-Serif" font-size="10.00">\update</text>
</g>
<!-- Node44 -->
<g id="node2" class="node"><title>Node44</title>
<g id="a_node2"><a xlink:href="class_personnage.html#a061130b0c1c551d893ecffff2553cb93" target="_top" xlink:title="Personnage\\niveau">
<polygon fill="white" stroke="black" points="161,-342.5 161,-361.5 259,-361.5 259,-342.5 161,-342.5"/>
<text text-anchor="middle" x="210" y="-349.5" font-family="Helvetica,sans-Serif" font-size="10.00">Personnage\niveau</text>
</a>
</g>
</g>
<!-- Node43&#45;&gt;Node44 -->
<g id="edge1" class="edge"><title>Node43&#45;&gt;Node44</title>
<path fill="none" stroke="midnightblue" d="M61.2809,-196.009C71.7562,-226.476 99.652,-295.829 147,-333 149.324,-334.825 151.824,-336.475 154.439,-337.968"/>
<polygon fill="midnightblue" stroke="midnightblue" points="153.158,-341.237 163.682,-342.458 156.217,-334.94 153.158,-341.237"/>
</g>
<!-- Node45 -->
<g id="node3" class="node"><title>Node45</title>
<g id="a_node3"><a xlink:href="class_personnage.html#a60b2a6a44bc71517c063d87c062e0b87" target="_top" xlink:title="Personnage\\xp">
<polygon fill="white" stroke="black" points="169,-304.5 169,-323.5 251,-323.5 251,-304.5 169,-304.5"/>
<text text-anchor="middle" x="210" y="-311.5" font-family="Helvetica,sans-Serif" font-size="10.00">Personnage\xp</text>
</a>
</g>
</g>
<!-- Node43&#45;&gt;Node45 -->
<g id="edge2" class="edge"><title>Node43&#45;&gt;Node45</title>
<path fill="none" stroke="midnightblue" d="M64.6102,-196.364C78.3153,-220.854 108.379,-268.658 147,-295 150.764,-297.567 154.887,-299.798 159.162,-301.733"/>
<polygon fill="midnightblue" stroke="midnightblue" points="158.096,-305.076 168.682,-305.517 160.682,-298.571 158.096,-305.076"/>
</g>
<!-- Node46 -->
<g id="node4" class="node"><title>Node46</title>
<g id="a_node4"><a xlink:href="class_personnage.html#ae8daf1e07c298cf03a98b6b06d3adfd9" target="_top" xlink:title="Personnage\\qualite">
<polygon fill="white" stroke="black" points="160,-266.5 160,-285.5 260,-285.5 260,-266.5 160,-266.5"/>
<text text-anchor="middle" x="210" y="-273.5" font-family="Helvetica,sans-Serif" font-size="10.00">Personnage\qualite</text>
</a>
</g>
</g>
<!-- Node43&#45;&gt;Node46 -->
<g id="edge3" class="edge"><title>Node43&#45;&gt;Node46</title>
<path fill="none" stroke="midnightblue" d="M70.7942,-196.236C87.5566,-213.279 116.897,-240.635 147,-257 151.003,-259.176 155.289,-261.139 159.67,-262.902"/>
<polygon fill="midnightblue" stroke="midnightblue" points="158.743,-266.289 169.337,-266.446 161.153,-259.717 158.743,-266.289"/>
</g>
<!-- Node47 -->
<g id="node5" class="node"><title>Node47</title>
<g id="a_node5"><a xlink:href="class_personnage.html#a0d4c73464508133a5e83f3e53085572c" target="_top" xlink:title="Personnage\\team">
<polygon fill="white" stroke="black" points="163.5,-228.5 163.5,-247.5 256.5,-247.5 256.5,-228.5 163.5,-228.5"/>
<text text-anchor="middle" x="210" y="-235.5" font-family="Helvetica,sans-Serif" font-size="10.00">Personnage\team</text>
</a>
</g>
</g>
<!-- Node43&#45;&gt;Node47 -->
<g id="edge4" class="edge"><title>Node43&#45;&gt;Node47</title>
<path fill="none" stroke="midnightblue" d="M90.133,-196.068C107.038,-203.399 127.933,-212.095 147,-219 153.044,-221.189 159.475,-223.346 165.821,-225.377"/>
<polygon fill="midnightblue" stroke="midnightblue" points="165.066,-228.808 175.655,-228.452 167.155,-222.127 165.066,-228.808"/>
</g>
<!-- Node48 -->
<g id="node6" class="node"><title>Node48</title>
<g id="a_node6"><a xlink:href="class_base__personnage.html#aad70521301b01ab3918bea05bef7b54b" target="_top" xlink:title="Base_personnage\\stuff_1">
<polygon fill="white" stroke="black" points="147,-190.5 147,-209.5 273,-209.5 273,-190.5 147,-190.5"/>
<text text-anchor="middle" x="210" y="-197.5" font-family="Helvetica,sans-Serif" font-size="10.00">Base_personnage\stuff_1</text>
</a>
</g>
</g>
<!-- Node43&#45;&gt;Node48 -->
<g id="edge5" class="edge"><title>Node43&#45;&gt;Node48</title>
<path fill="none" stroke="midnightblue" d="M111.125,-187.806C119.479,-188.847 128.211,-189.935 136.872,-191.014"/>
<polygon fill="midnightblue" stroke="midnightblue" points="136.623,-194.51 146.979,-192.273 137.489,-187.563 136.623,-194.51"/>
</g>
<!-- Node49 -->
<g id="node7" class="node"><title>Node49</title>
<g id="a_node7"><a xlink:href="class_base__personnage.html#ae37a88e0e1535ff5f0d786c1007fbe1e" target="_top" xlink:title="Base_personnage\\stuff_2">
<polygon fill="white" stroke="black" points="147,-152.5 147,-171.5 273,-171.5 273,-152.5 147,-152.5"/>
<text text-anchor="middle" x="210" y="-159.5" font-family="Helvetica,sans-Serif" font-size="10.00">Base_personnage\stuff_2</text>
</a>
</g>
</g>
<!-- Node43&#45;&gt;Node49 -->
<g id="edge6" class="edge"><title>Node43&#45;&gt;Node49</title>
<path fill="none" stroke="midnightblue" d="M111.125,-174.194C119.479,-173.153 128.211,-172.065 136.872,-170.986"/>
<polygon fill="midnightblue" stroke="midnightblue" points="137.489,-174.437 146.979,-169.727 136.623,-167.49 137.489,-174.437"/>
</g>
<!-- Node50 -->
<g id="node8" class="node"><title>Node50</title>
<g id="a_node8"><a xlink:href="class_base__personnage.html#a901d3c830ec965886fcf9c57ff153675" target="_top" xlink:title="Base_personnage\\stuff_3">
<polygon fill="white" stroke="black" points="147,-114.5 147,-133.5 273,-133.5 273,-114.5 147,-114.5"/>
<text text-anchor="middle" x="210" y="-121.5" font-family="Helvetica,sans-Serif" font-size="10.00">Base_personnage\stuff_3</text>
</a>
</g>
</g>
<!-- Node43&#45;&gt;Node50 -->
<g id="edge7" class="edge"><title>Node43&#45;&gt;Node50</title>
<path fill="none" stroke="midnightblue" d="M90.133,-165.932C107.038,-158.601 127.933,-149.905 147,-143 153.044,-140.811 159.475,-138.654 165.821,-136.623"/>
<polygon fill="midnightblue" stroke="midnightblue" points="167.155,-139.873 175.655,-133.548 165.066,-133.192 167.155,-139.873"/>
</g>
<!-- Node51 -->
<g id="node9" class="node"><title>Node51</title>
<g id="a_node9"><a xlink:href="class_base__personnage.html#afb797796a81d9bec991ede838c711bd6" target="_top" xlink:title="Base_personnage\\stuff_4">
<polygon fill="white" stroke="black" points="147,-76.5 147,-95.5 273,-95.5 273,-76.5 147,-76.5"/>
<text text-anchor="middle" x="210" y="-83.5" font-family="Helvetica,sans-Serif" font-size="10.00">Base_personnage\stuff_4</text>
</a>
</g>
</g>
<!-- Node43&#45;&gt;Node51 -->
<g id="edge8" class="edge"><title>Node43&#45;&gt;Node51</title>
<path fill="none" stroke="midnightblue" d="M70.7942,-165.764C87.5566,-148.721 116.897,-121.365 147,-105 151.003,-102.824 155.289,-100.861 159.67,-99.0984"/>
<polygon fill="midnightblue" stroke="midnightblue" points="161.153,-102.283 169.337,-95.5542 158.743,-95.7105 161.153,-102.283"/>
</g>
<!-- Node52 -->
<g id="node10" class="node"><title>Node52</title>
<g id="a_node10"><a xlink:href="class_personnage.html#addeceec710baf3ae687f36151bc5def4" target="_top" xlink:title="Personnage\\etat">
<polygon fill="white" stroke="black" points="166,-38.5 166,-57.5 254,-57.5 254,-38.5 166,-38.5"/>
<text text-anchor="middle" x="210" y="-45.5" font-family="Helvetica,sans-Serif" font-size="10.00">Personnage\etat</text>
</a>
</g>
</g>
<!-- Node43&#45;&gt;Node52 -->
<g id="edge9" class="edge"><title>Node43&#45;&gt;Node52</title>
<path fill="none" stroke="midnightblue" d="M64.6102,-165.636C78.3153,-141.146 108.379,-93.3422 147,-67 149.925,-65.0047 153.068,-63.213 156.33,-61.6048"/>
<polygon fill="midnightblue" stroke="midnightblue" points="157.96,-64.7136 165.758,-57.5422 155.19,-58.285 157.96,-64.7136"/>
</g>
<!-- Node53 -->
<g id="node11" class="node"><title>Node53</title>
<g id="a_node11"><a xlink:href="class_personnage.html#aa34eed6a48eb3734596505b58497f2f1" target="_top" xlink:title="Personnage\\id_perso">
<polygon fill="white" stroke="black" points="156,-0.5 156,-19.5 264,-19.5 264,-0.5 156,-0.5"/>
<text text-anchor="middle" x="210" y="-7.5" font-family="Helvetica,sans-Serif" font-size="10.00">Personnage\id_perso</text>
</a>
</g>
</g>
<!-- Node43&#45;&gt;Node53 -->
<g id="edge10" class="edge"><title>Node43&#45;&gt;Node53</title>
<path fill="none" stroke="midnightblue" d="M61.2809,-165.991C71.7562,-135.524 99.652,-66.1712 147,-29 149.324,-27.1751 151.824,-25.5247 154.439,-24.0322"/>
<polygon fill="midnightblue" stroke="midnightblue" points="156.217,-27.0596 163.682,-19.5418 153.158,-20.7632 156.217,-27.0596"/>
</g>
</g>
</svg>
