<?xml version="1.0" encoding="UTF-8" standalone="no"?>
<!DOCTYPE svg PUBLIC "-//W3C//DTD SVG 1.1//EN"
 "http://www.w3.org/Graphics/SVG/1.1/DTD/svg11.dtd">
<!-- Generated by graphviz version 2.38.0 (20140413.2041)
 -->
<!-- Title: User\endu Pages: 1 -->
<svg width="212pt" height="104pt"
 viewBox="0.00 0.00 212.00 104.00" xmlns="http://www.w3.org/2000/svg" xmlns:xlink="http://www.w3.org/1999/xlink">
<g id="graph0" class="graph" transform="scale(1 1) rotate(0) translate(4 100)">
<title>User\endu</title>
<polygon fill="white" stroke="none" points="-4,4 -4,-100 208,-100 208,4 -4,4"/>
<!-- Node17 -->
<g id="node1" class="node"><title>Node17</title>
<polygon fill="#bfbfbf" stroke="black" points="0,-38.5 0,-57.5 61,-57.5 61,-38.5 0,-38.5"/>
<text text-anchor="middle" x="30.5" y="-45.5" font-family="Helvetica,sans-Serif" font-size="10.00">User\endu</text>
</g>
<!-- Node18 -->
<g id="node2" class="node"><title>Node18</title>
<g id="a_node2"><a xlink:href="class_user.html#a08df42bf36aae3eb166e208ad689c814" target="_top" xlink:title="User\\setEndu">
<polygon fill="white" stroke="black" points="112.5,-76.5 112.5,-95.5 188.5,-95.5 188.5,-76.5 112.5,-76.5"/>
<text text-anchor="middle" x="150.5" y="-83.5" font-family="Helvetica,sans-Serif" font-size="10.00">User\setEndu</text>
</a>
</g>
</g>
<!-- Node17&#45;&gt;Node18 -->
<g id="edge1" class="edge"><title>Node17&#45;&gt;Node18</title>
<path fill="none" stroke="midnightblue" d="M70.8761,-60.6804C86.8198,-65.8148 104.921,-71.6441 119.733,-76.4141"/>
<polygon fill="midnightblue" stroke="midnightblue" points="71.8679,-57.3229 61.2764,-57.589 69.7221,-63.9859 71.8679,-57.3229"/>
</g>
<!-- Node19 -->
<g id="node3" class="node"><title>Node19</title>
<g id="a_node3"><a xlink:href="class_user_manager.html#a7fb17bfd67135d7be043d59aeec1dcd4" target="_top" xlink:title="UserManager\\add">
<polygon fill="white" stroke="black" points="104,-38.5 104,-57.5 197,-57.5 197,-38.5 104,-38.5"/>
<text text-anchor="middle" x="150.5" y="-45.5" font-family="Helvetica,sans-Serif" font-size="10.00">UserManager\add</text>
</a>
</g>
</g>
<!-- Node17&#45;&gt;Node19 -->
<g id="edge2" class="edge"><title>Node17&#45;&gt;Node19</title>
<path fill="none" stroke="midnightblue" d="M71.3106,-48C81.697,-48 92.9737,-48 103.646,-48"/>
<polygon fill="midnightblue" stroke="midnightblue" points="71.2764,-44.5001 61.2764,-48 71.2763,-51.5001 71.2764,-44.5001"/>
</g>
<!-- Node20 -->
<g id="node4" class="node"><title>Node20</title>
<g id="a_node4"><a xlink:href="class_user_manager.html#ad953740cf56464fdb81b8bc9654c5371" target="_top" xlink:title="UserManager\\update">
<polygon fill="white" stroke="black" points="97,-0.5 97,-19.5 204,-19.5 204,-0.5 97,-0.5"/>
<text text-anchor="middle" x="150.5" y="-7.5" font-family="Helvetica,sans-Serif" font-size="10.00">UserManager\update</text>
</a>
</g>
</g>
<!-- Node17&#45;&gt;Node20 -->
<g id="edge3" class="edge"><title>Node17&#45;&gt;Node20</title>
<path fill="none" stroke="midnightblue" d="M70.8761,-35.3196C86.8198,-30.1852 104.921,-24.3559 119.733,-19.5859"/>
<polygon fill="midnightblue" stroke="midnightblue" points="69.7221,-32.0141 61.2764,-38.411 71.8679,-38.6771 69.7221,-32.0141"/>
</g>
</g>
</svg>
