<?xml version="1.0" encoding="UTF-8" standalone="no"?>
<!DOCTYPE svg PUBLIC "-//W3C//DTD SVG 1.1//EN"
 "http://www.w3.org/Graphics/SVG/1.1/DTD/svg11.dtd">
<!-- Generated by graphviz version 2.38.0 (20140413.2041)
 -->
<!-- Title: Att_soi\lancerUnSoin Pages: 1 -->
<svg width="595pt" height="180pt"
 viewBox="0.00 0.00 595.00 180.00" xmlns="http://www.w3.org/2000/svg" xmlns:xlink="http://www.w3.org/1999/xlink">
<g id="graph0" class="graph" transform="scale(1 1) rotate(0) translate(4 176)">
<title>Att_soi\lancerUnSoin</title>
<polygon fill="white" stroke="none" points="-4,4 -4,-176 591,-176 591,4 -4,4"/>
<!-- Node0 -->
<g id="node1" class="node"><title>Node0</title>
<polygon fill="#bfbfbf" stroke="black" points="0,-114.5 0,-133.5 108,-133.5 108,-114.5 0,-114.5"/>
<text text-anchor="middle" x="54" y="-121.5" font-family="Helvetica,sans-Serif" font-size="10.00">Att_soi\lancerUnSoin</text>
</g>
<!-- Node1 -->
<g id="node2" class="node"><title>Node1</title>
<g id="a_node2"><a xlink:href="class_personnage.html#a1219171b9ddba0fecfa49995d7d71372" target="_top" xlink:title="Personnage\\soigner">
<polygon fill="white" stroke="black" points="150.5,-114.5 150.5,-133.5 253.5,-133.5 253.5,-114.5 150.5,-114.5"/>
<text text-anchor="middle" x="202" y="-121.5" font-family="Helvetica,sans-Serif" font-size="10.00">Personnage\soigner</text>
</a>
</g>
</g>
<!-- Node0&#45;&gt;Node1 -->
<g id="edge1" class="edge"><title>Node0&#45;&gt;Node1</title>
<path fill="none" stroke="midnightblue" d="M108.122,-124C118.503,-124 129.463,-124 140.074,-124"/>
<polygon fill="midnightblue" stroke="midnightblue" points="140.109,-127.5 150.109,-124 140.109,-120.5 140.109,-127.5"/>
</g>
<!-- Node2 -->
<g id="node3" class="node"><title>Node2</title>
<g id="a_node3"><a xlink:href="class_personnage.html#aabf0bcd80fcea089de16f33c029aae12" target="_top" xlink:title="Personnage\\estEndormi">
<polygon fill="white" stroke="black" points="300,-152.5 300,-171.5 421,-171.5 421,-152.5 300,-152.5"/>
<text text-anchor="middle" x="360.5" y="-159.5" font-family="Helvetica,sans-Serif" font-size="10.00">Personnage\estEndormi</text>
</a>
</g>
</g>
<!-- Node0&#45;&gt;Node2 -->
<g id="edge5" class="edge"><title>Node0&#45;&gt;Node2</title>
<path fill="none" stroke="midnightblue" d="M94.6836,-133.558C110.016,-136.965 127.751,-140.559 144,-143 192.38,-150.269 247.32,-155.06 289.618,-158.013"/>
<polygon fill="midnightblue" stroke="midnightblue" points="289.598,-161.519 299.813,-158.706 290.073,-154.535 289.598,-161.519"/>
</g>
<!-- Node5 -->
<g id="node6" class="node"><title>Node5</title>
<g id="a_node6"><a xlink:href="class_personnage.html#aa64edf7d4c080193213b12643eb05a5d" target="_top" xlink:title="Personnage\\recevoirXP">
<polygon fill="white" stroke="black" points="144,-57.5 144,-76.5 260,-76.5 260,-57.5 144,-57.5"/>
<text text-anchor="middle" x="202" y="-64.5" font-family="Helvetica,sans-Serif" font-size="10.00">Personnage\recevoirXP</text>
</a>
</g>
</g>
<!-- Node0&#45;&gt;Node5 -->
<g id="edge6" class="edge"><title>Node0&#45;&gt;Node5</title>
<path fill="none" stroke="midnightblue" d="M79.4371,-114.459C103.44,-105.088 140.263,-90.7124 167.093,-80.2377"/>
<polygon fill="midnightblue" stroke="midnightblue" points="168.441,-83.4688 176.483,-76.5716 165.895,-76.9481 168.441,-83.4688"/>
</g>
<!-- Node1&#45;&gt;Node2 -->
<g id="edge2" class="edge"><title>Node1&#45;&gt;Node2</title>
<path fill="none" stroke="midnightblue" d="M242.492,-133.589C263.143,-138.604 288.614,-144.788 310.512,-150.105"/>
<polygon fill="midnightblue" stroke="midnightblue" points="309.749,-153.521 320.292,-152.48 311.401,-146.719 309.749,-153.521"/>
</g>
<!-- Node4 -->
<g id="node5" class="node"><title>Node4</title>
<g id="a_node5"><a xlink:href="class_personnage.html#acadb61228a3ebdf18318771f954e2ae0" target="_top" xlink:title="Personnage\\recevoirSoins">
<polygon fill="white" stroke="black" points="296,-114.5 296,-133.5 425,-133.5 425,-114.5 296,-114.5"/>
<text text-anchor="middle" x="360.5" y="-121.5" font-family="Helvetica,sans-Serif" font-size="10.00">Personnage\recevoirSoins</text>
</a>
</g>
</g>
<!-- Node1&#45;&gt;Node4 -->
<g id="edge4" class="edge"><title>Node1&#45;&gt;Node4</title>
<path fill="none" stroke="midnightblue" d="M253.811,-124C263.956,-124 274.807,-124 285.548,-124"/>
<polygon fill="midnightblue" stroke="midnightblue" points="285.787,-127.5 295.787,-124 285.787,-120.5 285.787,-127.5"/>
</g>
<!-- Node3 -->
<g id="node4" class="node"><title>Node3</title>
<g id="a_node4"><a xlink:href="class_personnage.html#a5fbe8f1f41e05e856ec6390bfb3e4f03" target="_top" xlink:title="Personnage\\timeEndormi">
<polygon fill="white" stroke="black" points="461,-152.5 461,-171.5 587,-171.5 587,-152.5 461,-152.5"/>
<text text-anchor="middle" x="524" y="-159.5" font-family="Helvetica,sans-Serif" font-size="10.00">Personnage\timeEndormi</text>
</a>
</g>
</g>
<!-- Node2&#45;&gt;Node3 -->
<g id="edge3" class="edge"><title>Node2&#45;&gt;Node3</title>
<path fill="none" stroke="midnightblue" d="M421.178,-162C430.781,-162 440.812,-162 450.673,-162"/>
<polygon fill="midnightblue" stroke="midnightblue" points="450.863,-165.5 460.863,-162 450.863,-158.5 450.863,-165.5"/>
</g>
<!-- Node6 -->
<g id="node7" class="node"><title>Node6</title>
<g id="a_node7"><a xlink:href="class_personnage.html#a60b2a6a44bc71517c063d87c062e0b87" target="_top" xlink:title="Personnage\\xp">
<polygon fill="white" stroke="black" points="319.5,-76.5 319.5,-95.5 401.5,-95.5 401.5,-76.5 319.5,-76.5"/>
<text text-anchor="middle" x="360.5" y="-83.5" font-family="Helvetica,sans-Serif" font-size="10.00">Personnage\xp</text>
</a>
</g>
</g>
<!-- Node5&#45;&gt;Node6 -->
<g id="edge7" class="edge"><title>Node5&#45;&gt;Node6</title>
<path fill="none" stroke="midnightblue" d="M260.386,-73.967C276.416,-75.9131 293.706,-78.0122 309.287,-79.9038"/>
<polygon fill="midnightblue" stroke="midnightblue" points="308.899,-83.3824 319.248,-81.1132 309.743,-76.4334 308.899,-83.3824"/>
</g>
<!-- Node7 -->
<g id="node8" class="node"><title>Node7</title>
<g id="a_node8"><a xlink:href="class_personnage.html#aa5bc9f2bda281400fedbc1af1c19357d" target="_top" xlink:title="Personnage\\xp_max">
<polygon fill="white" stroke="black" points="307.5,-38.5 307.5,-57.5 413.5,-57.5 413.5,-38.5 307.5,-38.5"/>
<text text-anchor="middle" x="360.5" y="-45.5" font-family="Helvetica,sans-Serif" font-size="10.00">Personnage\xp_max</text>
</a>
</g>
</g>
<!-- Node5&#45;&gt;Node7 -->
<g id="edge8" class="edge"><title>Node5&#45;&gt;Node7</title>
<path fill="none" stroke="midnightblue" d="M260.386,-60.033C272.381,-58.5767 285.082,-57.0348 297.244,-55.5582"/>
<polygon fill="midnightblue" stroke="midnightblue" points="297.801,-59.0164 307.306,-54.3366 296.957,-52.0674 297.801,-59.0164"/>
</g>
<!-- Node8 -->
<g id="node9" class="node"><title>Node8</title>
<g id="a_node9"><a xlink:href="class_personnage.html#a061130b0c1c551d893ecffff2553cb93" target="_top" xlink:title="Personnage\\niveau">
<polygon fill="white" stroke="black" points="311.5,-0.5 311.5,-19.5 409.5,-19.5 409.5,-0.5 311.5,-0.5"/>
<text text-anchor="middle" x="360.5" y="-7.5" font-family="Helvetica,sans-Serif" font-size="10.00">Personnage\niveau</text>
</a>
</g>
</g>
<!-- Node5&#45;&gt;Node8 -->
<g id="edge9" class="edge"><title>Node5&#45;&gt;Node8</title>
<path fill="none" stroke="midnightblue" d="M224.568,-57.4901C243.271,-49.4117 271.165,-37.7661 296,-29 302.343,-26.7612 309.1,-24.5542 315.751,-22.4812"/>
<polygon fill="midnightblue" stroke="midnightblue" points="316.815,-25.8159 325.359,-19.5518 314.773,-19.1202 316.815,-25.8159"/>
</g>
</g>
</svg>
