<?xml version="1.0" encoding="UTF-8" standalone="no"?>
<!DOCTYPE svg PUBLIC "-//W3C//DTD SVG 1.1//EN"
 "http://www.w3.org/Graphics/SVG/1.1/DTD/svg11.dtd">
<!-- Generated by graphviz version 2.38.0 (20140413.2041)
 -->
<!-- Title: Stuff\hydrate Pages: 1 -->
<svg width="373pt" height="66pt"
 viewBox="0.00 0.00 373.00 66.00" xmlns="http://www.w3.org/2000/svg" xmlns:xlink="http://www.w3.org/1999/xlink">
<g id="graph0" class="graph" transform="scale(1 1) rotate(0) translate(4 62)">
<title>Stuff\hydrate</title>
<polygon fill="white" stroke="none" points="-4,4 -4,-62 369,-62 369,4 -4,4"/>
<!-- Node23 -->
<g id="node1" class="node"><title>Node23</title>
<polygon fill="#bfbfbf" stroke="black" points="0,-19.5 0,-38.5 71,-38.5 71,-19.5 0,-19.5"/>
<text text-anchor="middle" x="35.5" y="-26.5" font-family="Helvetica,sans-Serif" font-size="10.00">Stuff\hydrate</text>
</g>
<!-- Node24 -->
<g id="node2" class="node"><title>Node24</title>
<g id="a_node2"><a xlink:href="class_stuff.html#a85fa1bd0e8d0c382a2860f32ae2dfb1d" target="_top" xlink:title="Stuff\\__construct">
<polygon fill="white" stroke="black" points="108,-38.5 108,-57.5 198,-57.5 198,-38.5 108,-38.5"/>
<text text-anchor="middle" x="153" y="-45.5" font-family="Helvetica,sans-Serif" font-size="10.00">Stuff\__construct</text>
</a>
</g>
</g>
<!-- Node23&#45;&gt;Node24 -->
<g id="edge1" class="edge"><title>Node23&#45;&gt;Node24</title>
<path fill="none" stroke="midnightblue" d="M81.208,-36.3546C89.9829,-37.7981 99.1817,-39.3113 107.935,-40.7513"/>
<polygon fill="midnightblue" stroke="midnightblue" points="81.5893,-32.8703 71.1538,-34.7006 80.453,-39.7775 81.5893,-32.8703"/>
</g>
<!-- Node25 -->
<g id="node3" class="node"><title>Node25</title>
<g id="a_node3"><a xlink:href="class_stuff_manager.html#ab754f0d8b6625898735779a852268223" target="_top" xlink:title="StuffManager\\add">
<polygon fill="white" stroke="black" points="107,-0.5 107,-19.5 199,-19.5 199,-0.5 107,-0.5"/>
<text text-anchor="middle" x="153" y="-7.5" font-family="Helvetica,sans-Serif" font-size="10.00">StuffManager\add</text>
</a>
</g>
</g>
<!-- Node23&#45;&gt;Node25 -->
<g id="edge2" class="edge"><title>Node23&#45;&gt;Node25</title>
<path fill="none" stroke="midnightblue" d="M81.1291,-21.6584C89.5069,-20.2803 98.2737,-18.8381 106.672,-17.4565"/>
<polygon fill="midnightblue" stroke="midnightblue" points="80.453,-18.2225 71.1538,-23.2994 81.5893,-25.1297 80.453,-18.2225"/>
</g>
<!-- Node26 -->
<g id="node4" class="node"><title>Node26</title>
<g id="a_node4"><a xlink:href="class_personnages_manager.html#a3ce7c5751a3faedb4f639a009ff0243e" target="_top" xlink:title="PersonnagesManager\\add">
<polygon fill="white" stroke="black" points="235,-0.5 235,-19.5 365,-19.5 365,-0.5 235,-0.5"/>
<text text-anchor="middle" x="300" y="-7.5" font-family="Helvetica,sans-Serif" font-size="10.00">PersonnagesManager\add</text>
</a>
</g>
</g>
<!-- Node25&#45;&gt;Node26 -->
<g id="edge3" class="edge"><title>Node25&#45;&gt;Node26</title>
<path fill="none" stroke="midnightblue" d="M209.118,-10C217.504,-10 226.221,-10 234.781,-10"/>
<polygon fill="midnightblue" stroke="midnightblue" points="209.084,-6.5001 199.084,-10 209.084,-13.5001 209.084,-6.5001"/>
</g>
</g>
</svg>
