<?xml version="1.0" encoding="UTF-8" standalone="no"?>
<!DOCTYPE svg PUBLIC "-//W3C//DTD SVG 1.1//EN"
 "http://www.w3.org/Graphics/SVG/1.1/DTD/svg11.dtd">
<!-- Generated by graphviz version 2.38.0 (20140413.2041)
 -->
<!-- Title: User\argent Pages: 1 -->
<svg width="218pt" height="142pt"
 viewBox="0.00 0.00 218.00 142.00" xmlns="http://www.w3.org/2000/svg" xmlns:xlink="http://www.w3.org/1999/xlink">
<g id="graph0" class="graph" transform="scale(1 1) rotate(0) translate(4 138)">
<title>User\argent</title>
<polygon fill="white" stroke="none" points="-4,4 -4,-138 214,-138 214,4 -4,4"/>
<!-- Node4 -->
<g id="node1" class="node"><title>Node4</title>
<polygon fill="#bfbfbf" stroke="black" points="0,-57.5 0,-76.5 67,-76.5 67,-57.5 0,-57.5"/>
<text text-anchor="middle" x="33.5" y="-64.5" font-family="Helvetica,sans-Serif" font-size="10.00">User\argent</text>
</g>
<!-- Node5 -->
<g id="node2" class="node"><title>Node5</title>
<g id="a_node2"><a xlink:href="class_user.html#ad1c97f448cd6d5258f4b1ab9f36172ed" target="_top" xlink:title="User\\payer_argent">
<polygon fill="white" stroke="black" points="108.5,-114.5 108.5,-133.5 204.5,-133.5 204.5,-114.5 108.5,-114.5"/>
<text text-anchor="middle" x="156.5" y="-121.5" font-family="Helvetica,sans-Serif" font-size="10.00">User\payer_argent</text>
</a>
</g>
</g>
<!-- Node4&#45;&gt;Node5 -->
<g id="edge1" class="edge"><title>Node4&#45;&gt;Node5</title>
<path fill="none" stroke="midnightblue" d="M58.8986,-81.7795C71.7632,-89.2508 87.9581,-98.1585 103,-105 110.5,-108.411 118.807,-111.652 126.559,-114.459"/>
<polygon fill="midnightblue" stroke="midnightblue" points="60.5761,-78.7055 50.1839,-76.6432 57.0218,-84.736 60.5761,-78.7055"/>
</g>
<!-- Node6 -->
<g id="node3" class="node"><title>Node6</title>
<g id="a_node3"><a xlink:href="class_user.html#a1ec02d8692a7b6ae5e191f83c8e81659" target="_top" xlink:title="User\\setArgent">
<polygon fill="white" stroke="black" points="115.5,-76.5 115.5,-95.5 197.5,-95.5 197.5,-76.5 115.5,-76.5"/>
<text text-anchor="middle" x="156.5" y="-83.5" font-family="Helvetica,sans-Serif" font-size="10.00">User\setArgent</text>
</a>
</g>
</g>
<!-- Node4&#45;&gt;Node6 -->
<g id="edge2" class="edge"><title>Node4&#45;&gt;Node6</title>
<path fill="none" stroke="midnightblue" d="M77.3386,-73.7267C89.7194,-75.6708 103.182,-77.7848 115.39,-79.7017"/>
<polygon fill="midnightblue" stroke="midnightblue" points="77.6663,-70.2354 67.2443,-72.1417 76.5803,-77.1506 77.6663,-70.2354"/>
</g>
<!-- Node7 -->
<g id="node4" class="node"><title>Node7</title>
<g id="a_node4"><a xlink:href="class_user_manager.html#a7fb17bfd67135d7be043d59aeec1dcd4" target="_top" xlink:title="UserManager\\add">
<polygon fill="white" stroke="black" points="110,-38.5 110,-57.5 203,-57.5 203,-38.5 110,-38.5"/>
<text text-anchor="middle" x="156.5" y="-45.5" font-family="Helvetica,sans-Serif" font-size="10.00">UserManager\add</text>
</a>
</g>
</g>
<!-- Node4&#45;&gt;Node7 -->
<g id="edge3" class="edge"><title>Node4&#45;&gt;Node7</title>
<path fill="none" stroke="midnightblue" d="M77.3666,-60.2689C87.7959,-58.6312 98.9913,-56.8733 109.557,-55.2142"/>
<polygon fill="midnightblue" stroke="midnightblue" points="76.5803,-56.8494 67.2443,-61.8583 77.6663,-63.7646 76.5803,-56.8494"/>
</g>
<!-- Node8 -->
<g id="node5" class="node"><title>Node8</title>
<g id="a_node5"><a xlink:href="class_user_manager.html#ad953740cf56464fdb81b8bc9654c5371" target="_top" xlink:title="UserManager\\update">
<polygon fill="white" stroke="black" points="103,-0.5 103,-19.5 210,-19.5 210,-0.5 103,-0.5"/>
<text text-anchor="middle" x="156.5" y="-7.5" font-family="Helvetica,sans-Serif" font-size="10.00">UserManager\update</text>
</a>
</g>
</g>
<!-- Node4&#45;&gt;Node8 -->
<g id="edge4" class="edge"><title>Node4&#45;&gt;Node8</title>
<path fill="none" stroke="midnightblue" d="M58.8986,-52.2205C71.7632,-44.7492 87.9581,-35.8415 103,-29 110.5,-25.5889 118.807,-22.3483 126.559,-19.5411"/>
<polygon fill="midnightblue" stroke="midnightblue" points="57.0218,-49.264 50.1839,-57.3568 60.5761,-55.2945 57.0218,-49.264"/>
</g>
</g>
</svg>
