<?xml version="1.0" encoding="UTF-8" standalone="no"?>
<!DOCTYPE svg PUBLIC "-//W3C//DTD SVG 1.1//EN"
 "http://www.w3.org/Graphics/SVG/1.1/DTD/svg11.dtd">
<!-- Generated by graphviz version 2.38.0 (20140413.2041)
 -->
<!-- Title: User\pseudo Pages: 1 -->
<svg width="208pt" height="66pt"
 viewBox="0.00 0.00 208.00 66.00" xmlns="http://www.w3.org/2000/svg" xmlns:xlink="http://www.w3.org/1999/xlink">
<g id="graph0" class="graph" transform="scale(1 1) rotate(0) translate(4 62)">
<title>User\pseudo</title>
<polygon fill="white" stroke="none" points="-4,4 -4,-62 204,-62 204,4 -4,4"/>
<!-- Node57 -->
<g id="node1" class="node"><title>Node57</title>
<polygon fill="#bfbfbf" stroke="black" points="0,-19.5 0,-38.5 71,-38.5 71,-19.5 0,-19.5"/>
<text text-anchor="middle" x="35.5" y="-26.5" font-family="Helvetica,sans-Serif" font-size="10.00">User\pseudo</text>
</g>
<!-- Node58 -->
<g id="node2" class="node"><title>Node58</title>
<g id="a_node2"><a xlink:href="class_user.html#afa0f13589eb9cdaca9a8192d245fd75f" target="_top" xlink:title="User\\setPseudo">
<polygon fill="white" stroke="black" points="110.5,-38.5 110.5,-57.5 196.5,-57.5 196.5,-38.5 110.5,-38.5"/>
<text text-anchor="middle" x="153.5" y="-45.5" font-family="Helvetica,sans-Serif" font-size="10.00">User\setPseudo</text>
</a>
</g>
</g>
<!-- Node57&#45;&gt;Node58 -->
<g id="edge1" class="edge"><title>Node57&#45;&gt;Node58</title>
<path fill="none" stroke="midnightblue" d="M81.3883,-36.3524C90.9099,-37.912 100.929,-39.553 110.344,-41.0952"/>
<polygon fill="midnightblue" stroke="midnightblue" points="81.7381,-32.8631 71.3038,-34.7006 80.6066,-39.7711 81.7381,-32.8631"/>
</g>
<!-- Node59 -->
<g id="node3" class="node"><title>Node59</title>
<g id="a_node3"><a xlink:href="class_user_manager.html#a7fb17bfd67135d7be043d59aeec1dcd4" target="_top" xlink:title="UserManager\\add">
<polygon fill="white" stroke="black" points="107,-0.5 107,-19.5 200,-19.5 200,-0.5 107,-0.5"/>
<text text-anchor="middle" x="153.5" y="-7.5" font-family="Helvetica,sans-Serif" font-size="10.00">UserManager\add</text>
</a>
</g>
</g>
<!-- Node57&#45;&gt;Node59 -->
<g id="edge2" class="edge"><title>Node57&#45;&gt;Node59</title>
<path fill="none" stroke="midnightblue" d="M81.3223,-21.6584C89.7364,-20.2803 98.5411,-18.8381 106.976,-17.4565"/>
<polygon fill="midnightblue" stroke="midnightblue" points="80.6066,-18.2289 71.3038,-23.2994 81.7381,-25.1369 80.6066,-18.2289"/>
</g>
</g>
</svg>
