<?xml version="1.0" encoding="UTF-8" standalone="no"?>
<!DOCTYPE svg PUBLIC "-//W3C//DTD SVG 1.1//EN"
 "http://www.w3.org/Graphics/SVG/1.1/DTD/svg11.dtd">
<!-- Generated by graphviz version 2.38.0 (20140413.2041)
 -->
<!-- Title: Base_personnage\qualite Pages: 1 -->
<svg width="312pt" height="66pt"
 viewBox="0.00 0.00 312.00 66.00" xmlns="http://www.w3.org/2000/svg" xmlns:xlink="http://www.w3.org/1999/xlink">
<g id="graph0" class="graph" transform="scale(1 1) rotate(0) translate(4 62)">
<title>Base_personnage\qualite</title>
<polygon fill="white" stroke="none" points="-4,4 -4,-62 308,-62 308,4 -4,4"/>
<!-- Node23 -->
<g id="node1" class="node"><title>Node23</title>
<polygon fill="#bfbfbf" stroke="black" points="0,-19.5 0,-38.5 126,-38.5 126,-19.5 0,-19.5"/>
<text text-anchor="middle" x="63" y="-26.5" font-family="Helvetica,sans-Serif" font-size="10.00">Base_personnage\qualite</text>
</g>
<!-- Node24 -->
<g id="node2" class="node"><title>Node24</title>
<g id="a_node2"><a xlink:href="class_base__personnage.html#a05dbaa079c1220db181bd98a204ffead" target="_top" xlink:title="Base_personnage\\setQualite">
<polygon fill="white" stroke="black" points="162,-38.5 162,-57.5 304,-57.5 304,-38.5 162,-38.5"/>
<text text-anchor="middle" x="233" y="-45.5" font-family="Helvetica,sans-Serif" font-size="10.00">Base_personnage\setQualite</text>
</a>
</g>
</g>
<!-- Node23&#45;&gt;Node24 -->
<g id="edge1" class="edge"><title>Node23&#45;&gt;Node24</title>
<path fill="none" stroke="midnightblue" d="M136.06,-37.1497C144.647,-38.1208 153.405,-39.1112 161.963,-40.0791"/>
<polygon fill="midnightblue" stroke="midnightblue" points="136.41,-33.667 126.08,-36.0209 135.623,-40.6226 136.41,-33.667"/>
</g>
<!-- Node25 -->
<g id="node3" class="node"><title>Node25</title>
<g id="a_node3"><a xlink:href="class_personnages_manager.html#a3ce7c5751a3faedb4f639a009ff0243e" target="_top" xlink:title="PersonnagesManager\\add">
<polygon fill="white" stroke="black" points="168,-0.5 168,-19.5 298,-19.5 298,-0.5 168,-0.5"/>
<text text-anchor="middle" x="233" y="-7.5" font-family="Helvetica,sans-Serif" font-size="10.00">PersonnagesManager\add</text>
</a>
</g>
</g>
<!-- Node23&#45;&gt;Node25 -->
<g id="edge2" class="edge"><title>Node23&#45;&gt;Node25</title>
<path fill="none" stroke="midnightblue" d="M136.118,-20.8438C146.694,-19.6477 157.527,-18.4226 167.927,-17.2464"/>
<polygon fill="midnightblue" stroke="midnightblue" points="135.623,-17.3774 126.08,-21.9791 136.41,-24.333 135.623,-17.3774"/>
</g>
</g>
</svg>
