<?xml version="1.0" encoding="UTF-8" standalone="no"?>
<!DOCTYPE svg PUBLIC "-//W3C//DTD SVG 1.1//EN"
 "http://www.w3.org/Graphics/SVG/1.1/DTD/svg11.dtd">
<!-- Generated by graphviz version 2.38.0 (20140413.2041)
 -->
<!-- Title: Personnage\atout Pages: 1 -->
<svg width="274pt" height="66pt"
 viewBox="0.00 0.00 274.00 66.00" xmlns="http://www.w3.org/2000/svg" xmlns:xlink="http://www.w3.org/1999/xlink">
<g id="graph0" class="graph" transform="scale(1 1) rotate(0) translate(4 62)">
<title>Personnage\atout</title>
<polygon fill="white" stroke="none" points="-4,4 -4,-62 270,-62 270,4 -4,4"/>
<!-- Node7 -->
<g id="node1" class="node"><title>Node7</title>
<polygon fill="#bfbfbf" stroke="black" points="0,-19.5 0,-38.5 93,-38.5 93,-19.5 0,-19.5"/>
<text text-anchor="middle" x="46.5" y="-26.5" font-family="Helvetica,sans-Serif" font-size="10.00">Personnage\atout</text>
</g>
<!-- Node8 -->
<g id="node2" class="node"><title>Node8</title>
<g id="a_node2"><a xlink:href="class_personnage.html#a744674b144008a43e37036344accb378" target="_top" xlink:title="Personnage\\incrementAtout">
<polygon fill="white" stroke="black" points="129,-38.5 129,-57.5 266,-57.5 266,-38.5 129,-38.5"/>
<text text-anchor="middle" x="197.5" y="-45.5" font-family="Helvetica,sans-Serif" font-size="10.00">Personnage\incrementAtout</text>
</a>
</g>
</g>
<!-- Node7&#45;&gt;Node8 -->
<g id="edge1" class="edge"><title>Node7&#45;&gt;Node8</title>
<path fill="none" stroke="midnightblue" d="M103.044,-36.0828C111.431,-37.1523 120.162,-38.2656 128.771,-39.3635"/>
<polygon fill="midnightblue" stroke="midnightblue" points="103.377,-32.597 93.0145,-34.8039 102.491,-39.5408 103.377,-32.597"/>
</g>
<!-- Node9 -->
<g id="node3" class="node"><title>Node9</title>
<g id="a_node3"><a xlink:href="class_personnage.html#a3ba4e51f81e8d865675c1514332c0ac5" target="_top" xlink:title="Personnage\\setAtout">
<polygon fill="white" stroke="black" points="143.5,-0.5 143.5,-19.5 251.5,-19.5 251.5,-0.5 143.5,-0.5"/>
<text text-anchor="middle" x="197.5" y="-7.5" font-family="Helvetica,sans-Serif" font-size="10.00">Personnage\setAtout</text>
</a>
</g>
</g>
<!-- Node7&#45;&gt;Node9 -->
<g id="edge2" class="edge"><title>Node7&#45;&gt;Node9</title>
<path fill="none" stroke="midnightblue" d="M102.943,-21.93C116.186,-20.2413 130.291,-18.4428 143.424,-16.7681"/>
<polygon fill="midnightblue" stroke="midnightblue" points="102.491,-18.4592 93.0145,-23.1961 103.377,-25.403 102.491,-18.4592"/>
</g>
</g>
</svg>
