<?xml version="1.0" encoding="UTF-8" standalone="no"?>
<!DOCTYPE svg PUBLIC "-//W3C//DTD SVG 1.1//EN"
 "http://www.w3.org/Graphics/SVG/1.1/DTD/svg11.dtd">
<!-- Generated by graphviz version 2.38.0 (20140413.2041)
 -->
<!-- Title: User\or_ Pages: 1 -->
<svg width="204pt" height="104pt"
 viewBox="0.00 0.00 204.00 104.00" xmlns="http://www.w3.org/2000/svg" xmlns:xlink="http://www.w3.org/1999/xlink">
<g id="graph0" class="graph" transform="scale(1 1) rotate(0) translate(4 100)">
<title>User\or_</title>
<polygon fill="white" stroke="none" points="-4,4 -4,-100 200,-100 200,4 -4,4"/>
<!-- Node49 -->
<g id="node1" class="node"><title>Node49</title>
<polygon fill="#bfbfbf" stroke="black" points="0,-38.5 0,-57.5 53,-57.5 53,-38.5 0,-38.5"/>
<text text-anchor="middle" x="26.5" y="-45.5" font-family="Helvetica,sans-Serif" font-size="10.00">User\or_</text>
</g>
<!-- Node50 -->
<g id="node2" class="node"><title>Node50</title>
<g id="a_node2"><a xlink:href="class_user.html#ac5dfa43083d232944fa37624d190092e" target="_top" xlink:title="User\\setOr_">
<polygon fill="white" stroke="black" points="108,-76.5 108,-95.5 177,-95.5 177,-76.5 108,-76.5"/>
<text text-anchor="middle" x="142.5" y="-83.5" font-family="Helvetica,sans-Serif" font-size="10.00">User\setOr_</text>
</a>
</g>
</g>
<!-- Node49&#45;&gt;Node50 -->
<g id="edge1" class="edge"><title>Node49&#45;&gt;Node50</title>
<path fill="none" stroke="midnightblue" d="M62.6888,-59.7296C78.7721,-65.0907 97.5837,-71.3612 112.794,-76.4313"/>
<polygon fill="midnightblue" stroke="midnightblue" points="63.6775,-56.3699 53.0838,-56.5279 61.4638,-63.0107 63.6775,-56.3699"/>
</g>
<!-- Node51 -->
<g id="node3" class="node"><title>Node51</title>
<g id="a_node3"><a xlink:href="class_user_manager.html#a7fb17bfd67135d7be043d59aeec1dcd4" target="_top" xlink:title="UserManager\\add">
<polygon fill="white" stroke="black" points="96,-38.5 96,-57.5 189,-57.5 189,-38.5 96,-38.5"/>
<text text-anchor="middle" x="142.5" y="-45.5" font-family="Helvetica,sans-Serif" font-size="10.00">UserManager\add</text>
</a>
</g>
</g>
<!-- Node49&#45;&gt;Node51 -->
<g id="edge2" class="edge"><title>Node49&#45;&gt;Node51</title>
<path fill="none" stroke="midnightblue" d="M63.358,-48C73.6554,-48 85.0255,-48 95.8297,-48"/>
<polygon fill="midnightblue" stroke="midnightblue" points="63.0839,-44.5001 53.0838,-48 63.0838,-51.5001 63.0839,-44.5001"/>
</g>
<!-- Node52 -->
<g id="node4" class="node"><title>Node52</title>
<g id="a_node4"><a xlink:href="class_user_manager.html#ad953740cf56464fdb81b8bc9654c5371" target="_top" xlink:title="UserManager\\update">
<polygon fill="white" stroke="black" points="89,-0.5 89,-19.5 196,-19.5 196,-0.5 89,-0.5"/>
<text text-anchor="middle" x="142.5" y="-7.5" font-family="Helvetica,sans-Serif" font-size="10.00">UserManager\update</text>
</a>
</g>
</g>
<!-- Node49&#45;&gt;Node52 -->
<g id="edge3" class="edge"><title>Node49&#45;&gt;Node52</title>
<path fill="none" stroke="midnightblue" d="M62.6888,-36.2704C78.7721,-30.9093 97.5837,-24.6388 112.794,-19.5687"/>
<polygon fill="midnightblue" stroke="midnightblue" points="61.4638,-32.9893 53.0838,-39.4721 63.6775,-39.6301 61.4638,-32.9893"/>
</g>
</g>
</svg>
