<?xml version="1.0" encoding="UTF-8" standalone="no"?>
<!DOCTYPE svg PUBLIC "-//W3C//DTD SVG 1.1//EN"
 "http://www.w3.org/Graphics/SVG/1.1/DTD/svg11.dtd">
<!-- Generated by graphviz version 2.38.0 (20140413.2041)
 -->
<!-- Title: Personnage\recevoirXP Pages: 1 -->
<svg width="266pt" height="104pt"
 viewBox="0.00 0.00 266.00 104.00" xmlns="http://www.w3.org/2000/svg" xmlns:xlink="http://www.w3.org/1999/xlink">
<g id="graph0" class="graph" transform="scale(1 1) rotate(0) translate(4 100)">
<title>Personnage\recevoirXP</title>
<polygon fill="white" stroke="none" points="-4,4 -4,-100 262,-100 262,4 -4,4"/>
<!-- Node91 -->
<g id="node1" class="node"><title>Node91</title>
<polygon fill="#bfbfbf" stroke="black" points="0,-38.5 0,-57.5 116,-57.5 116,-38.5 0,-38.5"/>
<text text-anchor="middle" x="58" y="-45.5" font-family="Helvetica,sans-Serif" font-size="10.00">Personnage\recevoirXP</text>
</g>
<!-- Node92 -->
<g id="node2" class="node"><title>Node92</title>
<g id="a_node2"><a xlink:href="class_personnage.html#a60b2a6a44bc71517c063d87c062e0b87" target="_top" xlink:title="Personnage\\xp">
<polygon fill="white" stroke="black" points="164,-76.5 164,-95.5 246,-95.5 246,-76.5 164,-76.5"/>
<text text-anchor="middle" x="205" y="-83.5" font-family="Helvetica,sans-Serif" font-size="10.00">Personnage\xp</text>
</a>
</g>
</g>
<!-- Node91&#45;&gt;Node92 -->
<g id="edge1" class="edge"><title>Node91&#45;&gt;Node92</title>
<path fill="none" stroke="midnightblue" d="M95.5896,-57.589C114.465,-62.5358 137.686,-68.6211 157.788,-73.8892"/>
<polygon fill="midnightblue" stroke="midnightblue" points="157.113,-77.3305 167.673,-76.4799 158.887,-70.5591 157.113,-77.3305"/>
</g>
<!-- Node93 -->
<g id="node3" class="node"><title>Node93</title>
<g id="a_node3"><a xlink:href="class_personnage.html#aa5bc9f2bda281400fedbc1af1c19357d" target="_top" xlink:title="Personnage\\xp_max">
<polygon fill="white" stroke="black" points="152,-38.5 152,-57.5 258,-57.5 258,-38.5 152,-38.5"/>
<text text-anchor="middle" x="205" y="-45.5" font-family="Helvetica,sans-Serif" font-size="10.00">Personnage\xp_max</text>
</a>
</g>
</g>
<!-- Node91&#45;&gt;Node93 -->
<g id="edge2" class="edge"><title>Node91&#45;&gt;Node93</title>
<path fill="none" stroke="midnightblue" d="M116.308,-48C124.637,-48 133.246,-48 141.669,-48"/>
<polygon fill="midnightblue" stroke="midnightblue" points="141.818,-51.5001 151.818,-48 141.818,-44.5001 141.818,-51.5001"/>
</g>
<!-- Node94 -->
<g id="node4" class="node"><title>Node94</title>
<g id="a_node4"><a xlink:href="class_personnage.html#a061130b0c1c551d893ecffff2553cb93" target="_top" xlink:title="Personnage\\niveau">
<polygon fill="white" stroke="black" points="156,-0.5 156,-19.5 254,-19.5 254,-0.5 156,-0.5"/>
<text text-anchor="middle" x="205" y="-7.5" font-family="Helvetica,sans-Serif" font-size="10.00">Personnage\niveau</text>
</a>
</g>
</g>
<!-- Node91&#45;&gt;Node94 -->
<g id="edge3" class="edge"><title>Node91&#45;&gt;Node94</title>
<path fill="none" stroke="midnightblue" d="M95.5896,-38.411C114.465,-33.4642 137.686,-27.3789 157.788,-22.1108"/>
<polygon fill="midnightblue" stroke="midnightblue" points="158.887,-25.4409 167.673,-19.5201 157.113,-18.6695 158.887,-25.4409"/>
</g>
</g>
</svg>
