<?xml version="1.0" encoding="UTF-8" standalone="no"?>
<!DOCTYPE svg PUBLIC "-//W3C//DTD SVG 1.1//EN"
 "http://www.w3.org/Graphics/SVG/1.1/DTD/svg11.dtd">
<!-- Generated by graphviz version 2.38.0 (20140413.2041)
 -->
<!-- Title: User\mdp Pages: 1 -->
<svg width="210pt" height="104pt"
 viewBox="0.00 0.00 210.00 104.00" xmlns="http://www.w3.org/2000/svg" xmlns:xlink="http://www.w3.org/1999/xlink">
<g id="graph0" class="graph" transform="scale(1 1) rotate(0) translate(4 100)">
<title>User\mdp</title>
<polygon fill="white" stroke="none" points="-4,4 -4,-100 206,-100 206,4 -4,4"/>
<!-- Node37 -->
<g id="node1" class="node"><title>Node37</title>
<polygon fill="#bfbfbf" stroke="black" points="0,-38.5 0,-57.5 59,-57.5 59,-38.5 0,-38.5"/>
<text text-anchor="middle" x="29.5" y="-45.5" font-family="Helvetica,sans-Serif" font-size="10.00">User\mdp</text>
</g>
<!-- Node38 -->
<g id="node2" class="node"><title>Node38</title>
<g id="a_node2"><a xlink:href="class_user.html#a8e226641b5743164054123f3dbe3a341" target="_top" xlink:title="User\\setMdp">
<polygon fill="white" stroke="black" points="112.5,-76.5 112.5,-95.5 184.5,-95.5 184.5,-76.5 112.5,-76.5"/>
<text text-anchor="middle" x="148.5" y="-83.5" font-family="Helvetica,sans-Serif" font-size="10.00">User\setMdp</text>
</a>
</g>
</g>
<!-- Node37&#45;&gt;Node38 -->
<g id="edge1" class="edge"><title>Node37&#45;&gt;Node38</title>
<path fill="none" stroke="midnightblue" d="M68.7299,-60.4166C84.7218,-65.6105 103.02,-71.5534 117.952,-76.4033"/>
<polygon fill="midnightblue" stroke="midnightblue" points="69.7135,-57.0561 59.1214,-57.2958 67.5512,-63.7138 69.7135,-57.0561"/>
</g>
<!-- Node39 -->
<g id="node3" class="node"><title>Node39</title>
<g id="a_node3"><a xlink:href="class_user_manager.html#a7fb17bfd67135d7be043d59aeec1dcd4" target="_top" xlink:title="UserManager\\add">
<polygon fill="white" stroke="black" points="102,-38.5 102,-57.5 195,-57.5 195,-38.5 102,-38.5"/>
<text text-anchor="middle" x="148.5" y="-45.5" font-family="Helvetica,sans-Serif" font-size="10.00">UserManager\add</text>
</a>
</g>
</g>
<!-- Node37&#45;&gt;Node39 -->
<g id="edge2" class="edge"><title>Node37&#45;&gt;Node39</title>
<path fill="none" stroke="midnightblue" d="M69.1969,-48C79.6493,-48 91.058,-48 101.852,-48"/>
<polygon fill="midnightblue" stroke="midnightblue" points="69.1215,-44.5001 59.1214,-48 69.1214,-51.5001 69.1215,-44.5001"/>
</g>
<!-- Node40 -->
<g id="node4" class="node"><title>Node40</title>
<g id="a_node4"><a xlink:href="class_user_manager.html#ad953740cf56464fdb81b8bc9654c5371" target="_top" xlink:title="UserManager\\update">
<polygon fill="white" stroke="black" points="95,-0.5 95,-19.5 202,-19.5 202,-0.5 95,-0.5"/>
<text text-anchor="middle" x="148.5" y="-7.5" font-family="Helvetica,sans-Serif" font-size="10.00">UserManager\update</text>
</a>
</g>
</g>
<!-- Node37&#45;&gt;Node40 -->
<g id="edge3" class="edge"><title>Node37&#45;&gt;Node40</title>
<path fill="none" stroke="midnightblue" d="M68.7299,-35.5834C84.7218,-30.3895 103.02,-24.4466 117.952,-19.5967"/>
<polygon fill="midnightblue" stroke="midnightblue" points="67.5512,-32.2862 59.1214,-38.7042 69.7135,-38.9439 67.5512,-32.2862"/>
</g>
</g>
</svg>
