<?xml version="1.0" encoding="UTF-8" standalone="no"?>
<!DOCTYPE svg PUBLIC "-//W3C//DTD SVG 1.1//EN"
 "http://www.w3.org/Graphics/SVG/1.1/DTD/svg11.dtd">
<!-- Generated by graphviz version 2.38.0 (20140413.2041)
 -->
<!-- Title: Personnage\timeEndormi Pages: 1 -->
<svg width="603pt" height="176pt"
 viewBox="0.00 0.00 603.00 176.37" xmlns="http://www.w3.org/2000/svg" xmlns:xlink="http://www.w3.org/1999/xlink">
<g id="graph0" class="graph" transform="scale(1 1) rotate(0) translate(4 172.372)">
<title>Personnage\timeEndormi</title>
<polygon fill="white" stroke="none" points="-4,4 -4,-172.372 599,-172.372 599,4 -4,4"/>
<!-- Node183 -->
<g id="node1" class="node"><title>Node183</title>
<polygon fill="#bfbfbf" stroke="black" points="0,-57.5 0,-76.5 126,-76.5 126,-57.5 0,-57.5"/>
<text text-anchor="middle" x="63" y="-64.5" font-family="Helvetica,sans-Serif" font-size="10.00">Personnage\timeEndormi</text>
</g>
<!-- Node184 -->
<g id="node2" class="node"><title>Node184</title>
<g id="a_node2"><a xlink:href="class_personnage.html#aabf0bcd80fcea089de16f33c029aae12" target="_top" xlink:title="Personnage\\estEndormi">
<polygon fill="white" stroke="black" points="172.5,-114.5 172.5,-133.5 293.5,-133.5 293.5,-114.5 172.5,-114.5"/>
<text text-anchor="middle" x="233" y="-121.5" font-family="Helvetica,sans-Serif" font-size="10.00">Personnage\estEndormi</text>
</a>
</g>
</g>
<!-- Node183&#45;&gt;Node184 -->
<g id="edge1" class="edge"><title>Node183&#45;&gt;Node184</title>
<path fill="none" stroke="midnightblue" d="M96.0973,-80.426C115.085,-88.1215 139.708,-97.6751 162,-105 172.288,-108.381 183.564,-111.634 194.003,-114.464"/>
<polygon fill="midnightblue" stroke="midnightblue" points="97.3044,-77.1384 86.7236,-76.5929 94.6548,-83.6176 97.3044,-77.1384"/>
</g>
<!-- Node189 -->
<g id="node7" class="node"><title>Node189</title>
<g id="a_node7"><a xlink:href="class_personnage.html#a570935e88aa03fb191a3f06a41f5aec5" target="_top" xlink:title="Personnage\\debut_combat">
<polygon fill="white" stroke="black" points="166.5,-76.5 166.5,-95.5 299.5,-95.5 299.5,-76.5 166.5,-76.5"/>
<text text-anchor="middle" x="233" y="-83.5" font-family="Helvetica,sans-Serif" font-size="10.00">Personnage\debut_combat</text>
</a>
</g>
</g>
<!-- Node183&#45;&gt;Node189 -->
<g id="edge8" class="edge"><title>Node183&#45;&gt;Node189</title>
<path fill="none" stroke="midnightblue" d="M136.329,-75.1801C146.264,-76.3037 156.422,-77.4525 166.231,-78.5618"/>
<polygon fill="midnightblue" stroke="midnightblue" points="136.41,-71.667 126.08,-74.0209 135.623,-78.6226 136.41,-71.667"/>
</g>
<!-- Node190 -->
<g id="node8" class="node"><title>Node190</title>
<g id="a_node8"><a xlink:href="class_personnage.html#ab0503fe49e1a5403fe6d43d7d424e3ef" target="_top" xlink:title="Personnage\\reveil">
<polygon fill="white" stroke="black" points="186.5,-38.5 186.5,-57.5 279.5,-57.5 279.5,-38.5 186.5,-38.5"/>
<text text-anchor="middle" x="233" y="-45.5" font-family="Helvetica,sans-Serif" font-size="10.00">Personnage\reveil</text>
</a>
</g>
</g>
<!-- Node183&#45;&gt;Node190 -->
<g id="edge9" class="edge"><title>Node183&#45;&gt;Node190</title>
<path fill="none" stroke="midnightblue" d="M136.047,-58.8519C153.145,-56.9182 170.917,-54.9082 186.452,-53.1513"/>
<polygon fill="midnightblue" stroke="midnightblue" points="135.623,-55.3774 126.08,-59.9791 136.41,-62.333 135.623,-55.3774"/>
</g>
<!-- Node191 -->
<g id="node9" class="node"><title>Node191</title>
<g id="a_node9"><a xlink:href="class_personnage.html#a26cd731a784eaa1ba1e9873219612598" target="_top" xlink:title="Personnage\\setTimeEndormi">
<polygon fill="white" stroke="black" points="162,-0.5 162,-19.5 304,-19.5 304,-0.5 162,-0.5"/>
<text text-anchor="middle" x="233" y="-7.5" font-family="Helvetica,sans-Serif" font-size="10.00">Personnage\setTimeEndormi</text>
</a>
</g>
</g>
<!-- Node183&#45;&gt;Node191 -->
<g id="edge10" class="edge"><title>Node183&#45;&gt;Node191</title>
<path fill="none" stroke="midnightblue" d="M96.0973,-53.574C115.085,-45.8785 139.708,-36.3249 162,-29 172.288,-25.6194 183.564,-22.3659 194.003,-19.5356"/>
<polygon fill="midnightblue" stroke="midnightblue" points="94.6548,-50.3824 86.7236,-57.4071 97.3044,-56.8616 94.6548,-50.3824"/>
</g>
<!-- Node185 -->
<g id="node3" class="node"><title>Node185</title>
<g id="a_node3"><a xlink:href="class_att__soi.html#a7da2d15a0bedd2880e7491f72b430bf0" target="_top" xlink:title="Att_soi\\lancerUnSoin">
<polygon fill="white" stroke="black" points="483,-114.5 483,-133.5 591,-133.5 591,-114.5 483,-114.5"/>
<text text-anchor="middle" x="537" y="-121.5" font-family="Helvetica,sans-Serif" font-size="10.00">Att_soi\lancerUnSoin</text>
</a>
</g>
</g>
<!-- Node184&#45;&gt;Node185 -->
<g id="edge2" class="edge"><title>Node184&#45;&gt;Node185</title>
<path fill="none" stroke="midnightblue" d="M263.414,-137.643C284.283,-146.545 313.23,-157.347 340,-162 385.101,-169.84 398.081,-170.823 443,-162 470.555,-156.588 500.234,-142.953 518.468,-133.579"/>
<polygon fill="midnightblue" stroke="midnightblue" points="264.711,-134.39 254.147,-133.588 261.905,-140.803 264.711,-134.39"/>
</g>
<!-- Node186 -->
<g id="node4" class="node"><title>Node186</title>
<g id="a_node4"><a xlink:href="class_personnage.html#a1deaeddff5bc8766d52da4fc2d0b8032" target="_top" xlink:title="Fonction pour frapper. ">
<polygon fill="white" stroke="black" points="341,-133.5 341,-152.5 442,-152.5 442,-133.5 341,-133.5"/>
<text text-anchor="middle" x="391.5" y="-140.5" font-family="Helvetica,sans-Serif" font-size="10.00">Personnage\frapper</text>
</a>
</g>
</g>
<!-- Node184&#45;&gt;Node186 -->
<g id="edge3" class="edge"><title>Node184&#45;&gt;Node186</title>
<path fill="none" stroke="midnightblue" d="M303.566,-132.446C316.088,-133.966 328.911,-135.523 340.73,-136.958"/>
<polygon fill="midnightblue" stroke="midnightblue" points="303.961,-128.968 293.612,-131.237 303.118,-135.917 303.961,-128.968"/>
</g>
<!-- Node187 -->
<g id="node5" class="node"><title>Node187</title>
<g id="a_node5"><a xlink:href="class_personnage.html#a1219171b9ddba0fecfa49995d7d71372" target="_top" xlink:title="Personnage\\soigner">
<polygon fill="white" stroke="black" points="340,-95.5 340,-114.5 443,-114.5 443,-95.5 340,-95.5"/>
<text text-anchor="middle" x="391.5" y="-102.5" font-family="Helvetica,sans-Serif" font-size="10.00">Personnage\soigner</text>
</a>
</g>
</g>
<!-- Node184&#45;&gt;Node187 -->
<g id="edge4" class="edge"><title>Node184&#45;&gt;Node187</title>
<path fill="none" stroke="midnightblue" d="M303.706,-115.537C315.832,-114.065 328.234,-112.559 339.729,-111.164"/>
<polygon fill="midnightblue" stroke="midnightblue" points="303.118,-112.083 293.612,-116.763 303.961,-119.032 303.118,-112.083"/>
</g>
<!-- Node188 -->
<g id="node6" class="node"><title>Node188</title>
<g id="a_node6"><a xlink:href="class_soigneur.html#ac68dd65c897e55dc77d354e79e79a52c" target="_top" xlink:title="Soigneur\\lancerUnSoin">
<polygon fill="white" stroke="black" points="479,-67.5 479,-86.5 595,-86.5 595,-67.5 479,-67.5"/>
<text text-anchor="middle" x="537" y="-74.5" font-family="Helvetica,sans-Serif" font-size="10.00">Soigneur\lancerUnSoin</text>
</a>
</g>
</g>
<!-- Node184&#45;&gt;Node188 -->
<g id="edge7" class="edge"><title>Node184&#45;&gt;Node188</title>
<path fill="none" stroke="midnightblue" d="M285.208,-111.512C291.605,-109.541 298.003,-107.363 304,-105 320.832,-98.3679 322.543,-90.7515 340,-86 385.522,-73.6093 439.156,-71.9914 478.801,-73.1166"/>
<polygon fill="midnightblue" stroke="midnightblue" points="283.824,-108.27 275.211,-114.439 285.791,-114.988 283.824,-108.27"/>
</g>
<!-- Node187&#45;&gt;Node185 -->
<g id="edge5" class="edge"><title>Node187&#45;&gt;Node185</title>
<path fill="none" stroke="midnightblue" d="M453.246,-113.043C463.119,-114.35 473.277,-115.695 482.948,-116.976"/>
<polygon fill="midnightblue" stroke="midnightblue" points="453.466,-109.542 443.093,-111.699 452.547,-116.481 453.466,-109.542"/>
</g>
<!-- Node187&#45;&gt;Node188 -->
<g id="edge6" class="edge"><title>Node187&#45;&gt;Node188</title>
<path fill="none" stroke="midnightblue" d="M451.357,-93.5157C463.285,-91.1884 475.704,-88.765 487.238,-86.5146"/>
<polygon fill="midnightblue" stroke="midnightblue" points="450.628,-90.0919 441.483,-95.4423 451.968,-96.9623 450.628,-90.0919"/>
</g>
</g>
</svg>
