<?xml version="1.0" encoding="UTF-8" standalone="no"?>
<!DOCTYPE svg PUBLIC "-//W3C//DTD SVG 1.1//EN"
 "http://www.w3.org/Graphics/SVG/1.1/DTD/svg11.dtd">
<!-- Generated by graphviz version 2.38.0 (20140413.2041)
 -->
<!-- Title: Stuff\niveau Pages: 1 -->
<svg width="382pt" height="142pt"
 viewBox="0.00 0.00 382.00 142.00" xmlns="http://www.w3.org/2000/svg" xmlns:xlink="http://www.w3.org/1999/xlink">
<g id="graph0" class="graph" transform="scale(1 1) rotate(0) translate(4 138)">
<title>Stuff\niveau</title>
<polygon fill="white" stroke="none" points="-4,4 -4,-138 378,-138 378,4 -4,4"/>
<!-- Node42 -->
<g id="node1" class="node"><title>Node42</title>
<polygon fill="#bfbfbf" stroke="black" points="0,-57.5 0,-76.5 66,-76.5 66,-57.5 0,-57.5"/>
<text text-anchor="middle" x="33" y="-64.5" font-family="Helvetica,sans-Serif" font-size="10.00">Stuff\niveau</text>
</g>
<!-- Node43 -->
<g id="node2" class="node"><title>Node43</title>
<g id="a_node2"><a xlink:href="class_stuff.html#a58df203bb30ef856eab931a8b363ee69" target="_top" xlink:title="Stuff\\lvlUp">
<polygon fill="white" stroke="black" points="125.5,-114.5 125.5,-133.5 184.5,-133.5 184.5,-114.5 125.5,-114.5"/>
<text text-anchor="middle" x="155" y="-121.5" font-family="Helvetica,sans-Serif" font-size="10.00">Stuff\lvlUp</text>
</a>
</g>
</g>
<!-- Node42&#45;&gt;Node43 -->
<g id="edge1" class="edge"><title>Node42&#45;&gt;Node43</title>
<path fill="none" stroke="midnightblue" d="M58.2166,-81.7728C70.9862,-89.2423 87.0631,-98.1505 102,-105 109.426,-108.405 117.654,-111.644 125.332,-114.451"/>
<polygon fill="midnightblue" stroke="midnightblue" points="59.9521,-78.7328 49.5664,-76.6381 56.379,-84.7523 59.9521,-78.7328"/>
</g>
<!-- Node44 -->
<g id="node3" class="node"><title>Node44</title>
<g id="a_node3"><a xlink:href="class_stuff.html#ad30226d936b128c511c6af7b542d8966" target="_top" xlink:title="Stuff\\setNiveau">
<polygon fill="white" stroke="black" points="114.5,-76.5 114.5,-95.5 195.5,-95.5 195.5,-76.5 114.5,-76.5"/>
<text text-anchor="middle" x="155" y="-83.5" font-family="Helvetica,sans-Serif" font-size="10.00">Stuff\setNiveau</text>
</a>
</g>
</g>
<!-- Node42&#45;&gt;Node44 -->
<g id="edge2" class="edge"><title>Node42&#45;&gt;Node44</title>
<path fill="none" stroke="midnightblue" d="M76.275,-73.6935C88.6937,-75.6598 102.225,-77.8023 114.466,-79.7404"/>
<polygon fill="midnightblue" stroke="midnightblue" points="76.5821,-70.1986 66.1578,-72.0917 75.4874,-77.1125 76.5821,-70.1986"/>
</g>
<!-- Node45 -->
<g id="node4" class="node"><title>Node45</title>
<g id="a_node4"><a xlink:href="class_stuff_manager.html#ab754f0d8b6625898735779a852268223" target="_top" xlink:title="StuffManager\\add">
<polygon fill="white" stroke="black" points="109,-38.5 109,-57.5 201,-57.5 201,-38.5 109,-38.5"/>
<text text-anchor="middle" x="155" y="-45.5" font-family="Helvetica,sans-Serif" font-size="10.00">StuffManager\add</text>
</a>
</g>
</g>
<!-- Node42&#45;&gt;Node45 -->
<g id="edge3" class="edge"><title>Node42&#45;&gt;Node45</title>
<path fill="none" stroke="midnightblue" d="M76.3167,-60.2998C86.7923,-58.6412 98.0576,-56.8575 108.671,-55.1772"/>
<polygon fill="midnightblue" stroke="midnightblue" points="75.4874,-56.8875 66.1578,-61.9083 76.5821,-63.8014 75.4874,-56.8875"/>
</g>
<!-- Node47 -->
<g id="node6" class="node"><title>Node47</title>
<g id="a_node6"><a xlink:href="class_stuff_manager.html#a45dc81b0ddbbd804960d197d7a1cad69" target="_top" xlink:title="StuffManager\\update">
<polygon fill="white" stroke="black" points="102,-0.5 102,-19.5 208,-19.5 208,-0.5 102,-0.5"/>
<text text-anchor="middle" x="155" y="-7.5" font-family="Helvetica,sans-Serif" font-size="10.00">StuffManager\update</text>
</a>
</g>
</g>
<!-- Node42&#45;&gt;Node47 -->
<g id="edge5" class="edge"><title>Node42&#45;&gt;Node47</title>
<path fill="none" stroke="midnightblue" d="M58.2166,-52.2272C70.9862,-44.7577 87.0631,-35.8495 102,-29 109.426,-25.5946 117.654,-22.3559 125.332,-19.5487"/>
<polygon fill="midnightblue" stroke="midnightblue" points="56.379,-49.2477 49.5664,-57.3619 59.9521,-55.2672 56.379,-49.2477"/>
</g>
<!-- Node46 -->
<g id="node5" class="node"><title>Node46</title>
<g id="a_node5"><a xlink:href="class_personnages_manager.html#a3ce7c5751a3faedb4f639a009ff0243e" target="_top" xlink:title="PersonnagesManager\\add">
<polygon fill="white" stroke="black" points="244,-38.5 244,-57.5 374,-57.5 374,-38.5 244,-38.5"/>
<text text-anchor="middle" x="309" y="-45.5" font-family="Helvetica,sans-Serif" font-size="10.00">PersonnagesManager\add</text>
</a>
</g>
</g>
<!-- Node45&#45;&gt;Node46 -->
<g id="edge4" class="edge"><title>Node45&#45;&gt;Node46</title>
<path fill="none" stroke="midnightblue" d="M211.49,-48C222.009,-48 233.094,-48 243.854,-48"/>
<polygon fill="midnightblue" stroke="midnightblue" points="211.194,-44.5001 201.193,-48 211.193,-51.5001 211.194,-44.5001"/>
</g>
</g>
</svg>
