<?xml version="1.0" encoding="UTF-8" standalone="no"?>
<!DOCTYPE svg PUBLIC "-//W3C//DTD SVG 1.1//EN"
 "http://www.w3.org/Graphics/SVG/1.1/DTD/svg11.dtd">
<!-- Generated by graphviz version 2.38.0 (20140413.2041)
 -->
<!-- Title: Stuff\id_base Pages: 1 -->
<svg width="375pt" height="66pt"
 viewBox="0.00 0.00 375.00 66.00" xmlns="http://www.w3.org/2000/svg" xmlns:xlink="http://www.w3.org/1999/xlink">
<g id="graph0" class="graph" transform="scale(1 1) rotate(0) translate(4 62)">
<title>Stuff\id_base</title>
<polygon fill="white" stroke="none" points="-4,4 -4,-62 371,-62 371,4 -4,4"/>
<!-- Node28 -->
<g id="node1" class="node"><title>Node28</title>
<polygon fill="#bfbfbf" stroke="black" points="0,-19.5 0,-38.5 73,-38.5 73,-19.5 0,-19.5"/>
<text text-anchor="middle" x="36.5" y="-26.5" font-family="Helvetica,sans-Serif" font-size="10.00">Stuff\id_base</text>
</g>
<!-- Node29 -->
<g id="node2" class="node"><title>Node29</title>
<g id="a_node2"><a xlink:href="class_stuff.html#a47eed0620503b4e4aba2b445531b598a" target="_top" xlink:title="Stuff\\setId_base">
<polygon fill="white" stroke="black" points="112,-38.5 112,-57.5 198,-57.5 198,-38.5 112,-38.5"/>
<text text-anchor="middle" x="155" y="-45.5" font-family="Helvetica,sans-Serif" font-size="10.00">Stuff\setId_base</text>
</a>
</g>
</g>
<!-- Node28&#45;&gt;Node29 -->
<g id="edge1" class="edge"><title>Node28&#45;&gt;Node29</title>
<path fill="none" stroke="midnightblue" d="M83.0734,-36.4326C92.4905,-37.9684 102.372,-39.58 111.668,-41.0961"/>
<polygon fill="midnightblue" stroke="midnightblue" points="83.5199,-32.9592 73.0869,-34.8039 82.3931,-39.8679 83.5199,-32.9592"/>
</g>
<!-- Node30 -->
<g id="node3" class="node"><title>Node30</title>
<g id="a_node3"><a xlink:href="class_stuff_manager.html#ab754f0d8b6625898735779a852268223" target="_top" xlink:title="StuffManager\\add">
<polygon fill="white" stroke="black" points="109,-0.5 109,-19.5 201,-19.5 201,-0.5 109,-0.5"/>
<text text-anchor="middle" x="155" y="-7.5" font-family="Helvetica,sans-Serif" font-size="10.00">StuffManager\add</text>
</a>
</g>
</g>
<!-- Node28&#45;&gt;Node30 -->
<g id="edge2" class="edge"><title>Node28&#45;&gt;Node30</title>
<path fill="none" stroke="midnightblue" d="M83.1196,-21.5599C91.5363,-20.1872 100.322,-18.7543 108.729,-17.3833"/>
<polygon fill="midnightblue" stroke="midnightblue" points="82.3931,-18.1321 73.0869,-23.1961 83.5199,-25.0408 82.3931,-18.1321"/>
</g>
<!-- Node31 -->
<g id="node4" class="node"><title>Node31</title>
<g id="a_node4"><a xlink:href="class_personnages_manager.html#a3ce7c5751a3faedb4f639a009ff0243e" target="_top" xlink:title="PersonnagesManager\\add">
<polygon fill="white" stroke="black" points="237,-0.5 237,-19.5 367,-19.5 367,-0.5 237,-0.5"/>
<text text-anchor="middle" x="302" y="-7.5" font-family="Helvetica,sans-Serif" font-size="10.00">PersonnagesManager\add</text>
</a>
</g>
</g>
<!-- Node30&#45;&gt;Node31 -->
<g id="edge3" class="edge"><title>Node30&#45;&gt;Node31</title>
<path fill="none" stroke="midnightblue" d="M211.118,-10C219.504,-10 228.221,-10 236.781,-10"/>
<polygon fill="midnightblue" stroke="midnightblue" points="211.084,-6.5001 201.084,-10 211.084,-13.5001 211.084,-6.5001"/>
</g>
</g>
</svg>
