<?xml version="1.0" encoding="UTF-8" standalone="no"?>
<!DOCTYPE svg PUBLIC "-//W3C//DTD SVG 1.1//EN"
 "http://www.w3.org/Graphics/SVG/1.1/DTD/svg11.dtd">
<!-- Generated by graphviz version 2.38.0 (20140413.2041)
 -->
<!-- Title: Personnage\etat Pages: 1 -->
<svg width="404pt" height="154pt"
 viewBox="0.00 0.00 404.00 153.50" xmlns="http://www.w3.org/2000/svg" xmlns:xlink="http://www.w3.org/1999/xlink">
<g id="graph0" class="graph" transform="scale(1 1) rotate(0) translate(4 149.5)">
<title>Personnage\etat</title>
<polygon fill="white" stroke="none" points="-4,4 -4,-149.5 400,-149.5 400,4 -4,4"/>
<!-- Node31 -->
<g id="node1" class="node"><title>Node31</title>
<polygon fill="#bfbfbf" stroke="black" points="0,-69 0,-88 88,-88 88,-69 0,-69"/>
<text text-anchor="middle" x="44" y="-76" font-family="Helvetica,sans-Serif" font-size="10.00">Personnage\etat</text>
</g>
<!-- Node32 -->
<g id="node2" class="node"><title>Node32</title>
<g id="a_node2"><a xlink:href="class_personnage.html#a226affce78dca0151e0901896e58f14d" target="_top" xlink:title="Personnage\\recevoirDegats">
<polygon fill="white" stroke="black" points="124,-126 124,-145 259,-145 259,-126 124,-126"/>
<text text-anchor="middle" x="191.5" y="-133" font-family="Helvetica,sans-Serif" font-size="10.00">Personnage\recevoirDegats</text>
</a>
</g>
</g>
<!-- Node31&#45;&gt;Node32 -->
<g id="edge1" class="edge"><title>Node31&#45;&gt;Node32</title>
<path fill="none" stroke="midnightblue" d="M72.032,-92.9142C87.0619,-100.567 106.262,-109.756 124,-116.5 133.203,-119.999 143.333,-123.206 152.853,-125.949"/>
<polygon fill="midnightblue" stroke="midnightblue" points="73.3051,-89.6323 62.8147,-88.1484 70.09,-95.8503 73.3051,-89.6323"/>
</g>
<!-- Node34 -->
<g id="node4" class="node"><title>Node34</title>
<g id="a_node4"><a xlink:href="class_personnage.html#a570935e88aa03fb191a3f06a41f5aec5" target="_top" xlink:title="Personnage\\debut_combat">
<polygon fill="white" stroke="black" points="125,-88 125,-107 258,-107 258,-88 125,-88"/>
<text text-anchor="middle" x="191.5" y="-95" font-family="Helvetica,sans-Serif" font-size="10.00">Personnage\debut_combat</text>
</a>
</g>
</g>
<!-- Node31&#45;&gt;Node34 -->
<g id="edge3" class="edge"><title>Node31&#45;&gt;Node34</title>
<path fill="none" stroke="midnightblue" d="M98.1913,-85.4459C106.834,-86.5745 115.874,-87.755 124.773,-88.9171"/>
<polygon fill="midnightblue" stroke="midnightblue" points="98.6299,-81.9736 88.2609,-84.1492 97.7234,-88.9147 98.6299,-81.9736"/>
</g>
<!-- Node35 -->
<g id="node5" class="node"><title>Node35</title>
<g id="a_node5"><a xlink:href="class_personnage.html#af368ea425266209c0dcf800bdfcf1b84" target="_top" xlink:title="Personnage\\setEtat">
<polygon fill="white" stroke="black" points="140,-50 140,-69 243,-69 243,-50 140,-50"/>
<text text-anchor="middle" x="191.5" y="-57" font-family="Helvetica,sans-Serif" font-size="10.00">Personnage\setEtat</text>
</a>
</g>
</g>
<!-- Node31&#45;&gt;Node35 -->
<g id="edge4" class="edge"><title>Node31&#45;&gt;Node35</title>
<path fill="none" stroke="midnightblue" d="M98.4218,-71.524C112.001,-69.7507 126.55,-67.8509 139.98,-66.0972"/>
<polygon fill="midnightblue" stroke="midnightblue" points="97.7234,-68.0853 88.2609,-72.8508 98.6299,-75.0264 97.7234,-68.0853"/>
</g>
<!-- Node36 -->
<g id="node6" class="node"><title>Node36</title>
<g id="a_node6"><a xlink:href="class_personnages_manager.html#a21d75e552a085ee6178544d71f72b31c" target="_top" xlink:title="PersonnagesManager\l\\update">
<polygon fill="white" stroke="black" points="136,-0.5 136,-30.5 247,-30.5 247,-0.5 136,-0.5"/>
<text text-anchor="start" x="144" y="-18.5" font-family="Helvetica,sans-Serif" font-size="10.00">PersonnagesManager</text>
<text text-anchor="middle" x="191.5" y="-7.5" font-family="Helvetica,sans-Serif" font-size="10.00">\update</text>
</a>
</g>
</g>
<!-- Node31&#45;&gt;Node36 -->
<g id="edge5" class="edge"><title>Node31&#45;&gt;Node36</title>
<path fill="none" stroke="midnightblue" d="M72.858,-64.354C87.8629,-56.9249 106.78,-47.8611 124,-40.5 131.939,-37.1063 140.508,-33.6993 148.77,-30.5401"/>
<polygon fill="midnightblue" stroke="midnightblue" points="71.0037,-61.3678 63.6198,-68.9657 74.1302,-67.6308 71.0037,-61.3678"/>
</g>
<!-- Node33 -->
<g id="node3" class="node"><title>Node33</title>
<g id="a_node3"><a xlink:href="class_personnage.html#a1deaeddff5bc8766d52da4fc2d0b8032" target="_top" xlink:title="Fonction pour frapper. ">
<polygon fill="white" stroke="black" points="295,-126 295,-145 396,-145 396,-126 295,-126"/>
<text text-anchor="middle" x="345.5" y="-133" font-family="Helvetica,sans-Serif" font-size="10.00">Personnage\frapper</text>
</a>
</g>
</g>
<!-- Node32&#45;&gt;Node33 -->
<g id="edge2" class="edge"><title>Node32&#45;&gt;Node33</title>
<path fill="none" stroke="midnightblue" d="M269.312,-135.5C277.97,-135.5 286.614,-135.5 294.794,-135.5"/>
<polygon fill="midnightblue" stroke="midnightblue" points="269.169,-132 259.169,-135.5 269.169,-139 269.169,-132"/>
</g>
</g>
</svg>
