<?xml version="1.0" encoding="UTF-8" standalone="no"?>
<!DOCTYPE svg PUBLIC "-//W3C//DTD SVG 1.1//EN"
 "http://www.w3.org/Graphics/SVG/1.1/DTD/svg11.dtd">
<!-- Generated by graphviz version 2.38.0 (20140413.2041)
 -->
<!-- Title: Personnage\niveau Pages: 1 -->
<svg width="410pt" height="154pt"
 viewBox="0.00 0.00 410.00 153.50" xmlns="http://www.w3.org/2000/svg" xmlns:xlink="http://www.w3.org/1999/xlink">
<g id="graph0" class="graph" transform="scale(1 1) rotate(0) translate(4 149.5)">
<title>Personnage\niveau</title>
<polygon fill="white" stroke="none" points="-4,4 -4,-149.5 406,-149.5 406,4 -4,4"/>
<!-- Node65 -->
<g id="node1" class="node"><title>Node65</title>
<polygon fill="#bfbfbf" stroke="black" points="0,-50 0,-69 98,-69 98,-50 0,-50"/>
<text text-anchor="middle" x="49" y="-57" font-family="Helvetica,sans-Serif" font-size="10.00">Personnage\niveau</text>
</g>
<!-- Node66 -->
<g id="node2" class="node"><title>Node66</title>
<g id="a_node2"><a xlink:href="class_personnage.html#aa64edf7d4c080193213b12643eb05a5d" target="_top" xlink:title="Personnage\\recevoirXP">
<polygon fill="white" stroke="black" points="134,-88 134,-107 250,-107 250,-88 134,-88"/>
<text text-anchor="middle" x="192" y="-95" font-family="Helvetica,sans-Serif" font-size="10.00">Personnage\recevoirXP</text>
</a>
</g>
</g>
<!-- Node65&#45;&gt;Node66 -->
<g id="edge1" class="edge"><title>Node65&#45;&gt;Node66</title>
<path fill="none" stroke="midnightblue" d="M95.4398,-71.7462C114.875,-76.984 137.231,-83.0091 155.431,-87.9141"/>
<polygon fill="midnightblue" stroke="midnightblue" points="96.1465,-68.3118 85.5803,-69.089 94.325,-75.0707 96.1465,-68.3118"/>
</g>
<!-- Node70 -->
<g id="node6" class="node"><title>Node70</title>
<g id="a_node6"><a xlink:href="class_personnage.html#a309bc50e0ac35a942d8ffceb5a4556a9" target="_top" xlink:title="Personnage\\setNiveau">
<polygon fill="white" stroke="black" points="135.5,-50 135.5,-69 248.5,-69 248.5,-50 135.5,-50"/>
<text text-anchor="middle" x="192" y="-57" font-family="Helvetica,sans-Serif" font-size="10.00">Personnage\setNiveau</text>
</a>
</g>
</g>
<!-- Node65&#45;&gt;Node70 -->
<g id="edge5" class="edge"><title>Node65&#45;&gt;Node70</title>
<path fill="none" stroke="midnightblue" d="M108.419,-59.5C117.318,-59.5 126.481,-59.5 135.319,-59.5"/>
<polygon fill="midnightblue" stroke="midnightblue" points="108.13,-56.0001 98.1298,-59.5 108.13,-63.0001 108.13,-56.0001"/>
</g>
<!-- Node71 -->
<g id="node7" class="node"><title>Node71</title>
<g id="a_node7"><a xlink:href="class_personnages_manager.html#a21d75e552a085ee6178544d71f72b31c" target="_top" xlink:title="PersonnagesManager\l\\update">
<polygon fill="white" stroke="black" points="136.5,-0.5 136.5,-30.5 247.5,-30.5 247.5,-0.5 136.5,-0.5"/>
<text text-anchor="start" x="144.5" y="-18.5" font-family="Helvetica,sans-Serif" font-size="10.00">PersonnagesManager</text>
<text text-anchor="middle" x="192" y="-7.5" font-family="Helvetica,sans-Serif" font-size="10.00">\update</text>
</a>
</g>
</g>
<!-- Node65&#45;&gt;Node71 -->
<g id="edge6" class="edge"><title>Node65&#45;&gt;Node71</title>
<path fill="none" stroke="midnightblue" d="M90.3747,-46.9008C106.698,-41.8069 125.676,-35.8849 142.722,-30.5654"/>
<polygon fill="midnightblue" stroke="midnightblue" points="89.0983,-43.6326 80.5949,-49.9527 91.1835,-50.3148 89.0983,-43.6326"/>
</g>
<!-- Node67 -->
<g id="node3" class="node"><title>Node67</title>
<g id="a_node3"><a xlink:href="class_att__soi.html#a7da2d15a0bedd2880e7491f72b430bf0" target="_top" xlink:title="Att_soi\\lancerUnSoin">
<polygon fill="white" stroke="black" points="290,-126 290,-145 398,-145 398,-126 290,-126"/>
<text text-anchor="middle" x="344" y="-133" font-family="Helvetica,sans-Serif" font-size="10.00">Att_soi\lancerUnSoin</text>
</a>
</g>
</g>
<!-- Node66&#45;&gt;Node67 -->
<g id="edge2" class="edge"><title>Node66&#45;&gt;Node67</title>
<path fill="none" stroke="midnightblue" d="M240.811,-109.612C261.702,-114.904 285.847,-121.021 305.421,-125.98"/>
<polygon fill="midnightblue" stroke="midnightblue" points="241.405,-106.152 230.851,-107.089 239.686,-112.938 241.405,-106.152"/>
</g>
<!-- Node68 -->
<g id="node4" class="node"><title>Node68</title>
<g id="a_node4"><a xlink:href="class_personnage.html#a1deaeddff5bc8766d52da4fc2d0b8032" target="_top" xlink:title="Fonction pour frapper. ">
<polygon fill="white" stroke="black" points="293.5,-88 293.5,-107 394.5,-107 394.5,-88 293.5,-88"/>
<text text-anchor="middle" x="344" y="-95" font-family="Helvetica,sans-Serif" font-size="10.00">Personnage\frapper</text>
</a>
</g>
</g>
<!-- Node66&#45;&gt;Node68 -->
<g id="edge3" class="edge"><title>Node66&#45;&gt;Node68</title>
<path fill="none" stroke="midnightblue" d="M260.271,-97.5C271.408,-97.5 282.774,-97.5 293.374,-97.5"/>
<polygon fill="midnightblue" stroke="midnightblue" points="260.137,-94.0001 250.136,-97.5 260.136,-101 260.137,-94.0001"/>
</g>
<!-- Node69 -->
<g id="node5" class="node"><title>Node69</title>
<g id="a_node5"><a xlink:href="class_soigneur.html#ac68dd65c897e55dc77d354e79e79a52c" target="_top" xlink:title="Soigneur\\lancerUnSoin">
<polygon fill="white" stroke="black" points="286,-50 286,-69 402,-69 402,-50 286,-50"/>
<text text-anchor="middle" x="344" y="-57" font-family="Helvetica,sans-Serif" font-size="10.00">Soigneur\lancerUnSoin</text>
</a>
</g>
</g>
<!-- Node66&#45;&gt;Node69 -->
<g id="edge4" class="edge"><title>Node66&#45;&gt;Node69</title>
<path fill="none" stroke="midnightblue" d="M240.811,-85.3879C261.702,-80.0956 285.847,-73.9787 305.421,-69.0201"/>
<polygon fill="midnightblue" stroke="midnightblue" points="239.686,-82.0623 230.851,-87.911 241.405,-88.848 239.686,-82.0623"/>
</g>
</g>
</svg>
