<?xml version="1.0" encoding="UTF-8" standalone="no"?>
<!DOCTYPE svg PUBLIC "-//W3C//DTD SVG 1.1//EN"
 "http://www.w3.org/Graphics/SVG/1.1/DTD/svg11.dtd">
<!-- Generated by graphviz version 2.38.0 (20140413.2041)
 -->
<!-- Title: Personnage\frapper Pages: 1 -->
<svg width="442pt" height="180pt"
 viewBox="0.00 0.00 442.00 180.00" xmlns="http://www.w3.org/2000/svg" xmlns:xlink="http://www.w3.org/1999/xlink">
<g id="graph0" class="graph" transform="scale(1 1) rotate(0) translate(4 176)">
<title>Personnage\frapper</title>
<polygon fill="white" stroke="none" points="-4,4 -4,-176 438,-176 438,4 -4,4"/>
<!-- Node40 -->
<g id="node1" class="node"><title>Node40</title>
<polygon fill="#bfbfbf" stroke="black" points="0,-76.5 0,-95.5 101,-95.5 101,-76.5 0,-76.5"/>
<text text-anchor="middle" x="50.5" y="-83.5" font-family="Helvetica,sans-Serif" font-size="10.00">Personnage\frapper</text>
</g>
<!-- Node41 -->
<g id="node2" class="node"><title>Node41</title>
<g id="a_node2"><a xlink:href="class_personnage.html#aabf0bcd80fcea089de16f33c029aae12" target="_top" xlink:title="Personnage\\estEndormi">
<polygon fill="white" stroke="black" points="144,-133.5 144,-152.5 265,-152.5 265,-133.5 144,-133.5"/>
<text text-anchor="middle" x="204.5" y="-140.5" font-family="Helvetica,sans-Serif" font-size="10.00">Personnage\estEndormi</text>
</a>
</g>
</g>
<!-- Node40&#45;&gt;Node41 -->
<g id="edge1" class="edge"><title>Node40&#45;&gt;Node41</title>
<path fill="none" stroke="midnightblue" d="M76.9414,-95.5405C102.04,-104.953 140.604,-119.414 168.566,-129.9"/>
<polygon fill="midnightblue" stroke="midnightblue" points="167.383,-133.194 177.976,-133.428 169.841,-126.64 167.383,-133.194"/>
</g>
<!-- Node43 -->
<g id="node4" class="node"><title>Node43</title>
<g id="a_node4"><a xlink:href="class_personnage.html#aa64edf7d4c080193213b12643eb05a5d" target="_top" xlink:title="Personnage\\recevoirXP">
<polygon fill="white" stroke="black" points="146.5,-76.5 146.5,-95.5 262.5,-95.5 262.5,-76.5 146.5,-76.5"/>
<text text-anchor="middle" x="204.5" y="-83.5" font-family="Helvetica,sans-Serif" font-size="10.00">Personnage\recevoirXP</text>
</a>
</g>
</g>
<!-- Node40&#45;&gt;Node43 -->
<g id="edge3" class="edge"><title>Node40&#45;&gt;Node43</title>
<path fill="none" stroke="midnightblue" d="M101.27,-86C112.454,-86 124.501,-86 136.264,-86"/>
<polygon fill="midnightblue" stroke="midnightblue" points="136.499,-89.5001 146.499,-86 136.499,-82.5001 136.499,-89.5001"/>
</g>
<!-- Node47 -->
<g id="node8" class="node"><title>Node47</title>
<g id="a_node8"><a xlink:href="class_personnage.html#a226affce78dca0151e0901896e58f14d" target="_top" xlink:title="Personnage\\recevoirDegats">
<polygon fill="white" stroke="black" points="137,-19.5 137,-38.5 272,-38.5 272,-19.5 137,-19.5"/>
<text text-anchor="middle" x="204.5" y="-26.5" font-family="Helvetica,sans-Serif" font-size="10.00">Personnage\recevoirDegats</text>
</a>
</g>
</g>
<!-- Node40&#45;&gt;Node47 -->
<g id="edge7" class="edge"><title>Node40&#45;&gt;Node47</title>
<path fill="none" stroke="midnightblue" d="M76.9414,-76.4595C102.04,-67.0473 140.604,-52.5862 168.566,-42.1001"/>
<polygon fill="midnightblue" stroke="midnightblue" points="169.841,-45.3601 177.976,-38.5716 167.383,-38.8058 169.841,-45.3601"/>
</g>
<!-- Node42 -->
<g id="node3" class="node"><title>Node42</title>
<g id="a_node3"><a xlink:href="class_personnage.html#a5fbe8f1f41e05e856ec6390bfb3e4f03" target="_top" xlink:title="Personnage\\timeEndormi">
<polygon fill="white" stroke="black" points="308,-152.5 308,-171.5 434,-171.5 434,-152.5 308,-152.5"/>
<text text-anchor="middle" x="371" y="-159.5" font-family="Helvetica,sans-Serif" font-size="10.00">Personnage\timeEndormi</text>
</a>
</g>
</g>
<!-- Node41&#45;&gt;Node42 -->
<g id="edge2" class="edge"><title>Node41&#45;&gt;Node42</title>
<path fill="none" stroke="midnightblue" d="M265.354,-149.913C275.866,-151.127 286.906,-152.403 297.713,-153.651"/>
<polygon fill="midnightblue" stroke="midnightblue" points="297.643,-157.166 307.979,-154.836 298.447,-150.212 297.643,-157.166"/>
</g>
<!-- Node44 -->
<g id="node5" class="node"><title>Node44</title>
<g id="a_node5"><a xlink:href="class_personnage.html#a60b2a6a44bc71517c063d87c062e0b87" target="_top" xlink:title="Personnage\\xp">
<polygon fill="white" stroke="black" points="330,-114.5 330,-133.5 412,-133.5 412,-114.5 330,-114.5"/>
<text text-anchor="middle" x="371" y="-121.5" font-family="Helvetica,sans-Serif" font-size="10.00">Personnage\xp</text>
</a>
</g>
</g>
<!-- Node43&#45;&gt;Node44 -->
<g id="edge4" class="edge"><title>Node43&#45;&gt;Node44</title>
<path fill="none" stroke="midnightblue" d="M247.01,-95.589C269.147,-100.703 296.552,-107.033 319.87,-112.42"/>
<polygon fill="midnightblue" stroke="midnightblue" points="319.392,-115.901 329.923,-114.742 320.968,-109.081 319.392,-115.901"/>
</g>
<!-- Node45 -->
<g id="node6" class="node"><title>Node45</title>
<g id="a_node6"><a xlink:href="class_personnage.html#aa5bc9f2bda281400fedbc1af1c19357d" target="_top" xlink:title="Personnage\\xp_max">
<polygon fill="white" stroke="black" points="318,-76.5 318,-95.5 424,-95.5 424,-76.5 318,-76.5"/>
<text text-anchor="middle" x="371" y="-83.5" font-family="Helvetica,sans-Serif" font-size="10.00">Personnage\xp_max</text>
</a>
</g>
</g>
<!-- Node43&#45;&gt;Node45 -->
<g id="edge5" class="edge"><title>Node43&#45;&gt;Node45</title>
<path fill="none" stroke="midnightblue" d="M262.572,-86C277.199,-86 293.002,-86 307.87,-86"/>
<polygon fill="midnightblue" stroke="midnightblue" points="307.988,-89.5001 317.988,-86 307.988,-82.5001 307.988,-89.5001"/>
</g>
<!-- Node46 -->
<g id="node7" class="node"><title>Node46</title>
<g id="a_node7"><a xlink:href="class_personnage.html#a061130b0c1c551d893ecffff2553cb93" target="_top" xlink:title="Personnage\\niveau">
<polygon fill="white" stroke="black" points="322,-38.5 322,-57.5 420,-57.5 420,-38.5 322,-38.5"/>
<text text-anchor="middle" x="371" y="-45.5" font-family="Helvetica,sans-Serif" font-size="10.00">Personnage\niveau</text>
</a>
</g>
</g>
<!-- Node43&#45;&gt;Node46 -->
<g id="edge6" class="edge"><title>Node43&#45;&gt;Node46</title>
<path fill="none" stroke="midnightblue" d="M247.01,-76.411C268.816,-71.3739 295.732,-65.1562 318.819,-59.8229"/>
<polygon fill="midnightblue" stroke="midnightblue" points="319.833,-63.1811 328.788,-57.5201 318.257,-56.3607 319.833,-63.1811"/>
</g>
<!-- Node48 -->
<g id="node9" class="node"><title>Node48</title>
<g id="a_node9"><a xlink:href="class_personnage.html#addeceec710baf3ae687f36151bc5def4" target="_top" xlink:title="Personnage\\etat">
<polygon fill="white" stroke="black" points="327,-0.5 327,-19.5 415,-19.5 415,-0.5 327,-0.5"/>
<text text-anchor="middle" x="371" y="-7.5" font-family="Helvetica,sans-Serif" font-size="10.00">Personnage\etat</text>
</a>
</g>
</g>
<!-- Node47&#45;&gt;Node48 -->
<g id="edge8" class="edge"><title>Node47&#45;&gt;Node48</title>
<path fill="none" stroke="midnightblue" d="M272.408,-21.272C287.153,-19.5689 302.58,-17.7871 316.702,-16.156"/>
<polygon fill="midnightblue" stroke="midnightblue" points="317.193,-19.6226 326.726,-14.9982 316.39,-12.6688 317.193,-19.6226"/>
</g>
</g>
</svg>
