<?xml version="1.0" encoding="UTF-8" standalone="no"?>
<!DOCTYPE svg PUBLIC "-//W3C//DTD SVG 1.1//EN"
 "http://www.w3.org/Graphics/SVG/1.1/DTD/svg11.dtd">
<!-- Generated by graphviz version 2.38.0 (20140413.2041)
 -->
<!-- Title: Personnage\id_perso Pages: 1 -->
<svg width="274pt" height="127pt"
 viewBox="0.00 0.00 274.00 126.50" xmlns="http://www.w3.org/2000/svg" xmlns:xlink="http://www.w3.org/1999/xlink">
<g id="graph0" class="graph" transform="scale(1 1) rotate(0) translate(4 122.5)">
<title>Personnage\id_perso</title>
<polygon fill="white" stroke="none" points="-4,4 -4,-122.5 270,-122.5 270,4 -4,4"/>
<!-- Node54 -->
<g id="node1" class="node"><title>Node54</title>
<polygon fill="#bfbfbf" stroke="black" points="0,-55 0,-74 108,-74 108,-55 0,-55"/>
<text text-anchor="middle" x="54" y="-62" font-family="Helvetica,sans-Serif" font-size="10.00">Personnage\id_perso</text>
</g>
<!-- Node55 -->
<g id="node2" class="node"><title>Node55</title>
<g id="a_node2"><a xlink:href="class_personnage.html#abcc3bdc5236dbfccd50c3dc5db1e8fce" target="_top" xlink:title="Personnage\\setId_perso">
<polygon fill="white" stroke="black" points="144,-99 144,-118 266,-118 266,-99 144,-99"/>
<text text-anchor="middle" x="205" y="-106" font-family="Helvetica,sans-Serif" font-size="10.00">Personnage\setId_perso</text>
</a>
</g>
</g>
<!-- Node54&#45;&gt;Node55 -->
<g id="edge1" class="edge"><title>Node54&#45;&gt;Node55</title>
<path fill="none" stroke="midnightblue" d="M97.1085,-76.9347C120.784,-83.926 149.878,-92.5177 171.732,-98.9713"/>
<polygon fill="midnightblue" stroke="midnightblue" points="97.9126,-73.5228 87.3308,-74.0473 95.9301,-80.2362 97.9126,-73.5228"/>
</g>
<!-- Node56 -->
<g id="node3" class="node"><title>Node56</title>
<g id="a_node3"><a xlink:href="class_personnages_manager.html#a3453160024d09fb70cb0a16e4de14ffe" target="_top" xlink:title="PersonnagesManager\l\\getList_up">
<polygon fill="white" stroke="black" points="149.5,-49.5 149.5,-79.5 260.5,-79.5 260.5,-49.5 149.5,-49.5"/>
<text text-anchor="start" x="157.5" y="-67.5" font-family="Helvetica,sans-Serif" font-size="10.00">PersonnagesManager</text>
<text text-anchor="middle" x="205" y="-56.5" font-family="Helvetica,sans-Serif" font-size="10.00">\getList_up</text>
</a>
</g>
</g>
<!-- Node54&#45;&gt;Node56 -->
<g id="edge2" class="edge"><title>Node54&#45;&gt;Node56</title>
<path fill="none" stroke="midnightblue" d="M118.547,-64.5C128.848,-64.5 139.435,-64.5 149.496,-64.5"/>
<polygon fill="midnightblue" stroke="midnightblue" points="118.372,-61.0001 108.372,-64.5 118.372,-68.0001 118.372,-61.0001"/>
</g>
<!-- Node57 -->
<g id="node4" class="node"><title>Node57</title>
<g id="a_node4"><a xlink:href="class_personnages_manager.html#a21d75e552a085ee6178544d71f72b31c" target="_top" xlink:title="PersonnagesManager\l\\update">
<polygon fill="white" stroke="black" points="149.5,-0.5 149.5,-30.5 260.5,-30.5 260.5,-0.5 149.5,-0.5"/>
<text text-anchor="start" x="157.5" y="-18.5" font-family="Helvetica,sans-Serif" font-size="10.00">PersonnagesManager</text>
<text text-anchor="middle" x="205" y="-7.5" font-family="Helvetica,sans-Serif" font-size="10.00">\update</text>
</a>
</g>
</g>
<!-- Node54&#45;&gt;Node57 -->
<g id="edge3" class="edge"><title>Node54&#45;&gt;Node57</title>
<path fill="none" stroke="midnightblue" d="M93.6799,-51.7798C113.436,-45.2828 137.602,-37.3355 158.275,-30.537"/>
<polygon fill="midnightblue" stroke="midnightblue" points="92.4885,-48.4871 84.0824,-54.936 94.6753,-55.1367 92.4885,-48.4871"/>
</g>
</g>
</svg>
