<?xml version="1.0" encoding="UTF-8" standalone="no"?>
<!DOCTYPE svg PUBLIC "-//W3C//DTD SVG 1.1//EN"
 "http://www.w3.org/Graphics/SVG/1.1/DTD/svg11.dtd">
<!-- Generated by graphviz version 2.38.0 (20140413.2041)
 -->
<!-- Title: Personnage\team Pages: 1 -->
<svg width="248pt" height="78pt"
 viewBox="0.00 0.00 248.00 77.50" xmlns="http://www.w3.org/2000/svg" xmlns:xlink="http://www.w3.org/1999/xlink">
<g id="graph0" class="graph" transform="scale(1 1) rotate(0) translate(4 73.5)">
<title>Personnage\team</title>
<polygon fill="white" stroke="none" points="-4,4 -4,-73.5 244,-73.5 244,4 -4,4"/>
<!-- Node176 -->
<g id="node1" class="node"><title>Node176</title>
<polygon fill="#bfbfbf" stroke="black" points="0,-28 0,-47 93,-47 93,-28 0,-28"/>
<text text-anchor="middle" x="46.5" y="-35" font-family="Helvetica,sans-Serif" font-size="10.00">Personnage\team</text>
</g>
<!-- Node177 -->
<g id="node2" class="node"><title>Node177</title>
<g id="a_node2"><a xlink:href="class_personnage.html#aaa13eb033ef4a4e116dc223942cc8e37" target="_top" xlink:title="Personnage\\setTeam">
<polygon fill="white" stroke="black" points="130,-50 130,-69 239,-69 239,-50 130,-50"/>
<text text-anchor="middle" x="184.5" y="-57" font-family="Helvetica,sans-Serif" font-size="10.00">Personnage\setTeam</text>
</a>
</g>
</g>
<!-- Node176&#45;&gt;Node177 -->
<g id="edge1" class="edge"><title>Node176&#45;&gt;Node177</title>
<path fill="none" stroke="midnightblue" d="M103.262,-46.5202C112.003,-47.9343 121.023,-49.3934 129.719,-50.8001"/>
<polygon fill="midnightblue" stroke="midnightblue" points="103.595,-43.0288 93.1644,-44.8869 102.477,-49.9389 103.595,-43.0288"/>
</g>
<!-- Node178 -->
<g id="node3" class="node"><title>Node178</title>
<g id="a_node3"><a xlink:href="class_personnages_manager.html#a21d75e552a085ee6178544d71f72b31c" target="_top" xlink:title="PersonnagesManager\l\\update">
<polygon fill="white" stroke="black" points="129,-0.5 129,-30.5 240,-30.5 240,-0.5 129,-0.5"/>
<text text-anchor="start" x="137" y="-18.5" font-family="Helvetica,sans-Serif" font-size="10.00">PersonnagesManager</text>
<text text-anchor="middle" x="184.5" y="-7.5" font-family="Helvetica,sans-Serif" font-size="10.00">\update</text>
</a>
</g>
</g>
<!-- Node176&#45;&gt;Node178 -->
<g id="edge2" class="edge"><title>Node176&#45;&gt;Node178</title>
<path fill="none" stroke="midnightblue" d="M103.269,-28.4785C111.688,-27.1167 120.365,-25.7129 128.762,-24.3546"/>
<polygon fill="midnightblue" stroke="midnightblue" points="102.477,-25.0611 93.1644,-30.1131 103.595,-31.9712 102.477,-25.0611"/>
</g>
</g>
</svg>
