<?xml version="1.0" encoding="UTF-8" standalone="no"?>
<!DOCTYPE svg PUBLIC "-//W3C//DTD SVG 1.1//EN"
 "http://www.w3.org/Graphics/SVG/1.1/DTD/svg11.dtd">
<!-- Generated by graphviz version 2.38.0 (20140413.2041)
 -->
<!-- Title: User\niveau Pages: 1 -->
<svg width="218pt" height="104pt"
 viewBox="0.00 0.00 218.00 104.00" xmlns="http://www.w3.org/2000/svg" xmlns:xlink="http://www.w3.org/1999/xlink">
<g id="graph0" class="graph" transform="scale(1 1) rotate(0) translate(4 100)">
<title>User\niveau</title>
<polygon fill="white" stroke="none" points="-4,4 -4,-100 214,-100 214,4 -4,4"/>
<!-- Node42 -->
<g id="node1" class="node"><title>Node42</title>
<polygon fill="#bfbfbf" stroke="black" points="0,-38.5 0,-57.5 67,-57.5 67,-38.5 0,-38.5"/>
<text text-anchor="middle" x="33.5" y="-45.5" font-family="Helvetica,sans-Serif" font-size="10.00">User\niveau</text>
</g>
<!-- Node43 -->
<g id="node2" class="node"><title>Node43</title>
<g id="a_node2"><a xlink:href="class_user.html#a84973efb146fe894e77bee5fe3b08f75" target="_top" xlink:title="User\\setNiveau">
<polygon fill="white" stroke="black" points="115.5,-76.5 115.5,-95.5 197.5,-95.5 197.5,-76.5 115.5,-76.5"/>
<text text-anchor="middle" x="156.5" y="-83.5" font-family="Helvetica,sans-Serif" font-size="10.00">User\setNiveau</text>
</a>
</g>
</g>
<!-- Node42&#45;&gt;Node43 -->
<g id="edge1" class="edge"><title>Node42&#45;&gt;Node43</title>
<path fill="none" stroke="midnightblue" d="M74.8771,-60.6804C91.2262,-65.8148 109.788,-71.6441 124.976,-76.4141"/>
<polygon fill="midnightblue" stroke="midnightblue" points="75.6227,-57.2461 65.0334,-57.589 73.5253,-63.9245 75.6227,-57.2461"/>
</g>
<!-- Node44 -->
<g id="node3" class="node"><title>Node44</title>
<g id="a_node3"><a xlink:href="class_user_manager.html#a7fb17bfd67135d7be043d59aeec1dcd4" target="_top" xlink:title="UserManager\\add">
<polygon fill="white" stroke="black" points="110,-38.5 110,-57.5 203,-57.5 203,-38.5 110,-38.5"/>
<text text-anchor="middle" x="156.5" y="-45.5" font-family="Helvetica,sans-Serif" font-size="10.00">UserManager\add</text>
</a>
</g>
</g>
<!-- Node42&#45;&gt;Node44 -->
<g id="edge2" class="edge"><title>Node42&#45;&gt;Node44</title>
<path fill="none" stroke="midnightblue" d="M77.3666,-48C87.7959,-48 98.9913,-48 109.557,-48"/>
<polygon fill="midnightblue" stroke="midnightblue" points="77.2444,-44.5001 67.2443,-48 77.2443,-51.5001 77.2444,-44.5001"/>
</g>
<!-- Node45 -->
<g id="node4" class="node"><title>Node45</title>
<g id="a_node4"><a xlink:href="class_user_manager.html#ad953740cf56464fdb81b8bc9654c5371" target="_top" xlink:title="UserManager\\update">
<polygon fill="white" stroke="black" points="103,-0.5 103,-19.5 210,-19.5 210,-0.5 103,-0.5"/>
<text text-anchor="middle" x="156.5" y="-7.5" font-family="Helvetica,sans-Serif" font-size="10.00">UserManager\update</text>
</a>
</g>
</g>
<!-- Node42&#45;&gt;Node45 -->
<g id="edge3" class="edge"><title>Node42&#45;&gt;Node45</title>
<path fill="none" stroke="midnightblue" d="M74.8771,-35.3196C91.2262,-30.1852 109.788,-24.3559 124.976,-19.5859"/>
<polygon fill="midnightblue" stroke="midnightblue" points="73.5253,-32.0755 65.0334,-38.411 75.6227,-38.7539 73.5253,-32.0755"/>
</g>
</g>
</svg>
