<?xml version="1.0" encoding="UTF-8" standalone="no"?>
<!DOCTYPE svg PUBLIC "-//W3C//DTD SVG 1.1//EN"
 "http://www.w3.org/Graphics/SVG/1.1/DTD/svg11.dtd">
<!-- Generated by graphviz version 2.38.0 (20140413.2041)
 -->
<!-- Title: PersonnagesManager\add Pages: 1 -->
<svg width="413pt" height="344pt"
 viewBox="0.00 0.00 413.00 344.00" xmlns="http://www.w3.org/2000/svg" xmlns:xlink="http://www.w3.org/1999/xlink">
<g id="graph0" class="graph" transform="scale(1 1) rotate(0) translate(4 340)">
<title>PersonnagesManager\add</title>
<polygon fill="white" stroke="none" points="-4,4 -4,-340 409,-340 409,4 -4,4"/>
<!-- Node3 -->
<g id="node1" class="node"><title>Node3</title>
<polygon fill="#bfbfbf" stroke="black" points="0,-164.5 0,-183.5 130,-183.5 130,-164.5 0,-164.5"/>
<text text-anchor="middle" x="65" y="-171.5" font-family="Helvetica,sans-Serif" font-size="10.00">PersonnagesManager\add</text>
</g>
<!-- Node4 -->
<g id="node2" class="node"><title>Node4</title>
<g id="a_node2"><a xlink:href="class_base__personnage.html#a100783dd2f191636d3eab860a60c18f6" target="_top" xlink:title="Base_personnage\\hydrate">
<polygon fill="white" stroke="black" points="166,-316.5 166,-335.5 296,-335.5 296,-316.5 166,-316.5"/>
<text text-anchor="middle" x="231" y="-323.5" font-family="Helvetica,sans-Serif" font-size="10.00">Base_personnage\hydrate</text>
</a>
</g>
</g>
<!-- Node3&#45;&gt;Node4 -->
<g id="edge1" class="edge"><title>Node3&#45;&gt;Node4</title>
<path fill="none" stroke="midnightblue" d="M70.5348,-183.708C82.4983,-208.248 117.369,-273.203 166,-307 168.895,-309.012 172.007,-310.815 175.241,-312.428"/>
<polygon fill="midnightblue" stroke="midnightblue" points="174.041,-315.723 184.607,-316.495 176.829,-309.302 174.041,-315.723"/>
</g>
<!-- Node5 -->
<g id="node3" class="node"><title>Node5</title>
<g id="a_node3"><a xlink:href="class_base__personnage.html#aad70521301b01ab3918bea05bef7b54b" target="_top" xlink:title="Base_personnage\\stuff_1">
<polygon fill="white" stroke="black" points="168,-278.5 168,-297.5 294,-297.5 294,-278.5 168,-278.5"/>
<text text-anchor="middle" x="231" y="-285.5" font-family="Helvetica,sans-Serif" font-size="10.00">Base_personnage\stuff_1</text>
</a>
</g>
</g>
<!-- Node3&#45;&gt;Node5 -->
<g id="edge2" class="edge"><title>Node3&#45;&gt;Node5</title>
<path fill="none" stroke="midnightblue" d="M73.4416,-183.63C88.713,-202.742 125.574,-245.629 166,-269 169.725,-271.154 173.716,-273.082 177.817,-274.806"/>
<polygon fill="midnightblue" stroke="midnightblue" points="176.921,-278.208 187.512,-278.464 179.392,-271.659 176.921,-278.208"/>
</g>
<!-- Node6 -->
<g id="node4" class="node"><title>Node6</title>
<g id="a_node4"><a xlink:href="class_stuff_manager.html#ab754f0d8b6625898735779a852268223" target="_top" xlink:title="StuffManager\\add">
<polygon fill="white" stroke="black" points="185,-240.5 185,-259.5 277,-259.5 277,-240.5 185,-240.5"/>
<text text-anchor="middle" x="231" y="-247.5" font-family="Helvetica,sans-Serif" font-size="10.00">StuffManager\add</text>
</a>
</g>
</g>
<!-- Node3&#45;&gt;Node6 -->
<g id="edge3" class="edge"><title>Node3&#45;&gt;Node6</title>
<path fill="none" stroke="midnightblue" d="M80.3634,-183.598C99.3146,-195.925 134.019,-217.353 166,-231 171.395,-233.302 177.158,-235.437 182.933,-237.38"/>
<polygon fill="midnightblue" stroke="midnightblue" points="182.01,-240.759 192.6,-240.465 184.138,-234.09 182.01,-240.759"/>
</g>
<!-- Node10 -->
<g id="node8" class="node"><title>Node10</title>
<g id="a_node8"><a xlink:href="class_base__personnage.html#ae37a88e0e1535ff5f0d786c1007fbe1e" target="_top" xlink:title="Base_personnage\\stuff_2">
<polygon fill="white" stroke="black" points="168,-202.5 168,-221.5 294,-221.5 294,-202.5 168,-202.5"/>
<text text-anchor="middle" x="231" y="-209.5" font-family="Helvetica,sans-Serif" font-size="10.00">Base_personnage\stuff_2</text>
</a>
</g>
</g>
<!-- Node3&#45;&gt;Node10 -->
<g id="edge7" class="edge"><title>Node3&#45;&gt;Node10</title>
<path fill="none" stroke="midnightblue" d="M107.384,-183.589C129.123,-188.626 155.957,-194.844 178.975,-200.177"/>
<polygon fill="midnightblue" stroke="midnightblue" points="178.381,-203.632 188.913,-202.48 179.962,-196.813 178.381,-203.632"/>
</g>
<!-- Node11 -->
<g id="node9" class="node"><title>Node11</title>
<g id="a_node9"><a xlink:href="class_base__personnage.html#a901d3c830ec965886fcf9c57ff153675" target="_top" xlink:title="Base_personnage\\stuff_3">
<polygon fill="white" stroke="black" points="168,-164.5 168,-183.5 294,-183.5 294,-164.5 168,-164.5"/>
<text text-anchor="middle" x="231" y="-171.5" font-family="Helvetica,sans-Serif" font-size="10.00">Base_personnage\stuff_3</text>
</a>
</g>
</g>
<!-- Node3&#45;&gt;Node11 -->
<g id="edge8" class="edge"><title>Node3&#45;&gt;Node11</title>
<path fill="none" stroke="midnightblue" d="M130.346,-174C139.344,-174 148.639,-174 157.771,-174"/>
<polygon fill="midnightblue" stroke="midnightblue" points="157.986,-177.5 167.986,-174 157.986,-170.5 157.986,-177.5"/>
</g>
<!-- Node12 -->
<g id="node10" class="node"><title>Node12</title>
<g id="a_node10"><a xlink:href="class_base__personnage.html#ab840c279a1234075b5598b6bc48c0288" target="_top" xlink:title="Base_personnage\\id\l_persos">
<polygon fill="white" stroke="black" points="178.5,-115 178.5,-145 283.5,-145 283.5,-115 178.5,-115"/>
<text text-anchor="start" x="186.5" y="-133" font-family="Helvetica,sans-Serif" font-size="10.00">Base_personnage\id</text>
<text text-anchor="middle" x="231" y="-122" font-family="Helvetica,sans-Serif" font-size="10.00">_persos</text>
</a>
</g>
</g>
<!-- Node3&#45;&gt;Node12 -->
<g id="edge9" class="edge"><title>Node3&#45;&gt;Node12</title>
<path fill="none" stroke="midnightblue" d="M101.586,-164.453C121.116,-159.213 145.885,-152.567 168.448,-146.514"/>
<polygon fill="midnightblue" stroke="midnightblue" points="169.544,-149.844 178.296,-143.872 167.73,-143.083 169.544,-149.844"/>
</g>
<!-- Node13 -->
<g id="node11" class="node"><title>Node13</title>
<g id="a_node11"><a xlink:href="class_user.html#acca0b7b0795d518d884a25505add943c" target="_top" xlink:title="User\\id_user">
<polygon fill="white" stroke="black" points="195.5,-76.5 195.5,-95.5 266.5,-95.5 266.5,-76.5 195.5,-76.5"/>
<text text-anchor="middle" x="231" y="-83.5" font-family="Helvetica,sans-Serif" font-size="10.00">User\id_user</text>
</a>
</g>
</g>
<!-- Node3&#45;&gt;Node13 -->
<g id="edge10" class="edge"><title>Node3&#45;&gt;Node13</title>
<path fill="none" stroke="midnightblue" d="M77.6119,-164.406C95.5658,-149.979 131.594,-122.621 166,-106 172.197,-103.006 178.946,-100.328 185.661,-97.9802"/>
<polygon fill="midnightblue" stroke="midnightblue" points="186.998,-101.225 195.406,-94.7777 184.813,-94.5747 186.998,-101.225"/>
</g>
<!-- Node14 -->
<g id="node12" class="node"><title>Node14</title>
<g id="a_node12"><a xlink:href="class_base__personnage.html#a77daa43282aa9b4653c70b4a97dc7948" target="_top" xlink:title="Base_personnage\\qualite">
<polygon fill="white" stroke="black" points="168,-38.5 168,-57.5 294,-57.5 294,-38.5 168,-38.5"/>
<text text-anchor="middle" x="231" y="-45.5" font-family="Helvetica,sans-Serif" font-size="10.00">Base_personnage\qualite</text>
</a>
</g>
</g>
<!-- Node3&#45;&gt;Node14 -->
<g id="edge11" class="edge"><title>Node3&#45;&gt;Node14</title>
<path fill="none" stroke="midnightblue" d="M72.2649,-164.407C86.4106,-143.508 122.967,-93.6148 166,-67 169.396,-64.8995 173.037,-63.0203 176.796,-61.3408"/>
<polygon fill="midnightblue" stroke="midnightblue" points="178.306,-64.5073 186.309,-57.5652 175.723,-58.001 178.306,-64.5073"/>
</g>
<!-- Node15 -->
<g id="node13" class="node"><title>Node15</title>
<g id="a_node13"><a xlink:href="class_base__personnage.html#afb797796a81d9bec991ede838c711bd6" target="_top" xlink:title="Base_personnage\\stuff_4">
<polygon fill="white" stroke="black" points="168,-0.5 168,-19.5 294,-19.5 294,-0.5 168,-0.5"/>
<text text-anchor="middle" x="231" y="-7.5" font-family="Helvetica,sans-Serif" font-size="10.00">Base_personnage\stuff_4</text>
</a>
</g>
</g>
<!-- Node3&#45;&gt;Node15 -->
<g id="edge12" class="edge"><title>Node3&#45;&gt;Node15</title>
<path fill="none" stroke="midnightblue" d="M69.9578,-164.183C81.0063,-138.038 114.771,-66.1811 166,-29 168.673,-27.0597 171.545,-25.316 174.537,-23.7491"/>
<polygon fill="midnightblue" stroke="midnightblue" points="176.13,-26.8699 183.798,-19.559 173.245,-20.4922 176.13,-26.8699"/>
</g>
<!-- Node7 -->
<g id="node5" class="node"><title>Node7</title>
<g id="a_node5"><a xlink:href="class_stuff.html#a3f05761c8833bcb9f25dac07605f54e8" target="_top" xlink:title="Stuff\\id_base">
<polygon fill="white" stroke="black" points="332,-278.5 332,-297.5 405,-297.5 405,-278.5 332,-278.5"/>
<text text-anchor="middle" x="368.5" y="-285.5" font-family="Helvetica,sans-Serif" font-size="10.00">Stuff\id_base</text>
</a>
</g>
</g>
<!-- Node6&#45;&gt;Node7 -->
<g id="edge4" class="edge"><title>Node6&#45;&gt;Node7</title>
<path fill="none" stroke="midnightblue" d="M266.192,-259.589C283.604,-264.472 304.971,-270.464 323.587,-275.685"/>
<polygon fill="midnightblue" stroke="midnightblue" points="322.745,-279.084 333.319,-278.414 324.635,-272.344 322.745,-279.084"/>
</g>
<!-- Node8 -->
<g id="node6" class="node"><title>Node8</title>
<g id="a_node6"><a xlink:href="class_stuff.html#af51c6e71896e65dd76820cd733b5f274" target="_top" xlink:title="Stuff\\hydrate">
<polygon fill="white" stroke="black" points="333,-240.5 333,-259.5 404,-259.5 404,-240.5 333,-240.5"/>
<text text-anchor="middle" x="368.5" y="-247.5" font-family="Helvetica,sans-Serif" font-size="10.00">Stuff\hydrate</text>
</a>
</g>
</g>
<!-- Node6&#45;&gt;Node8 -->
<g id="edge5" class="edge"><title>Node6&#45;&gt;Node8</title>
<path fill="none" stroke="midnightblue" d="M277.12,-250C291.74,-250 307.948,-250 322.556,-250"/>
<polygon fill="midnightblue" stroke="midnightblue" points="322.864,-253.5 332.864,-250 322.864,-246.5 322.864,-253.5"/>
</g>
<!-- Node9 -->
<g id="node7" class="node"><title>Node9</title>
<g id="a_node7"><a xlink:href="class_stuff.html#a4d8664e6878c9661e0d0dcf46b1bd5d6" target="_top" xlink:title="Stuff\\niveau">
<polygon fill="white" stroke="black" points="335.5,-202.5 335.5,-221.5 401.5,-221.5 401.5,-202.5 335.5,-202.5"/>
<text text-anchor="middle" x="368.5" y="-209.5" font-family="Helvetica,sans-Serif" font-size="10.00">Stuff\niveau</text>
</a>
</g>
</g>
<!-- Node6&#45;&gt;Node9 -->
<g id="edge6" class="edge"><title>Node6&#45;&gt;Node9</title>
<path fill="none" stroke="midnightblue" d="M266.192,-240.411C284.218,-235.356 306.484,-229.111 325.547,-223.765"/>
<polygon fill="midnightblue" stroke="midnightblue" points="326.501,-227.133 335.184,-221.063 324.611,-220.393 326.501,-227.133"/>
</g>
</g>
</svg>
