<?xml version="1.0" encoding="UTF-8" standalone="no"?>
<!DOCTYPE svg PUBLIC "-//W3C//DTD SVG 1.1//EN"
 "http://www.w3.org/Graphics/SVG/1.1/DTD/svg11.dtd">
<!-- Generated by graphviz version 2.38.0 (20140413.2041)
 -->
<!-- Title: User\xp Pages: 1 -->
<svg width="201pt" height="104pt"
 viewBox="0.00 0.00 201.00 104.00" xmlns="http://www.w3.org/2000/svg" xmlns:xlink="http://www.w3.org/1999/xlink">
<g id="graph0" class="graph" transform="scale(1 1) rotate(0) translate(4 100)">
<title>User\xp</title>
<polygon fill="white" stroke="none" points="-4,4 -4,-100 197,-100 197,4 -4,4"/>
<!-- Node96 -->
<g id="node1" class="node"><title>Node96</title>
<polygon fill="#bfbfbf" stroke="black" points="0,-38.5 0,-57.5 50,-57.5 50,-38.5 0,-38.5"/>
<text text-anchor="middle" x="25" y="-45.5" font-family="Helvetica,sans-Serif" font-size="10.00">User\xp</text>
</g>
<!-- Node97 -->
<g id="node2" class="node"><title>Node97</title>
<g id="a_node2"><a xlink:href="class_user.html#a84e2a4262b3229d9bdd3f5a56a2c5606" target="_top" xlink:title="User\\setXp">
<polygon fill="white" stroke="black" points="107.5,-76.5 107.5,-95.5 171.5,-95.5 171.5,-76.5 107.5,-76.5"/>
<text text-anchor="middle" x="139.5" y="-83.5" font-family="Helvetica,sans-Serif" font-size="10.00">User\setXp</text>
</a>
</g>
</g>
<!-- Node96&#45;&gt;Node97 -->
<g id="edge1" class="edge"><title>Node96&#45;&gt;Node97</title>
<path fill="none" stroke="midnightblue" d="M59.6866,-59.3786C75.7327,-64.7986 94.7153,-71.2105 110.03,-76.3834"/>
<polygon fill="midnightblue" stroke="midnightblue" points="60.7283,-56.0362 50.1341,-56.152 58.4881,-62.6681 60.7283,-56.0362"/>
</g>
<!-- Node98 -->
<g id="node3" class="node"><title>Node98</title>
<g id="a_node3"><a xlink:href="class_user_manager.html#a7fb17bfd67135d7be043d59aeec1dcd4" target="_top" xlink:title="UserManager\\add">
<polygon fill="white" stroke="black" points="93,-38.5 93,-57.5 186,-57.5 186,-38.5 93,-38.5"/>
<text text-anchor="middle" x="139.5" y="-45.5" font-family="Helvetica,sans-Serif" font-size="10.00">UserManager\add</text>
</a>
</g>
</g>
<!-- Node96&#45;&gt;Node98 -->
<g id="edge2" class="edge"><title>Node96&#45;&gt;Node98</title>
<path fill="none" stroke="midnightblue" d="M60.2756,-48C70.4716,-48 81.8106,-48 92.6203,-48"/>
<polygon fill="midnightblue" stroke="midnightblue" points="60.1341,-44.5001 50.1341,-48 60.134,-51.5001 60.1341,-44.5001"/>
</g>
<!-- Node99 -->
<g id="node4" class="node"><title>Node99</title>
<g id="a_node4"><a xlink:href="class_user_manager.html#ad953740cf56464fdb81b8bc9654c5371" target="_top" xlink:title="UserManager\\update">
<polygon fill="white" stroke="black" points="86,-0.5 86,-19.5 193,-19.5 193,-0.5 86,-0.5"/>
<text text-anchor="middle" x="139.5" y="-7.5" font-family="Helvetica,sans-Serif" font-size="10.00">UserManager\update</text>
</a>
</g>
</g>
<!-- Node96&#45;&gt;Node99 -->
<g id="edge3" class="edge"><title>Node96&#45;&gt;Node99</title>
<path fill="none" stroke="midnightblue" d="M59.6866,-36.6214C75.7327,-31.2014 94.7153,-24.7895 110.03,-19.6166"/>
<polygon fill="midnightblue" stroke="midnightblue" points="58.4881,-33.3319 50.1341,-39.848 60.7283,-39.9638 58.4881,-33.3319"/>
</g>
</g>
</svg>
