<?xml version="1.0" encoding="UTF-8" standalone="no"?>
<!DOCTYPE svg PUBLIC "-//W3C//DTD SVG 1.1//EN"
 "http://www.w3.org/Graphics/SVG/1.1/DTD/svg11.dtd">
<!-- Generated by graphviz version 2.38.0 (20140413.2041)
 -->
<!-- Title: Personnage\xp Pages: 1 -->
<svg width="394pt" height="154pt"
 viewBox="0.00 0.00 394.00 153.50" xmlns="http://www.w3.org/2000/svg" xmlns:xlink="http://www.w3.org/1999/xlink">
<g id="graph0" class="graph" transform="scale(1 1) rotate(0) translate(4 149.5)">
<title>Personnage\xp</title>
<polygon fill="white" stroke="none" points="-4,4 -4,-149.5 390,-149.5 390,4 -4,4"/>
<!-- Node199 -->
<g id="node1" class="node"><title>Node199</title>
<polygon fill="#bfbfbf" stroke="black" points="0,-50 0,-69 82,-69 82,-50 0,-50"/>
<text text-anchor="middle" x="41" y="-57" font-family="Helvetica,sans-Serif" font-size="10.00">Personnage\xp</text>
</g>
<!-- Node200 -->
<g id="node2" class="node"><title>Node200</title>
<g id="a_node2"><a xlink:href="class_personnage.html#aa64edf7d4c080193213b12643eb05a5d" target="_top" xlink:title="Personnage\\recevoirXP">
<polygon fill="white" stroke="black" points="118,-88 118,-107 234,-107 234,-88 118,-88"/>
<text text-anchor="middle" x="176" y="-95" font-family="Helvetica,sans-Serif" font-size="10.00">Personnage\recevoirXP</text>
</a>
</g>
</g>
<!-- Node199&#45;&gt;Node200 -->
<g id="edge1" class="edge"><title>Node199&#45;&gt;Node200</title>
<path fill="none" stroke="midnightblue" d="M85.3669,-71.8906C103.581,-77.0945 124.439,-83.0541 141.449,-87.9141"/>
<polygon fill="midnightblue" stroke="midnightblue" points="86.1383,-68.471 75.5615,-69.089 84.2152,-75.2016 86.1383,-68.471"/>
</g>
<!-- Node204 -->
<g id="node6" class="node"><title>Node204</title>
<g id="a_node6"><a xlink:href="class_personnage.html#a3f0be4dea35c2bf12f7c5cb9bf7c2f9c" target="_top" xlink:title="Personnage\\setXp">
<polygon fill="white" stroke="black" points="128.5,-50 128.5,-69 223.5,-69 223.5,-50 128.5,-50"/>
<text text-anchor="middle" x="176" y="-57" font-family="Helvetica,sans-Serif" font-size="10.00">Personnage\setXp</text>
</a>
</g>
</g>
<!-- Node199&#45;&gt;Node204 -->
<g id="edge5" class="edge"><title>Node199&#45;&gt;Node204</title>
<path fill="none" stroke="midnightblue" d="M92.4047,-59.5C104.199,-59.5 116.712,-59.5 128.336,-59.5"/>
<polygon fill="midnightblue" stroke="midnightblue" points="92.2653,-56.0001 82.2653,-59.5 92.2653,-63.0001 92.2653,-56.0001"/>
</g>
<!-- Node205 -->
<g id="node7" class="node"><title>Node205</title>
<g id="a_node7"><a xlink:href="class_personnages_manager.html#a21d75e552a085ee6178544d71f72b31c" target="_top" xlink:title="PersonnagesManager\l\\update">
<polygon fill="white" stroke="black" points="120.5,-0.5 120.5,-30.5 231.5,-30.5 231.5,-0.5 120.5,-0.5"/>
<text text-anchor="start" x="128.5" y="-18.5" font-family="Helvetica,sans-Serif" font-size="10.00">PersonnagesManager</text>
<text text-anchor="middle" x="176" y="-7.5" font-family="Helvetica,sans-Serif" font-size="10.00">\update</text>
</a>
</g>
</g>
<!-- Node199&#45;&gt;Node205 -->
<g id="edge6" class="edge"><title>Node199&#45;&gt;Node205</title>
<path fill="none" stroke="midnightblue" d="M80.5204,-46.7564C95.819,-41.6952 113.534,-35.8347 129.462,-30.5654"/>
<polygon fill="midnightblue" stroke="midnightblue" points="79.2536,-43.4888 70.859,-49.9527 81.4523,-50.1346 79.2536,-43.4888"/>
</g>
<!-- Node201 -->
<g id="node3" class="node"><title>Node201</title>
<g id="a_node3"><a xlink:href="class_att__soi.html#a7da2d15a0bedd2880e7491f72b430bf0" target="_top" xlink:title="Att_soi\\lancerUnSoin">
<polygon fill="white" stroke="black" points="274,-126 274,-145 382,-145 382,-126 274,-126"/>
<text text-anchor="middle" x="328" y="-133" font-family="Helvetica,sans-Serif" font-size="10.00">Att_soi\lancerUnSoin</text>
</a>
</g>
</g>
<!-- Node200&#45;&gt;Node201 -->
<g id="edge2" class="edge"><title>Node200&#45;&gt;Node201</title>
<path fill="none" stroke="midnightblue" d="M224.811,-109.612C245.702,-114.904 269.847,-121.021 289.421,-125.98"/>
<polygon fill="midnightblue" stroke="midnightblue" points="225.405,-106.152 214.851,-107.089 223.686,-112.938 225.405,-106.152"/>
</g>
<!-- Node202 -->
<g id="node4" class="node"><title>Node202</title>
<g id="a_node4"><a xlink:href="class_personnage.html#a1deaeddff5bc8766d52da4fc2d0b8032" target="_top" xlink:title="Fonction pour frapper. ">
<polygon fill="white" stroke="black" points="277.5,-88 277.5,-107 378.5,-107 378.5,-88 277.5,-88"/>
<text text-anchor="middle" x="328" y="-95" font-family="Helvetica,sans-Serif" font-size="10.00">Personnage\frapper</text>
</a>
</g>
</g>
<!-- Node200&#45;&gt;Node202 -->
<g id="edge3" class="edge"><title>Node200&#45;&gt;Node202</title>
<path fill="none" stroke="midnightblue" d="M244.271,-97.5C255.408,-97.5 266.774,-97.5 277.374,-97.5"/>
<polygon fill="midnightblue" stroke="midnightblue" points="244.137,-94.0001 234.136,-97.5 244.136,-101 244.137,-94.0001"/>
</g>
<!-- Node203 -->
<g id="node5" class="node"><title>Node203</title>
<g id="a_node5"><a xlink:href="class_soigneur.html#ac68dd65c897e55dc77d354e79e79a52c" target="_top" xlink:title="Soigneur\\lancerUnSoin">
<polygon fill="white" stroke="black" points="270,-50 270,-69 386,-69 386,-50 270,-50"/>
<text text-anchor="middle" x="328" y="-57" font-family="Helvetica,sans-Serif" font-size="10.00">Soigneur\lancerUnSoin</text>
</a>
</g>
</g>
<!-- Node200&#45;&gt;Node203 -->
<g id="edge4" class="edge"><title>Node200&#45;&gt;Node203</title>
<path fill="none" stroke="midnightblue" d="M224.811,-85.3879C245.702,-80.0956 269.847,-73.9787 289.421,-69.0201"/>
<polygon fill="midnightblue" stroke="midnightblue" points="223.686,-82.0623 214.851,-87.911 225.405,-88.848 223.686,-82.0623"/>
</g>
</g>
</svg>
