<?xml version="1.0" encoding="UTF-8" standalone="no"?>
<!DOCTYPE svg PUBLIC "-//W3C//DTD SVG 1.1//EN"
 "http://www.w3.org/Graphics/SVG/1.1/DTD/svg11.dtd">
<!-- Generated by graphviz version 2.38.0 (20140413.2041)
 -->
<!-- Title: Base_personnage\hydrate Pages: 1 -->
<svg width="323pt" height="66pt"
 viewBox="0.00 0.00 323.00 66.00" xmlns="http://www.w3.org/2000/svg" xmlns:xlink="http://www.w3.org/1999/xlink">
<g id="graph0" class="graph" transform="scale(1 1) rotate(0) translate(4 62)">
<title>Base_personnage\hydrate</title>
<polygon fill="white" stroke="none" points="-4,4 -4,-62 319,-62 319,4 -4,4"/>
<!-- Node9 -->
<g id="node1" class="node"><title>Node9</title>
<polygon fill="#bfbfbf" stroke="black" points="0,-19.5 0,-38.5 130,-38.5 130,-19.5 0,-19.5"/>
<text text-anchor="middle" x="65" y="-26.5" font-family="Helvetica,sans-Serif" font-size="10.00">Base_personnage\hydrate</text>
</g>
<!-- Node10 -->
<g id="node2" class="node"><title>Node10</title>
<g id="a_node2"><a xlink:href="class_base__personnage.html#adc8ce28bfa1d2fffd9e568fbb25a0104" target="_top" xlink:title="Base_personnage\\__construct">
<polygon fill="white" stroke="black" points="166,-38.5 166,-57.5 315,-57.5 315,-38.5 166,-38.5"/>
<text text-anchor="middle" x="240.5" y="-45.5" font-family="Helvetica,sans-Serif" font-size="10.00">Base_personnage\__construct</text>
</a>
</g>
</g>
<!-- Node9&#45;&gt;Node10 -->
<g id="edge1" class="edge"><title>Node9&#45;&gt;Node10</title>
<path fill="none" stroke="midnightblue" d="M140.086,-37.1132C148.666,-38.0528 157.416,-39.0109 165.988,-39.9497"/>
<polygon fill="midnightblue" stroke="midnightblue" points="140.434,-33.6304 130.112,-36.0209 139.672,-40.5888 140.434,-33.6304"/>
</g>
<!-- Node11 -->
<g id="node3" class="node"><title>Node11</title>
<g id="a_node3"><a xlink:href="class_personnages_manager.html#a3ce7c5751a3faedb4f639a009ff0243e" target="_top" xlink:title="PersonnagesManager\\add">
<polygon fill="white" stroke="black" points="175.5,-0.5 175.5,-19.5 305.5,-19.5 305.5,-0.5 175.5,-0.5"/>
<text text-anchor="middle" x="240.5" y="-7.5" font-family="Helvetica,sans-Serif" font-size="10.00">PersonnagesManager\add</text>
</a>
</g>
</g>
<!-- Node9&#45;&gt;Node11 -->
<g id="edge2" class="edge"><title>Node9&#45;&gt;Node11</title>
<path fill="none" stroke="midnightblue" d="M140.274,-20.8663C151.952,-19.5874 163.938,-18.2748 175.362,-17.0238"/>
<polygon fill="midnightblue" stroke="midnightblue" points="139.672,-17.4112 130.112,-21.9791 140.434,-24.3696 139.672,-17.4112"/>
</g>
</g>
</svg>
