<?xml version="1.0" encoding="UTF-8" standalone="no"?>
<!DOCTYPE svg PUBLIC "-//W3C//DTD SVG 1.1//EN"
 "http://www.w3.org/Graphics/SVG/1.1/DTD/svg11.dtd">
<!-- Generated by graphviz version 2.38.0 (20140413.2041)
 -->
<!-- Title: User\email Pages: 1 -->
<svg width="200pt" height="66pt"
 viewBox="0.00 0.00 200.00 66.00" xmlns="http://www.w3.org/2000/svg" xmlns:xlink="http://www.w3.org/1999/xlink">
<g id="graph0" class="graph" transform="scale(1 1) rotate(0) translate(4 62)">
<title>User\email</title>
<polygon fill="white" stroke="none" points="-4,4 -4,-62 196,-62 196,4 -4,4"/>
<!-- Node10 -->
<g id="node1" class="node"><title>Node10</title>
<polygon fill="#bfbfbf" stroke="black" points="0,-19.5 0,-38.5 63,-38.5 63,-19.5 0,-19.5"/>
<text text-anchor="middle" x="31.5" y="-26.5" font-family="Helvetica,sans-Serif" font-size="10.00">User\email</text>
</g>
<!-- Node11 -->
<g id="node2" class="node"><title>Node11</title>
<g id="a_node2"><a xlink:href="class_user.html#a018ae17e436e09134922835cdd3235a7" target="_top" xlink:title="User\\setEmail">
<polygon fill="white" stroke="black" points="106.5,-38.5 106.5,-57.5 184.5,-57.5 184.5,-38.5 106.5,-38.5"/>
<text text-anchor="middle" x="145.5" y="-45.5" font-family="Helvetica,sans-Serif" font-size="10.00">User\setEmail</text>
</a>
</g>
</g>
<!-- Node10&#45;&gt;Node11 -->
<g id="edge1" class="edge"><title>Node10&#45;&gt;Node11</title>
<path fill="none" stroke="midnightblue" d="M73.1692,-35.8992C83.9925,-37.7353 95.6435,-39.7118 106.328,-41.5244"/>
<polygon fill="midnightblue" stroke="midnightblue" points="73.549,-32.4137 63.1045,-34.1918 72.3782,-39.3151 73.549,-32.4137"/>
</g>
<!-- Node12 -->
<g id="node3" class="node"><title>Node12</title>
<g id="a_node3"><a xlink:href="class_user_manager.html#a7fb17bfd67135d7be043d59aeec1dcd4" target="_top" xlink:title="UserManager\\add">
<polygon fill="white" stroke="black" points="99,-0.5 99,-19.5 192,-19.5 192,-0.5 99,-0.5"/>
<text text-anchor="middle" x="145.5" y="-7.5" font-family="Helvetica,sans-Serif" font-size="10.00">UserManager\add</text>
</a>
</g>
</g>
<!-- Node10&#45;&gt;Node12 -->
<g id="edge2" class="edge"><title>Node10&#45;&gt;Node12</title>
<path fill="none" stroke="midnightblue" d="M73.0133,-22.1272C81.3864,-20.7068 90.2609,-19.2013 98.804,-17.752"/>
<polygon fill="midnightblue" stroke="midnightblue" points="72.3782,-18.6849 63.1045,-23.8082 73.549,-25.5863 72.3782,-18.6849"/>
</g>
</g>
</svg>
