<?xml version="1.0" encoding="UTF-8" standalone="no"?>
<!DOCTYPE svg PUBLIC "-//W3C//DTD SVG 1.1//EN"
 "http://www.w3.org/Graphics/SVG/1.1/DTD/svg11.dtd">
<!-- Generated by graphviz version 2.38.0 (20140413.2041)
 -->
<!-- Title: Personnage\qualite Pages: 1 -->
<svg width="260pt" height="78pt"
 viewBox="0.00 0.00 260.00 77.50" xmlns="http://www.w3.org/2000/svg" xmlns:xlink="http://www.w3.org/1999/xlink">
<g id="graph0" class="graph" transform="scale(1 1) rotate(0) translate(4 73.5)">
<title>Personnage\qualite</title>
<polygon fill="white" stroke="none" points="-4,4 -4,-73.5 256,-73.5 256,4 -4,4"/>
<!-- Node79 -->
<g id="node1" class="node"><title>Node79</title>
<polygon fill="#bfbfbf" stroke="black" points="0,-28 0,-47 100,-47 100,-28 0,-28"/>
<text text-anchor="middle" x="50" y="-35" font-family="Helvetica,sans-Serif" font-size="10.00">Personnage\qualite</text>
</g>
<!-- Node80 -->
<g id="node2" class="node"><title>Node80</title>
<g id="a_node2"><a xlink:href="class_personnage.html#a85bad8be1af1855b0c736d84640ec820" target="_top" xlink:title="Personnage\\setQualite">
<polygon fill="white" stroke="black" points="136,-50 136,-69 252,-69 252,-50 136,-50"/>
<text text-anchor="middle" x="194" y="-57" font-family="Helvetica,sans-Serif" font-size="10.00">Personnage\setQualite</text>
</a>
</g>
</g>
<!-- Node79&#45;&gt;Node80 -->
<g id="edge1" class="edge"><title>Node79&#45;&gt;Node80</title>
<path fill="none" stroke="midnightblue" d="M110.304,-46.688C118.651,-47.9811 127.218,-49.3085 135.529,-50.5961"/>
<polygon fill="midnightblue" stroke="midnightblue" points="110.684,-43.2052 100.266,-45.1328 109.612,-50.1226 110.684,-43.2052"/>
</g>
<!-- Node81 -->
<g id="node3" class="node"><title>Node81</title>
<g id="a_node3"><a xlink:href="class_personnages_manager.html#a21d75e552a085ee6178544d71f72b31c" target="_top" xlink:title="PersonnagesManager\l\\update">
<polygon fill="white" stroke="black" points="138.5,-0.5 138.5,-30.5 249.5,-30.5 249.5,-0.5 138.5,-0.5"/>
<text text-anchor="start" x="146.5" y="-18.5" font-family="Helvetica,sans-Serif" font-size="10.00">PersonnagesManager</text>
<text text-anchor="middle" x="194" y="-7.5" font-family="Helvetica,sans-Serif" font-size="10.00">\update</text>
</a>
</g>
</g>
<!-- Node79&#45;&gt;Node81 -->
<g id="edge2" class="edge"><title>Node79&#45;&gt;Node81</title>
<path fill="none" stroke="midnightblue" d="M110.27,-28.3174C119.619,-26.8689 129.247,-25.3772 138.481,-23.9465"/>
<polygon fill="midnightblue" stroke="midnightblue" points="109.612,-24.8774 100.266,-29.8672 110.684,-31.7948 109.612,-24.8774"/>
</g>
</g>
</svg>
