<?xml version="1.0" encoding="UTF-8" standalone="no"?>
<!DOCTYPE svg PUBLIC "-//W3C//DTD SVG 1.1//EN"
 "http://www.w3.org/Graphics/SVG/1.1/DTD/svg11.dtd">
<!-- Generated by graphviz version 2.38.0 (20140413.2041)
 -->
<!-- Title: Personnage\soigner Pages: 1 -->
<svg width="438pt" height="66pt"
 viewBox="0.00 0.00 438.00 66.00" xmlns="http://www.w3.org/2000/svg" xmlns:xlink="http://www.w3.org/1999/xlink">
<g id="graph0" class="graph" transform="scale(1 1) rotate(0) translate(4 62)">
<title>Personnage\soigner</title>
<polygon fill="white" stroke="none" points="-4,4 -4,-62 434,-62 434,4 -4,4"/>
<!-- Node168 -->
<g id="node1" class="node"><title>Node168</title>
<polygon fill="#bfbfbf" stroke="black" points="0,-19.5 0,-38.5 103,-38.5 103,-19.5 0,-19.5"/>
<text text-anchor="middle" x="51.5" y="-26.5" font-family="Helvetica,sans-Serif" font-size="10.00">Personnage\soigner</text>
</g>
<!-- Node169 -->
<g id="node2" class="node"><title>Node169</title>
<g id="a_node2"><a xlink:href="class_personnage.html#aabf0bcd80fcea089de16f33c029aae12" target="_top" xlink:title="Personnage\\estEndormi">
<polygon fill="white" stroke="black" points="143,-38.5 143,-57.5 264,-57.5 264,-38.5 143,-38.5"/>
<text text-anchor="middle" x="203.5" y="-45.5" font-family="Helvetica,sans-Serif" font-size="10.00">Personnage\estEndormi</text>
</a>
</g>
</g>
<!-- Node168&#45;&gt;Node169 -->
<g id="edge1" class="edge"><title>Node168&#45;&gt;Node169</title>
<path fill="none" stroke="midnightblue" d="M103.283,-35.4325C112.845,-36.6437 122.995,-37.9293 133.013,-39.1983"/>
<polygon fill="midnightblue" stroke="midnightblue" points="132.6,-42.6738 142.96,-40.4583 133.479,-35.7293 132.6,-42.6738"/>
</g>
<!-- Node171 -->
<g id="node4" class="node"><title>Node171</title>
<g id="a_node4"><a xlink:href="class_personnage.html#acadb61228a3ebdf18318771f954e2ae0" target="_top" xlink:title="Personnage\\recevoirSoins">
<polygon fill="white" stroke="black" points="139,-0.5 139,-19.5 268,-19.5 268,-0.5 139,-0.5"/>
<text text-anchor="middle" x="203.5" y="-7.5" font-family="Helvetica,sans-Serif" font-size="10.00">Personnage\recevoirSoins</text>
</a>
</g>
</g>
<!-- Node168&#45;&gt;Node171 -->
<g id="edge3" class="edge"><title>Node168&#45;&gt;Node171</title>
<path fill="none" stroke="midnightblue" d="M103.283,-22.5675C111.469,-21.5306 120.086,-20.4391 128.682,-19.3502"/>
<polygon fill="midnightblue" stroke="midnightblue" points="129.256,-22.8056 138.737,-18.0767 128.376,-15.8611 129.256,-22.8056"/>
</g>
<!-- Node170 -->
<g id="node3" class="node"><title>Node170</title>
<g id="a_node3"><a xlink:href="class_personnage.html#a5fbe8f1f41e05e856ec6390bfb3e4f03" target="_top" xlink:title="Personnage\\timeEndormi">
<polygon fill="white" stroke="black" points="304,-38.5 304,-57.5 430,-57.5 430,-38.5 304,-38.5"/>
<text text-anchor="middle" x="367" y="-45.5" font-family="Helvetica,sans-Serif" font-size="10.00">Personnage\timeEndormi</text>
</a>
</g>
</g>
<!-- Node169&#45;&gt;Node170 -->
<g id="edge2" class="edge"><title>Node169&#45;&gt;Node170</title>
<path fill="none" stroke="midnightblue" d="M264.178,-48C273.781,-48 283.812,-48 293.673,-48"/>
<polygon fill="midnightblue" stroke="midnightblue" points="293.863,-51.5001 303.863,-48 293.863,-44.5001 293.863,-51.5001"/>
</g>
</g>
</svg>
