<?xml version="1.0" encoding="UTF-8" standalone="no"?>
<!DOCTYPE svg PUBLIC "-//W3C//DTD SVG 1.1//EN"
 "http://www.w3.org/Graphics/SVG/1.1/DTD/svg11.dtd">
<!-- Generated by graphviz version 2.38.0 (20140413.2041)
 -->
<!-- Title: UserManager\update Pages: 1 -->
<svg width="222pt" height="256pt"
 viewBox="0.00 0.00 222.00 256.00" xmlns="http://www.w3.org/2000/svg" xmlns:xlink="http://www.w3.org/1999/xlink">
<g id="graph0" class="graph" transform="scale(1 1) rotate(0) translate(4 252)">
<title>UserManager\update</title>
<polygon fill="white" stroke="none" points="-4,4 -4,-252 218,-252 218,4 -4,4"/>
<!-- Node27 -->
<g id="node1" class="node"><title>Node27</title>
<polygon fill="#bfbfbf" stroke="black" points="0,-114.5 0,-133.5 107,-133.5 107,-114.5 0,-114.5"/>
<text text-anchor="middle" x="53.5" y="-121.5" font-family="Helvetica,sans-Serif" font-size="10.00">UserManager\update</text>
</g>
<!-- Node28 -->
<g id="node2" class="node"><title>Node28</title>
<g id="a_node2"><a xlink:href="class_user.html#ab341c8493decd7ed8ad872544a3b3332" target="_top" xlink:title="User\\niveau">
<polygon fill="white" stroke="black" points="145,-228.5 145,-247.5 212,-247.5 212,-228.5 145,-228.5"/>
<text text-anchor="middle" x="178.5" y="-235.5" font-family="Helvetica,sans-Serif" font-size="10.00">User\niveau</text>
</a>
</g>
</g>
<!-- Node27&#45;&gt;Node28 -->
<g id="edge1" class="edge"><title>Node27&#45;&gt;Node28</title>
<path fill="none" stroke="midnightblue" d="M61.7073,-133.569C75.8111,-151.841 108.688,-192.255 143,-219 144.797,-220.4 146.71,-221.758 148.679,-223.06"/>
<polygon fill="midnightblue" stroke="midnightblue" points="147.111,-226.202 157.48,-228.377 150.73,-220.211 147.111,-226.202"/>
</g>
<!-- Node29 -->
<g id="node3" class="node"><title>Node29</title>
<g id="a_node3"><a xlink:href="class_user.html#abc7ddb8ce5c319d13e15734bee03075b" target="_top" xlink:title="User\\xp">
<polygon fill="white" stroke="black" points="153.5,-190.5 153.5,-209.5 203.5,-209.5 203.5,-190.5 153.5,-190.5"/>
<text text-anchor="middle" x="178.5" y="-197.5" font-family="Helvetica,sans-Serif" font-size="10.00">User\xp</text>
</a>
</g>
</g>
<!-- Node27&#45;&gt;Node29 -->
<g id="edge2" class="edge"><title>Node27&#45;&gt;Node29</title>
<path fill="none" stroke="midnightblue" d="M68.7185,-133.588C86.0458,-145.172 116.317,-165.085 143,-181 145.478,-182.478 148.075,-183.984 150.687,-185.47"/>
<polygon fill="midnightblue" stroke="midnightblue" points="149.024,-188.55 159.461,-190.37 152.437,-182.439 149.024,-188.55"/>
</g>
<!-- Node30 -->
<g id="node4" class="node"><title>Node30</title>
<g id="a_node4"><a xlink:href="class_user.html#a11525bb64e691e68ccb43856433f5e71" target="_top" xlink:title="User\\mdp">
<polygon fill="white" stroke="black" points="149,-152.5 149,-171.5 208,-171.5 208,-152.5 149,-152.5"/>
<text text-anchor="middle" x="178.5" y="-159.5" font-family="Helvetica,sans-Serif" font-size="10.00">User\mdp</text>
</a>
</g>
</g>
<!-- Node27&#45;&gt;Node30 -->
<g id="edge3" class="edge"><title>Node27&#45;&gt;Node30</title>
<path fill="none" stroke="midnightblue" d="M85.5381,-133.589C101.72,-138.588 121.666,-144.75 138.841,-150.057"/>
<polygon fill="midnightblue" stroke="midnightblue" points="137.997,-153.459 148.584,-153.067 140.063,-146.771 137.997,-153.459"/>
</g>
<!-- Node31 -->
<g id="node5" class="node"><title>Node31</title>
<g id="a_node5"><a xlink:href="class_user.html#acca0b7b0795d518d884a25505add943c" target="_top" xlink:title="User\\id_user">
<polygon fill="white" stroke="black" points="143,-114.5 143,-133.5 214,-133.5 214,-114.5 143,-114.5"/>
<text text-anchor="middle" x="178.5" y="-121.5" font-family="Helvetica,sans-Serif" font-size="10.00">User\id_user</text>
</a>
</g>
</g>
<!-- Node27&#45;&gt;Node31 -->
<g id="edge4" class="edge"><title>Node27&#45;&gt;Node31</title>
<path fill="none" stroke="midnightblue" d="M107.02,-124C115.559,-124 124.335,-124 132.668,-124"/>
<polygon fill="midnightblue" stroke="midnightblue" points="132.937,-127.5 142.937,-124 132.937,-120.5 132.937,-127.5"/>
</g>
<!-- Node32 -->
<g id="node6" class="node"><title>Node32</title>
<g id="a_node6"><a xlink:href="class_user.html#aa7ae3e562d611c4cf112a618db183660" target="_top" xlink:title="User\\endu">
<polygon fill="white" stroke="black" points="148,-76.5 148,-95.5 209,-95.5 209,-76.5 148,-76.5"/>
<text text-anchor="middle" x="178.5" y="-83.5" font-family="Helvetica,sans-Serif" font-size="10.00">User\endu</text>
</a>
</g>
</g>
<!-- Node27&#45;&gt;Node32 -->
<g id="edge5" class="edge"><title>Node27&#45;&gt;Node32</title>
<path fill="none" stroke="midnightblue" d="M85.5381,-114.411C101.482,-109.485 121.08,-103.431 138.082,-98.178"/>
<polygon fill="midnightblue" stroke="midnightblue" points="139.223,-101.489 147.745,-95.1927 137.157,-94.8005 139.223,-101.489"/>
</g>
<!-- Node33 -->
<g id="node7" class="node"><title>Node33</title>
<g id="a_node7"><a xlink:href="class_user.html#a1323f270a1285588987ef21bf704975c" target="_top" xlink:title="User\\or_">
<polygon fill="white" stroke="black" points="152,-38.5 152,-57.5 205,-57.5 205,-38.5 152,-38.5"/>
<text text-anchor="middle" x="178.5" y="-45.5" font-family="Helvetica,sans-Serif" font-size="10.00">User\or_</text>
</a>
</g>
</g>
<!-- Node27&#45;&gt;Node33 -->
<g id="edge6" class="edge"><title>Node27&#45;&gt;Node33</title>
<path fill="none" stroke="midnightblue" d="M68.7185,-114.412C86.0458,-102.828 116.317,-82.9147 143,-67 145.478,-65.5223 148.075,-64.0157 150.687,-62.5298"/>
<polygon fill="midnightblue" stroke="midnightblue" points="152.437,-65.5613 159.461,-57.6297 149.024,-59.4497 152.437,-65.5613"/>
</g>
<!-- Node34 -->
<g id="node8" class="node"><title>Node34</title>
<g id="a_node8"><a xlink:href="class_user.html#a2a6a97a5e1ddb08da30802aec1b0eb0a" target="_top" xlink:title="User\\argent">
<polygon fill="white" stroke="black" points="145,-0.5 145,-19.5 212,-19.5 212,-0.5 145,-0.5"/>
<text text-anchor="middle" x="178.5" y="-7.5" font-family="Helvetica,sans-Serif" font-size="10.00">User\argent</text>
</a>
</g>
</g>
<!-- Node27&#45;&gt;Node34 -->
<g id="edge7" class="edge"><title>Node27&#45;&gt;Node34</title>
<path fill="none" stroke="midnightblue" d="M61.7073,-114.431C75.8111,-96.1592 108.688,-55.7452 143,-29 144.797,-27.5996 146.71,-26.242 148.679,-24.9397"/>
<polygon fill="midnightblue" stroke="midnightblue" points="150.73,-27.7895 157.48,-19.6233 147.111,-21.7977 150.73,-27.7895"/>
</g>
</g>
</svg>
