<?xml version="1.0" encoding="UTF-8" standalone="no"?>
<!DOCTYPE svg PUBLIC "-//W3C//DTD SVG 1.1//EN"
 "http://www.w3.org/Graphics/SVG/1.1/DTD/svg11.dtd">
<!-- Generated by graphviz version 2.38.0 (20140413.2041)
 -->
<!-- Title: StuffManager\add Pages: 1 -->
<svg width="209pt" height="104pt"
 viewBox="0.00 0.00 209.00 104.00" xmlns="http://www.w3.org/2000/svg" xmlns:xlink="http://www.w3.org/1999/xlink">
<g id="graph0" class="graph" transform="scale(1 1) rotate(0) translate(4 100)">
<title>StuffManager\add</title>
<polygon fill="white" stroke="none" points="-4,4 -4,-100 205,-100 205,4 -4,4"/>
<!-- Node3 -->
<g id="node1" class="node"><title>Node3</title>
<polygon fill="#bfbfbf" stroke="black" points="0,-38.5 0,-57.5 92,-57.5 92,-38.5 0,-38.5"/>
<text text-anchor="middle" x="46" y="-45.5" font-family="Helvetica,sans-Serif" font-size="10.00">StuffManager\add</text>
</g>
<!-- Node4 -->
<g id="node2" class="node"><title>Node4</title>
<g id="a_node2"><a xlink:href="class_stuff.html#a3f05761c8833bcb9f25dac07605f54e8" target="_top" xlink:title="Stuff\\id_base">
<polygon fill="white" stroke="black" points="128,-76.5 128,-95.5 201,-95.5 201,-76.5 128,-76.5"/>
<text text-anchor="middle" x="164.5" y="-83.5" font-family="Helvetica,sans-Serif" font-size="10.00">Stuff\id_base</text>
</a>
</g>
</g>
<!-- Node3&#45;&gt;Node4 -->
<g id="edge1" class="edge"><title>Node3&#45;&gt;Node4</title>
<path fill="none" stroke="midnightblue" d="M76.3979,-57.589C90.885,-62.3144 108.558,-68.0789 124.189,-73.1774"/>
<polygon fill="midnightblue" stroke="midnightblue" points="123.519,-76.6405 134.112,-76.4141 125.69,-69.9855 123.519,-76.6405"/>
</g>
<!-- Node5 -->
<g id="node3" class="node"><title>Node5</title>
<g id="a_node3"><a xlink:href="class_stuff.html#af51c6e71896e65dd76820cd733b5f274" target="_top" xlink:title="Stuff\\hydrate">
<polygon fill="white" stroke="black" points="129,-38.5 129,-57.5 200,-57.5 200,-38.5 129,-38.5"/>
<text text-anchor="middle" x="164.5" y="-45.5" font-family="Helvetica,sans-Serif" font-size="10.00">Stuff\hydrate</text>
</a>
</g>
</g>
<!-- Node3&#45;&gt;Node5 -->
<g id="edge2" class="edge"><title>Node3&#45;&gt;Node5</title>
<path fill="none" stroke="midnightblue" d="M92.0419,-48C100.786,-48 109.949,-48 118.686,-48"/>
<polygon fill="midnightblue" stroke="midnightblue" points="118.695,-51.5001 128.695,-48 118.695,-44.5001 118.695,-51.5001"/>
</g>
<!-- Node6 -->
<g id="node4" class="node"><title>Node6</title>
<g id="a_node4"><a xlink:href="class_stuff.html#a4d8664e6878c9661e0d0dcf46b1bd5d6" target="_top" xlink:title="Stuff\\niveau">
<polygon fill="white" stroke="black" points="131.5,-0.5 131.5,-19.5 197.5,-19.5 197.5,-0.5 131.5,-0.5"/>
<text text-anchor="middle" x="164.5" y="-7.5" font-family="Helvetica,sans-Serif" font-size="10.00">Stuff\niveau</text>
</a>
</g>
</g>
<!-- Node3&#45;&gt;Node6 -->
<g id="edge3" class="edge"><title>Node3&#45;&gt;Node6</title>
<path fill="none" stroke="midnightblue" d="M76.3979,-38.411C90.885,-33.6856 108.558,-27.9211 124.189,-22.8226"/>
<polygon fill="midnightblue" stroke="midnightblue" points="125.69,-26.0145 134.112,-19.5859 123.519,-19.3595 125.69,-26.0145"/>
</g>
</g>
</svg>
