<?xml version="1.0" encoding="UTF-8" standalone="no"?>
<!DOCTYPE svg PUBLIC "-//W3C//DTD SVG 1.1//EN"
 "http://www.w3.org/Graphics/SVG/1.1/DTD/svg11.dtd">
<!-- Generated by graphviz version 2.38.0 (20140413.2041)
 -->
<!-- Title: User\hydrate Pages: 1 -->
<svg width="209pt" height="66pt"
 viewBox="0.00 0.00 209.00 66.00" xmlns="http://www.w3.org/2000/svg" xmlns:xlink="http://www.w3.org/1999/xlink">
<g id="graph0" class="graph" transform="scale(1 1) rotate(0) translate(4 62)">
<title>User\hydrate</title>
<polygon fill="white" stroke="none" points="-4,4 -4,-62 205,-62 205,4 -4,4"/>
<!-- Node25 -->
<g id="node1" class="node"><title>Node25</title>
<polygon fill="#bfbfbf" stroke="black" points="0,-19.5 0,-38.5 72,-38.5 72,-19.5 0,-19.5"/>
<text text-anchor="middle" x="36" y="-26.5" font-family="Helvetica,sans-Serif" font-size="10.00">User\hydrate</text>
</g>
<!-- Node26 -->
<g id="node2" class="node"><title>Node26</title>
<g id="a_node2"><a xlink:href="class_user.html#ae07b9dba276956c8b8f89c8c46ff6af5" target="_top" xlink:title="User\\__construct">
<polygon fill="white" stroke="black" points="109,-38.5 109,-57.5 200,-57.5 200,-38.5 109,-38.5"/>
<text text-anchor="middle" x="154.5" y="-45.5" font-family="Helvetica,sans-Serif" font-size="10.00">User\__construct</text>
</a>
</g>
</g>
<!-- Node25&#45;&gt;Node26 -->
<g id="edge1" class="edge"><title>Node25&#45;&gt;Node26</title>
<path fill="none" stroke="midnightblue" d="M82.2777,-36.3843C91.0057,-37.8078 100.143,-39.298 108.851,-40.7182"/>
<polygon fill="midnightblue" stroke="midnightblue" points="82.703,-32.9075 72.27,-34.7522 81.5762,-39.8163 82.703,-32.9075"/>
</g>
<!-- Node27 -->
<g id="node3" class="node"><title>Node27</title>
<g id="a_node3"><a xlink:href="class_user_manager.html#a7fb17bfd67135d7be043d59aeec1dcd4" target="_top" xlink:title="UserManager\\add">
<polygon fill="white" stroke="black" points="108,-0.5 108,-19.5 201,-19.5 201,-0.5 108,-0.5"/>
<text text-anchor="middle" x="154.5" y="-7.5" font-family="Helvetica,sans-Serif" font-size="10.00">UserManager\add</text>
</a>
</g>
</g>
<!-- Node25&#45;&gt;Node27 -->
<g id="edge2" class="edge"><title>Node25&#45;&gt;Node27</title>
<path fill="none" stroke="midnightblue" d="M82.195,-21.6291C90.5245,-20.2707 99.2295,-18.851 107.58,-17.4891"/>
<polygon fill="midnightblue" stroke="midnightblue" points="81.5762,-18.1837 72.27,-23.2478 82.703,-25.0925 81.5762,-18.1837"/>
</g>
</g>
</svg>
