<?xml version="1.0" encoding="UTF-8" standalone="no"?>
<!DOCTYPE svg PUBLIC "-//W3C//DTD SVG 1.1//EN"
 "http://www.w3.org/Graphics/SVG/1.1/DTD/svg11.dtd">
<!-- Generated by graphviz version 2.38.0 (20140413.2041)
 -->
<!-- Title: User\id_user Pages: 1 -->
<svg width="245pt" height="241pt"
 viewBox="0.00 0.00 245.00 241.00" xmlns="http://www.w3.org/2000/svg" xmlns:xlink="http://www.w3.org/1999/xlink">
<g id="graph0" class="graph" transform="scale(1 1) rotate(0) translate(4 237)">
<title>User\id_user</title>
<polygon fill="white" stroke="none" points="-4,4 -4,-237 241,-237 241,4 -4,4"/>
<!-- Node29 -->
<g id="node1" class="node"><title>Node29</title>
<polygon fill="#bfbfbf" stroke="black" points="0,-98.5 0,-117.5 71,-117.5 71,-98.5 0,-98.5"/>
<text text-anchor="middle" x="35.5" y="-105.5" font-family="Helvetica,sans-Serif" font-size="10.00">User\id_user</text>
</g>
<!-- Node30 -->
<g id="node2" class="node"><title>Node30</title>
<g id="a_node2"><a xlink:href="class_personnages_manager.html#a3ce7c5751a3faedb4f639a009ff0243e" target="_top" xlink:title="PersonnagesManager\\add">
<polygon fill="white" stroke="black" points="107,-213.5 107,-232.5 237,-232.5 237,-213.5 107,-213.5"/>
<text text-anchor="middle" x="172" y="-220.5" font-family="Helvetica,sans-Serif" font-size="10.00">PersonnagesManager\add</text>
</a>
</g>
</g>
<!-- Node29&#45;&gt;Node30 -->
<g id="edge1" class="edge"><title>Node29&#45;&gt;Node30</title>
<path fill="none" stroke="midnightblue" d="M45.4481,-126.682C56.7958,-148.413 78.382,-183.871 107,-204 112.499,-207.867 118.791,-210.958 125.235,-213.425"/>
<polygon fill="midnightblue" stroke="midnightblue" points="48.4554,-124.871 40.8397,-117.506 42.2,-128.013 48.4554,-124.871"/>
</g>
<!-- Node31 -->
<g id="node3" class="node"><title>Node31</title>
<g id="a_node3"><a xlink:href="class_personnages_manager.html#add99175d706a1b0909c8c8857561ea41" target="_top" xlink:title="PersonnagesManager\l\\getList">
<polygon fill="white" stroke="black" points="116.5,-164 116.5,-194 227.5,-194 227.5,-164 116.5,-164"/>
<text text-anchor="start" x="124.5" y="-182" font-family="Helvetica,sans-Serif" font-size="10.00">PersonnagesManager</text>
<text text-anchor="middle" x="172" y="-171" font-family="Helvetica,sans-Serif" font-size="10.00">\getList</text>
</a>
</g>
</g>
<!-- Node29&#45;&gt;Node31 -->
<g id="edge2" class="edge"><title>Node29&#45;&gt;Node31</title>
<path fill="none" stroke="midnightblue" d="M57.158,-123.609C70.8157,-133.458 89.3865,-145.978 107,-155 113.231,-158.192 119.99,-161.187 126.702,-163.907"/>
<polygon fill="midnightblue" stroke="midnightblue" points="59.0843,-120.682 48.9518,-117.586 54.9424,-126.325 59.0843,-120.682"/>
</g>
<!-- Node32 -->
<g id="node4" class="node"><title>Node32</title>
<g id="a_node4"><a xlink:href="class_personnages_manager.html#a3453160024d09fb70cb0a16e4de14ffe" target="_top" xlink:title="PersonnagesManager\l\\getList_up">
<polygon fill="white" stroke="black" points="116.5,-115 116.5,-145 227.5,-145 227.5,-115 116.5,-115"/>
<text text-anchor="start" x="124.5" y="-133" font-family="Helvetica,sans-Serif" font-size="10.00">PersonnagesManager</text>
<text text-anchor="middle" x="172" y="-122" font-family="Helvetica,sans-Serif" font-size="10.00">\getList_up</text>
</a>
</g>
</g>
<!-- Node29&#45;&gt;Node32 -->
<g id="edge3" class="edge"><title>Node29&#45;&gt;Node32</title>
<path fill="none" stroke="midnightblue" d="M81.1783,-115.308C92.4515,-117.152 104.682,-119.152 116.383,-121.066"/>
<polygon fill="midnightblue" stroke="midnightblue" points="81.571,-111.826 71.1371,-113.666 80.4409,-118.734 81.571,-111.826"/>
</g>
<!-- Node33 -->
<g id="node5" class="node"><title>Node33</title>
<g id="a_node5"><a xlink:href="class_stuff_manager.html#a24643ff2a965eaf63cf467fb00107266" target="_top" xlink:title="StuffManager\\getList">
<polygon fill="white" stroke="black" points="119,-76.5 119,-95.5 225,-95.5 225,-76.5 119,-76.5"/>
<text text-anchor="middle" x="172" y="-83.5" font-family="Helvetica,sans-Serif" font-size="10.00">StuffManager\getList</text>
</a>
</g>
</g>
<!-- Node29&#45;&gt;Node33 -->
<g id="edge4" class="edge"><title>Node29&#45;&gt;Node33</title>
<path fill="none" stroke="midnightblue" d="M81.034,-100.716C93.1784,-98.7292 106.443,-96.5596 118.964,-94.5114"/>
<polygon fill="midnightblue" stroke="midnightblue" points="80.4409,-97.266 71.1371,-102.334 81.571,-104.174 80.4409,-97.266"/>
</g>
<!-- Node34 -->
<g id="node6" class="node"><title>Node34</title>
<g id="a_node6"><a xlink:href="class_user.html#ab72d9e4455c1813e3be5a8d422b2812d" target="_top" xlink:title="User\\setId_user">
<polygon fill="white" stroke="black" points="129.5,-38.5 129.5,-57.5 214.5,-57.5 214.5,-38.5 129.5,-38.5"/>
<text text-anchor="middle" x="172" y="-45.5" font-family="Helvetica,sans-Serif" font-size="10.00">User\setId_user</text>
</a>
</g>
</g>
<!-- Node29&#45;&gt;Node34 -->
<g id="edge5" class="edge"><title>Node29&#45;&gt;Node34</title>
<path fill="none" stroke="midnightblue" d="M59.1532,-92.9633C72.6336,-84.4955 90.3131,-74.2064 107,-67 115.3,-63.4157 124.483,-60.2517 133.241,-57.5847"/>
<polygon fill="midnightblue" stroke="midnightblue" points="57.0855,-90.1313 50.5552,-98.4744 60.863,-96.0246 57.0855,-90.1313"/>
</g>
<!-- Node35 -->
<g id="node7" class="node"><title>Node35</title>
<g id="a_node7"><a xlink:href="class_user_manager.html#ad953740cf56464fdb81b8bc9654c5371" target="_top" xlink:title="UserManager\\update">
<polygon fill="white" stroke="black" points="118.5,-0.5 118.5,-19.5 225.5,-19.5 225.5,-0.5 118.5,-0.5"/>
<text text-anchor="middle" x="172" y="-7.5" font-family="Helvetica,sans-Serif" font-size="10.00">UserManager\update</text>
</a>
</g>
</g>
<!-- Node29&#45;&gt;Node35 -->
<g id="edge6" class="edge"><title>Node29&#45;&gt;Node35</title>
<path fill="none" stroke="midnightblue" d="M48.1087,-89.9692C60.5828,-71.9959 82.0184,-44.8504 107,-29 113.068,-25.1501 119.95,-22.0506 126.897,-19.5637"/>
<polygon fill="midnightblue" stroke="midnightblue" points="45.1006,-88.1706 42.4311,-98.4236 50.9118,-92.0732 45.1006,-88.1706"/>
</g>
</g>
</svg>
