<?xml version="1.0" encoding="UTF-8" standalone="no"?>
<!DOCTYPE svg PUBLIC "-//W3C//DTD SVG 1.1//EN"
 "http://www.w3.org/Graphics/SVG/1.1/DTD/svg11.dtd">
<!-- Generated by graphviz version 2.38.0 (20140413.2041)
 -->
<!-- Title: StuffManager\update Pages: 1 -->
<svg width="220pt" height="180pt"
 viewBox="0.00 0.00 220.00 180.00" xmlns="http://www.w3.org/2000/svg" xmlns:xlink="http://www.w3.org/1999/xlink">
<g id="graph0" class="graph" transform="scale(1 1) rotate(0) translate(4 176)">
<title>StuffManager\update</title>
<polygon fill="white" stroke="none" points="-4,4 -4,-176 216,-176 216,4 -4,4"/>
<!-- Node31 -->
<g id="node1" class="node"><title>Node31</title>
<polygon fill="#bfbfbf" stroke="black" points="0,-76.5 0,-95.5 106,-95.5 106,-76.5 0,-76.5"/>
<text text-anchor="middle" x="53" y="-83.5" font-family="Helvetica,sans-Serif" font-size="10.00">StuffManager\update</text>
</g>
<!-- Node32 -->
<g id="node2" class="node"><title>Node32</title>
<g id="a_node2"><a xlink:href="class_stuff.html#a4d8664e6878c9661e0d0dcf46b1bd5d6" target="_top" xlink:title="Stuff\\niveau">
<polygon fill="white" stroke="black" points="144,-152.5 144,-171.5 210,-171.5 210,-152.5 144,-152.5"/>
<text text-anchor="middle" x="177" y="-159.5" font-family="Helvetica,sans-Serif" font-size="10.00">Stuff\niveau</text>
</a>
</g>
</g>
<!-- Node31&#45;&gt;Node32 -->
<g id="edge1" class="edge"><title>Node31&#45;&gt;Node32</title>
<path fill="none" stroke="midnightblue" d="M68.1468,-95.57C85.3847,-107.136 115.493,-127.032 142,-143 144.362,-144.423 146.834,-145.875 149.322,-147.31"/>
<polygon fill="midnightblue" stroke="midnightblue" points="147.802,-150.471 158.228,-152.355 151.252,-144.381 147.802,-150.471"/>
</g>
<!-- Node33 -->
<g id="node3" class="node"><title>Node33</title>
<g id="a_node3"><a xlink:href="class_stuff.html#a30e7d02611dc95bd7481781e503f575d" target="_top" xlink:title="Stuff\\qualite">
<polygon fill="white" stroke="black" points="143,-114.5 143,-133.5 211,-133.5 211,-114.5 143,-114.5"/>
<text text-anchor="middle" x="177" y="-121.5" font-family="Helvetica,sans-Serif" font-size="10.00">Stuff\qualite</text>
</a>
</g>
</g>
<!-- Node31&#45;&gt;Node33 -->
<g id="edge2" class="edge"><title>Node31&#45;&gt;Node33</title>
<path fill="none" stroke="midnightblue" d="M84.7858,-95.589C100.101,-100.359 118.817,-106.189 135.3,-111.323"/>
<polygon fill="midnightblue" stroke="midnightblue" points="134.636,-114.782 145.224,-114.414 136.717,-108.099 134.636,-114.782"/>
</g>
<!-- Node34 -->
<g id="node4" class="node"><title>Node34</title>
<g id="a_node4"><a xlink:href="class_stuff.html#a4afe7d4f33396df453f6fdc9c0ba3aa5" target="_top" xlink:title="Stuff\\atr_1">
<polygon fill="white" stroke="black" points="146.5,-76.5 146.5,-95.5 207.5,-95.5 207.5,-76.5 146.5,-76.5"/>
<text text-anchor="middle" x="177" y="-83.5" font-family="Helvetica,sans-Serif" font-size="10.00">Stuff\atr_1</text>
</a>
</g>
</g>
<!-- Node31&#45;&gt;Node34 -->
<g id="edge3" class="edge"><title>Node31&#45;&gt;Node34</title>
<path fill="none" stroke="midnightblue" d="M106.093,-86C116.176,-86 126.591,-86 136.203,-86"/>
<polygon fill="midnightblue" stroke="midnightblue" points="136.265,-89.5001 146.265,-86 136.265,-82.5001 136.265,-89.5001"/>
</g>
<!-- Node35 -->
<g id="node5" class="node"><title>Node35</title>
<g id="a_node5"><a xlink:href="class_stuff.html#a1bb01959da153fe1aacf0b3fe5454756" target="_top" xlink:title="Stuff\\atr_2">
<polygon fill="white" stroke="black" points="146.5,-38.5 146.5,-57.5 207.5,-57.5 207.5,-38.5 146.5,-38.5"/>
<text text-anchor="middle" x="177" y="-45.5" font-family="Helvetica,sans-Serif" font-size="10.00">Stuff\atr_2</text>
</a>
</g>
</g>
<!-- Node31&#45;&gt;Node35 -->
<g id="edge4" class="edge"><title>Node31&#45;&gt;Node35</title>
<path fill="none" stroke="midnightblue" d="M84.7858,-76.411C100.6,-71.4853 120.039,-65.4306 136.902,-60.178"/>
<polygon fill="midnightblue" stroke="midnightblue" points="137.98,-63.5082 146.487,-57.1927 135.898,-56.8249 137.98,-63.5082"/>
</g>
<!-- Node36 -->
<g id="node6" class="node"><title>Node36</title>
<g id="a_node6"><a xlink:href="class_stuff.html#afa98c482eb21f0fa990545bdb0b66dba" target="_top" xlink:title="Stuff\\id_stuff">
<polygon fill="white" stroke="black" points="142,-0.5 142,-19.5 212,-19.5 212,-0.5 142,-0.5"/>
<text text-anchor="middle" x="177" y="-7.5" font-family="Helvetica,sans-Serif" font-size="10.00">Stuff\id_stuff</text>
</a>
</g>
</g>
<!-- Node31&#45;&gt;Node36 -->
<g id="edge5" class="edge"><title>Node31&#45;&gt;Node36</title>
<path fill="none" stroke="midnightblue" d="M68.1468,-76.43C85.3847,-64.8641 115.493,-44.9677 142,-29 144.362,-27.5771 146.834,-26.1253 149.322,-24.69"/>
<polygon fill="midnightblue" stroke="midnightblue" points="151.252,-27.6193 158.228,-19.645 147.802,-21.5287 151.252,-27.6193"/>
</g>
</g>
</svg>
