<?xml version="1.0" encoding="UTF-8" standalone="no"?>
<!DOCTYPE svg PUBLIC "-//W3C//DTD SVG 1.1//EN"
 "http://www.w3.org/Graphics/SVG/1.1/DTD/svg11.dtd">
<!-- Generated by graphviz version 2.38.0 (20140413.2041)
 -->
<!-- Title: Personnage\estEndormi Pages: 1 -->
<svg width="420pt" height="110pt"
 viewBox="0.00 0.00 420.00 109.57" xmlns="http://www.w3.org/2000/svg" xmlns:xlink="http://www.w3.org/1999/xlink">
<g id="graph0" class="graph" transform="scale(1 1) rotate(0) translate(4 105.566)">
<title>Personnage\estEndormi</title>
<polygon fill="white" stroke="none" points="-4,4 -4,-105.566 416,-105.566 416,4 -4,4"/>
<!-- Node25 -->
<g id="node1" class="node"><title>Node25</title>
<polygon fill="#bfbfbf" stroke="black" points="0,-47.5 0,-66.5 121,-66.5 121,-47.5 0,-47.5"/>
<text text-anchor="middle" x="60.5" y="-54.5" font-family="Helvetica,sans-Serif" font-size="10.00">Personnage\estEndormi</text>
</g>
<!-- Node26 -->
<g id="node2" class="node"><title>Node26</title>
<g id="a_node2"><a xlink:href="class_att__soi.html#a7da2d15a0bedd2880e7491f72b430bf0" target="_top" xlink:title="Att_soi\\lancerUnSoin">
<polygon fill="white" stroke="black" points="300,-47.5 300,-66.5 408,-66.5 408,-47.5 300,-47.5"/>
<text text-anchor="middle" x="354" y="-54.5" font-family="Helvetica,sans-Serif" font-size="10.00">Att_soi\lancerUnSoin</text>
</a>
</g>
</g>
<!-- Node25&#45;&gt;Node26 -->
<g id="edge1" class="edge"><title>Node25&#45;&gt;Node26</title>
<path fill="none" stroke="midnightblue" d="M88.6167,-70.997C107.29,-79.8236 132.973,-90.3953 157,-95 201.96,-103.616 215.081,-103.823 260,-95 287.555,-89.5878 317.234,-75.9532 335.468,-66.5792"/>
<polygon fill="midnightblue" stroke="midnightblue" points="90.0602,-67.8071 79.5365,-66.5812 86.9988,-74.1022 90.0602,-67.8071"/>
</g>
<!-- Node27 -->
<g id="node3" class="node"><title>Node27</title>
<g id="a_node3"><a xlink:href="class_personnage.html#a1deaeddff5bc8766d52da4fc2d0b8032" target="_top" xlink:title="Fonction pour frapper. ">
<polygon fill="white" stroke="black" points="158,-66.5 158,-85.5 259,-85.5 259,-66.5 158,-66.5"/>
<text text-anchor="middle" x="208.5" y="-73.5" font-family="Helvetica,sans-Serif" font-size="10.00">Personnage\frapper</text>
</a>
</g>
</g>
<!-- Node25&#45;&gt;Node27 -->
<g id="edge2" class="edge"><title>Node25&#45;&gt;Node27</title>
<path fill="none" stroke="midnightblue" d="M131.337,-66.0884C140.273,-67.2512 149.271,-68.4222 157.796,-69.5316"/>
<polygon fill="midnightblue" stroke="midnightblue" points="131.673,-62.6027 121.305,-64.7828 130.77,-69.5442 131.673,-62.6027"/>
</g>
<!-- Node28 -->
<g id="node4" class="node"><title>Node28</title>
<g id="a_node4"><a xlink:href="class_personnage.html#a1219171b9ddba0fecfa49995d7d71372" target="_top" xlink:title="Personnage\\soigner">
<polygon fill="white" stroke="black" points="157,-28.5 157,-47.5 260,-47.5 260,-28.5 157,-28.5"/>
<text text-anchor="middle" x="208.5" y="-35.5" font-family="Helvetica,sans-Serif" font-size="10.00">Personnage\soigner</text>
</a>
</g>
</g>
<!-- Node25&#45;&gt;Node28 -->
<g id="edge3" class="edge"><title>Node25&#45;&gt;Node28</title>
<path fill="none" stroke="midnightblue" d="M131.356,-47.9091C139.966,-46.7887 148.634,-45.6607 156.88,-44.5876"/>
<polygon fill="midnightblue" stroke="midnightblue" points="130.77,-44.4558 121.305,-49.2172 131.673,-51.3973 130.77,-44.4558"/>
</g>
<!-- Node29 -->
<g id="node5" class="node"><title>Node29</title>
<g id="a_node5"><a xlink:href="class_soigneur.html#ac68dd65c897e55dc77d354e79e79a52c" target="_top" xlink:title="Soigneur\\lancerUnSoin">
<polygon fill="white" stroke="black" points="296,-0.5 296,-19.5 412,-19.5 412,-0.5 296,-0.5"/>
<text text-anchor="middle" x="354" y="-7.5" font-family="Helvetica,sans-Serif" font-size="10.00">Soigneur\lancerUnSoin</text>
</a>
</g>
</g>
<!-- Node25&#45;&gt;Node29 -->
<g id="edge6" class="edge"><title>Node25&#45;&gt;Node29</title>
<path fill="none" stroke="midnightblue" d="M89.3894,-43.0349C108.032,-34.4264 133.382,-24.0907 157,-19 202.953,-9.09536 256.318,-7.25387 295.751,-7.66061"/>
<polygon fill="midnightblue" stroke="midnightblue" points="87.8355,-39.8981 80.2966,-47.3422 90.8323,-46.2242 87.8355,-39.8981"/>
</g>
<!-- Node28&#45;&gt;Node26 -->
<g id="edge4" class="edge"><title>Node28&#45;&gt;Node26</title>
<path fill="none" stroke="midnightblue" d="M270.246,-46.0431C280.119,-47.3503 290.277,-48.6953 299.948,-49.9757"/>
<polygon fill="midnightblue" stroke="midnightblue" points="270.466,-42.5416 260.093,-44.6987 269.547,-49.4811 270.466,-42.5416"/>
</g>
<!-- Node28&#45;&gt;Node29 -->
<g id="edge5" class="edge"><title>Node28&#45;&gt;Node29</title>
<path fill="none" stroke="midnightblue" d="M268.357,-26.5157C280.285,-24.1884 292.704,-21.765 304.238,-19.5146"/>
<polygon fill="midnightblue" stroke="midnightblue" points="267.628,-23.0919 258.483,-28.4423 268.968,-29.9623 267.628,-23.0919"/>
</g>
</g>
</svg>
