<?xml version="1.0" encoding="UTF-8" standalone="no"?>
<!DOCTYPE svg PUBLIC "-//W3C//DTD SVG 1.1//EN"
 "http://www.w3.org/Graphics/SVG/1.1/DTD/svg11.dtd">
<!-- Generated by graphviz version 2.38.0 (20140413.2041)
 -->
<!-- Title: Stuff\id_stuff Pages: 1 -->
<svg width="220pt" height="66pt"
 viewBox="0.00 0.00 220.00 66.00" xmlns="http://www.w3.org/2000/svg" xmlns:xlink="http://www.w3.org/1999/xlink">
<g id="graph0" class="graph" transform="scale(1 1) rotate(0) translate(4 62)">
<title>Stuff\id_stuff</title>
<polygon fill="white" stroke="none" points="-4,4 -4,-62 216,-62 216,4 -4,4"/>
<!-- Node33 -->
<g id="node1" class="node"><title>Node33</title>
<polygon fill="#bfbfbf" stroke="black" points="0,-19.5 0,-38.5 70,-38.5 70,-19.5 0,-19.5"/>
<text text-anchor="middle" x="35" y="-26.5" font-family="Helvetica,sans-Serif" font-size="10.00">Stuff\id_stuff</text>
</g>
<!-- Node34 -->
<g id="node2" class="node"><title>Node34</title>
<g id="a_node2"><a xlink:href="class_stuff.html#ab06c44c241a0322978a44dffabac731d" target="_top" xlink:title="Stuff\\setId_stuff">
<polygon fill="white" stroke="black" points="117.5,-38.5 117.5,-57.5 200.5,-57.5 200.5,-38.5 117.5,-38.5"/>
<text text-anchor="middle" x="159" y="-45.5" font-family="Helvetica,sans-Serif" font-size="10.00">Stuff\setId_stuff</text>
</a>
</g>
</g>
<!-- Node33&#45;&gt;Node34 -->
<g id="edge1" class="edge"><title>Node33&#45;&gt;Node34</title>
<path fill="none" stroke="midnightblue" d="M80.2493,-35.8913C92.4093,-37.7851 105.532,-39.8287 117.471,-41.6881"/>
<polygon fill="midnightblue" stroke="midnightblue" points="80.728,-32.4237 70.3085,-34.3431 79.6507,-39.3403 80.728,-32.4237"/>
</g>
<!-- Node35 -->
<g id="node3" class="node"><title>Node35</title>
<g id="a_node3"><a xlink:href="class_stuff_manager.html#a45dc81b0ddbbd804960d197d7a1cad69" target="_top" xlink:title="StuffManager\\update">
<polygon fill="white" stroke="black" points="106,-0.5 106,-19.5 212,-19.5 212,-0.5 106,-0.5"/>
<text text-anchor="middle" x="159" y="-7.5" font-family="Helvetica,sans-Serif" font-size="10.00">StuffManager\update</text>
</a>
</g>
</g>
<!-- Node33&#45;&gt;Node35 -->
<g id="edge2" class="edge"><title>Node33&#45;&gt;Node35</title>
<path fill="none" stroke="midnightblue" d="M80.4318,-22.0803C88.6462,-20.801 97.2944,-19.4541 105.716,-18.1425"/>
<polygon fill="midnightblue" stroke="midnightblue" points="79.6507,-18.6597 70.3085,-23.6569 80.728,-25.5763 79.6507,-18.6597"/>
</g>
</g>
</svg>
