<?xml version="1.0" encoding="UTF-8" standalone="no"?>
<!DOCTYPE svg PUBLIC "-//W3C//DTD SVG 1.1//EN"
 "http://www.w3.org/Graphics/SVG/1.1/DTD/svg11.dtd">
<!-- Generated by graphviz version 2.38.0 (20140413.2041)
 -->
<!-- Title: Graphe hiérarchique des classes Pages: 1 -->
<svg width="298pt" height="66pt"
 viewBox="0.00 0.00 298.00 66.00" xmlns="http://www.w3.org/2000/svg" xmlns:xlink="http://www.w3.org/1999/xlink">
<g id="graph0" class="graph" transform="scale(1 1) rotate(0) translate(4 62)">
<title>Graphe hiérarchique des classes</title>
<polygon fill="white" stroke="none" points="-4,4 -4,-62 294,-62 294,4 -4,4"/>
<!-- Node0 -->
<g id="node1" class="node"><title>Node0</title>
<g id="a_node1"><a xlink:href="class_base__personnage.html" target="_top" xlink:title="Base_personnage">
<polygon fill="white" stroke="black" points="0,-19.5 0,-38.5 95,-38.5 95,-19.5 0,-19.5"/>
<text text-anchor="middle" x="47.5" y="-26.5" font-family="Helvetica,sans-Serif" font-size="10.00">Base_personnage</text>
</a>
</g>
</g>
<!-- Node1 -->
<g id="node2" class="node"><title>Node1</title>
<g id="a_node2"><a xlink:href="class_personnage.html" target="_top" xlink:title="Personnage">
<polygon fill="white" stroke="black" points="131,-19.5 131,-38.5 199,-38.5 199,-19.5 131,-19.5"/>
<text text-anchor="middle" x="165" y="-26.5" font-family="Helvetica,sans-Serif" font-size="10.00">Personnage</text>
</a>
</g>
</g>
<!-- Node0&#45;&gt;Node1 -->
<g id="edge1" class="edge"><title>Node0&#45;&gt;Node1</title>
<path fill="none" stroke="midnightblue" d="M105.29,-29C113.983,-29 122.706,-29 130.669,-29"/>
<polygon fill="midnightblue" stroke="midnightblue" points="105.145,-25.5001 95.1453,-29 105.145,-32.5001 105.145,-25.5001"/>
</g>
<!-- Node2 -->
<g id="node3" class="node"><title>Node2</title>
<g id="a_node3"><a xlink:href="class_att__soi.html" target="_top" xlink:title="Att_soi">
<polygon fill="white" stroke="black" points="239,-38.5 239,-57.5 286,-57.5 286,-38.5 239,-38.5"/>
<text text-anchor="middle" x="262.5" y="-45.5" font-family="Helvetica,sans-Serif" font-size="10.00">Att_soi</text>
</a>
</g>
</g>
<!-- Node1&#45;&gt;Node2 -->
<g id="edge2" class="edge"><title>Node1&#45;&gt;Node2</title>
<path fill="none" stroke="midnightblue" d="M209.228,-37.6002C219.487,-39.6413 230.026,-41.7382 238.93,-43.5097"/>
<polygon fill="midnightblue" stroke="midnightblue" points="209.624,-34.1106 199.133,-35.592 208.258,-40.976 209.624,-34.1106"/>
</g>
<!-- Node3 -->
<g id="node4" class="node"><title>Node3</title>
<g id="a_node4"><a xlink:href="class_soigneur.html" target="_top" xlink:title="Soigneur">
<polygon fill="white" stroke="black" points="235,-0.5 235,-19.5 290,-19.5 290,-0.5 235,-0.5"/>
<text text-anchor="middle" x="262.5" y="-7.5" font-family="Helvetica,sans-Serif" font-size="10.00">Soigneur</text>
</a>
</g>
</g>
<!-- Node1&#45;&gt;Node3 -->
<g id="edge3" class="edge"><title>Node1&#45;&gt;Node3</title>
<path fill="none" stroke="midnightblue" d="M209.186,-20.4081C217.888,-18.6767 226.795,-16.9047 234.735,-15.3249"/>
<polygon fill="midnightblue" stroke="midnightblue" points="208.258,-17.024 199.133,-22.408 209.624,-23.8894 208.258,-17.024"/>
</g>
</g>
</svg>
