<?xml version="1.0" encoding="UTF-8" standalone="no"?>
<!DOCTYPE svg PUBLIC "-//W3C//DTD SVG 1.1//EN"
 "http://www.w3.org/Graphics/SVG/1.1/DTD/svg11.dtd">
<!-- Generated by graphviz version 2.40.1 (20161225.0304)
 -->
<!-- Title: Personnage\pv Pages: 1 -->
<svg width="261pt" height="64pt"
 viewBox="0.00 0.00 260.56 64.00" xmlns="http://www.w3.org/2000/svg" xmlns:xlink="http://www.w3.org/1999/xlink">
<g id="graph0" class="graph" transform="scale(1 1) rotate(0) translate(4 60)">
<title>Personnage\pv</title>
<polygon fill="#ffffff" stroke="transparent" points="-4,4 -4,-60 256.5605,-60 256.5605,4 -4,4"/>
<!-- Node83 -->
<g id="node1" class="node">
<title>Node83</title>
<polygon fill="#bfbfbf" stroke="#000000" points="0,-18.5 0,-36.5 83.2705,-36.5 83.2705,-18.5 0,-18.5"/>
<text text-anchor="middle" x="41.6353" y="-24.5" font-family="Helvetica,sans-Serif" font-size="10.00" fill="#000000">Personnage\pv</text>
</g>
<!-- Node84 -->
<g id="node2" class="node">
<title>Node84</title>
<g id="a_node2"><a xlink:href="class_personnage.html#acadb61228a3ebdf18318771f954e2ae0" target="_top" xlink:title="Personnage\\recevoirSoins">
<polygon fill="#ffffff" stroke="#000000" points="119.2705,-37.5 119.2705,-55.5 252.5605,-55.5 252.5605,-37.5 119.2705,-37.5"/>
<text text-anchor="middle" x="185.9155" y="-43.5" font-family="Helvetica,sans-Serif" font-size="10.00" fill="#000000">Personnage\recevoirSoins</text>
</a>
</g>
</g>
<!-- Node83&#45;&gt;Node84 -->
<g id="edge1" class="edge">
<title>Node83&#45;&gt;Node84</title>
<path fill="none" stroke="#191970" d="M93.3022,-34.3039C101.6362,-35.4014 110.3677,-36.5512 118.9989,-37.6879"/>
<polygon fill="#191970" stroke="#191970" points="93.7385,-30.8312 83.3671,-32.9956 92.8245,-37.7713 93.7385,-30.8312"/>
</g>
<!-- Node85 -->
<g id="node3" class="node">
<title>Node85</title>
<g id="a_node3"><a xlink:href="class_personnage.html#ab0106674504168da06bff966c9000ffb" target="_top" xlink:title="Personnage\\setPv">
<polygon fill="#ffffff" stroke="#000000" points="137.0562,-.5 137.0562,-18.5 234.7749,-18.5 234.7749,-.5 137.0562,-.5"/>
<text text-anchor="middle" x="185.9155" y="-6.5" font-family="Helvetica,sans-Serif" font-size="10.00" fill="#000000">Personnage\setPv</text>
</a>
</g>
</g>
<!-- Node83&#45;&gt;Node85 -->
<g id="edge2" class="edge">
<title>Node83&#45;&gt;Node85</title>
<path fill="none" stroke="#191970" d="M93.4396,-21.037C107.5965,-19.2709 122.8912,-17.3627 136.8879,-15.6165"/>
<polygon fill="#191970" stroke="#191970" points="92.8568,-17.5825 83.3671,-22.2937 93.7235,-24.5287 92.8568,-17.5825"/>
</g>
</g>
</svg>
