<?xml version="1.0" encoding="UTF-8" standalone="no"?>
<!DOCTYPE svg PUBLIC "-//W3C//DTD SVG 1.1//EN"
 "http://www.w3.org/Graphics/SVG/1.1/DTD/svg11.dtd">
<!-- Generated by graphviz version 2.40.1 (20161225.0304)
 -->
<!-- Title: Personnage\soigner Pages: 1 -->
<svg width="268pt" height="64pt"
 viewBox="0.00 0.00 268.35 64.00" xmlns="http://www.w3.org/2000/svg" xmlns:xlink="http://www.w3.org/1999/xlink">
<g id="graph0" class="graph" transform="scale(1 1) rotate(0) translate(4 60)">
<title>Personnage\soigner</title>
<polygon fill="#ffffff" stroke="transparent" points="-4,4 -4,-60 264.3486,-60 264.3486,4 -4,4"/>
<!-- Node200 -->
<g id="node1" class="node">
<title>Node200</title>
<polygon fill="#bfbfbf" stroke="#000000" points="0,-18.5 0,-36.5 105.5068,-36.5 105.5068,-18.5 0,-18.5"/>
<text text-anchor="middle" x="52.7534" y="-24.5" font-family="Helvetica,sans-Serif" font-size="10.00" fill="#000000">Personnage\soigner</text>
</g>
<!-- Node201 -->
<g id="node2" class="node">
<title>Node201</title>
<g id="a_node2"><a xlink:href="class_att__soi.html#a7da2d15a0bedd2880e7491f72b430bf0" target="_top" xlink:title="Att_soi\\lancerUnSoin">
<polygon fill="#ffffff" stroke="#000000" points="146.2358,-37.5 146.2358,-55.5 255.6196,-55.5 255.6196,-37.5 146.2358,-37.5"/>
<text text-anchor="middle" x="200.9277" y="-43.5" font-family="Helvetica,sans-Serif" font-size="10.00" fill="#000000">Att_soi\lancerUnSoin</text>
</a>
</g>
</g>
<!-- Node200&#45;&gt;Node201 -->
<g id="edge1" class="edge">
<title>Node200&#45;&gt;Node201</title>
<path fill="none" stroke="#191970" d="M115.8205,-35.5869C125.934,-36.8838 136.3277,-38.2165 146.225,-39.4856"/>
<polygon fill="#191970" stroke="#191970" points="116.1932,-32.1061 105.8292,-34.3058 115.3028,-39.0493 116.1932,-32.1061"/>
</g>
<!-- Node202 -->
<g id="node3" class="node">
<title>Node202</title>
<g id="a_node3"><a xlink:href="class_soigneur.html#ac68dd65c897e55dc77d354e79e79a52c" target="_top" xlink:title="Soigneur\\lancerUnSoin">
<polygon fill="#ffffff" stroke="#000000" points="141.5068,-.5 141.5068,-18.5 260.3486,-18.5 260.3486,-.5 141.5068,-.5"/>
<text text-anchor="middle" x="200.9277" y="-6.5" font-family="Helvetica,sans-Serif" font-size="10.00" fill="#000000">Soigneur\lancerUnSoin</text>
</a>
</g>
</g>
<!-- Node200&#45;&gt;Node202 -->
<g id="edge2" class="edge">
<title>Node200&#45;&gt;Node202</title>
<path fill="none" stroke="#191970" d="M115.9946,-19.8176C124.4312,-18.7927 133.0595,-17.7445 141.4292,-16.7278"/>
<polygon fill="#191970" stroke="#191970" points="115.3341,-16.372 105.8292,-21.0524 116.1783,-23.3209 115.3341,-16.372"/>
</g>
</g>
</svg>
