<?xml version="1.0" encoding="UTF-8" standalone="no"?>
<!DOCTYPE svg PUBLIC "-//W3C//DTD SVG 1.1//EN"
 "http://www.w3.org/Graphics/SVG/1.1/DTD/svg11.dtd">
<!-- Generated by graphviz version 2.40.1 (20161225.0304)
 -->
<!-- Title: Att_soi\lancerUnSoin Pages: 1 -->
<svg width="599pt" height="140pt"
 viewBox="0.00 0.00 599.12 140.00" xmlns="http://www.w3.org/2000/svg" xmlns:xlink="http://www.w3.org/1999/xlink">
<g id="graph0" class="graph" transform="scale(1 1) rotate(0) translate(4 136)">
<title>Att_soi\lancerUnSoin</title>
<polygon fill="#ffffff" stroke="transparent" points="-4,4 -4,-136 595.1211,-136 595.1211,4 -4,4"/>
<!-- Node0 -->
<g id="node1" class="node">
<title>Node0</title>
<polygon fill="#bfbfbf" stroke="#000000" points="0,-75.5 0,-93.5 109.3838,-93.5 109.3838,-75.5 0,-75.5"/>
<text text-anchor="middle" x="54.6919" y="-81.5" font-family="Helvetica,sans-Serif" font-size="10.00" fill="#000000">Att_soi\lancerUnSoin</text>
</g>
<!-- Node1 -->
<g id="node2" class="node">
<title>Node1</title>
<g id="a_node2"><a xlink:href="class_personnage.html#a1219171b9ddba0fecfa49995d7d71372" target="_top" xlink:title="Personnage\\soigner">
<polygon fill="#ffffff" stroke="#000000" points="153.438,-113.5 153.438,-131.5 258.9448,-131.5 258.9448,-113.5 153.438,-113.5"/>
<text text-anchor="middle" x="206.1914" y="-119.5" font-family="Helvetica,sans-Serif" font-size="10.00" fill="#000000">Personnage\soigner</text>
</a>
</g>
</g>
<!-- Node0&#45;&gt;Node1 -->
<g id="edge1" class="edge">
<title>Node0&#45;&gt;Node1</title>
<path fill="none" stroke="#191970" d="M90.5952,-93.5055C111.4621,-98.7394 137.9686,-105.3879 160.3341,-110.9978"/>
<polygon fill="#191970" stroke="#191970" points="159.7326,-114.4553 170.2836,-113.4934 161.4356,-107.6656 159.7326,-114.4553"/>
</g>
<!-- Node2 -->
<g id="node3" class="node">
<title>Node2</title>
<g id="a_node3"><a xlink:href="class_personnage.html#aabf0bcd80fcea089de16f33c029aae12" target="_top" xlink:title="Personnage\\estEndormi">
<polygon fill="#ffffff" stroke="#000000" points="302.999,-112.5 302.999,-130.5 426.2842,-130.5 426.2842,-112.5 302.999,-112.5"/>
<text text-anchor="middle" x="364.6416" y="-118.5" font-family="Helvetica,sans-Serif" font-size="10.00" fill="#000000">Personnage\estEndormi</text>
</a>
</g>
</g>
<!-- Node0&#45;&gt;Node2 -->
<g id="edge4" class="edge">
<title>Node0&#45;&gt;Node2</title>
<path fill="none" stroke="#191970" d="M109.8128,-88.5C152.7472,-91.9035 213.7922,-97.3733 266.999,-104.5 280.0457,-106.2475 294.0143,-108.4687 307.1888,-110.7244"/>
<polygon fill="#191970" stroke="#191970" points="306.6275,-114.1793 317.0801,-112.4488 307.8298,-107.2833 306.6275,-114.1793"/>
</g>
<!-- Node4 -->
<g id="node5" class="node">
<title>Node4</title>
<g id="a_node5"><a xlink:href="class_personnage.html#aa64edf7d4c080193213b12643eb05a5d" target="_top" xlink:title="Personnage\\recevoirXP">
<polygon fill="#ffffff" stroke="#000000" points="145.3838,-37.5 145.3838,-55.5 266.999,-55.5 266.999,-37.5 145.3838,-37.5"/>
<text text-anchor="middle" x="206.1914" y="-43.5" font-family="Helvetica,sans-Serif" font-size="10.00" fill="#000000">Personnage\recevoirXP</text>
</a>
</g>
</g>
<!-- Node0&#45;&gt;Node4 -->
<g id="edge5" class="edge">
<title>Node0&#45;&gt;Node4</title>
<path fill="none" stroke="#191970" d="M90.5952,-75.4945C111.4621,-70.2606 137.9686,-63.6121 160.3341,-58.0022"/>
<polygon fill="#191970" stroke="#191970" points="161.4356,-61.3344 170.2836,-55.5066 159.7326,-54.5447 161.4356,-61.3344"/>
</g>
<!-- Node1&#45;&gt;Node2 -->
<g id="edge2" class="edge">
<title>Node1&#45;&gt;Node2</title>
<path fill="none" stroke="#191970" d="M258.953,-122.167C269.7055,-122.0992 281.1927,-122.0267 292.4868,-121.9554"/>
<polygon fill="#191970" stroke="#191970" points="292.8002,-125.4536 302.7779,-121.8904 292.756,-118.4537 292.8002,-125.4536"/>
</g>
<!-- Node3 -->
<g id="node4" class="node">
<title>Node3</title>
<g id="a_node4"><a xlink:href="class_personnage.html#a5fbe8f1f41e05e856ec6390bfb3e4f03" target="_top" xlink:title="Personnage\\timeEndormi">
<polygon fill="#ffffff" stroke="#000000" points="462.2842,-112.5 462.2842,-130.5 591.1211,-130.5 591.1211,-112.5 462.2842,-112.5"/>
<text text-anchor="middle" x="526.7026" y="-118.5" font-family="Helvetica,sans-Serif" font-size="10.00" fill="#000000">Personnage\timeEndormi</text>
</a>
</g>
</g>
<!-- Node2&#45;&gt;Node3 -->
<g id="edge3" class="edge">
<title>Node2&#45;&gt;Node3</title>
<path fill="none" stroke="#191970" d="M426.3722,-121.5C434.7945,-121.5 443.5121,-121.5 452.1317,-121.5"/>
<polygon fill="#191970" stroke="#191970" points="452.1817,-125.0001 462.1816,-121.5 452.1816,-118.0001 452.1817,-125.0001"/>
</g>
<!-- Node5 -->
<g id="node6" class="node">
<title>Node5</title>
<g id="a_node6"><a xlink:href="class_personnage.html#a60b2a6a44bc71517c063d87c062e0b87" target="_top" xlink:title="Personnage\\xp">
<polygon fill="#ffffff" stroke="#000000" points="323.0063,-74.5 323.0063,-92.5 406.2769,-92.5 406.2769,-74.5 323.0063,-74.5"/>
<text text-anchor="middle" x="364.6416" y="-80.5" font-family="Helvetica,sans-Serif" font-size="10.00" fill="#000000">Personnage\xp</text>
</a>
</g>
</g>
<!-- Node4&#45;&gt;Node5 -->
<g id="edge6" class="edge">
<title>Node4&#45;&gt;Node5</title>
<path fill="none" stroke="#191970" d="M244.9527,-55.5512C266.4212,-60.5644 293.3087,-66.8429 316.1582,-72.1785"/>
<polygon fill="#191970" stroke="#191970" points="315.4723,-75.6125 326.0062,-74.4782 317.0641,-68.7958 315.4723,-75.6125"/>
</g>
<!-- Node6 -->
<g id="node7" class="node">
<title>Node6</title>
<g id="a_node7"><a xlink:href="class_personnage.html#aa5bc9f2bda281400fedbc1af1c19357d" target="_top" xlink:title="Personnage\\xp_max">
<polygon fill="#ffffff" stroke="#000000" points="310.7798,-37.5 310.7798,-55.5 418.5034,-55.5 418.5034,-37.5 310.7798,-37.5"/>
<text text-anchor="middle" x="364.6416" y="-43.5" font-family="Helvetica,sans-Serif" font-size="10.00" fill="#000000">Personnage\xp_max</text>
</a>
</g>
</g>
<!-- Node4&#45;&gt;Node6 -->
<g id="edge7" class="edge">
<title>Node4&#45;&gt;Node6</title>
<path fill="none" stroke="#191970" d="M266.9992,-46.5C278.0243,-46.5 289.5531,-46.5 300.6658,-46.5"/>
<polygon fill="#191970" stroke="#191970" points="300.7281,-50.0001 310.7281,-46.5 300.7281,-43.0001 300.7281,-50.0001"/>
</g>
<!-- Node7 -->
<g id="node8" class="node">
<title>Node7</title>
<g id="a_node8"><a xlink:href="class_personnage.html#a061130b0c1c551d893ecffff2553cb93" target="_top" xlink:title="Personnage\\niveau">
<polygon fill="#ffffff" stroke="#000000" points="313.5532,-.5 313.5532,-18.5 415.73,-18.5 415.73,-.5 313.5532,-.5"/>
<text text-anchor="middle" x="364.6416" y="-6.5" font-family="Helvetica,sans-Serif" font-size="10.00" fill="#000000">Personnage\niveau</text>
</a>
</g>
</g>
<!-- Node4&#45;&gt;Node7 -->
<g id="edge8" class="edge">
<title>Node4&#45;&gt;Node7</title>
<path fill="none" stroke="#191970" d="M244.9527,-37.4488C266.4212,-32.4356 293.3087,-26.1571 316.1582,-20.8215"/>
<polygon fill="#191970" stroke="#191970" points="317.0641,-24.2042 326.0062,-18.5218 315.4723,-17.3875 317.0641,-24.2042"/>
</g>
</g>
</svg>
