<?xml version="1.0" encoding="UTF-8" standalone="no"?>
<!DOCTYPE svg PUBLIC "-//W3C//DTD SVG 1.1//EN"
 "http://www.w3.org/Graphics/SVG/1.1/DTD/svg11.dtd">
<!-- Generated by graphviz version 2.40.1 (20161225.0304)
 -->
<!-- Title: Stuff\niveau Pages: 1 -->
<svg width="196pt" height="64pt"
 viewBox="0.00 0.00 196.27 64.00" xmlns="http://www.w3.org/2000/svg" xmlns:xlink="http://www.w3.org/1999/xlink">
<g id="graph0" class="graph" transform="scale(1 1) rotate(0) translate(4 60)">
<title>Stuff\niveau</title>
<polygon fill="#ffffff" stroke="transparent" points="-4,4 -4,-60 192.2734,-60 192.2734,4 -4,4"/>
<!-- Node35 -->
<g id="node1" class="node">
<title>Node35</title>
<polygon fill="#bfbfbf" stroke="#000000" points="0,-18.5 0,-36.5 68.6367,-36.5 68.6367,-18.5 0,-18.5"/>
<text text-anchor="middle" x="34.3184" y="-24.5" font-family="Helvetica,sans-Serif" font-size="10.00" fill="#000000">Stuff\niveau</text>
</g>
<!-- Node36 -->
<g id="node2" class="node">
<title>Node36</title>
<g id="a_node2"><a xlink:href="class_stuff.html#a58df203bb30ef856eab931a8b363ee69" target="_top" xlink:title="Stuff\\lvlUp">
<polygon fill="#ffffff" stroke="#000000" points="115.7573,-37.5 115.7573,-55.5 177.1528,-55.5 177.1528,-37.5 115.7573,-37.5"/>
<text text-anchor="middle" x="146.4551" y="-43.5" font-family="Helvetica,sans-Serif" font-size="10.00" fill="#000000">Stuff\lvlUp</text>
</a>
</g>
</g>
<!-- Node35&#45;&gt;Node36 -->
<g id="edge1" class="edge">
<title>Node35&#45;&gt;Node36</title>
<path fill="none" stroke="#191970" d="M78.9652,-35.0648C91.2529,-37.1468 104.3049,-39.3582 115.6232,-41.276"/>
<polygon fill="#191970" stroke="#191970" points="79.3223,-31.5755 68.8781,-33.3557 78.1528,-38.4771 79.3223,-31.5755"/>
</g>
<!-- Node37 -->
<g id="node3" class="node">
<title>Node37</title>
<g id="a_node3"><a xlink:href="class_stuff.html#ad30226d936b128c511c6af7b542d8966" target="_top" xlink:title="Stuff\\setNiveau">
<polygon fill="#ffffff" stroke="#000000" points="104.6367,-.5 104.6367,-18.5 188.2734,-18.5 188.2734,-.5 104.6367,-.5"/>
<text text-anchor="middle" x="146.4551" y="-6.5" font-family="Helvetica,sans-Serif" font-size="10.00" fill="#000000">Stuff\setNiveau</text>
</a>
</g>
</g>
<!-- Node35&#45;&gt;Node37 -->
<g id="edge2" class="edge">
<title>Node35&#45;&gt;Node37</title>
<path fill="none" stroke="#191970" d="M78.873,-20.3482C87.2568,-19.0024 95.9994,-17.5991 104.3069,-16.2656"/>
<polygon fill="#191970" stroke="#191970" points="78.1969,-16.9118 68.8781,-21.9525 79.3064,-23.8233 78.1969,-16.9118"/>
</g>
</g>
</svg>
