<?xml version="1.0" encoding="UTF-8" standalone="no"?>
<!DOCTYPE svg PUBLIC "-//W3C//DTD SVG 1.1//EN"
 "http://www.w3.org/Graphics/SVG/1.1/DTD/svg11.dtd">
<!-- Generated by graphviz version 2.40.1 (20161225.0304)
 -->
<!-- Title: Personnage\pv_fight Pages: 1 -->
<svg width="432pt" height="101pt"
 viewBox="0.00 0.00 432.09 101.00" xmlns="http://www.w3.org/2000/svg" xmlns:xlink="http://www.w3.org/1999/xlink">
<g id="graph0" class="graph" transform="scale(1 1) rotate(0) translate(4 97)">
<title>Personnage\pv_fight</title>
<polygon fill="#ffffff" stroke="transparent" points="-4,4 -4,-97 428.0869,-97 428.0869,4 -4,4"/>
<!-- Node87 -->
<g id="node1" class="node">
<title>Node87</title>
<polygon fill="#bfbfbf" stroke="#000000" points="0,-37.5 0,-55.5 107.7334,-55.5 107.7334,-37.5 0,-37.5"/>
<text text-anchor="middle" x="53.8667" y="-43.5" font-family="Helvetica,sans-Serif" font-size="10.00" fill="#000000">Personnage\pv_fight</text>
</g>
<!-- Node88 -->
<g id="node2" class="node">
<title>Node88</title>
<g id="a_node2"><a xlink:href="class_personnage.html#a226affce78dca0151e0901896e58f14d" target="_top" xlink:title="Personnage\\recevoirDegats">
<polygon fill="#ffffff" stroke="#000000" points="143.7334,-74.5 143.7334,-92.5 283.6934,-92.5 283.6934,-74.5 143.7334,-74.5"/>
<text text-anchor="middle" x="213.7134" y="-80.5" font-family="Helvetica,sans-Serif" font-size="10.00" fill="#000000">Personnage\recevoirDegats</text>
</a>
</g>
</g>
<!-- Node87&#45;&gt;Node88 -->
<g id="edge1" class="edge">
<title>Node87&#45;&gt;Node88</title>
<path fill="none" stroke="#191970" d="M102.9127,-57.8528C125.9795,-63.1921 153.1011,-69.47 174.7375,-74.4782"/>
<polygon fill="#191970" stroke="#191970" points="103.5013,-54.3965 92.9696,-55.5512 101.9227,-61.2162 103.5013,-54.3965"/>
</g>
<!-- Node90 -->
<g id="node4" class="node">
<title>Node90</title>
<g id="a_node4"><a xlink:href="class_personnage.html#a570935e88aa03fb191a3f06a41f5aec5" target="_top" xlink:title="Personnage\\debut_combat">
<polygon fill="#ffffff" stroke="#000000" points="145.6694,-37.5 145.6694,-55.5 281.7573,-55.5 281.7573,-37.5 145.6694,-37.5"/>
<text text-anchor="middle" x="213.7134" y="-43.5" font-family="Helvetica,sans-Serif" font-size="10.00" fill="#000000">Personnage\debut_combat</text>
</a>
</g>
</g>
<!-- Node87&#45;&gt;Node90 -->
<g id="edge3" class="edge">
<title>Node87&#45;&gt;Node90</title>
<path fill="none" stroke="#191970" d="M118.0356,-46.5C127.0671,-46.5 136.378,-46.5 145.4821,-46.5"/>
<polygon fill="#191970" stroke="#191970" points="117.9835,-43.0001 107.9835,-46.5 117.9835,-50.0001 117.9835,-43.0001"/>
</g>
<!-- Node91 -->
<g id="node5" class="node">
<title>Node91</title>
<g id="a_node5"><a xlink:href="class_personnage.html#a8cba4774ae074b19b40b1f3c0ec24f1a" target="_top" xlink:title="Personnage\\setPv_fight">
<polygon fill="#ffffff" stroke="#000000" points="152.6226,-.5 152.6226,-18.5 274.8042,-18.5 274.8042,-.5 152.6226,-.5"/>
<text text-anchor="middle" x="213.7134" y="-6.5" font-family="Helvetica,sans-Serif" font-size="10.00" fill="#000000">Personnage\setPv_fight</text>
</a>
</g>
</g>
<!-- Node87&#45;&gt;Node91 -->
<g id="edge4" class="edge">
<title>Node87&#45;&gt;Node91</title>
<path fill="none" stroke="#191970" d="M102.9127,-35.1472C125.9795,-29.8079 153.1011,-23.53 174.7375,-18.5218"/>
<polygon fill="#191970" stroke="#191970" points="101.9227,-31.7838 92.9696,-37.4488 103.5013,-38.6035 101.9227,-31.7838"/>
</g>
<!-- Node89 -->
<g id="node3" class="node">
<title>Node89</title>
<g id="a_node3"><a xlink:href="class_personnage.html#a1deaeddff5bc8766d52da4fc2d0b8032" target="_top" xlink:title="Fonction pour frapper. ">
<polygon fill="#ffffff" stroke="#000000" points="319.6934,-74.5 319.6934,-92.5 424.0869,-92.5 424.0869,-74.5 319.6934,-74.5"/>
<text text-anchor="middle" x="371.8901" y="-80.5" font-family="Helvetica,sans-Serif" font-size="10.00" fill="#000000">Personnage\frapper</text>
</a>
</g>
</g>
<!-- Node88&#45;&gt;Node89 -->
<g id="edge2" class="edge">
<title>Node88&#45;&gt;Node89</title>
<path fill="none" stroke="#191970" d="M294.0774,-83.5C302.6635,-83.5 311.2296,-83.5 319.3706,-83.5"/>
<polygon fill="#191970" stroke="#191970" points="294.0132,-80.0001 284.0132,-83.5 294.0131,-87.0001 294.0132,-80.0001"/>
</g>
</g>
</svg>
