<?xml version="1.0" encoding="UTF-8" standalone="no"?>
<!DOCTYPE svg PUBLIC "-//W3C//DTD SVG 1.1//EN"
 "http://www.w3.org/Graphics/SVG/1.1/DTD/svg11.dtd">
<!-- Generated by graphviz version 2.40.1 (20161225.0304)
 -->
<!-- Title: Personnage\estEndormi Pages: 1 -->
<svg width="428pt" height="99pt"
 viewBox="0.00 0.00 427.63 99.08" xmlns="http://www.w3.org/2000/svg" xmlns:xlink="http://www.w3.org/1999/xlink">
<g id="graph0" class="graph" transform="scale(1 1) rotate(0) translate(4 95.0793)">
<title>Personnage\estEndormi</title>
<polygon fill="#ffffff" stroke="transparent" points="-4,4 -4,-95.0793 423.6338,-95.0793 423.6338,4 -4,4"/>
<!-- Node25 -->
<g id="node1" class="node">
<title>Node25</title>
<polygon fill="#bfbfbf" stroke="#000000" points="0,-37.5 0,-55.5 123.2852,-55.5 123.2852,-37.5 0,-37.5"/>
<text text-anchor="middle" x="61.6426" y="-43.5" font-family="Helvetica,sans-Serif" font-size="10.00" fill="#000000">Personnage\estEndormi</text>
</g>
<!-- Node26 -->
<g id="node2" class="node">
<title>Node26</title>
<g id="a_node2"><a xlink:href="class_att__soi.html#a7da2d15a0bedd2880e7491f72b430bf0" target="_top" xlink:title="Att_soi\\lancerUnSoin">
<polygon fill="#ffffff" stroke="#000000" points="305.521,-37.5 305.521,-55.5 414.9048,-55.5 414.9048,-37.5 305.521,-37.5"/>
<text text-anchor="middle" x="360.2129" y="-43.5" font-family="Helvetica,sans-Serif" font-size="10.00" fill="#000000">Att_soi\lancerUnSoin</text>
</a>
</g>
</g>
<!-- Node25&#45;&gt;Node26 -->
<g id="edge1" class="edge">
<title>Node25&#45;&gt;Node26</title>
<path fill="none" stroke="#191970" d="M88.0793,-59.8849C107.2863,-68.8307 134.2028,-79.7913 159.2852,-84.5 205.372,-93.1519 218.7394,-93.3326 264.792,-84.5 293.5121,-78.9917 324.5953,-64.9457 343.2272,-55.5615"/>
<polygon fill="#191970" stroke="#191970" points="89.5815,-56.7237 79.0504,-55.5631 86.5592,-63.0376 89.5815,-56.7237"/>
</g>
<!-- Node27 -->
<g id="node3" class="node">
<title>Node27</title>
<g id="a_node3"><a xlink:href="class_personnage.html#a1deaeddff5bc8766d52da4fc2d0b8032" target="_top" xlink:title="Fonction pour frapper. ">
<polygon fill="#ffffff" stroke="#000000" points="159.8418,-56.5 159.8418,-74.5 264.2354,-74.5 264.2354,-56.5 159.8418,-56.5"/>
<text text-anchor="middle" x="212.0386" y="-62.5" font-family="Helvetica,sans-Serif" font-size="10.00" fill="#000000">Personnage\frapper</text>
</a>
</g>
</g>
<!-- Node25&#45;&gt;Node27 -->
<g id="edge2" class="edge">
<title>Node25&#45;&gt;Node27</title>
<path fill="none" stroke="#191970" d="M133.8678,-55.6244C142.5888,-56.7262 151.3633,-57.8347 159.721,-58.8906"/>
<polygon fill="#191970" stroke="#191970" points="134.0425,-52.1188 123.6827,-54.3377 133.1651,-59.0636 134.0425,-52.1188"/>
</g>
<!-- Node28 -->
<g id="node4" class="node">
<title>Node28</title>
<g id="a_node4"><a xlink:href="class_personnage.html#a1219171b9ddba0fecfa49995d7d71372" target="_top" xlink:title="Personnage\\soigner">
<polygon fill="#ffffff" stroke="#000000" points="159.2852,-19.5 159.2852,-37.5 264.792,-37.5 264.792,-19.5 159.2852,-19.5"/>
<text text-anchor="middle" x="212.0386" y="-25.5" font-family="Helvetica,sans-Serif" font-size="10.00" fill="#000000">Personnage\soigner</text>
</a>
</g>
</g>
<!-- Node25&#45;&gt;Node28 -->
<g id="edge3" class="edge">
<title>Node25&#45;&gt;Node28</title>
<path fill="none" stroke="#191970" d="M133.7294,-37.8724C142.3321,-36.8428 150.9891,-35.8066 159.2492,-34.818"/>
<polygon fill="#191970" stroke="#191970" points="133.1959,-34.4111 123.6827,-39.0748 134.0278,-41.3615 133.1959,-34.4111"/>
</g>
<!-- Node29 -->
<g id="node5" class="node">
<title>Node29</title>
<g id="a_node5"><a xlink:href="class_soigneur.html#ac68dd65c897e55dc77d354e79e79a52c" target="_top" xlink:title="Soigneur\\lancerUnSoin">
<polygon fill="#ffffff" stroke="#000000" points="300.792,-.5 300.792,-18.5 419.6338,-18.5 419.6338,-.5 300.792,-.5"/>
<text text-anchor="middle" x="360.2129" y="-6.5" font-family="Helvetica,sans-Serif" font-size="10.00" fill="#000000">Soigneur\lancerUnSoin</text>
</a>
</g>
</g>
<!-- Node25&#45;&gt;Node29 -->
<g id="edge6" class="edge">
<title>Node25&#45;&gt;Node29</title>
<path fill="none" stroke="#191970" d="M89.0891,-33.0268C108.2442,-24.3987 134.6859,-14.0045 159.2852,-9.5 206.1221,-.9235 260.1367,-1.4931 300.3587,-3.8936"/>
<polygon fill="#191970" stroke="#191970" points="87.3872,-29.9579 79.7848,-37.3373 90.3297,-36.3094 87.3872,-29.9579"/>
</g>
<!-- Node28&#45;&gt;Node26 -->
<g id="edge4" class="edge">
<title>Node28&#45;&gt;Node26</title>
<path fill="none" stroke="#191970" d="M275.1057,-36.1613C285.2192,-37.3899 295.6129,-38.6525 305.5102,-39.8548"/>
<polygon fill="#191970" stroke="#191970" points="275.4635,-32.6791 265.1144,-34.9476 274.6193,-39.628 275.4635,-32.6791"/>
</g>
<!-- Node28&#45;&gt;Node29 -->
<g id="edge5" class="edge">
<title>Node28&#45;&gt;Node29</title>
<path fill="none" stroke="#191970" d="M275.2797,-20.3908C283.7163,-19.309 292.3447,-18.2026 300.7144,-17.1293"/>
<polygon fill="#191970" stroke="#191970" points="274.588,-16.9507 265.1144,-21.6942 275.4784,-23.8939 274.588,-16.9507"/>
</g>
</g>
</svg>
