<?xml version="1.0" encoding="UTF-8" standalone="no"?>
<!DOCTYPE svg PUBLIC "-//W3C//DTD SVG 1.1//EN"
 "http://www.w3.org/Graphics/SVG/1.1/DTD/svg11.dtd">
<!-- Generated by graphviz version 2.40.1 (20161225.0304)
 -->
<!-- Title: User\pseudo Pages: 1 -->
<svg width="204pt" height="64pt"
 viewBox="0.00 0.00 203.85 64.00" xmlns="http://www.w3.org/2000/svg" xmlns:xlink="http://www.w3.org/1999/xlink">
<g id="graph0" class="graph" transform="scale(1 1) rotate(0) translate(4 60)">
<title>User\pseudo</title>
<polygon fill="#ffffff" stroke="transparent" points="-4,4 -4,-60 199.8467,-60 199.8467,4 -4,4"/>
<!-- Node41 -->
<g id="node1" class="node">
<title>Node41</title>
<polygon fill="#bfbfbf" stroke="#000000" points="0,-18.5 0,-36.5 72.6992,-36.5 72.6992,-18.5 0,-18.5"/>
<text text-anchor="middle" x="36.3496" y="-24.5" font-family="Helvetica,sans-Serif" font-size="10.00" fill="#000000">User\pseudo</text>
</g>
<!-- Node42 -->
<g id="node2" class="node">
<title>Node42</title>
<g id="a_node2"><a xlink:href="class_user.html#a786a3c86445a30cddb0e1d4b73f133ec" target="_top" xlink:title="User\\nomValide">
<polygon fill="#ffffff" stroke="#000000" points="109.0703,-37.5 109.0703,-55.5 195.4756,-55.5 195.4756,-37.5 109.0703,-37.5"/>
<text text-anchor="middle" x="152.2729" y="-43.5" font-family="Helvetica,sans-Serif" font-size="10.00" fill="#000000">User\nomValide</text>
</a>
</g>
</g>
<!-- Node41&#45;&gt;Node42 -->
<g id="edge1" class="edge">
<title>Node41&#45;&gt;Node42</title>
<path fill="none" stroke="#191970" d="M82.6083,-35.0819C91.2216,-36.4936 100.1948,-37.9643 108.7234,-39.3622"/>
<polygon fill="#191970" stroke="#191970" points="83.1449,-31.6232 72.7104,-33.4596 82.0126,-38.531 83.1449,-31.6232"/>
</g>
<!-- Node43 -->
<g id="node3" class="node">
<title>Node43</title>
<g id="a_node3"><a xlink:href="class_user.html#afa0f13589eb9cdaca9a8192d245fd75f" target="_top" xlink:title="User\\setPseudo">
<polygon fill="#ffffff" stroke="#000000" points="108.6992,-.5 108.6992,-18.5 195.8467,-18.5 195.8467,-.5 108.6992,-.5"/>
<text text-anchor="middle" x="152.2729" y="-6.5" font-family="Helvetica,sans-Serif" font-size="10.00" fill="#000000">User\setPseudo</text>
</a>
</g>
</g>
<!-- Node41&#45;&gt;Node43 -->
<g id="edge2" class="edge">
<title>Node41&#45;&gt;Node43</title>
<path fill="none" stroke="#191970" d="M82.7684,-20.2923C91.1934,-18.9841 99.9574,-17.6233 108.3091,-16.3265"/>
<polygon fill="#191970" stroke="#191970" points="82.0549,-16.8611 72.7104,-21.8541 83.1291,-23.7782 82.0549,-16.8611"/>
</g>
</g>
</svg>
