<?xml version="1.0" encoding="UTF-8" standalone="no"?>
<!DOCTYPE svg PUBLIC "-//W3C//DTD SVG 1.1//EN"
 "http://www.w3.org/Graphics/SVG/1.1/DTD/svg11.dtd">
<!-- Generated by graphviz version 2.40.1 (20161225.0304)
 -->
<!-- Title: Personnage\debut_combat Pages: 1 -->
<svg width="309pt" height="64pt"
 viewBox="0.00 0.00 308.92 64.00" xmlns="http://www.w3.org/2000/svg" xmlns:xlink="http://www.w3.org/1999/xlink">
<g id="graph0" class="graph" transform="scale(1 1) rotate(0) translate(4 60)">
<title>Personnage\debut_combat</title>
<polygon fill="#ffffff" stroke="transparent" points="-4,4 -4,-60 304.9248,-60 304.9248,4 -4,4"/>
<!-- Node16 -->
<g id="node1" class="node">
<title>Node16</title>
<polygon fill="#bfbfbf" stroke="#000000" points="0,-18.5 0,-36.5 136.0879,-36.5 136.0879,-18.5 0,-18.5"/>
<text text-anchor="middle" x="68.0439" y="-24.5" font-family="Helvetica,sans-Serif" font-size="10.00" fill="#000000">Personnage\debut_combat</text>
</g>
<!-- Node17 -->
<g id="node2" class="node">
<title>Node17</title>
<g id="a_node2"><a xlink:href="class_personnage.html#addeceec710baf3ae687f36151bc5def4" target="_top" xlink:title="Personnage\\etat">
<polygon fill="#ffffff" stroke="#000000" points="191.812,-37.5 191.812,-55.5 281.2007,-55.5 281.2007,-37.5 191.812,-37.5"/>
<text text-anchor="middle" x="236.5063" y="-43.5" font-family="Helvetica,sans-Serif" font-size="10.00" fill="#000000">Personnage\etat</text>
</a>
</g>
</g>
<!-- Node16&#45;&gt;Node17 -->
<g id="edge1" class="edge">
<title>Node16&#45;&gt;Node17</title>
<path fill="none" stroke="#191970" d="M136.5641,-35.228C151.5176,-36.9146 167.156,-38.6783 181.503,-40.2965"/>
<polygon fill="#191970" stroke="#191970" points="181.3641,-43.8029 191.6933,-41.4458 182.1486,-36.847 181.3641,-43.8029"/>
</g>
<!-- Node18 -->
<g id="node3" class="node">
<title>Node18</title>
<g id="a_node3"><a xlink:href="class_personnage.html#a5fbe8f1f41e05e856ec6390bfb3e4f03" target="_top" xlink:title="Personnage\\timeEndormi">
<polygon fill="#ffffff" stroke="#000000" points="172.0879,-.5 172.0879,-18.5 300.9248,-18.5 300.9248,-.5 172.0879,-.5"/>
<text text-anchor="middle" x="236.5063" y="-6.5" font-family="Helvetica,sans-Serif" font-size="10.00" fill="#000000">Personnage\timeEndormi</text>
</a>
</g>
</g>
<!-- Node16&#45;&gt;Node18 -->
<g id="edge2" class="edge">
<title>Node16&#45;&gt;Node18</title>
<path fill="none" stroke="#191970" d="M136.5641,-20.1787C144.8535,-19.293 153.3535,-18.3848 161.7273,-17.4901"/>
<polygon fill="#191970" stroke="#191970" points="162.2847,-20.9505 171.8562,-16.4078 161.5409,-13.9901 162.2847,-20.9505"/>
</g>
</g>
</svg>
