<?xml version="1.0" encoding="UTF-8" standalone="no"?>
<!DOCTYPE svg PUBLIC "-//W3C//DTD SVG 1.1//EN"
 "http://www.w3.org/Graphics/SVG/1.1/DTD/svg11.dtd">
<!-- Generated by graphviz version 2.40.1 (20161225.0304)
 -->
<!-- Title: Personnage\soigner Pages: 1 -->
<svg width="438pt" height="27pt"
 viewBox="0.00 0.00 437.63 27.00" xmlns="http://www.w3.org/2000/svg" xmlns:xlink="http://www.w3.org/1999/xlink">
<g id="graph0" class="graph" transform="scale(1 1) rotate(0) translate(4 23)">
<title>Personnage\soigner</title>
<polygon fill="#ffffff" stroke="transparent" points="-4,4 -4,-23 433.6289,-23 433.6289,4 -4,4"/>
<!-- Node202 -->
<g id="node1" class="node">
<title>Node202</title>
<polygon fill="#bfbfbf" stroke="#000000" points="0,-.5 0,-18.5 105.5068,-18.5 105.5068,-.5 0,-.5"/>
<text text-anchor="middle" x="52.7534" y="-6.5" font-family="Helvetica,sans-Serif" font-size="10.00" fill="#000000">Personnage\soigner</text>
</g>
<!-- Node203 -->
<g id="node2" class="node">
<title>Node203</title>
<g id="a_node2"><a xlink:href="class_personnage.html#aabf0bcd80fcea089de16f33c029aae12" target="_top" xlink:title="Personnage\\estEndormi">
<polygon fill="#ffffff" stroke="#000000" points="141.5068,-.5 141.5068,-18.5 264.792,-18.5 264.792,-.5 141.5068,-.5"/>
<text text-anchor="middle" x="203.1494" y="-6.5" font-family="Helvetica,sans-Serif" font-size="10.00" fill="#000000">Personnage\estEndormi</text>
</a>
</g>
</g>
<!-- Node202&#45;&gt;Node203 -->
<g id="edge1" class="edge">
<title>Node202&#45;&gt;Node203</title>
<path fill="none" stroke="#191970" d="M105.7774,-9.5C114.0442,-9.5 122.7035,-9.5 131.3043,-9.5"/>
<polygon fill="#191970" stroke="#191970" points="131.3469,-13.0001 141.3469,-9.5 131.3469,-6.0001 131.3469,-13.0001"/>
</g>
<!-- Node204 -->
<g id="node3" class="node">
<title>Node204</title>
<g id="a_node3"><a xlink:href="class_personnage.html#a5fbe8f1f41e05e856ec6390bfb3e4f03" target="_top" xlink:title="Personnage\\timeEndormi">
<polygon fill="#ffffff" stroke="#000000" points="300.792,-.5 300.792,-18.5 429.6289,-18.5 429.6289,-.5 300.792,-.5"/>
<text text-anchor="middle" x="365.2104" y="-6.5" font-family="Helvetica,sans-Serif" font-size="10.00" fill="#000000">Personnage\timeEndormi</text>
</a>
</g>
</g>
<!-- Node203&#45;&gt;Node204 -->
<g id="edge2" class="edge">
<title>Node203&#45;&gt;Node204</title>
<path fill="none" stroke="#191970" d="M264.8801,-9.5C273.3023,-9.5 282.02,-9.5 290.6395,-9.5"/>
<polygon fill="#191970" stroke="#191970" points="290.6895,-13.0001 300.6894,-9.5 290.6894,-6.0001 290.6895,-13.0001"/>
</g>
</g>
</svg>
