<?xml version="1.0" encoding="UTF-8" standalone="no"?>
<!DOCTYPE svg PUBLIC "-//W3C//DTD SVG 1.1//EN"
 "http://www.w3.org/Graphics/SVG/1.1/DTD/svg11.dtd">
<!-- Generated by graphviz version 2.40.1 (20161225.0304)
 -->
<!-- Title: Personnage\xp Pages: 1 -->
<svg width="404pt" height="101pt"
 viewBox="0.00 0.00 403.73 101.00" xmlns="http://www.w3.org/2000/svg" xmlns:xlink="http://www.w3.org/1999/xlink">
<g id="graph0" class="graph" transform="scale(1 1) rotate(0) translate(4 97)">
<title>Personnage\xp</title>
<polygon fill="#ffffff" stroke="transparent" points="-4,4 -4,-97 399.7275,-97 399.7275,4 -4,4"/>
<!-- Node252 -->
<g id="node1" class="node">
<title>Node252</title>
<polygon fill="#bfbfbf" stroke="#000000" points="0,-18.5 0,-36.5 83.2705,-36.5 83.2705,-18.5 0,-18.5"/>
<text text-anchor="middle" x="41.6353" y="-24.5" font-family="Helvetica,sans-Serif" font-size="10.00" fill="#000000">Personnage\xp</text>
</g>
<!-- Node253 -->
<g id="node2" class="node">
<title>Node253</title>
<g id="a_node2"><a xlink:href="class_personnage.html#aa64edf7d4c080193213b12643eb05a5d" target="_top" xlink:title="Personnage\\recevoirXP">
<polygon fill="#ffffff" stroke="#000000" points="119.2705,-37.5 119.2705,-55.5 240.8857,-55.5 240.8857,-37.5 119.2705,-37.5"/>
<text text-anchor="middle" x="180.0781" y="-43.5" font-family="Helvetica,sans-Serif" font-size="10.00" fill="#000000">Personnage\recevoirXP</text>
</a>
</g>
</g>
<!-- Node252&#45;&gt;Node253 -->
<g id="edge1" class="edge">
<title>Node252&#45;&gt;Node253</title>
<path fill="none" stroke="#191970" d="M93.5296,-34.622C101.8881,-35.7691 110.6069,-36.9657 119.1544,-38.1388"/>
<polygon fill="#191970" stroke="#191970" points="93.9314,-31.1444 83.5484,-33.2522 92.9796,-38.0794 93.9314,-31.1444"/>
</g>
<!-- Node257 -->
<g id="node6" class="node">
<title>Node257</title>
<g id="a_node6"><a xlink:href="class_personnage.html#a3f0be4dea35c2bf12f7c5cb9bf7c2f9c" target="_top" xlink:title="Personnage\\setXp">
<polygon fill="#ffffff" stroke="#000000" points="130.938,-.5 130.938,-18.5 229.2183,-18.5 229.2183,-.5 130.938,-.5"/>
<text text-anchor="middle" x="180.0781" y="-6.5" font-family="Helvetica,sans-Serif" font-size="10.00" fill="#000000">Personnage\setXp</text>
</a>
</g>
</g>
<!-- Node252&#45;&gt;Node257 -->
<g id="edge5" class="edge">
<title>Node252&#45;&gt;Node257</title>
<path fill="none" stroke="#191970" d="M93.512,-20.7551C105.6279,-19.1798 118.5016,-17.506 130.5141,-15.9442"/>
<polygon fill="#191970" stroke="#191970" points="93.0136,-17.2904 83.5484,-22.0506 93.9162,-24.2319 93.0136,-17.2904"/>
</g>
<!-- Node254 -->
<g id="node3" class="node">
<title>Node254</title>
<g id="a_node3"><a xlink:href="class_att__soi.html#a7da2d15a0bedd2880e7491f72b430bf0" target="_top" xlink:title="Att_soi\\lancerUnSoin">
<polygon fill="#ffffff" stroke="#000000" points="281.6147,-74.5 281.6147,-92.5 390.9985,-92.5 390.9985,-74.5 281.6147,-74.5"/>
<text text-anchor="middle" x="336.3066" y="-80.5" font-family="Helvetica,sans-Serif" font-size="10.00" fill="#000000">Att_soi\lancerUnSoin</text>
</a>
</g>
</g>
<!-- Node253&#45;&gt;Node254 -->
<g id="edge2" class="edge">
<title>Node253&#45;&gt;Node254</title>
<path fill="none" stroke="#191970" d="M228.3175,-57.9247C250.7963,-63.2484 277.1612,-69.4924 298.213,-74.4782"/>
<polygon fill="#191970" stroke="#191970" points="228.8334,-54.4501 218.2959,-55.5512 227.2201,-61.2617 228.8334,-54.4501"/>
</g>
<!-- Node255 -->
<g id="node4" class="node">
<title>Node255</title>
<g id="a_node4"><a xlink:href="class_personnage.html#a1deaeddff5bc8766d52da4fc2d0b8032" target="_top" xlink:title="Fonction pour frapper. ">
<polygon fill="#ffffff" stroke="#000000" points="284.1099,-37.5 284.1099,-55.5 388.5034,-55.5 388.5034,-37.5 284.1099,-37.5"/>
<text text-anchor="middle" x="336.3066" y="-43.5" font-family="Helvetica,sans-Serif" font-size="10.00" fill="#000000">Personnage\frapper</text>
</a>
</g>
</g>
<!-- Node253&#45;&gt;Node255 -->
<g id="edge3" class="edge">
<title>Node253&#45;&gt;Node255</title>
<path fill="none" stroke="#191970" d="M251.034,-46.5C262.1267,-46.5 273.4134,-46.5 283.9895,-46.5"/>
<polygon fill="#191970" stroke="#191970" points="250.9275,-43.0001 240.9275,-46.5 250.9275,-50.0001 250.9275,-43.0001"/>
</g>
<!-- Node256 -->
<g id="node5" class="node">
<title>Node256</title>
<g id="a_node5"><a xlink:href="class_soigneur.html#ac68dd65c897e55dc77d354e79e79a52c" target="_top" xlink:title="Soigneur\\lancerUnSoin">
<polygon fill="#ffffff" stroke="#000000" points="276.8857,-.5 276.8857,-18.5 395.7275,-18.5 395.7275,-.5 276.8857,-.5"/>
<text text-anchor="middle" x="336.3066" y="-6.5" font-family="Helvetica,sans-Serif" font-size="10.00" fill="#000000">Soigneur\lancerUnSoin</text>
</a>
</g>
</g>
<!-- Node253&#45;&gt;Node256 -->
<g id="edge4" class="edge">
<title>Node253&#45;&gt;Node256</title>
<path fill="none" stroke="#191970" d="M228.3175,-35.0753C250.7963,-29.7516 277.1612,-23.5076 298.213,-18.5218"/>
<polygon fill="#191970" stroke="#191970" points="227.2201,-31.7383 218.2959,-37.4488 228.8334,-38.5499 227.2201,-31.7383"/>
</g>
</g>
</svg>
