<?xml version="1.0" encoding="UTF-8" standalone="no"?>
<!DOCTYPE svg PUBLIC "-//W3C//DTD SVG 1.1//EN"
 "http://www.w3.org/Graphics/SVG/1.1/DTD/svg11.dtd">
<!-- Generated by graphviz version 2.40.1 (20161225.0304)
 -->
<!-- Title: Base_personnage\id_persos Pages: 1 -->
<svg width="273pt" height="37pt"
 viewBox="0.00 0.00 273.37 37.00" xmlns="http://www.w3.org/2000/svg" xmlns:xlink="http://www.w3.org/1999/xlink">
<g id="graph0" class="graph" transform="scale(1 1) rotate(0) translate(4 33)">
<title>Base_personnage\id_persos</title>
<polygon fill="#ffffff" stroke="transparent" points="-4,4 -4,-33 269.373,-33 269.373,4 -4,4"/>
<!-- Node12 -->
<g id="node1" class="node">
<title>Node12</title>
<polygon fill="#bfbfbf" stroke="#000000" points="0,-.5 0,-28.5 107.7383,-28.5 107.7383,-.5 0,-.5"/>
<text text-anchor="start" x="8" y="-16.5" font-family="Helvetica,sans-Serif" font-size="10.00" fill="#000000">Base_personnage\id</text>
<text text-anchor="middle" x="53.8691" y="-6.5" font-family="Helvetica,sans-Serif" font-size="10.00" fill="#000000">_persos</text>
</g>
<!-- Node13 -->
<g id="node2" class="node">
<title>Node13</title>
<g id="a_node2"><a xlink:href="class_base__personnage.html#a14498c5c6a7ced9420401351eacf2ecf" target="_top" xlink:title="Base_personnage\\setId\l_persos">
<polygon fill="#ffffff" stroke="#000000" points="143.7383,-.5 143.7383,-28.5 265.373,-28.5 265.373,-.5 143.7383,-.5"/>
<text text-anchor="start" x="151.7383" y="-16.5" font-family="Helvetica,sans-Serif" font-size="10.00" fill="#000000">Base_personnage\setId</text>
<text text-anchor="middle" x="204.5557" y="-6.5" font-family="Helvetica,sans-Serif" font-size="10.00" fill="#000000">_persos</text>
</a>
</g>
</g>
<!-- Node12&#45;&gt;Node13 -->
<g id="edge1" class="edge">
<title>Node12&#45;&gt;Node13</title>
<path fill="none" stroke="#191970" d="M118.032,-14.5C126.4859,-14.5 135.1318,-14.5 143.5313,-14.5"/>
<polygon fill="#191970" stroke="#191970" points="117.8448,-11.0001 107.8448,-14.5 117.8448,-18.0001 117.8448,-11.0001"/>
</g>
</g>
</svg>
