<?xml version="1.0" encoding="UTF-8" standalone="no"?>
<!DOCTYPE svg PUBLIC "-//W3C//DTD SVG 1.1//EN"
 "http://www.w3.org/Graphics/SVG/1.1/DTD/svg11.dtd">
<!-- Generated by graphviz version 2.40.1 (20161225.0304)
 -->
<!-- Title: PersonnagesManager\setDb Pages: 1 -->
<svg width="273pt" height="37pt"
 viewBox="0.00 0.00 272.80 37.00" xmlns="http://www.w3.org/2000/svg" xmlns:xlink="http://www.w3.org/1999/xlink">
<g id="graph0" class="graph" transform="scale(1 1) rotate(0) translate(4 33)">
<title>PersonnagesManager\setDb</title>
<polygon fill="#ffffff" stroke="transparent" points="-4,4 -4,-33 268.7969,-33 268.7969,4 -4,4"/>
<!-- Node26 -->
<g id="node1" class="node">
<title>Node26</title>
<polygon fill="#bfbfbf" stroke="#000000" points="0,-.5 0,-28.5 114.3984,-28.5 114.3984,-.5 0,-.5"/>
<text text-anchor="start" x="8" y="-16.5" font-family="Helvetica,sans-Serif" font-size="10.00" fill="#000000">PersonnagesManager</text>
<text text-anchor="middle" x="57.1992" y="-6.5" font-family="Helvetica,sans-Serif" font-size="10.00" fill="#000000">\setDb</text>
</g>
<!-- Node27 -->
<g id="node2" class="node">
<title>Node27</title>
<g id="a_node2"><a xlink:href="class_personnages_manager.html#a7d278f81159b0faf52c83338147f4e40" target="_top" xlink:title="PersonnagesManager\l\\__construct">
<polygon fill="#ffffff" stroke="#000000" points="150.3984,-.5 150.3984,-28.5 264.7969,-28.5 264.7969,-.5 150.3984,-.5"/>
<text text-anchor="start" x="158.3984" y="-16.5" font-family="Helvetica,sans-Serif" font-size="10.00" fill="#000000">PersonnagesManager</text>
<text text-anchor="middle" x="207.5977" y="-6.5" font-family="Helvetica,sans-Serif" font-size="10.00" fill="#000000">\__construct</text>
</a>
</g>
</g>
<!-- Node26&#45;&gt;Node27 -->
<g id="edge1" class="edge">
<title>Node26&#45;&gt;Node27</title>
<path fill="none" stroke="#191970" d="M124.6886,-14.5C133.1288,-14.5 141.6998,-14.5 149.9705,-14.5"/>
<polygon fill="#191970" stroke="#191970" points="124.4875,-11.0001 114.4875,-14.5 124.4874,-18.0001 124.4875,-11.0001"/>
</g>
</g>
</svg>
