<?xml version="1.0" encoding="UTF-8" standalone="no"?>
<!DOCTYPE svg PUBLIC "-//W3C//DTD SVG 1.1//EN"
 "http://www.w3.org/Graphics/SVG/1.1/DTD/svg11.dtd">
<!-- Generated by graphviz version 2.40.1 (20161225.0304)
 -->
<!-- Title: Personnage\etat Pages: 1 -->
<svg width="414pt" height="101pt"
 viewBox="0.00 0.00 413.74 101.00" xmlns="http://www.w3.org/2000/svg" xmlns:xlink="http://www.w3.org/1999/xlink">
<g id="graph0" class="graph" transform="scale(1 1) rotate(0) translate(4 97)">
<title>Personnage\etat</title>
<polygon fill="#ffffff" stroke="transparent" points="-4,4 -4,-97 409.7422,-97 409.7422,4 -4,4"/>
<!-- Node38 -->
<g id="node1" class="node">
<title>Node38</title>
<polygon fill="#bfbfbf" stroke="#000000" points="0,-37.5 0,-55.5 89.3887,-55.5 89.3887,-37.5 0,-37.5"/>
<text text-anchor="middle" x="44.6943" y="-43.5" font-family="Helvetica,sans-Serif" font-size="10.00" fill="#000000">Personnage\etat</text>
</g>
<!-- Node39 -->
<g id="node2" class="node">
<title>Node39</title>
<g id="a_node2"><a xlink:href="class_personnage.html#a226affce78dca0151e0901896e58f14d" target="_top" xlink:title="Personnage\\recevoirDegats">
<polygon fill="#ffffff" stroke="#000000" points="125.3887,-74.5 125.3887,-92.5 265.3486,-92.5 265.3486,-74.5 125.3887,-74.5"/>
<text text-anchor="middle" x="195.3687" y="-80.5" font-family="Helvetica,sans-Serif" font-size="10.00" fill="#000000">Personnage\recevoirDegats</text>
</a>
</g>
</g>
<!-- Node38&#45;&gt;Node39 -->
<g id="edge1" class="edge">
<title>Node38&#45;&gt;Node39</title>
<path fill="none" stroke="#191970" d="M91.5119,-57.9967C113.1273,-63.3046 138.4174,-69.5149 158.6293,-74.4782"/>
<polygon fill="#191970" stroke="#191970" points="92.0996,-54.5371 81.5534,-55.5512 90.4302,-61.3351 92.0996,-54.5371"/>
</g>
<!-- Node41 -->
<g id="node4" class="node">
<title>Node41</title>
<g id="a_node4"><a xlink:href="class_personnage.html#a570935e88aa03fb191a3f06a41f5aec5" target="_top" xlink:title="Personnage\\debut_combat">
<polygon fill="#ffffff" stroke="#000000" points="127.3247,-37.5 127.3247,-55.5 263.4126,-55.5 263.4126,-37.5 127.3247,-37.5"/>
<text text-anchor="middle" x="195.3687" y="-43.5" font-family="Helvetica,sans-Serif" font-size="10.00" fill="#000000">Personnage\debut_combat</text>
</a>
</g>
</g>
<!-- Node38&#45;&gt;Node41 -->
<g id="edge3" class="edge">
<title>Node38&#45;&gt;Node41</title>
<path fill="none" stroke="#191970" d="M99.7773,-46.5C108.7271,-46.5 118.0889,-46.5 127.3041,-46.5"/>
<polygon fill="#191970" stroke="#191970" points="99.4937,-43.0001 89.4936,-46.5 99.4936,-50.0001 99.4937,-43.0001"/>
</g>
<!-- Node42 -->
<g id="node5" class="node">
<title>Node42</title>
<g id="a_node5"><a xlink:href="class_personnage.html#af368ea425266209c0dcf800bdfcf1b84" target="_top" xlink:title="Personnage\\setEtat">
<polygon fill="#ffffff" stroke="#000000" points="143.4502,-.5 143.4502,-18.5 247.2871,-18.5 247.2871,-.5 143.4502,-.5"/>
<text text-anchor="middle" x="195.3687" y="-6.5" font-family="Helvetica,sans-Serif" font-size="10.00" fill="#000000">Personnage\setEtat</text>
</a>
</g>
</g>
<!-- Node38&#45;&gt;Node42 -->
<g id="edge4" class="edge">
<title>Node38&#45;&gt;Node42</title>
<path fill="none" stroke="#191970" d="M91.5119,-35.0033C113.1273,-29.6954 138.4174,-23.4851 158.6293,-18.5218"/>
<polygon fill="#191970" stroke="#191970" points="90.4302,-31.6649 81.5534,-37.4488 92.0996,-38.4629 90.4302,-31.6649"/>
</g>
<!-- Node40 -->
<g id="node3" class="node">
<title>Node40</title>
<g id="a_node3"><a xlink:href="class_personnage.html#a1deaeddff5bc8766d52da4fc2d0b8032" target="_top" xlink:title="Fonction pour frapper. ">
<polygon fill="#ffffff" stroke="#000000" points="301.3486,-74.5 301.3486,-92.5 405.7422,-92.5 405.7422,-74.5 301.3486,-74.5"/>
<text text-anchor="middle" x="353.5454" y="-80.5" font-family="Helvetica,sans-Serif" font-size="10.00" fill="#000000">Personnage\frapper</text>
</a>
</g>
</g>
<!-- Node39&#45;&gt;Node40 -->
<g id="edge2" class="edge">
<title>Node39&#45;&gt;Node40</title>
<path fill="none" stroke="#191970" d="M275.7327,-83.5C284.3188,-83.5 292.8848,-83.5 301.0259,-83.5"/>
<polygon fill="#191970" stroke="#191970" points="275.6685,-80.0001 265.6684,-83.5 275.6684,-87.0001 275.6685,-80.0001"/>
</g>
</g>
</svg>
