<?xml version="1.0" encoding="UTF-8" standalone="no"?>
<!DOCTYPE svg PUBLIC "-//W3C//DTD SVG 1.1//EN"
 "http://www.w3.org/Graphics/SVG/1.1/DTD/svg11.dtd">
<!-- Generated by graphviz version 2.40.1 (20161225.0304)
 -->
<!-- Title: Personnage\recevoirXP Pages: 1 -->
<svg width="284pt" height="101pt"
 viewBox="0.00 0.00 284.46 101.00" xmlns="http://www.w3.org/2000/svg" xmlns:xlink="http://www.w3.org/1999/xlink">
<g id="graph0" class="graph" transform="scale(1 1) rotate(0) translate(4 97)">
<title>Personnage\recevoirXP</title>
<polygon fill="#ffffff" stroke="transparent" points="-4,4 -4,-97 280.457,-97 280.457,4 -4,4"/>
<!-- Node105 -->
<g id="node1" class="node">
<title>Node105</title>
<polygon fill="#bfbfbf" stroke="#000000" points="0,-37.5 0,-55.5 121.6152,-55.5 121.6152,-37.5 0,-37.5"/>
<text text-anchor="middle" x="60.8076" y="-43.5" font-family="Helvetica,sans-Serif" font-size="10.00" fill="#000000">Personnage\recevoirXP</text>
</g>
<!-- Node106 -->
<g id="node2" class="node">
<title>Node106</title>
<g id="a_node2"><a xlink:href="class_att__soi.html#a7da2d15a0bedd2880e7491f72b430bf0" target="_top" xlink:title="Att_soi\\lancerUnSoin">
<polygon fill="#ffffff" stroke="#000000" points="162.3442,-74.5 162.3442,-92.5 271.728,-92.5 271.728,-74.5 162.3442,-74.5"/>
<text text-anchor="middle" x="217.0361" y="-80.5" font-family="Helvetica,sans-Serif" font-size="10.00" fill="#000000">Att_soi\lancerUnSoin</text>
</a>
</g>
</g>
<!-- Node105&#45;&gt;Node106 -->
<g id="edge1" class="edge">
<title>Node105&#45;&gt;Node106</title>
<path fill="none" stroke="#191970" d="M109.047,-57.9247C131.5257,-63.2484 157.8907,-69.4924 178.9425,-74.4782"/>
<polygon fill="#191970" stroke="#191970" points="109.5629,-54.4501 99.0254,-55.5512 107.9496,-61.2617 109.5629,-54.4501"/>
</g>
<!-- Node107 -->
<g id="node3" class="node">
<title>Node107</title>
<g id="a_node3"><a xlink:href="class_personnage.html#a1deaeddff5bc8766d52da4fc2d0b8032" target="_top" xlink:title="Fonction pour frapper. ">
<polygon fill="#ffffff" stroke="#000000" points="164.8394,-37.5 164.8394,-55.5 269.2329,-55.5 269.2329,-37.5 164.8394,-37.5"/>
<text text-anchor="middle" x="217.0361" y="-43.5" font-family="Helvetica,sans-Serif" font-size="10.00" fill="#000000">Personnage\frapper</text>
</a>
</g>
</g>
<!-- Node105&#45;&gt;Node107 -->
<g id="edge2" class="edge">
<title>Node105&#45;&gt;Node107</title>
<path fill="none" stroke="#191970" d="M131.7635,-46.5C142.8562,-46.5 154.1429,-46.5 164.719,-46.5"/>
<polygon fill="#191970" stroke="#191970" points="131.657,-43.0001 121.657,-46.5 131.657,-50.0001 131.657,-43.0001"/>
</g>
<!-- Node108 -->
<g id="node4" class="node">
<title>Node108</title>
<g id="a_node4"><a xlink:href="class_soigneur.html#ac68dd65c897e55dc77d354e79e79a52c" target="_top" xlink:title="Soigneur\\lancerUnSoin">
<polygon fill="#ffffff" stroke="#000000" points="157.6152,-.5 157.6152,-18.5 276.457,-18.5 276.457,-.5 157.6152,-.5"/>
<text text-anchor="middle" x="217.0361" y="-6.5" font-family="Helvetica,sans-Serif" font-size="10.00" fill="#000000">Soigneur\lancerUnSoin</text>
</a>
</g>
</g>
<!-- Node105&#45;&gt;Node108 -->
<g id="edge3" class="edge">
<title>Node105&#45;&gt;Node108</title>
<path fill="none" stroke="#191970" d="M109.047,-35.0753C131.5257,-29.7516 157.8907,-23.5076 178.9425,-18.5218"/>
<polygon fill="#191970" stroke="#191970" points="107.9496,-31.7383 99.0254,-37.4488 109.5629,-38.5499 107.9496,-31.7383"/>
</g>
</g>
</svg>
