<?xml version="1.0" encoding="UTF-8" standalone="no"?>
<!DOCTYPE svg PUBLIC "-//W3C//DTD SVG 1.1//EN"
 "http://www.w3.org/Graphics/SVG/1.1/DTD/svg11.dtd">
<!-- Generated by graphviz version 2.40.1 (20161225.0304)
 -->
<!-- Title: Personnage\recevoirXP Pages: 1 -->
<svg width="273pt" height="101pt"
 viewBox="0.00 0.00 273.34 101.00" xmlns="http://www.w3.org/2000/svg" xmlns:xlink="http://www.w3.org/1999/xlink">
<g id="graph0" class="graph" transform="scale(1 1) rotate(0) translate(4 97)">
<title>Personnage\recevoirXP</title>
<polygon fill="#ffffff" stroke="transparent" points="-4,4 -4,-97 269.3389,-97 269.3389,4 -4,4"/>
<!-- Node83 -->
<g id="node1" class="node">
<title>Node83</title>
<polygon fill="#bfbfbf" stroke="#000000" points="0,-37.5 0,-55.5 121.6152,-55.5 121.6152,-37.5 0,-37.5"/>
<text text-anchor="middle" x="60.8076" y="-43.5" font-family="Helvetica,sans-Serif" font-size="10.00" fill="#000000">Personnage\recevoirXP</text>
</g>
<!-- Node84 -->
<g id="node2" class="node">
<title>Node84</title>
<g id="a_node2"><a xlink:href="class_personnage.html#a60b2a6a44bc71517c063d87c062e0b87" target="_top" xlink:title="Personnage\\xp">
<polygon fill="#ffffff" stroke="#000000" points="169.8418,-74.5 169.8418,-92.5 253.1123,-92.5 253.1123,-74.5 169.8418,-74.5"/>
<text text-anchor="middle" x="211.4771" y="-80.5" font-family="Helvetica,sans-Serif" font-size="10.00" fill="#000000">Personnage\xp</text>
</a>
</g>
</g>
<!-- Node83&#45;&gt;Node84 -->
<g id="edge1" class="edge">
<title>Node83&#45;&gt;Node84</title>
<path fill="none" stroke="#191970" d="M97.6655,-55.5512C117.8968,-60.5194 143.1888,-66.7304 164.7889,-72.0348"/>
<polygon fill="#191970" stroke="#191970" points="164.1927,-75.4923 174.7389,-74.4782 165.8621,-68.6942 164.1927,-75.4923"/>
</g>
<!-- Node85 -->
<g id="node3" class="node">
<title>Node85</title>
<g id="a_node3"><a xlink:href="class_personnage.html#aa5bc9f2bda281400fedbc1af1c19357d" target="_top" xlink:title="Personnage\\xp_max">
<polygon fill="#ffffff" stroke="#000000" points="157.6152,-37.5 157.6152,-55.5 265.3389,-55.5 265.3389,-37.5 157.6152,-37.5"/>
<text text-anchor="middle" x="211.4771" y="-43.5" font-family="Helvetica,sans-Serif" font-size="10.00" fill="#000000">Personnage\xp_max</text>
</a>
</g>
</g>
<!-- Node83&#45;&gt;Node85 -->
<g id="edge2" class="edge">
<title>Node83&#45;&gt;Node85</title>
<path fill="none" stroke="#191970" d="M121.6563,-46.5C130.0176,-46.5 138.6262,-46.5 147.049,-46.5"/>
<polygon fill="#191970" stroke="#191970" points="147.2017,-50.0001 157.2017,-46.5 147.2017,-43.0001 147.2017,-50.0001"/>
</g>
<!-- Node86 -->
<g id="node4" class="node">
<title>Node86</title>
<g id="a_node4"><a xlink:href="class_personnage.html#a061130b0c1c551d893ecffff2553cb93" target="_top" xlink:title="Personnage\\niveau">
<polygon fill="#ffffff" stroke="#000000" points="160.3887,-.5 160.3887,-18.5 262.5654,-18.5 262.5654,-.5 160.3887,-.5"/>
<text text-anchor="middle" x="211.4771" y="-6.5" font-family="Helvetica,sans-Serif" font-size="10.00" fill="#000000">Personnage\niveau</text>
</a>
</g>
</g>
<!-- Node83&#45;&gt;Node86 -->
<g id="edge3" class="edge">
<title>Node83&#45;&gt;Node86</title>
<path fill="none" stroke="#191970" d="M97.6655,-37.4488C117.8968,-32.4806 143.1888,-26.2696 164.7889,-20.9652"/>
<polygon fill="#191970" stroke="#191970" points="165.8621,-24.3058 174.7389,-18.5218 164.1927,-17.5077 165.8621,-24.3058"/>
</g>
</g>
</svg>
