<?xml version="1.0" encoding="UTF-8" standalone="no"?>
<!DOCTYPE svg PUBLIC "-//W3C//DTD SVG 1.1//EN"
 "http://www.w3.org/Graphics/SVG/1.1/DTD/svg11.dtd">
<!-- Generated by graphviz version 2.40.1 (20161225.0304)
 -->
<!-- Title: Personnage\debut_combat Pages: 1 -->
<svg width="309pt" height="101pt"
 viewBox="0.00 0.00 308.92 101.00" xmlns="http://www.w3.org/2000/svg" xmlns:xlink="http://www.w3.org/1999/xlink">
<g id="graph0" class="graph" transform="scale(1 1) rotate(0) translate(4 97)">
<title>Personnage\debut_combat</title>
<polygon fill="#ffffff" stroke="transparent" points="-4,4 -4,-97 304.9248,-97 304.9248,4 -4,4"/>
<!-- Node16 -->
<g id="node1" class="node">
<title>Node16</title>
<polygon fill="#bfbfbf" stroke="#000000" points="0,-37.5 0,-55.5 136.0879,-55.5 136.0879,-37.5 0,-37.5"/>
<text text-anchor="middle" x="68.0439" y="-43.5" font-family="Helvetica,sans-Serif" font-size="10.00" fill="#000000">Personnage\debut_combat</text>
</g>
<!-- Node17 -->
<g id="node2" class="node">
<title>Node17</title>
<g id="a_node2"><a xlink:href="class_personnage.html#ae8e3d042579fa009b69248c20929bce5" target="_top" xlink:title="Personnage\\pv_fight">
<polygon fill="#ffffff" stroke="#000000" points="182.6396,-74.5 182.6396,-92.5 290.373,-92.5 290.373,-74.5 182.6396,-74.5"/>
<text text-anchor="middle" x="236.5063" y="-80.5" font-family="Helvetica,sans-Serif" font-size="10.00" fill="#000000">Personnage\pv_fight</text>
</a>
</g>
</g>
<!-- Node16&#45;&gt;Node17 -->
<g id="edge1" class="edge">
<title>Node16&#45;&gt;Node17</title>
<path fill="none" stroke="#191970" d="M109.2545,-55.5512C132.2843,-60.6093 161.1792,-66.9556 185.6119,-72.3219"/>
<polygon fill="#191970" stroke="#191970" points="184.9116,-75.7514 195.4296,-74.4782 186.4133,-68.9144 184.9116,-75.7514"/>
</g>
<!-- Node18 -->
<g id="node3" class="node">
<title>Node18</title>
<g id="a_node3"><a xlink:href="class_personnage.html#addeceec710baf3ae687f36151bc5def4" target="_top" xlink:title="Personnage\\etat">
<polygon fill="#ffffff" stroke="#000000" points="191.812,-37.5 191.812,-55.5 281.2007,-55.5 281.2007,-37.5 191.812,-37.5"/>
<text text-anchor="middle" x="236.5063" y="-43.5" font-family="Helvetica,sans-Serif" font-size="10.00" fill="#000000">Personnage\etat</text>
</a>
</g>
</g>
<!-- Node16&#45;&gt;Node18 -->
<g id="edge2" class="edge">
<title>Node16&#45;&gt;Node18</title>
<path fill="none" stroke="#191970" d="M136.5641,-46.5C151.5176,-46.5 167.156,-46.5 181.503,-46.5"/>
<polygon fill="#191970" stroke="#191970" points="181.6934,-50.0001 191.6933,-46.5 181.6933,-43.0001 181.6934,-50.0001"/>
</g>
<!-- Node19 -->
<g id="node4" class="node">
<title>Node19</title>
<g id="a_node4"><a xlink:href="class_personnage.html#a5fbe8f1f41e05e856ec6390bfb3e4f03" target="_top" xlink:title="Personnage\\timeEndormi">
<polygon fill="#ffffff" stroke="#000000" points="172.0879,-.5 172.0879,-18.5 300.9248,-18.5 300.9248,-.5 172.0879,-.5"/>
<text text-anchor="middle" x="236.5063" y="-6.5" font-family="Helvetica,sans-Serif" font-size="10.00" fill="#000000">Personnage\timeEndormi</text>
</a>
</g>
</g>
<!-- Node16&#45;&gt;Node19 -->
<g id="edge3" class="edge">
<title>Node16&#45;&gt;Node19</title>
<path fill="none" stroke="#191970" d="M109.2545,-37.4488C132.2843,-32.3907 161.1792,-26.0444 185.6119,-20.6781"/>
<polygon fill="#191970" stroke="#191970" points="186.4133,-24.0856 195.4296,-18.5218 184.9116,-17.2486 186.4133,-24.0856"/>
</g>
</g>
</svg>
