<?xml version="1.0" encoding="UTF-8" standalone="no"?>
<!DOCTYPE svg PUBLIC "-//W3C//DTD SVG 1.1//EN"
 "http://www.w3.org/Graphics/SVG/1.1/DTD/svg11.dtd">
<!-- Generated by graphviz version 2.40.1 (20161225.0304)
 -->
<!-- Title: Personnage\timeEndormi Pages: 1 -->
<svg width="614pt" height="173pt"
 viewBox="0.00 0.00 614.33 172.88" xmlns="http://www.w3.org/2000/svg" xmlns:xlink="http://www.w3.org/1999/xlink">
<g id="graph0" class="graph" transform="scale(1 1) rotate(0) translate(4 168.8804)">
<title>Personnage\timeEndormi</title>
<polygon fill="#ffffff" stroke="transparent" points="-4,4 -4,-168.8804 610.3262,-168.8804 610.3262,4 -4,4"/>
<!-- Node222 -->
<g id="node1" class="node">
<title>Node222</title>
<polygon fill="#bfbfbf" stroke="#000000" points="0,-55.5 0,-73.5 128.8369,-73.5 128.8369,-55.5 0,-55.5"/>
<text text-anchor="middle" x="64.4185" y="-61.5" font-family="Helvetica,sans-Serif" font-size="10.00" fill="#000000">Personnage\timeEndormi</text>
</g>
<!-- Node223 -->
<g id="node2" class="node">
<title>Node223</title>
<g id="a_node2"><a xlink:href="class_personnage.html#aabf0bcd80fcea089de16f33c029aae12" target="_top" xlink:title="Personnage\\estEndormi">
<polygon fill="#ffffff" stroke="#000000" points="175.7646,-111.5 175.7646,-129.5 299.0498,-129.5 299.0498,-111.5 175.7646,-111.5"/>
<text text-anchor="middle" x="237.4072" y="-117.5" font-family="Helvetica,sans-Serif" font-size="10.00" fill="#000000">Personnage\estEndormi</text>
</a>
</g>
</g>
<!-- Node222&#45;&gt;Node223 -->
<g id="edge1" class="edge">
<title>Node222&#45;&gt;Node223</title>
<path fill="none" stroke="#191970" d="M95.476,-77.3448C115.1493,-85.2077 141.2422,-95.138 164.8369,-102.5 175.2459,-105.7478 186.6373,-108.8022 197.2458,-111.4405"/>
<polygon fill="#191970" stroke="#191970" points="96.6806,-74.0567 86.0974,-73.5589 94.0602,-80.5478 96.6806,-74.0567"/>
</g>
<!-- Node228 -->
<g id="node7" class="node">
<title>Node228</title>
<g id="a_node7"><a xlink:href="class_personnage.html#a570935e88aa03fb191a3f06a41f5aec5" target="_top" xlink:title="Personnage\\debut_combat">
<polygon fill="#ffffff" stroke="#000000" points="169.3633,-74.5 169.3633,-92.5 305.4512,-92.5 305.4512,-74.5 169.3633,-74.5"/>
<text text-anchor="middle" x="237.4072" y="-80.5" font-family="Helvetica,sans-Serif" font-size="10.00" fill="#000000">Personnage\debut_combat</text>
</a>
</g>
</g>
<!-- Node222&#45;&gt;Node228 -->
<g id="edge8" class="edge">
<title>Node222&#45;&gt;Node228</title>
<path fill="none" stroke="#191970" d="M139.527,-72.7495C149.4079,-73.8347 159.4906,-74.9421 169.247,-76.0137"/>
<polygon fill="#191970" stroke="#191970" points="139.6476,-69.2417 129.3253,-71.629 138.8833,-76.1999 139.6476,-69.2417"/>
</g>
<!-- Node229 -->
<g id="node8" class="node">
<title>Node229</title>
<g id="a_node8"><a xlink:href="class_personnage.html#ab0503fe49e1a5403fe6d43d7d424e3ef" target="_top" xlink:title="Personnage\\reveil">
<polygon fill="#ffffff" stroke="#000000" points="189.1045,-37.5 189.1045,-55.5 285.71,-55.5 285.71,-37.5 189.1045,-37.5"/>
<text text-anchor="middle" x="237.4072" y="-43.5" font-family="Helvetica,sans-Serif" font-size="10.00" fill="#000000">Personnage\reveil</text>
</a>
</g>
</g>
<!-- Node222&#45;&gt;Node229 -->
<g id="edge9" class="edge">
<title>Node222&#45;&gt;Node229</title>
<path fill="none" stroke="#191970" d="M139.628,-56.6742C156.33,-54.9363 173.603,-53.139 188.8984,-51.5475"/>
<polygon fill="#191970" stroke="#191970" points="138.9093,-53.23 129.3253,-57.7463 139.6338,-60.1924 138.9093,-53.23"/>
</g>
<!-- Node230 -->
<g id="node9" class="node">
<title>Node230</title>
<g id="a_node9"><a xlink:href="class_personnage.html#a26cd731a784eaa1ba1e9873219612598" target="_top" xlink:title="Personnage\\setTimeEndormi">
<polygon fill="#ffffff" stroke="#000000" points="164.8369,-.5 164.8369,-18.5 309.9775,-18.5 309.9775,-.5 164.8369,-.5"/>
<text text-anchor="middle" x="237.4072" y="-6.5" font-family="Helvetica,sans-Serif" font-size="10.00" fill="#000000">Personnage\setTimeEndormi</text>
</a>
</g>
</g>
<!-- Node222&#45;&gt;Node230 -->
<g id="edge10" class="edge">
<title>Node222&#45;&gt;Node230</title>
<path fill="none" stroke="#191970" d="M96.2726,-51.7432C115.8657,-44.1526 141.5911,-34.6418 164.8369,-27.5 175.384,-24.2596 186.9277,-21.1866 197.6434,-18.5271"/>
<polygon fill="#191970" stroke="#191970" points="94.9469,-48.5034 86.9086,-55.4053 97.4965,-55.0226 94.9469,-48.5034"/>
</g>
<!-- Node224 -->
<g id="node3" class="node">
<title>Node224</title>
<g id="a_node3"><a xlink:href="class_att__soi.html#a7da2d15a0bedd2880e7491f72b430bf0" target="_top" xlink:title="Att_soi\\lancerUnSoin">
<polygon fill="#ffffff" stroke="#000000" points="492.2134,-111.5 492.2134,-129.5 601.5972,-129.5 601.5972,-111.5 492.2134,-111.5"/>
<text text-anchor="middle" x="546.9053" y="-117.5" font-family="Helvetica,sans-Serif" font-size="10.00" fill="#000000">Att_soi\lancerUnSoin</text>
</a>
</g>
</g>
<!-- Node223&#45;&gt;Node224 -->
<g id="edge2" class="edge">
<title>Node223&#45;&gt;Node224</title>
<path fill="none" stroke="#191970" d="M266.0907,-133.5271C287.5803,-142.5423 317.9776,-153.7415 345.9775,-158.5 392.2066,-166.3565 405.4318,-167.3326 451.4844,-158.5 480.2045,-152.9917 511.2877,-138.9457 529.9196,-129.5615"/>
<polygon fill="#191970" stroke="#191970" points="267.454,-130.3035 256.8846,-129.5697 264.6895,-136.7345 267.454,-130.3035"/>
</g>
<!-- Node225 -->
<g id="node4" class="node">
<title>Node225</title>
<g id="a_node4"><a xlink:href="class_personnage.html#a1deaeddff5bc8766d52da4fc2d0b8032" target="_top" xlink:title="Fonction pour frapper. ">
<polygon fill="#ffffff" stroke="#000000" points="346.5342,-130.5 346.5342,-148.5 450.9277,-148.5 450.9277,-130.5 346.5342,-130.5"/>
<text text-anchor="middle" x="398.731" y="-136.5" font-family="Helvetica,sans-Serif" font-size="10.00" fill="#000000">Personnage\frapper</text>
</a>
</g>
</g>
<!-- Node223&#45;&gt;Node225 -->
<g id="edge3" class="edge">
<title>Node223&#45;&gt;Node225</title>
<path fill="none" stroke="#191970" d="M309.2659,-128.9632C321.7759,-130.4366 334.5717,-131.9436 346.4304,-133.3403"/>
<polygon fill="#191970" stroke="#191970" points="309.6586,-125.4853 299.3178,-127.7916 308.8398,-132.4373 309.6586,-125.4853"/>
</g>
<!-- Node226 -->
<g id="node5" class="node">
<title>Node226</title>
<g id="a_node5"><a xlink:href="class_personnage.html#a1219171b9ddba0fecfa49995d7d71372" target="_top" xlink:title="Personnage\\soigner">
<polygon fill="#ffffff" stroke="#000000" points="345.9775,-93.5 345.9775,-111.5 451.4844,-111.5 451.4844,-93.5 345.9775,-93.5"/>
<text text-anchor="middle" x="398.731" y="-99.5" font-family="Helvetica,sans-Serif" font-size="10.00" fill="#000000">Personnage\soigner</text>
</a>
</g>
</g>
<!-- Node223&#45;&gt;Node226 -->
<g id="edge4" class="edge">
<title>Node223&#45;&gt;Node226</title>
<path fill="none" stroke="#191970" d="M309.5186,-112.454C321.7669,-111.0874 334.2811,-109.6911 345.9145,-108.3931"/>
<polygon fill="#191970" stroke="#191970" points="308.868,-109.0048 299.3178,-113.5922 309.6443,-115.9616 308.868,-109.0048"/>
</g>
<!-- Node227 -->
<g id="node6" class="node">
<title>Node227</title>
<g id="a_node6"><a xlink:href="class_soigneur.html#ac68dd65c897e55dc77d354e79e79a52c" target="_top" xlink:title="Soigneur\\lancerUnSoin">
<polygon fill="#ffffff" stroke="#000000" points="487.4844,-74.5 487.4844,-92.5 606.3262,-92.5 606.3262,-74.5 487.4844,-74.5"/>
<text text-anchor="middle" x="546.9053" y="-80.5" font-family="Helvetica,sans-Serif" font-size="10.00" fill="#000000">Soigneur\lancerUnSoin</text>
</a>
</g>
</g>
<!-- Node223&#45;&gt;Node227 -->
<g id="edge7" class="edge">
<title>Node223&#45;&gt;Node227</title>
<path fill="none" stroke="#191970" d="M291.2772,-108.6967C297.6514,-106.8435 304.008,-104.7768 309.9775,-102.5 326.8814,-96.0527 328.4166,-87.8498 345.9775,-83.5 392.3658,-72.0097 446.6482,-72.8176 487.0904,-76.0516"/>
<polygon fill="#191970" stroke="#191970" points="290.0177,-105.4128 281.2992,-111.4326 291.8688,-112.1636 290.0177,-105.4128"/>
</g>
<!-- Node226&#45;&gt;Node224 -->
<g id="edge5" class="edge">
<title>Node226&#45;&gt;Node224</title>
<path fill="none" stroke="#191970" d="M461.7981,-110.1613C471.9116,-111.3899 482.3053,-112.6525 492.2026,-113.8548"/>
<polygon fill="#191970" stroke="#191970" points="462.1559,-106.6791 451.8068,-108.9476 461.3117,-113.628 462.1559,-106.6791"/>
</g>
<!-- Node226&#45;&gt;Node227 -->
<g id="edge6" class="edge">
<title>Node226&#45;&gt;Node227</title>
<path fill="none" stroke="#191970" d="M461.9721,-94.3908C470.4087,-93.309 479.037,-92.2026 487.4068,-91.1293"/>
<polygon fill="#191970" stroke="#191970" points="461.2804,-90.9507 451.8068,-95.6942 462.1707,-97.8939 461.2804,-90.9507"/>
</g>
</g>
</svg>
