<?xml version="1.0" encoding="UTF-8" standalone="no"?>
<!DOCTYPE svg PUBLIC "-//W3C//DTD SVG 1.1//EN"
 "http://www.w3.org/Graphics/SVG/1.1/DTD/svg11.dtd">
<!-- Generated by graphviz version 2.40.1 (20161225.0304)
 -->
<!-- Title: Personnage\frapper Pages: 1 -->
<svg width="453pt" height="101pt"
 viewBox="0.00 0.00 453.19 101.00" xmlns="http://www.w3.org/2000/svg" xmlns:xlink="http://www.w3.org/1999/xlink">
<g id="graph0" class="graph" transform="scale(1 1) rotate(0) translate(4 97)">
<title>Personnage\frapper</title>
<polygon fill="#ffffff" stroke="transparent" points="-4,4 -4,-97 449.1904,-97 449.1904,4 -4,4"/>
<!-- Node45 -->
<g id="node1" class="node">
<title>Node45</title>
<polygon fill="#bfbfbf" stroke="#000000" points="0,-37.5 0,-55.5 104.3936,-55.5 104.3936,-37.5 0,-37.5"/>
<text text-anchor="middle" x="52.1968" y="-43.5" font-family="Helvetica,sans-Serif" font-size="10.00" fill="#000000">Personnage\frapper</text>
</g>
<!-- Node46 -->
<g id="node2" class="node">
<title>Node46</title>
<g id="a_node2"><a xlink:href="class_personnage.html#aabf0bcd80fcea089de16f33c029aae12" target="_top" xlink:title="Personnage\\estEndormi">
<polygon fill="#ffffff" stroke="#000000" points="148.731,-74.5 148.731,-92.5 272.0161,-92.5 272.0161,-74.5 148.731,-74.5"/>
<text text-anchor="middle" x="210.3735" y="-80.5" font-family="Helvetica,sans-Serif" font-size="10.00" fill="#000000">Personnage\estEndormi</text>
</a>
</g>
</g>
<!-- Node45&#45;&gt;Node46 -->
<g id="edge1" class="edge">
<title>Node45&#45;&gt;Node46</title>
<path fill="none" stroke="#191970" d="M90.8912,-55.5512C112.3227,-60.5644 139.1637,-66.8429 161.9738,-72.1785"/>
<polygon fill="#191970" stroke="#191970" points="161.2704,-75.6084 171.8048,-74.4782 162.8649,-68.7924 161.2704,-75.6084"/>
</g>
<!-- Node48 -->
<g id="node4" class="node">
<title>Node48</title>
<g id="a_node4"><a xlink:href="class_personnage.html#aa64edf7d4c080193213b12643eb05a5d" target="_top" xlink:title="Personnage\\recevoirXP">
<polygon fill="#ffffff" stroke="#000000" points="149.5659,-37.5 149.5659,-55.5 271.1812,-55.5 271.1812,-37.5 149.5659,-37.5"/>
<text text-anchor="middle" x="210.3735" y="-43.5" font-family="Helvetica,sans-Serif" font-size="10.00" fill="#000000">Personnage\recevoirXP</text>
</a>
</g>
</g>
<!-- Node45&#45;&gt;Node48 -->
<g id="edge3" class="edge">
<title>Node45&#45;&gt;Node48</title>
<path fill="none" stroke="#191970" d="M104.4281,-46.5C115.564,-46.5 127.506,-46.5 139.2139,-46.5"/>
<polygon fill="#191970" stroke="#191970" points="139.4163,-50.0001 149.4163,-46.5 139.4162,-43.0001 139.4163,-50.0001"/>
</g>
<!-- Node50 -->
<g id="node6" class="node">
<title>Node50</title>
<g id="a_node6"><a xlink:href="class_personnage.html#a226affce78dca0151e0901896e58f14d" target="_top" xlink:title="Personnage\\recevoirDegats">
<polygon fill="#ffffff" stroke="#000000" points="140.3936,-.5 140.3936,-18.5 280.3535,-18.5 280.3535,-.5 140.3936,-.5"/>
<text text-anchor="middle" x="210.3735" y="-6.5" font-family="Helvetica,sans-Serif" font-size="10.00" fill="#000000">Personnage\recevoirDegats</text>
</a>
</g>
</g>
<!-- Node45&#45;&gt;Node50 -->
<g id="edge5" class="edge">
<title>Node45&#45;&gt;Node50</title>
<path fill="none" stroke="#191970" d="M90.8912,-37.4488C112.3227,-32.4356 139.1637,-26.1571 161.9738,-20.8215"/>
<polygon fill="#191970" stroke="#191970" points="162.8649,-24.2076 171.8048,-18.5218 161.2704,-17.3916 162.8649,-24.2076"/>
</g>
<!-- Node47 -->
<g id="node3" class="node">
<title>Node47</title>
<g id="a_node3"><a xlink:href="class_personnage.html#a5fbe8f1f41e05e856ec6390bfb3e4f03" target="_top" xlink:title="Personnage\\timeEndormi">
<polygon fill="#ffffff" stroke="#000000" points="316.3535,-74.5 316.3535,-92.5 445.1904,-92.5 445.1904,-74.5 316.3535,-74.5"/>
<text text-anchor="middle" x="380.772" y="-80.5" font-family="Helvetica,sans-Serif" font-size="10.00" fill="#000000">Personnage\timeEndormi</text>
</a>
</g>
</g>
<!-- Node46&#45;&gt;Node47 -->
<g id="edge2" class="edge">
<title>Node46&#45;&gt;Node47</title>
<path fill="none" stroke="#191970" d="M272.3733,-83.5C283.3017,-83.5 294.7813,-83.5 306.015,-83.5"/>
<polygon fill="#191970" stroke="#191970" points="306.2397,-87.0001 316.2397,-83.5 306.2396,-80.0001 306.2397,-87.0001"/>
</g>
<!-- Node49 -->
<g id="node5" class="node">
<title>Node49</title>
<g id="a_node5"><a xlink:href="class_personnage.html#a60b2a6a44bc71517c063d87c062e0b87" target="_top" xlink:title="Personnage\\xp">
<polygon fill="#ffffff" stroke="#000000" points="339.1367,-37.5 339.1367,-55.5 422.4072,-55.5 422.4072,-37.5 339.1367,-37.5"/>
<text text-anchor="middle" x="380.772" y="-43.5" font-family="Helvetica,sans-Serif" font-size="10.00" fill="#000000">Personnage\xp</text>
</a>
</g>
</g>
<!-- Node48&#45;&gt;Node49 -->
<g id="edge4" class="edge">
<title>Node48&#45;&gt;Node49</title>
<path fill="none" stroke="#191970" d="M271.41,-46.5C290.2574,-46.5 310.8246,-46.5 328.9852,-46.5"/>
<polygon fill="#191970" stroke="#191970" points="329.0836,-50.0001 339.0836,-46.5 329.0835,-43.0001 329.0836,-50.0001"/>
</g>
<!-- Node51 -->
<g id="node7" class="node">
<title>Node51</title>
<g id="a_node7"><a xlink:href="class_personnage.html#addeceec710baf3ae687f36151bc5def4" target="_top" xlink:title="Personnage\\etat">
<polygon fill="#ffffff" stroke="#000000" points="336.0776,-.5 336.0776,-18.5 425.4663,-18.5 425.4663,-.5 336.0776,-.5"/>
<text text-anchor="middle" x="380.772" y="-6.5" font-family="Helvetica,sans-Serif" font-size="10.00" fill="#000000">Personnage\etat</text>
</a>
</g>
</g>
<!-- Node50&#45;&gt;Node51 -->
<g id="edge6" class="edge">
<title>Node50&#45;&gt;Node51</title>
<path fill="none" stroke="#191970" d="M280.6649,-9.5C295.7141,-9.5 311.4038,-9.5 325.7763,-9.5"/>
<polygon fill="#191970" stroke="#191970" points="325.9809,-13.0001 335.9809,-9.5 325.9809,-6.0001 325.9809,-13.0001"/>
</g>
</g>
</svg>
