<?xml version="1.0" encoding="UTF-8" standalone="no"?>
<!DOCTYPE svg PUBLIC "-//W3C//DTD SVG 1.1//EN"
 "http://www.w3.org/Graphics/SVG/1.1/DTD/svg11.dtd">
<!-- Generated by graphviz version 2.40.1 (20161225.0304)
 -->
<!-- Title: Personnage\frapper Pages: 1 -->
<svg width="453pt" height="138pt"
 viewBox="0.00 0.00 453.19 138.00" xmlns="http://www.w3.org/2000/svg" xmlns:xlink="http://www.w3.org/1999/xlink">
<g id="graph0" class="graph" transform="scale(1 1) rotate(0) translate(4 134)">
<title>Personnage\frapper</title>
<polygon fill="#ffffff" stroke="transparent" points="-4,4 -4,-134 449.1904,-134 449.1904,4 -4,4"/>
<!-- Node46 -->
<g id="node1" class="node">
<title>Node46</title>
<polygon fill="#bfbfbf" stroke="#000000" points="0,-74.5 0,-92.5 104.3936,-92.5 104.3936,-74.5 0,-74.5"/>
<text text-anchor="middle" x="52.1968" y="-80.5" font-family="Helvetica,sans-Serif" font-size="10.00" fill="#000000">Personnage\frapper</text>
</g>
<!-- Node47 -->
<g id="node2" class="node">
<title>Node47</title>
<g id="a_node2"><a xlink:href="class_personnage.html#aabf0bcd80fcea089de16f33c029aae12" target="_top" xlink:title="Personnage\\estEndormi">
<polygon fill="#ffffff" stroke="#000000" points="148.731,-111.5 148.731,-129.5 272.0161,-129.5 272.0161,-111.5 148.731,-111.5"/>
<text text-anchor="middle" x="210.3735" y="-117.5" font-family="Helvetica,sans-Serif" font-size="10.00" fill="#000000">Personnage\estEndormi</text>
</a>
</g>
</g>
<!-- Node46&#45;&gt;Node47 -->
<g id="edge1" class="edge">
<title>Node46&#45;&gt;Node47</title>
<path fill="none" stroke="#191970" d="M90.8912,-92.5512C112.3227,-97.5644 139.1637,-103.8429 161.9738,-109.1785"/>
<polygon fill="#191970" stroke="#191970" points="161.2704,-112.6084 171.8048,-111.4782 162.8649,-105.7924 161.2704,-112.6084"/>
</g>
<!-- Node49 -->
<g id="node4" class="node">
<title>Node49</title>
<g id="a_node4"><a xlink:href="class_personnage.html#aa64edf7d4c080193213b12643eb05a5d" target="_top" xlink:title="Personnage\\recevoirXP">
<polygon fill="#ffffff" stroke="#000000" points="149.5659,-74.5 149.5659,-92.5 271.1812,-92.5 271.1812,-74.5 149.5659,-74.5"/>
<text text-anchor="middle" x="210.3735" y="-80.5" font-family="Helvetica,sans-Serif" font-size="10.00" fill="#000000">Personnage\recevoirXP</text>
</a>
</g>
</g>
<!-- Node46&#45;&gt;Node49 -->
<g id="edge3" class="edge">
<title>Node46&#45;&gt;Node49</title>
<path fill="none" stroke="#191970" d="M104.4281,-83.5C115.564,-83.5 127.506,-83.5 139.2139,-83.5"/>
<polygon fill="#191970" stroke="#191970" points="139.4163,-87.0001 149.4163,-83.5 139.4162,-80.0001 139.4163,-87.0001"/>
</g>
<!-- Node51 -->
<g id="node6" class="node">
<title>Node51</title>
<g id="a_node6"><a xlink:href="class_personnage.html#a226affce78dca0151e0901896e58f14d" target="_top" xlink:title="Personnage\\recevoirDegats">
<polygon fill="#ffffff" stroke="#000000" points="140.3936,-37.5 140.3936,-55.5 280.3535,-55.5 280.3535,-37.5 140.3936,-37.5"/>
<text text-anchor="middle" x="210.3735" y="-43.5" font-family="Helvetica,sans-Serif" font-size="10.00" fill="#000000">Personnage\recevoirDegats</text>
</a>
</g>
</g>
<!-- Node46&#45;&gt;Node51 -->
<g id="edge5" class="edge">
<title>Node46&#45;&gt;Node51</title>
<path fill="none" stroke="#191970" d="M90.8912,-74.4488C112.3227,-69.4356 139.1637,-63.1571 161.9738,-57.8215"/>
<polygon fill="#191970" stroke="#191970" points="162.8649,-61.2076 171.8048,-55.5218 161.2704,-54.3916 162.8649,-61.2076"/>
</g>
<!-- Node48 -->
<g id="node3" class="node">
<title>Node48</title>
<g id="a_node3"><a xlink:href="class_personnage.html#a5fbe8f1f41e05e856ec6390bfb3e4f03" target="_top" xlink:title="Personnage\\timeEndormi">
<polygon fill="#ffffff" stroke="#000000" points="316.3535,-111.5 316.3535,-129.5 445.1904,-129.5 445.1904,-111.5 316.3535,-111.5"/>
<text text-anchor="middle" x="380.772" y="-117.5" font-family="Helvetica,sans-Serif" font-size="10.00" fill="#000000">Personnage\timeEndormi</text>
</a>
</g>
</g>
<!-- Node47&#45;&gt;Node48 -->
<g id="edge2" class="edge">
<title>Node47&#45;&gt;Node48</title>
<path fill="none" stroke="#191970" d="M272.3733,-120.5C283.3017,-120.5 294.7813,-120.5 306.015,-120.5"/>
<polygon fill="#191970" stroke="#191970" points="306.2397,-124.0001 316.2397,-120.5 306.2396,-117.0001 306.2397,-124.0001"/>
</g>
<!-- Node50 -->
<g id="node5" class="node">
<title>Node50</title>
<g id="a_node5"><a xlink:href="class_personnage.html#a60b2a6a44bc71517c063d87c062e0b87" target="_top" xlink:title="Personnage\\xp">
<polygon fill="#ffffff" stroke="#000000" points="339.1367,-74.5 339.1367,-92.5 422.4072,-92.5 422.4072,-74.5 339.1367,-74.5"/>
<text text-anchor="middle" x="380.772" y="-80.5" font-family="Helvetica,sans-Serif" font-size="10.00" fill="#000000">Personnage\xp</text>
</a>
</g>
</g>
<!-- Node49&#45;&gt;Node50 -->
<g id="edge4" class="edge">
<title>Node49&#45;&gt;Node50</title>
<path fill="none" stroke="#191970" d="M271.41,-83.5C290.2574,-83.5 310.8246,-83.5 328.9852,-83.5"/>
<polygon fill="#191970" stroke="#191970" points="329.0836,-87.0001 339.0836,-83.5 329.0835,-80.0001 329.0836,-87.0001"/>
</g>
<!-- Node52 -->
<g id="node7" class="node">
<title>Node52</title>
<g id="a_node7"><a xlink:href="class_personnage.html#ae8e3d042579fa009b69248c20929bce5" target="_top" xlink:title="Personnage\\pv_fight">
<polygon fill="#ffffff" stroke="#000000" points="326.9053,-37.5 326.9053,-55.5 434.6387,-55.5 434.6387,-37.5 326.9053,-37.5"/>
<text text-anchor="middle" x="380.772" y="-43.5" font-family="Helvetica,sans-Serif" font-size="10.00" fill="#000000">Personnage\pv_fight</text>
</a>
</g>
</g>
<!-- Node51&#45;&gt;Node52 -->
<g id="edge6" class="edge">
<title>Node51&#45;&gt;Node52</title>
<path fill="none" stroke="#191970" d="M280.6649,-46.5C292.5771,-46.5 304.8905,-46.5 316.6344,-46.5"/>
<polygon fill="#191970" stroke="#191970" points="316.7837,-50.0001 326.7837,-46.5 316.7837,-43.0001 316.7837,-50.0001"/>
</g>
<!-- Node53 -->
<g id="node8" class="node">
<title>Node53</title>
<g id="a_node8"><a xlink:href="class_personnage.html#addeceec710baf3ae687f36151bc5def4" target="_top" xlink:title="Personnage\\etat">
<polygon fill="#ffffff" stroke="#000000" points="336.0776,-.5 336.0776,-18.5 425.4663,-18.5 425.4663,-.5 336.0776,-.5"/>
<text text-anchor="middle" x="380.772" y="-6.5" font-family="Helvetica,sans-Serif" font-size="10.00" fill="#000000">Personnage\etat</text>
</a>
</g>
</g>
<!-- Node51&#45;&gt;Node53 -->
<g id="edge7" class="edge">
<title>Node51&#45;&gt;Node53</title>
<path fill="none" stroke="#191970" d="M252.0577,-37.4488C275.3522,-32.3907 304.5792,-26.0444 329.2926,-20.6781"/>
<polygon fill="#191970" stroke="#191970" points="330.1936,-24.0641 339.2232,-18.5218 328.7082,-17.2235 330.1936,-24.0641"/>
</g>
</g>
</svg>
