<?xml version="1.0" encoding="UTF-8" standalone="no"?>
<!DOCTYPE svg PUBLIC "-//W3C//DTD SVG 1.1//EN"
 "http://www.w3.org/Graphics/SVG/1.1/DTD/svg11.dtd">
<!-- Generated by graphviz version 2.40.1 (20161225.0304)
 -->
<!-- Title: Soigneur\lancerUnSoin Pages: 1 -->
<svg width="609pt" height="103pt"
 viewBox="0.00 0.00 608.58 103.00" xmlns="http://www.w3.org/2000/svg" xmlns:xlink="http://www.w3.org/1999/xlink">
<g id="graph0" class="graph" transform="scale(1 1) rotate(0) translate(4 99)">
<title>Soigneur\lancerUnSoin</title>
<polygon fill="#ffffff" stroke="transparent" points="-4,4 -4,-99 604.5791,-99 604.5791,4 -4,4"/>
<!-- Node0 -->
<g id="node1" class="node">
<title>Node0</title>
<polygon fill="#bfbfbf" stroke="#000000" points="0,-38.5 0,-56.5 118.8418,-56.5 118.8418,-38.5 0,-38.5"/>
<text text-anchor="middle" x="59.4209" y="-44.5" font-family="Helvetica,sans-Serif" font-size="10.00" fill="#000000">Soigneur\lancerUnSoin</text>
</g>
<!-- Node1 -->
<g id="node2" class="node">
<title>Node1</title>
<g id="a_node2"><a xlink:href="class_personnage.html#a1219171b9ddba0fecfa49995d7d71372" target="_top" xlink:title="Personnage\\soigner">
<polygon fill="#ffffff" stroke="#000000" points="162.896,-76.5 162.896,-94.5 268.4028,-94.5 268.4028,-76.5 162.896,-76.5"/>
<text text-anchor="middle" x="215.6494" y="-82.5" font-family="Helvetica,sans-Serif" font-size="10.00" fill="#000000">Personnage\soigner</text>
</a>
</g>
</g>
<!-- Node0&#45;&gt;Node1 -->
<g id="edge1" class="edge">
<title>Node0&#45;&gt;Node1</title>
<path fill="none" stroke="#191970" d="M96.4449,-56.5055C118.0601,-61.763 145.5434,-68.4479 168.6721,-74.0735"/>
<polygon fill="#191970" stroke="#191970" points="168.0769,-77.5307 178.6208,-76.4934 169.7313,-70.7291 168.0769,-77.5307"/>
</g>
<!-- Node2 -->
<g id="node3" class="node">
<title>Node2</title>
<g id="a_node3"><a xlink:href="class_personnage.html#aabf0bcd80fcea089de16f33c029aae12" target="_top" xlink:title="Personnage\\estEndormi">
<polygon fill="#ffffff" stroke="#000000" points="312.457,-57.5 312.457,-75.5 435.7422,-75.5 435.7422,-57.5 312.457,-57.5"/>
<text text-anchor="middle" x="374.0996" y="-63.5" font-family="Helvetica,sans-Serif" font-size="10.00" fill="#000000">Personnage\estEndormi</text>
</a>
</g>
</g>
<!-- Node0&#45;&gt;Node2 -->
<g id="edge4" class="edge">
<title>Node0&#45;&gt;Node2</title>
<path fill="none" stroke="#191970" d="M118.9795,-51.0961C171.063,-54.2408 246.8302,-58.8156 302.2624,-62.1625"/>
<polygon fill="#191970" stroke="#191970" points="302.173,-65.6634 312.3658,-62.7726 302.595,-58.6762 302.173,-65.6634"/>
</g>
<!-- Node4 -->
<g id="node5" class="node">
<title>Node4</title>
<g id="a_node5"><a xlink:href="class_personnage.html#aa64edf7d4c080193213b12643eb05a5d" target="_top" xlink:title="Personnage\\recevoirXP">
<polygon fill="#ffffff" stroke="#000000" points="154.8418,-.5 154.8418,-18.5 276.457,-18.5 276.457,-.5 154.8418,-.5"/>
<text text-anchor="middle" x="215.6494" y="-6.5" font-family="Helvetica,sans-Serif" font-size="10.00" fill="#000000">Personnage\recevoirXP</text>
</a>
</g>
</g>
<!-- Node0&#45;&gt;Node4 -->
<g id="edge5" class="edge">
<title>Node0&#45;&gt;Node4</title>
<path fill="none" stroke="#191970" d="M96.4449,-38.4945C118.0601,-33.237 145.5434,-26.5521 168.6721,-20.9265"/>
<polygon fill="#191970" stroke="#191970" points="169.7313,-24.2709 178.6208,-18.5066 168.0769,-17.4693 169.7313,-24.2709"/>
</g>
<!-- Node1&#45;&gt;Node2 -->
<g id="edge2" class="edge">
<title>Node1&#45;&gt;Node2</title>
<path fill="none" stroke="#191970" d="M268.411,-79.1733C279.2732,-77.8708 290.8852,-76.4784 302.2904,-75.1107"/>
<polygon fill="#191970" stroke="#191970" points="302.7238,-78.5839 312.2359,-73.9182 301.8903,-71.6337 302.7238,-78.5839"/>
</g>
<!-- Node3 -->
<g id="node4" class="node">
<title>Node3</title>
<g id="a_node4"><a xlink:href="class_personnage.html#a5fbe8f1f41e05e856ec6390bfb3e4f03" target="_top" xlink:title="Personnage\\timeEndormi">
<polygon fill="#ffffff" stroke="#000000" points="471.7422,-57.5 471.7422,-75.5 600.5791,-75.5 600.5791,-57.5 471.7422,-57.5"/>
<text text-anchor="middle" x="536.1606" y="-63.5" font-family="Helvetica,sans-Serif" font-size="10.00" fill="#000000">Personnage\timeEndormi</text>
</a>
</g>
</g>
<!-- Node2&#45;&gt;Node3 -->
<g id="edge3" class="edge">
<title>Node2&#45;&gt;Node3</title>
<path fill="none" stroke="#191970" d="M435.8302,-66.5C444.2525,-66.5 452.9702,-66.5 461.5897,-66.5"/>
<polygon fill="#191970" stroke="#191970" points="461.6397,-70.0001 471.6396,-66.5 461.6396,-63.0001 461.6397,-70.0001"/>
</g>
<!-- Node5 -->
<g id="node6" class="node">
<title>Node5</title>
<g id="a_node6"><a xlink:href="class_personnage.html#a60b2a6a44bc71517c063d87c062e0b87" target="_top" xlink:title="Personnage\\xp">
<polygon fill="#ffffff" stroke="#000000" points="332.4644,-.5 332.4644,-18.5 415.7349,-18.5 415.7349,-.5 332.4644,-.5"/>
<text text-anchor="middle" x="374.0996" y="-6.5" font-family="Helvetica,sans-Serif" font-size="10.00" fill="#000000">Personnage\xp</text>
</a>
</g>
</g>
<!-- Node4&#45;&gt;Node5 -->
<g id="edge6" class="edge">
<title>Node4&#45;&gt;Node5</title>
<path fill="none" stroke="#191970" d="M276.4572,-9.5C291.4859,-9.5 307.4507,-9.5 322.0217,-9.5"/>
<polygon fill="#191970" stroke="#191970" points="322.3522,-13.0001 332.3521,-9.5 322.3521,-6.0001 322.3522,-13.0001"/>
</g>
</g>
</svg>
