<?xml version="1.0" encoding="UTF-8" standalone="no"?>
<!DOCTYPE svg PUBLIC "-//W3C//DTD SVG 1.1//EN"
 "http://www.w3.org/Graphics/SVG/1.1/DTD/svg11.dtd">
<!-- Generated by graphviz version 2.40.1 (20161225.0304)
 -->
<!-- Title: Att_soi\lancerUnSoin Pages: 1 -->
<svg width="599pt" height="103pt"
 viewBox="0.00 0.00 599.12 103.00" xmlns="http://www.w3.org/2000/svg" xmlns:xlink="http://www.w3.org/1999/xlink">
<g id="graph0" class="graph" transform="scale(1 1) rotate(0) translate(4 99)">
<title>Att_soi\lancerUnSoin</title>
<polygon fill="#ffffff" stroke="transparent" points="-4,4 -4,-99 595.1211,-99 595.1211,4 -4,4"/>
<!-- Node0 -->
<g id="node1" class="node">
<title>Node0</title>
<polygon fill="#bfbfbf" stroke="#000000" points="0,-38.5 0,-56.5 109.3838,-56.5 109.3838,-38.5 0,-38.5"/>
<text text-anchor="middle" x="54.6919" y="-44.5" font-family="Helvetica,sans-Serif" font-size="10.00" fill="#000000">Att_soi\lancerUnSoin</text>
</g>
<!-- Node1 -->
<g id="node2" class="node">
<title>Node1</title>
<g id="a_node2"><a xlink:href="class_personnage.html#a1219171b9ddba0fecfa49995d7d71372" target="_top" xlink:title="Personnage\\soigner">
<polygon fill="#ffffff" stroke="#000000" points="153.438,-76.5 153.438,-94.5 258.9448,-94.5 258.9448,-76.5 153.438,-76.5"/>
<text text-anchor="middle" x="206.1914" y="-82.5" font-family="Helvetica,sans-Serif" font-size="10.00" fill="#000000">Personnage\soigner</text>
</a>
</g>
</g>
<!-- Node0&#45;&gt;Node1 -->
<g id="edge1" class="edge">
<title>Node0&#45;&gt;Node1</title>
<path fill="none" stroke="#191970" d="M90.5952,-56.5055C111.4621,-61.7394 137.9686,-68.3879 160.3341,-73.9978"/>
<polygon fill="#191970" stroke="#191970" points="159.7326,-77.4553 170.2836,-76.4934 161.4356,-70.6656 159.7326,-77.4553"/>
</g>
<!-- Node2 -->
<g id="node3" class="node">
<title>Node2</title>
<g id="a_node3"><a xlink:href="class_personnage.html#aabf0bcd80fcea089de16f33c029aae12" target="_top" xlink:title="Personnage\\estEndormi">
<polygon fill="#ffffff" stroke="#000000" points="302.999,-57.5 302.999,-75.5 426.2842,-75.5 426.2842,-57.5 302.999,-57.5"/>
<text text-anchor="middle" x="364.6416" y="-63.5" font-family="Helvetica,sans-Serif" font-size="10.00" fill="#000000">Personnage\estEndormi</text>
</a>
</g>
</g>
<!-- Node0&#45;&gt;Node2 -->
<g id="edge4" class="edge">
<title>Node0&#45;&gt;Node2</title>
<path fill="none" stroke="#191970" d="M109.3912,-50.8531C160.3547,-53.9772 236.6726,-58.6555 292.5831,-62.0828"/>
<polygon fill="#191970" stroke="#191970" points="292.5792,-65.589 302.7746,-62.7075 293.0076,-58.6022 292.5792,-65.589"/>
</g>
<!-- Node4 -->
<g id="node5" class="node">
<title>Node4</title>
<g id="a_node5"><a xlink:href="class_personnage.html#aa64edf7d4c080193213b12643eb05a5d" target="_top" xlink:title="Personnage\\recevoirXP">
<polygon fill="#ffffff" stroke="#000000" points="145.3838,-.5 145.3838,-18.5 266.999,-18.5 266.999,-.5 145.3838,-.5"/>
<text text-anchor="middle" x="206.1914" y="-6.5" font-family="Helvetica,sans-Serif" font-size="10.00" fill="#000000">Personnage\recevoirXP</text>
</a>
</g>
</g>
<!-- Node0&#45;&gt;Node4 -->
<g id="edge5" class="edge">
<title>Node0&#45;&gt;Node4</title>
<path fill="none" stroke="#191970" d="M90.5952,-38.4945C111.4621,-33.2606 137.9686,-26.6121 160.3341,-21.0022"/>
<polygon fill="#191970" stroke="#191970" points="161.4356,-24.3344 170.2836,-18.5066 159.7326,-17.5447 161.4356,-24.3344"/>
</g>
<!-- Node1&#45;&gt;Node2 -->
<g id="edge2" class="edge">
<title>Node1&#45;&gt;Node2</title>
<path fill="none" stroke="#191970" d="M258.953,-79.1733C269.8152,-77.8708 281.4272,-76.4784 292.8324,-75.1107"/>
<polygon fill="#191970" stroke="#191970" points="293.2658,-78.5839 302.7779,-73.9182 292.4323,-71.6337 293.2658,-78.5839"/>
</g>
<!-- Node3 -->
<g id="node4" class="node">
<title>Node3</title>
<g id="a_node4"><a xlink:href="class_personnage.html#a5fbe8f1f41e05e856ec6390bfb3e4f03" target="_top" xlink:title="Personnage\\timeEndormi">
<polygon fill="#ffffff" stroke="#000000" points="462.2842,-57.5 462.2842,-75.5 591.1211,-75.5 591.1211,-57.5 462.2842,-57.5"/>
<text text-anchor="middle" x="526.7026" y="-63.5" font-family="Helvetica,sans-Serif" font-size="10.00" fill="#000000">Personnage\timeEndormi</text>
</a>
</g>
</g>
<!-- Node2&#45;&gt;Node3 -->
<g id="edge3" class="edge">
<title>Node2&#45;&gt;Node3</title>
<path fill="none" stroke="#191970" d="M426.3722,-66.5C434.7945,-66.5 443.5121,-66.5 452.1317,-66.5"/>
<polygon fill="#191970" stroke="#191970" points="452.1817,-70.0001 462.1816,-66.5 452.1816,-63.0001 452.1817,-70.0001"/>
</g>
<!-- Node5 -->
<g id="node6" class="node">
<title>Node5</title>
<g id="a_node6"><a xlink:href="class_personnage.html#a60b2a6a44bc71517c063d87c062e0b87" target="_top" xlink:title="Personnage\\xp">
<polygon fill="#ffffff" stroke="#000000" points="323.0063,-.5 323.0063,-18.5 406.2769,-18.5 406.2769,-.5 323.0063,-.5"/>
<text text-anchor="middle" x="364.6416" y="-6.5" font-family="Helvetica,sans-Serif" font-size="10.00" fill="#000000">Personnage\xp</text>
</a>
</g>
</g>
<!-- Node4&#45;&gt;Node5 -->
<g id="edge6" class="edge">
<title>Node4&#45;&gt;Node5</title>
<path fill="none" stroke="#191970" d="M266.9992,-9.5C282.0279,-9.5 297.9927,-9.5 312.5637,-9.5"/>
<polygon fill="#191970" stroke="#191970" points="312.8942,-13.0001 322.8941,-9.5 312.8941,-6.0001 312.8942,-13.0001"/>
</g>
</g>
</svg>
