<?xml version="1.0" encoding="UTF-8" standalone="no"?>
<!DOCTYPE svg PUBLIC "-//W3C//DTD SVG 1.1//EN"
 "http://www.w3.org/Graphics/SVG/1.1/DTD/svg11.dtd">
<!-- Generated by graphviz version 2.40.1 (20161225.0304)
 -->
<!-- Title: Personnage\recevoirDegats Pages: 1 -->
<svg width="292pt" height="64pt"
 viewBox="0.00 0.00 291.69 64.00" xmlns="http://www.w3.org/2000/svg" xmlns:xlink="http://www.w3.org/1999/xlink">
<g id="graph0" class="graph" transform="scale(1 1) rotate(0) translate(4 60)">
<title>Personnage\recevoirDegats</title>
<polygon fill="#ffffff" stroke="transparent" points="-4,4 -4,-60 287.6934,-60 287.6934,4 -4,4"/>
<!-- Node95 -->
<g id="node1" class="node">
<title>Node95</title>
<polygon fill="#bfbfbf" stroke="#000000" points="0,-18.5 0,-36.5 139.96,-36.5 139.96,-18.5 0,-18.5"/>
<text text-anchor="middle" x="69.98" y="-24.5" font-family="Helvetica,sans-Serif" font-size="10.00" fill="#000000">Personnage\recevoirDegats</text>
</g>
<!-- Node96 -->
<g id="node2" class="node">
<title>Node96</title>
<g id="a_node2"><a xlink:href="class_personnage.html#ae8e3d042579fa009b69248c20929bce5" target="_top" xlink:title="Personnage\\pv_fight">
<polygon fill="#ffffff" stroke="#000000" points="175.96,-37.5 175.96,-55.5 283.6934,-55.5 283.6934,-37.5 175.96,-37.5"/>
<text text-anchor="middle" x="229.8267" y="-43.5" font-family="Helvetica,sans-Serif" font-size="10.00" fill="#000000">Personnage\pv_fight</text>
</a>
</g>
</g>
<!-- Node95&#45;&gt;Node96 -->
<g id="edge1" class="edge">
<title>Node95&#45;&gt;Node96</title>
<path fill="none" stroke="#191970" d="M140.0911,-35.8337C148.5595,-36.8403 157.1771,-37.8646 165.5558,-38.8605"/>
<polygon fill="#191970" stroke="#191970" points="165.2882,-42.3533 175.6315,-40.0581 166.1145,-35.4022 165.2882,-42.3533"/>
</g>
<!-- Node97 -->
<g id="node3" class="node">
<title>Node97</title>
<g id="a_node3"><a xlink:href="class_personnage.html#addeceec710baf3ae687f36151bc5def4" target="_top" xlink:title="Personnage\\etat">
<polygon fill="#ffffff" stroke="#000000" points="185.1323,-.5 185.1323,-18.5 274.521,-18.5 274.521,-.5 185.1323,-.5"/>
<text text-anchor="middle" x="229.8267" y="-6.5" font-family="Helvetica,sans-Serif" font-size="10.00" fill="#000000">Personnage\etat</text>
</a>
</g>
</g>
<!-- Node95&#45;&gt;Node97 -->
<g id="edge2" class="edge">
<title>Node95&#45;&gt;Node97</title>
<path fill="none" stroke="#191970" d="M140.0911,-19.6049C151.7798,-18.2887 163.7529,-16.9404 174.9897,-15.6751"/>
<polygon fill="#191970" stroke="#191970" points="175.5274,-19.1367 185.0729,-14.5396 174.7441,-12.1807 175.5274,-19.1367"/>
</g>
</g>
</svg>
