<?xml version="1.0" encoding="UTF-8" standalone="no"?>
<!DOCTYPE svg PUBLIC "-//W3C//DTD SVG 1.1//EN"
 "http://www.w3.org/Graphics/SVG/1.1/DTD/svg11.dtd">
<!-- Generated by graphviz version 2.40.1 (20161225.0304)
 -->
<!-- Title: Stuff\lvlUp Pages: 1 -->
<svg width="174pt" height="101pt"
 viewBox="0.00 0.00 174.03 101.00" xmlns="http://www.w3.org/2000/svg" xmlns:xlink="http://www.w3.org/1999/xlink">
<g id="graph0" class="graph" transform="scale(1 1) rotate(0) translate(4 97)">
<title>Stuff\lvlUp</title>
<polygon fill="#ffffff" stroke="transparent" points="-4,4 -4,-97 170.0322,-97 170.0322,4 -4,4"/>
<!-- Node29 -->
<g id="node1" class="node">
<title>Node29</title>
<polygon fill="#bfbfbf" stroke="#000000" points="0,-37.5 0,-55.5 61.3955,-55.5 61.3955,-37.5 0,-37.5"/>
<text text-anchor="middle" x="30.6978" y="-43.5" font-family="Helvetica,sans-Serif" font-size="10.00" fill="#000000">Stuff\lvlUp</text>
</g>
<!-- Node30 -->
<g id="node2" class="node">
<title>Node30</title>
<g id="a_node2"><a xlink:href="class_stuff.html#a4d8664e6878c9661e0d0dcf46b1bd5d6" target="_top" xlink:title="Stuff\\niveau">
<polygon fill="#ffffff" stroke="#000000" points="97.3955,-74.5 97.3955,-92.5 166.0322,-92.5 166.0322,-74.5 97.3955,-74.5"/>
<text text-anchor="middle" x="131.7139" y="-80.5" font-family="Helvetica,sans-Serif" font-size="10.00" fill="#000000">Stuff\niveau</text>
</a>
</g>
</g>
<!-- Node29&#45;&gt;Node30 -->
<g id="edge1" class="edge">
<title>Node29&#45;&gt;Node30</title>
<path fill="none" stroke="#191970" d="M55.4091,-55.5512C68.0055,-60.165 83.528,-65.8506 97.2769,-70.8865"/>
<polygon fill="#191970" stroke="#191970" points="96.3138,-74.2611 106.9076,-74.414 98.7214,-67.6881 96.3138,-74.2611"/>
</g>
<!-- Node31 -->
<g id="node3" class="node">
<title>Node31</title>
<g id="a_node3"><a xlink:href="class_stuff.html#a4afe7d4f33396df453f6fdc9c0ba3aa5" target="_top" xlink:title="Stuff\\atr_1">
<polygon fill="#ffffff" stroke="#000000" points="100.7329,-37.5 100.7329,-55.5 162.6948,-55.5 162.6948,-37.5 100.7329,-37.5"/>
<text text-anchor="middle" x="131.7139" y="-43.5" font-family="Helvetica,sans-Serif" font-size="10.00" fill="#000000">Stuff\atr_1</text>
</a>
</g>
</g>
<!-- Node29&#45;&gt;Node31 -->
<g id="edge2" class="edge">
<title>Node29&#45;&gt;Node31</title>
<path fill="none" stroke="#191970" d="M61.5548,-46.5C70.6732,-46.5 80.804,-46.5 90.4666,-46.5"/>
<polygon fill="#191970" stroke="#191970" points="90.6977,-50.0001 100.6977,-46.5 90.6977,-43.0001 90.6977,-50.0001"/>
</g>
<!-- Node32 -->
<g id="node4" class="node">
<title>Node32</title>
<g id="a_node4"><a xlink:href="class_stuff.html#a1bb01959da153fe1aacf0b3fe5454756" target="_top" xlink:title="Stuff\\atr_2">
<polygon fill="#ffffff" stroke="#000000" points="100.7329,-.5 100.7329,-18.5 162.6948,-18.5 162.6948,-.5 100.7329,-.5"/>
<text text-anchor="middle" x="131.7139" y="-6.5" font-family="Helvetica,sans-Serif" font-size="10.00" fill="#000000">Stuff\atr_2</text>
</a>
</g>
</g>
<!-- Node29&#45;&gt;Node32 -->
<g id="edge3" class="edge">
<title>Node29&#45;&gt;Node32</title>
<path fill="none" stroke="#191970" d="M55.4091,-37.4488C68.0055,-32.835 83.528,-27.1494 97.2769,-22.1135"/>
<polygon fill="#191970" stroke="#191970" points="98.7214,-25.3119 106.9076,-18.586 96.3138,-18.7389 98.7214,-25.3119"/>
</g>
</g>
</svg>
