<?xml version="1.0" encoding="UTF-8" standalone="no"?>
<!DOCTYPE svg PUBLIC "-//W3C//DTD SVG 1.1//EN"
 "http://www.w3.org/Graphics/SVG/1.1/DTD/svg11.dtd">
<!-- Generated by graphviz version 2.40.1 (20161225.0304)
 -->
<!-- Title: Personnage\frapper Pages: 1 -->
<svg width="453pt" height="175pt"
 viewBox="0.00 0.00 453.19 175.00" xmlns="http://www.w3.org/2000/svg" xmlns:xlink="http://www.w3.org/1999/xlink">
<g id="graph0" class="graph" transform="scale(1 1) rotate(0) translate(4 171)">
<title>Personnage\frapper</title>
<polygon fill="#ffffff" stroke="transparent" points="-4,4 -4,-171 449.1904,-171 449.1904,4 -4,4"/>
<!-- Node45 -->
<g id="node1" class="node">
<title>Node45</title>
<polygon fill="#bfbfbf" stroke="#000000" points="0,-74.5 0,-92.5 104.3936,-92.5 104.3936,-74.5 0,-74.5"/>
<text text-anchor="middle" x="52.1968" y="-80.5" font-family="Helvetica,sans-Serif" font-size="10.00" fill="#000000">Personnage\frapper</text>
</g>
<!-- Node46 -->
<g id="node2" class="node">
<title>Node46</title>
<g id="a_node2"><a xlink:href="class_personnage.html#aabf0bcd80fcea089de16f33c029aae12" target="_top" xlink:title="Personnage\\estEndormi">
<polygon fill="#ffffff" stroke="#000000" points="148.731,-129.5 148.731,-147.5 272.0161,-147.5 272.0161,-129.5 148.731,-129.5"/>
<text text-anchor="middle" x="210.3735" y="-135.5" font-family="Helvetica,sans-Serif" font-size="10.00" fill="#000000">Personnage\estEndormi</text>
</a>
</g>
</g>
<!-- Node45&#45;&gt;Node46 -->
<g id="edge1" class="edge">
<title>Node45&#45;&gt;Node46</title>
<path fill="none" stroke="#191970" d="M78.3165,-92.5821C104.7263,-101.7652 145.7203,-116.0193 175.0257,-126.2091"/>
<polygon fill="#191970" stroke="#191970" points="173.8831,-129.5173 184.478,-129.4958 176.1822,-122.9056 173.8831,-129.5173"/>
</g>
<!-- Node48 -->
<g id="node4" class="node">
<title>Node48</title>
<g id="a_node4"><a xlink:href="class_personnage.html#aa64edf7d4c080193213b12643eb05a5d" target="_top" xlink:title="Personnage\\recevoirXP">
<polygon fill="#ffffff" stroke="#000000" points="149.5659,-74.5 149.5659,-92.5 271.1812,-92.5 271.1812,-74.5 149.5659,-74.5"/>
<text text-anchor="middle" x="210.3735" y="-80.5" font-family="Helvetica,sans-Serif" font-size="10.00" fill="#000000">Personnage\recevoirXP</text>
</a>
</g>
</g>
<!-- Node45&#45;&gt;Node48 -->
<g id="edge3" class="edge">
<title>Node45&#45;&gt;Node48</title>
<path fill="none" stroke="#191970" d="M104.4281,-83.5C115.564,-83.5 127.506,-83.5 139.2139,-83.5"/>
<polygon fill="#191970" stroke="#191970" points="139.4163,-87.0001 149.4163,-83.5 139.4162,-80.0001 139.4163,-87.0001"/>
</g>
<!-- Node52 -->
<g id="node8" class="node">
<title>Node52</title>
<g id="a_node8"><a xlink:href="class_personnage.html#a226affce78dca0151e0901896e58f14d" target="_top" xlink:title="Personnage\\recevoirDegats">
<polygon fill="#ffffff" stroke="#000000" points="140.3936,-19.5 140.3936,-37.5 280.3535,-37.5 280.3535,-19.5 140.3936,-19.5"/>
<text text-anchor="middle" x="210.3735" y="-25.5" font-family="Helvetica,sans-Serif" font-size="10.00" fill="#000000">Personnage\recevoirDegats</text>
</a>
</g>
</g>
<!-- Node45&#45;&gt;Node52 -->
<g id="edge7" class="edge">
<title>Node45&#45;&gt;Node52</title>
<path fill="none" stroke="#191970" d="M78.3165,-74.4179C104.7263,-65.2348 145.7203,-50.9807 175.0257,-40.7909"/>
<polygon fill="#191970" stroke="#191970" points="176.1822,-44.0944 184.478,-37.5042 173.8831,-37.4827 176.1822,-44.0944"/>
</g>
<!-- Node47 -->
<g id="node3" class="node">
<title>Node47</title>
<g id="a_node3"><a xlink:href="class_personnage.html#a5fbe8f1f41e05e856ec6390bfb3e4f03" target="_top" xlink:title="Personnage\\timeEndormi">
<polygon fill="#ffffff" stroke="#000000" points="316.3535,-148.5 316.3535,-166.5 445.1904,-166.5 445.1904,-148.5 316.3535,-148.5"/>
<text text-anchor="middle" x="380.772" y="-154.5" font-family="Helvetica,sans-Serif" font-size="10.00" fill="#000000">Personnage\timeEndormi</text>
</a>
</g>
</g>
<!-- Node46&#45;&gt;Node47 -->
<g id="edge2" class="edge">
<title>Node46&#45;&gt;Node47</title>
<path fill="none" stroke="#191970" d="M272.3733,-145.4132C283.3017,-146.6317 294.7813,-147.9117 306.015,-149.1643"/>
<polygon fill="#191970" stroke="#191970" points="305.9134,-152.6746 316.2397,-150.3044 306.6891,-145.7177 305.9134,-152.6746"/>
</g>
<!-- Node49 -->
<g id="node5" class="node">
<title>Node49</title>
<g id="a_node5"><a xlink:href="class_personnage.html#a60b2a6a44bc71517c063d87c062e0b87" target="_top" xlink:title="Personnage\\xp">
<polygon fill="#ffffff" stroke="#000000" points="339.1367,-111.5 339.1367,-129.5 422.4072,-129.5 422.4072,-111.5 339.1367,-111.5"/>
<text text-anchor="middle" x="380.772" y="-117.5" font-family="Helvetica,sans-Serif" font-size="10.00" fill="#000000">Personnage\xp</text>
</a>
</g>
</g>
<!-- Node48&#45;&gt;Node49 -->
<g id="edge4" class="edge">
<title>Node48&#45;&gt;Node49</title>
<path fill="none" stroke="#191970" d="M252.0577,-92.5512C275.3522,-97.6093 304.5792,-103.9556 329.2926,-109.3219"/>
<polygon fill="#191970" stroke="#191970" points="328.7082,-112.7765 339.2232,-111.4782 330.1936,-105.9359 328.7082,-112.7765"/>
</g>
<!-- Node50 -->
<g id="node6" class="node">
<title>Node50</title>
<g id="a_node6"><a xlink:href="class_personnage.html#aa5bc9f2bda281400fedbc1af1c19357d" target="_top" xlink:title="Personnage\\xp_max">
<polygon fill="#ffffff" stroke="#000000" points="326.9102,-74.5 326.9102,-92.5 434.6338,-92.5 434.6338,-74.5 326.9102,-74.5"/>
<text text-anchor="middle" x="380.772" y="-80.5" font-family="Helvetica,sans-Serif" font-size="10.00" fill="#000000">Personnage\xp_max</text>
</a>
</g>
</g>
<!-- Node48&#45;&gt;Node50 -->
<g id="edge5" class="edge">
<title>Node48&#45;&gt;Node50</title>
<path fill="none" stroke="#191970" d="M271.41,-83.5C286.0746,-83.5 301.7804,-83.5 316.5836,-83.5"/>
<polygon fill="#191970" stroke="#191970" points="316.6639,-87.0001 326.6639,-83.5 316.6639,-80.0001 316.6639,-87.0001"/>
</g>
<!-- Node51 -->
<g id="node7" class="node">
<title>Node51</title>
<g id="a_node7"><a xlink:href="class_personnage.html#a061130b0c1c551d893ecffff2553cb93" target="_top" xlink:title="Personnage\\niveau">
<polygon fill="#ffffff" stroke="#000000" points="329.6836,-37.5 329.6836,-55.5 431.8604,-55.5 431.8604,-37.5 329.6836,-37.5"/>
<text text-anchor="middle" x="380.772" y="-43.5" font-family="Helvetica,sans-Serif" font-size="10.00" fill="#000000">Personnage\niveau</text>
</a>
</g>
</g>
<!-- Node48&#45;&gt;Node51 -->
<g id="edge6" class="edge">
<title>Node48&#45;&gt;Node51</title>
<path fill="none" stroke="#191970" d="M252.0577,-74.4488C275.3522,-69.3907 304.5792,-63.0444 329.2926,-57.6781"/>
<polygon fill="#191970" stroke="#191970" points="330.1936,-61.0641 339.2232,-55.5218 328.7082,-54.2235 330.1936,-61.0641"/>
</g>
<!-- Node53 -->
<g id="node9" class="node">
<title>Node53</title>
<g id="a_node9"><a xlink:href="class_personnage.html#addeceec710baf3ae687f36151bc5def4" target="_top" xlink:title="Personnage\\etat">
<polygon fill="#ffffff" stroke="#000000" points="336.0776,-.5 336.0776,-18.5 425.4663,-18.5 425.4663,-.5 336.0776,-.5"/>
<text text-anchor="middle" x="380.772" y="-6.5" font-family="Helvetica,sans-Serif" font-size="10.00" fill="#000000">Personnage\etat</text>
</a>
</g>
</g>
<!-- Node52&#45;&gt;Node53 -->
<g id="edge8" class="edge">
<title>Node52&#45;&gt;Node53</title>
<path fill="none" stroke="#191970" d="M280.6649,-20.6623C295.7141,-18.9842 311.4038,-17.2348 325.7763,-15.6322"/>
<polygon fill="#191970" stroke="#191970" points="326.4304,-19.0811 335.9809,-14.4944 325.6546,-12.1242 326.4304,-19.0811"/>
</g>
</g>
</svg>
