<?xml version="1.0" encoding="UTF-8" standalone="no"?>
<!DOCTYPE svg PUBLIC "-//W3C//DTD SVG 1.1//EN"
 "http://www.w3.org/Graphics/SVG/1.1/DTD/svg11.dtd">
<!-- Generated by graphviz version 2.40.1 (20161225.0304)
 -->
<!-- Title: if Pages: 1 -->
<svg width="169pt" height="64pt"
 viewBox="0.00 0.00 169.05 64.00" xmlns="http://www.w3.org/2000/svg" xmlns:xlink="http://www.w3.org/1999/xlink">
<g id="graph0" class="graph" transform="scale(1 1) rotate(0) translate(4 60)">
<title>if</title>
<polygon fill="#ffffff" stroke="transparent" points="-4,4 -4,-60 165.0537,-60 165.0537,4 -4,4"/>
<!-- Node4 -->
<g id="node1" class="node">
<title>Node4</title>
<polygon fill="#bfbfbf" stroke="#000000" points="0,-18.5 0,-36.5 29,-36.5 29,-18.5 0,-18.5"/>
<text text-anchor="middle" x="14.5" y="-24.5" font-family="Helvetica,sans-Serif" font-size="10.00" fill="#000000">if</text>
</g>
<!-- Node5 -->
<g id="node2" class="node">
<title>Node5</title>
<g id="a_node2"><a xlink:href="jquery_8mb_8ytplayer_8min_8js.html#ae1976c710322698bf531f1e81ede346e" target="_top" xlink:title="isTouchSupported">
<polygon fill="#ffffff" stroke="#000000" points="65,-37.5 65,-55.5 161.0537,-55.5 161.0537,-37.5 65,-37.5"/>
<text text-anchor="middle" x="113.0269" y="-43.5" font-family="Helvetica,sans-Serif" font-size="10.00" fill="#000000">isTouchSupported</text>
</a>
</g>
</g>
<!-- Node4&#45;&gt;Node5 -->
<g id="edge1" class="edge">
<title>Node4&#45;&gt;Node5</title>
<path fill="none" stroke="#191970" d="M29.038,-30.3035C36.5831,-31.7585 46.3393,-33.6399 56.5175,-35.6027"/>
<polygon fill="#191970" stroke="#191970" points="55.8649,-39.0412 66.3467,-37.4982 57.1904,-32.1679 55.8649,-39.0412"/>
</g>
<!-- Node6 -->
<g id="node3" class="node">
<title>Node6</title>
<g id="a_node3"><a xlink:href="jquery_8mb_8ytplayer_8min_8js.html#a36e1d9590df1098e37cde16fcd206597" target="_top" xlink:title="isNaN">
<polygon fill="#ffffff" stroke="#000000" points="91.4136,-.5 91.4136,-18.5 134.6401,-18.5 134.6401,-.5 91.4136,-.5"/>
<text text-anchor="middle" x="113.0269" y="-6.5" font-family="Helvetica,sans-Serif" font-size="10.00" fill="#000000">isNaN</text>
</a>
</g>
</g>
<!-- Node4&#45;&gt;Node6 -->
<g id="edge2" class="edge">
<title>Node4&#45;&gt;Node6</title>
<path fill="none" stroke="#191970" d="M29.038,-24.844C42.7306,-22.3425 63.7053,-18.5106 81.2682,-15.302"/>
<polygon fill="#191970" stroke="#191970" points="81.9256,-18.7399 91.1338,-13.4997 80.6676,-11.8539 81.9256,-18.7399"/>
</g>
</g>
</svg>
