<?xml version="1.0" encoding="UTF-8" standalone="no"?>
<!DOCTYPE svg PUBLIC "-//W3C//DTD SVG 1.1//EN"
 "http://www.w3.org/Graphics/SVG/1.1/DTD/svg11.dtd">
<!-- Generated by graphviz version 2.40.1 (20161225.0304)
 -->
<!-- Title: initTabs Pages: 1 -->
<svg width="145pt" height="64pt"
 viewBox="0.00 0.00 144.93 64.00" xmlns="http://www.w3.org/2000/svg" xmlns:xlink="http://www.w3.org/1999/xlink">
<g id="graph0" class="graph" transform="scale(1 1) rotate(0) translate(4 60)">
<title>initTabs</title>
<polygon fill="#ffffff" stroke="transparent" points="-4,4 -4,-60 140.9307,-60 140.9307,4 -4,4"/>
<!-- Node4 -->
<g id="node1" class="node">
<title>Node4</title>
<polygon fill="#bfbfbf" stroke="#000000" points="0,-18.5 0,-36.5 49.9063,-36.5 49.9063,-18.5 0,-18.5"/>
<text text-anchor="middle" x="24.9531" y="-24.5" font-family="Helvetica,sans-Serif" font-size="10.00" fill="#000000">initTabs</text>
</g>
<!-- Node5 -->
<g id="node2" class="node">
<title>Node5</title>
<g id="a_node2"><a xlink:href="mbr-tabs_8js.html#ae1ae0567f2c81326a72d5e96ab64f53d" target="_top" xlink:title="if">
<polygon fill="#ffffff" stroke="#000000" points="96.9185,-37.5 96.9185,-55.5 125.9185,-55.5 125.9185,-37.5 96.9185,-37.5"/>
<text text-anchor="middle" x="111.4185" y="-43.5" font-family="Helvetica,sans-Serif" font-size="10.00" fill="#000000">if</text>
</a>
</g>
</g>
<!-- Node4&#45;&gt;Node5 -->
<g id="edge1" class="edge">
<title>Node4&#45;&gt;Node5</title>
<path fill="none" stroke="#191970" d="M59.955,-35.1914C72.7972,-38.0133 86.6456,-41.0564 96.7386,-43.2742"/>
<polygon fill="#191970" stroke="#191970" points="60.4807,-31.7234 49.9625,-32.9956 58.9783,-38.5603 60.4807,-31.7234"/>
</g>
<!-- Node6 -->
<g id="node3" class="node">
<title>Node6</title>
<g id="a_node3"><a xlink:href="script_8js.html#a51277737cf4c8053ab3ff22e514bb53d" target="_top" xlink:title="function">
<polygon fill="#ffffff" stroke="#000000" points="85.9063,-.5 85.9063,-18.5 136.9307,-18.5 136.9307,-.5 85.9063,-.5"/>
<text text-anchor="middle" x="111.4185" y="-6.5" font-family="Helvetica,sans-Serif" font-size="10.00" fill="#000000">function</text>
</a>
</g>
</g>
<!-- Node4&#45;&gt;Node6 -->
<g id="edge2" class="edge">
<title>Node4&#45;&gt;Node6</title>
<path fill="none" stroke="#191970" d="M59.8647,-20.2323C68.5579,-18.4225 77.7176,-16.5157 85.8653,-14.8196"/>
<polygon fill="#191970" stroke="#191970" points="59.0392,-16.829 49.9625,-22.2937 60.4659,-23.682 59.0392,-16.829"/>
</g>
</g>
</svg>
