<?xml version="1.0" encoding="UTF-8" standalone="no"?>
<!DOCTYPE svg PUBLIC "-//W3C//DTD SVG 1.1//EN"
 "http://www.w3.org/Graphics/SVG/1.1/DTD/svg11.dtd">
<!-- Generated by graphviz version 2.40.1 (20161225.0304)
 -->
<!-- Title: function Pages: 1 -->
<svg width="145pt" height="64pt"
 viewBox="0.00 0.00 144.93 64.00" xmlns="http://www.w3.org/2000/svg" xmlns:xlink="http://www.w3.org/1999/xlink">
<g id="graph0" class="graph" transform="scale(1 1) rotate(0) translate(4 60)">
<title>function</title>
<polygon fill="#ffffff" stroke="transparent" points="-4,4 -4,-60 140.9307,-60 140.9307,4 -4,4"/>
<!-- Node2 -->
<g id="node1" class="node">
<title>Node2</title>
<polygon fill="#bfbfbf" stroke="#000000" points="0,-18.5 0,-36.5 51.0244,-36.5 51.0244,-18.5 0,-18.5"/>
<text text-anchor="middle" x="25.5122" y="-24.5" font-family="Helvetica,sans-Serif" font-size="10.00" fill="#000000">function</text>
</g>
<!-- Node3 -->
<g id="node2" class="node">
<title>Node3</title>
<g id="a_node2"><a xlink:href="add__perso_8js.html#a8403e101b50431006cc87f39c690240c" target="_top" xlink:title="ready">
<polygon fill="#ffffff" stroke="#000000" points="91.4702,-37.5 91.4702,-55.5 132.4849,-55.5 132.4849,-37.5 91.4702,-37.5"/>
<text text-anchor="middle" x="111.9775" y="-43.5" font-family="Helvetica,sans-Serif" font-size="10.00" fill="#000000">ready</text>
</a>
</g>
</g>
<!-- Node2&#45;&gt;Node3 -->
<g id="edge1" class="edge">
<title>Node2&#45;&gt;Node3</title>
<path fill="none" stroke="#191970" d="M51.4547,-33.2006C60.906,-35.2775 71.6773,-37.6444 81.4874,-39.8001"/>
<polygon fill="#191970" stroke="#191970" points="80.7488,-43.2212 91.2669,-41.949 82.2512,-36.3843 80.7488,-43.2212"/>
</g>
<!-- Node4 -->
<g id="node3" class="node">
<title>Node4</title>
<g id="a_node3"><a xlink:href="mbr-tabs_8js.html#a69afcf4dc9877d14c0fbbd13d9df4ac3" target="_top" xlink:title="initTabs">
<polygon fill="#ffffff" stroke="#000000" points="87.0244,-.5 87.0244,-18.5 136.9307,-18.5 136.9307,-.5 87.0244,-.5"/>
<text text-anchor="middle" x="111.9775" y="-6.5" font-family="Helvetica,sans-Serif" font-size="10.00" fill="#000000">initTabs</text>
</a>
</g>
</g>
<!-- Node2&#45;&gt;Node4 -->
<g id="edge2" class="edge">
<title>Node2&#45;&gt;Node4</title>
<path fill="none" stroke="#191970" d="M51.4547,-22.0994C59.4471,-20.4356 68.3835,-18.5752 76.8843,-16.8056"/>
<polygon fill="#191970" stroke="#191970" points="77.8678,-20.1759 86.9446,-14.7113 76.4411,-13.3229 77.8678,-20.1759"/>
</g>
</g>
</svg>
